<svg width="101" height="203" viewBox="0 0 101 203" fill="none" xmlns="http://www.w3.org/2000/svg">
<path d="M51.5 17L64 11L76.5 7.5L89 4.5H101V199L88.5 197.5L74.5 194.5L63 190.5L51.5 185V17Z" fill="#A53522"/>
<mask id="mask0_7_275" style="mask-type:luminance" maskUnits="userSpaceOnUse" x="0" y="0" width="101" height="203">
<path d="M0 0H101V202.447H0V0Z" fill="white"/>
</mask>
<g mask="url(#mask0_7_275)">
<path d="M194.503 61.8468C189.392 49.812 182.096 38.9848 172.804 29.6925C163.511 20.4003 152.684 13.1041 140.649 7.99351C128.151 2.6957 114.909 0 101.248 0C87.587 0 74.3448 2.6957 61.8444 7.94671C49.812 13.0573 38.9848 20.3535 29.6925 29.6457C20.398 38.938 13.1041 49.7652 7.99351 61.8C2.6957 74.298 0 87.5402 0 101.248C0 114.909 2.6957 128.151 7.94671 140.649C13.0573 152.684 20.3535 163.511 29.6457 172.804C38.938 182.096 49.7652 189.392 61.8 194.503C74.298 199.8 87.5402 202.447 101.201 202.447C114.862 202.447 128.104 199.754 140.603 194.503C152.637 189.392 163.465 182.096 172.757 172.804C182.049 163.511 189.345 152.684 194.456 140.649C199.754 128.151 202.402 114.909 202.402 101.248C202.447 87.5402 199.754 74.298 194.503 61.8468ZM197.94 101.945H188.926L176.613 89.6322V79.7807H195.572C197.151 86.658 197.94 93.8606 197.94 101.248C197.987 101.48 197.94 101.711 197.94 101.945ZM194.734 126.153H176.613V116.301L188.926 103.988H197.94C197.708 111.656 196.592 119.091 194.734 126.153ZM190.74 137.956H176.566V128.198H194.177C193.202 131.542 192.041 134.795 190.74 137.956ZM177.729 160.444H164.766V151.802H176.566V139.999H189.902C186.649 147.342 182.561 154.217 177.729 160.444ZM191.344 65.9348H176.566V54.1317H164.766V45.49H180.331C184.745 51.8104 188.463 58.6386 191.344 65.9348ZM162.72 137.956V149.757H153.566V128.198H174.523V137.956H162.72ZM174.523 139.999V149.757H164.766V139.999H174.523ZM174.568 79.7807V89.6322L162.21 101.992H153.519V79.8275H174.568V79.7807ZM153.566 126.153V103.988H162.255L174.615 116.348V126.2H153.566V126.153ZM175.591 113.887L164.672 102.968L175.591 92.0471L186.511 102.968L175.591 113.887ZM153.566 77.7355V56.1769H162.72V67.98H174.523V77.7355H153.566ZM164.766 65.9348V56.1769H174.523V65.9348H164.766ZM162.72 54.1317H153.566V45.49H162.72V54.1317ZM153.566 43.4448V19.841C156.728 21.8862 159.793 24.1163 162.72 26.5335V43.4448H153.566ZM153.566 162.489H162.72V175.916C159.793 178.333 156.772 180.563 153.566 182.608V162.489ZM153.566 160.444V151.802H162.72V160.444H153.566ZM195.106 77.7355H176.566V67.98H191.575C191.76 67.98 191.947 67.9332 192.085 67.8396C193.248 71.0454 194.271 74.3916 195.106 77.7355ZM178.843 43.4448H164.766V28.2511C169.97 32.8048 174.708 37.9154 178.843 43.4448ZM12.594 139.999H25.9274V151.802H37.7305V160.444H24.72C19.8878 154.217 15.7998 147.342 12.594 139.999ZM13.523 103.988L25.8362 116.301V126.153H7.71505C5.80793 119.044 4.69408 111.61 4.50688 103.988H13.523ZM22.1179 45.49H37.6837V54.1317H25.883V65.9348H11.1057C13.9863 58.6386 17.7046 51.8104 22.1179 45.49ZM27.9258 139.999H37.6837V149.757H27.9258V139.999ZM27.9258 137.956V128.198H48.8807V149.757H39.7289V137.956H27.9258ZM48.8807 79.7807V101.945H40.1922L27.879 89.6322V79.7807H48.8807ZM40.1922 103.988H48.8807V126.153H27.879V116.301L40.1922 103.988ZM48.8807 54.1317H39.7289V45.49H48.8807V54.1317ZM27.9258 56.1769H37.6837V65.9348H27.9258V56.1769ZM39.7289 67.98V56.1769H48.8807V77.7355H27.9258V67.98H39.7289ZM26.8564 92.0471L37.7773 102.968L26.8564 113.887L15.9379 102.968L26.8564 92.0471ZM25.883 128.198V137.956H11.7095C10.4084 134.795 9.24776 131.542 8.31878 128.198H25.883ZM39.7289 151.802H48.8807V160.444H39.7289V151.802ZM48.8807 162.489V182.608C45.7217 180.563 42.6562 178.333 39.7289 175.916V162.489H48.8807ZM48.8807 43.4448H39.7289V26.5335C42.6562 24.1163 45.6749 21.8862 48.8807 19.841V43.4448ZM37.6837 28.2511V43.4448H23.6061C27.741 37.9154 32.4795 32.8048 37.6837 28.2511ZM10.4084 67.8396C10.5488 67.9332 10.7337 67.98 10.9209 67.98H25.9274V77.7355H7.34299C8.17837 74.3916 9.20096 71.0454 10.4084 67.8396ZM6.87732 79.7807H25.8362V89.6322L13.523 101.945H4.50688C4.50688 101.711 4.50688 101.433 4.50688 101.201C4.46242 93.8606 5.29781 86.658 6.87732 79.7807ZM26.3463 162.489H37.6837V174.198C33.5957 170.62 29.7838 166.717 26.3463 162.489ZM101.248 197.987C83.3118 197.987 66.5385 193.108 52.1333 184.607C52.1333 184.513 52.1333 184.466 52.1333 184.373V18.0767C52.1333 17.9831 52.1333 17.9363 52.1333 17.8427C66.5385 9.34137 83.3118 4.46242 101.248 4.46242C119.182 4.46242 135.958 9.34137 150.36 17.8427C150.36 17.9363 150.36 17.9831 150.36 18.0767V184.373C150.36 184.466 150.36 184.513 150.36 184.607C135.958 193.108 119.138 197.987 101.248 197.987ZM164.766 174.198V162.489H176.103C172.663 166.717 168.854 170.62 164.766 174.198Z" fill="#8C6239"/>
</g>
</svg>
