<svg width="101" height="203" viewBox="0 0 101 203" fill="none" xmlns="http://www.w3.org/2000/svg">
<path d="M48.5 16.5L36 10.5L23.5 7L11 4H0V198H11.5L25.5 195L37 190L48.5 184.5V16.5Z" fill="#3E80B1"/>
<mask id="mask0_11_377" style="mask-type:luminance" maskUnits="userSpaceOnUse" x="0" y="0" width="101" height="203">
<path d="M0 0H101V202.452H0V0Z" fill="white"/>
</mask>
<g mask="url(#mask0_11_377)">
<path d="M-95.0993 61.8482C-89.9886 49.8132 -82.6946 38.9857 -73.3998 29.6932C-64.1073 20.4008 -53.2798 13.1044 -41.2471 7.9937C-28.7465 2.69577 -15.504 0 -1.8426 0C11.8188 0 25.0613 2.69577 37.5596 7.9469C49.5946 13.0576 60.4198 20.354 69.7146 29.6464C79.007 38.9389 86.3034 49.7664 91.4141 61.8014C96.7097 74.2997 99.4055 87.5422 99.4055 101.25C99.4055 114.912 96.7097 128.154 91.4609 140.653C86.3478 152.688 79.0538 163.515 69.7614 172.808C60.4666 182.1 49.6414 189.396 37.6064 194.507C25.1081 199.805 11.8632 202.452 -1.7958 202.452C-15.4572 202.452 -28.6997 199.758 -41.2003 194.507C-53.2353 189.396 -64.0605 182.1 -73.3553 172.808C-82.6478 163.515 -89.9418 152.688 -95.0548 140.653C-100.35 128.154 -102.999 114.912 -102.999 101.25C-103.046 87.5422 -100.35 74.2997 -95.0993 61.8482ZM-98.5392 101.948H-89.5252L-77.2118 89.6343V79.7825H-96.1687C-97.7483 86.66 -98.5392 93.8628 -98.5392 101.25C-98.586 101.482 -98.5392 101.714 -98.5392 101.948ZM-95.3333 126.156H-77.2118V116.304L-89.5252 103.991H-98.5392C-98.3052 111.659 -97.1913 119.093 -95.3333 126.156ZM-91.3365 137.959H-77.165V128.201H-94.774C-93.7982 131.545 -92.6375 134.798 -91.3365 137.959ZM-78.3256 160.447H-65.3616V151.805H-77.165V140.002H-90.5011C-87.2484 147.345 -83.1579 154.22 -78.3256 160.447ZM-91.9402 65.9363H-77.165V54.133H-65.3616V45.4911H-80.9278C-85.3412 51.8116 -89.0596 58.64 -91.9402 65.9363ZM-63.3164 137.959V149.76H-54.1644V128.201H-75.1197V137.959H-63.3164ZM-75.1197 140.002V149.76H-65.3616V140.002H-75.1197ZM-75.1665 79.7825V89.6343L-62.8063 101.995H-54.1176V79.8293H-75.1665V79.7825ZM-54.1644 126.156V103.991H-62.8531L-75.2133 116.351V126.203H-54.1644V126.156ZM-76.1892 113.889L-65.268 102.97L-76.1892 92.0492L-87.1079 102.97L-76.1892 113.889ZM-54.1644 77.7373V56.1782H-63.3164V67.9815H-75.1197V77.7373H-54.1644ZM-65.3616 65.9363V56.1782H-75.1197V65.9363H-65.3616ZM-63.3164 54.133H-54.1644V45.4911H-63.3164V54.133ZM-54.1644 43.4458V19.8415C-57.3235 21.8867 -60.3913 24.1168 -63.3164 26.5341V43.4458H-54.1644ZM-54.1644 162.493H-63.3164V175.92C-60.3913 178.337 -57.3703 180.567 -54.1644 182.612V162.493ZM-54.1644 160.447V151.805H-63.3164V160.447H-54.1644ZM-95.703 77.7373H-77.165V67.9815H-92.1719C-92.3591 67.9815 -92.5439 67.9347 -92.6843 67.8411C-93.845 71.047 -94.8676 74.3933 -95.703 77.7373ZM-79.4419 43.4458H-65.3616V28.2517C-70.566 32.8055 -75.3046 37.9162 -79.4419 43.4458ZM86.8135 140.002H73.4774V151.805H61.6764V160.447H74.6849C79.5195 154.22 83.6076 147.345 86.8135 140.002ZM85.8845 103.991L73.571 116.304V126.156H91.6926C93.5974 119.047 94.7136 111.612 94.8985 103.991H85.8845ZM77.2871 45.4911H61.7209V54.133H73.5242V65.9363H88.2995C85.4188 58.64 81.7028 51.8116 77.2871 45.4911ZM71.479 140.002H61.7209V149.76H71.479V140.002ZM71.479 137.959V128.201H50.5236V149.76H59.678V137.959H71.479ZM50.5236 79.7825V101.948H59.2123L71.5258 89.6343V79.7825H50.5236ZM59.2123 103.991H50.5236V126.156H71.5258V116.304L59.2123 103.991ZM50.5236 54.133H59.678V45.4911H50.5236V54.133ZM71.479 56.1782H61.7209V65.9363H71.479V56.1782ZM59.678 67.9815V56.1782H50.5236V77.7373H71.479V67.9815H59.678ZM72.5484 92.0492L61.6296 102.97L72.5484 113.889L83.4672 102.97L72.5484 92.0492ZM73.5242 128.201V137.959H87.6957C88.9968 134.798 90.1598 131.545 91.0888 128.201H73.5242ZM59.678 151.805H50.5236V160.447H59.678V151.805ZM50.5236 162.493V182.612C53.6827 180.567 56.7506 178.337 59.678 175.92V162.493H50.5236ZM50.5236 43.4458H59.678V26.5341C56.7506 24.1168 53.7295 21.8867 50.5236 19.8415V43.4458ZM61.7209 28.2517V43.4458H75.8011C71.6662 37.9162 66.9252 32.8055 61.7209 28.2517ZM88.9968 67.8411C88.8587 67.9347 88.6715 67.9815 88.4867 67.9815H73.4774V77.7373H92.0646C91.2269 74.3933 90.2066 71.047 88.9968 67.8411ZM92.528 79.7825H73.571V89.6343L85.8845 101.948H94.8985C94.8985 101.714 94.8985 101.435 94.8985 101.204C94.9453 93.8628 94.1075 86.66 92.528 79.7825ZM73.0585 162.493H61.7209V174.202C65.8113 170.624 69.621 166.721 73.0585 162.493ZM-1.8426 197.991C16.0917 197.991 32.8677 193.112 47.2709 184.611C47.2709 184.517 47.2709 184.47 47.2709 184.377V18.0771C47.2709 17.9835 47.2709 17.9367 47.2709 17.8431C32.8677 9.34158 16.0917 4.46252 -1.8426 4.46252C-19.7793 4.46252 -36.553 9.34158 -50.9585 17.8431C-50.9585 17.9367 -50.9585 17.9835 -50.9585 18.0771V184.377C-50.9585 184.47 -50.9585 184.517 -50.9585 184.611C-36.553 193.112 -19.7325 197.991 -1.8426 197.991ZM-65.3616 174.202V162.493H-76.6993C-73.2617 166.721 -69.4521 170.624 -65.3616 174.202Z" fill="#8C6239"/>
</g>
</svg>
