<svg width="90" height="46" viewBox="0 0 90 46" fill="none" xmlns="http://www.w3.org/2000/svg">
<mask id="mask0_437_36719" style="mask-type:luminance" maskUnits="userSpaceOnUse" x="-16" y="0" width="106" height="46">
<path d="M-15.9999 0.830566H89.7866V45.0692H-15.9999V0.830566Z" fill="white"/>
</mask>
<g mask="url(#mask0_437_36719)">
<mask id="mask1_437_36719" style="mask-type:luminance" maskUnits="userSpaceOnUse" x="-15" y="1" width="105" height="44">
<path d="M89.3682 1.19629H-14.9852V44.3929H89.3682V1.19629Z" fill="white"/>
</mask>
<g mask="url(#mask1_437_36719)">
<path d="M-11.5538 25.8871H36.8332C37.0372 25.8871 37.2359 25.8662 37.4347 25.8269C37.6309 25.7877 37.8244 25.73 38.0101 25.6515C38.1958 25.5756 38.3736 25.4787 38.541 25.3661C38.7084 25.2535 38.8627 25.1278 39.0066 24.9838C39.1478 24.8398 39.2759 24.6854 39.3884 24.5178C39.5009 24.3502 39.595 24.1722 39.6709 23.9863C39.7493 23.7977 39.8069 23.6066 39.8461 23.4076C39.8853 23.2086 39.9062 23.0096 39.9062 22.808C39.9062 22.6038 39.8853 22.4048 39.8461 22.2058C39.8069 22.0068 39.7493 21.8157 39.6709 21.6298C39.595 21.4413 39.5009 21.2632 39.3884 21.0957C39.2759 20.9281 39.1478 20.7736 39.0066 20.6296C38.8627 20.4856 38.7084 20.3599 38.541 20.2473C38.3736 20.1348 38.1958 20.0405 38.0101 19.962C37.8244 19.8834 37.6309 19.8258 37.4347 19.7865C37.2359 19.7472 37.0372 19.7263 36.8332 19.7263H23.9002C23.6988 19.7263 23.5 19.7054 23.3039 19.6661C23.1051 19.6268 22.9142 19.5692 22.7285 19.4907C22.5428 19.4147 22.3649 19.3205 22.1976 19.2079C22.0302 19.0953 21.8759 18.967 21.732 18.8256C21.5908 18.6816 21.4626 18.5271 21.3502 18.3596C21.2377 18.192 21.1436 18.0139 21.0651 17.828C20.9893 17.6421 20.9291 17.451 20.8899 17.252C20.8506 17.0556 20.8297 16.854 20.8297 16.6524C20.8297 16.4508 20.848 16.2492 20.8873 16.0528C20.9291 15.8538 20.9866 15.6627 21.0651 15.4742C21.1409 15.2883 21.2351 15.1103 21.3476 14.9427C21.46 14.7751 21.5882 14.6206 21.7294 14.4766C21.8733 14.3326 22.0276 14.2069 22.1949 14.0944C22.3623 13.9818 22.5402 13.8849 22.7259 13.809C22.9116 13.7304 23.1051 13.6728 23.3012 13.6335C23.5 13.5943 23.6988 13.5733 23.9002 13.5733H26.4161C26.6175 13.5733 26.8189 13.5524 27.0151 13.5131C27.2138 13.4738 27.4048 13.4162 27.5931 13.3377C27.7788 13.2617 27.9566 13.1649 28.124 13.0523C28.2914 12.9423 28.4457 12.814 28.5895 12.67C28.7308 12.5286 28.8589 12.3715 28.9714 12.2039C29.0838 12.0364 29.178 11.8583 29.2538 11.6724C29.3323 11.4839 29.3898 11.2928 29.4291 11.0938C29.4683 10.8948 29.4892 10.6958 29.4892 10.4916C29.4892 10.29 29.4683 10.091 29.4291 9.892C29.3898 9.69301 29.3323 9.49925 29.2538 9.31336C29.178 9.12746 29.0838 8.94941 28.9714 8.78184C28.8589 8.61427 28.7308 8.45717 28.5895 8.31317C28.4457 8.17178 28.2914 8.04348 28.124 7.9309C27.9566 7.81831 27.7788 7.72405 27.5931 7.6455C27.4048 7.56957 27.2138 7.51197 27.0151 7.4727C26.8189 7.4308 26.6175 7.41247 26.4161 7.41247H-10.9471C-11.1537 7.42033 -11.3603 7.40986 -11.5643 7.37844C-11.7709 7.3444 -11.9697 7.29203 -12.1632 7.21872C-12.3594 7.14541 -12.5424 7.05377 -12.7203 6.9438C-12.8955 6.83121 -13.0577 6.70554 -13.2067 6.56153C-13.3584 6.41752 -13.4918 6.26043 -13.6095 6.08762C-13.7272 5.91743 -13.8266 5.73677 -13.9103 5.54563C-13.9913 5.3545 -14.0515 5.15551 -14.0933 4.9539C-14.1352 4.74967 -14.1561 4.54283 -14.1561 4.33598C-14.1561 4.12652 -14.1352 3.92229 -14.0933 3.71807C-14.0515 3.51384 -13.9913 3.31747 -13.9103 3.12371C-13.8266 2.93258 -13.7272 2.75192 -13.6095 2.58173C-13.4918 2.41154 -13.3584 2.25444 -13.2067 2.11043C-13.0577 1.96643 -12.8955 1.83813 -12.7203 1.72816C-12.5424 1.61819 -12.3594 1.52394 -12.1632 1.45062C-11.9697 1.37993 -11.7709 1.32495 -11.5643 1.29353C-11.3603 1.25949 -11.1537 1.24902 -10.9471 1.25687H54.0711C54.2777 1.24902 54.4843 1.25949 54.6883 1.29353C54.8949 1.32495 55.0937 1.37993 55.2872 1.45062C55.4808 1.52394 55.6665 1.61819 55.8417 1.72816C56.0195 1.83813 56.1817 1.96643 56.3308 2.11043C56.4799 2.25444 56.6159 2.41154 56.7335 2.58173C56.8512 2.75192 56.9506 2.93258 57.0317 3.12371C57.1154 3.31747 57.1755 3.51384 57.2174 3.71807C57.2592 3.92229 57.2802 4.12652 57.2802 4.33598C57.2802 4.54283 57.2592 4.74967 57.2174 4.9539C57.1755 5.15551 57.1154 5.3545 57.0317 5.54563C56.9506 5.73677 56.8512 5.91743 56.7335 6.08762C56.6159 6.26043 56.4799 6.41752 56.3308 6.56153C56.1817 6.70554 56.0195 6.83121 55.8417 6.9438C55.6665 7.05377 55.4808 7.14541 55.2872 7.21872C55.0937 7.29203 54.8949 7.3444 54.6883 7.37844C54.4843 7.40986 54.2777 7.42033 54.0711 7.41247H42.1973C41.9959 7.41247 41.7972 7.4308 41.5984 7.4727C41.3996 7.51197 41.2087 7.56957 41.023 7.6455C40.8347 7.72405 40.6595 7.81831 40.4921 7.9309C40.3221 8.04348 40.1678 8.17178 40.0265 8.31317C39.8827 8.45717 39.7545 8.61427 39.6421 8.78184C39.5322 8.94941 39.4355 9.12746 39.3596 9.31336C39.2812 9.49925 39.2236 9.69301 39.1844 9.892C39.1452 10.091 39.1242 10.29 39.1242 10.4916C39.1242 10.6958 39.1452 10.8948 39.1844 11.0938C39.2236 11.2928 39.2812 11.4839 39.3596 11.6724C39.4355 11.8583 39.5322 12.0364 39.6421 12.2039C39.7545 12.3715 39.8827 12.5286 40.0265 12.67C40.1678 12.814 40.3221 12.9423 40.4921 13.0523C40.6595 13.1649 40.8347 13.2617 41.023 13.3377C41.2087 13.4162 41.3996 13.4738 41.5984 13.5131C41.7972 13.5524 41.9959 13.5733 42.1973 13.5733H86.2402C86.4416 13.5733 86.6403 13.5943 86.8391 13.6335C87.0379 13.6728 87.2288 13.7304 87.4145 13.809C87.6002 13.8849 87.778 13.9818 87.9454 14.0944C88.1128 14.2069 88.2697 14.3326 88.4109 14.4766C88.5548 14.6206 88.6803 14.7751 88.7928 14.9427C88.9052 15.1103 88.9994 15.2883 89.0778 15.4742C89.1537 15.6627 89.2138 15.8538 89.2531 16.0528C89.2923 16.2492 89.3132 16.4508 89.3132 16.6524C89.3132 16.854 89.2923 17.0556 89.2531 17.252C89.2112 17.451 89.1537 17.6421 89.0752 17.828C88.9994 18.0139 88.9026 18.192 88.7902 18.3596C88.6777 18.5271 88.5522 18.6816 88.4083 18.8256C88.2671 18.967 88.1128 19.0953 87.9428 19.2079C87.7754 19.3205 87.6002 19.4147 87.4145 19.4907C87.2288 19.5692 87.0352 19.6268 86.8391 19.6661C86.6403 19.7054 86.4416 19.7263 86.2402 19.7263H52.617C52.4156 19.7263 52.2142 19.7472 52.0154 19.7865C51.8193 19.8258 51.6257 19.8834 51.44 19.962C51.2543 20.0379 51.0765 20.1348 50.9091 20.2447C50.7417 20.3573 50.5848 20.4856 50.4436 20.6296C50.2997 20.771 50.1742 20.9281 50.0617 21.0957C49.9493 21.2632 49.8551 21.4413 49.7767 21.6272C49.7008 21.8157 49.6407 22.0068 49.6014 22.2058C49.5622 22.4048 49.5439 22.6038 49.5439 22.808C49.5439 23.0096 49.5622 23.2086 49.6014 23.4076C49.6407 23.6066 49.7008 23.7977 49.7767 23.9863C49.8551 24.1722 49.9493 24.3502 50.0617 24.5178C50.1742 24.6854 50.2997 24.8424 50.4436 24.9838C50.5848 25.1278 50.7417 25.2561 50.9091 25.3687C51.0765 25.4813 51.2543 25.5756 51.44 25.6515C51.6257 25.73 51.8193 25.7877 52.0154 25.8269C52.2142 25.8662 52.4156 25.8871 52.617 25.8871H52.8393C53.0485 25.8767 53.2551 25.8898 53.4591 25.9212C53.6631 25.9552 53.8645 26.0076 54.058 26.0809C54.2516 26.1542 54.4372 26.2459 54.6125 26.3558C54.7877 26.4684 54.9499 26.5941 55.1016 26.7381C55.2506 26.8821 55.384 27.0392 55.5017 27.2094C55.622 27.3822 55.7214 27.5629 55.8025 27.754C55.8835 27.9451 55.9463 28.1415 55.9882 28.3457C56.03 28.5499 56.0483 28.7568 56.0483 28.9636C56.0483 29.1731 56.03 29.3773 55.9882 29.5816C55.9463 29.7858 55.8835 29.9822 55.8025 30.1733C55.7214 30.3644 55.622 30.5477 55.5017 30.7179C55.384 30.8881 55.2506 31.0452 55.1016 31.1892C54.9499 31.3332 54.7877 31.4615 54.6125 31.5715C54.4372 31.6814 54.2516 31.7731 54.058 31.8464C53.8645 31.9197 53.6631 31.9747 53.4591 32.0061C53.2551 32.0375 53.0485 32.0506 52.8393 32.0401H17.992C17.7907 32.0401 17.5919 32.0611 17.3931 32.1004C17.1944 32.1396 17.0034 32.1998 16.8177 32.2758C16.632 32.3543 16.4542 32.4486 16.2868 32.5612C16.1194 32.6738 15.9625 32.8021 15.8213 32.9434C15.6801 33.0875 15.5519 33.2419 15.4394 33.4121C15.327 33.5797 15.2328 33.7577 15.157 33.9436C15.0785 34.1295 15.021 34.3233 14.9818 34.5197C14.9425 34.7186 14.9216 34.9203 14.9216 35.1219C14.9216 35.3235 14.9425 35.5225 14.9818 35.7215C15.021 35.9204 15.0785 36.1116 15.157 36.3001C15.2328 36.486 15.327 36.664 15.4394 36.8316C15.5519 36.9992 15.6801 37.1563 15.8213 37.2977C15.9625 37.4417 16.1194 37.57 16.2868 37.6826C16.4542 37.7925 16.632 37.8894 16.8177 37.9653C17.0034 38.0439 17.1944 38.1015 17.3931 38.1408C17.5919 38.1826 17.7907 38.201 17.992 38.201H33.7497C33.9563 38.1931 34.1629 38.2036 34.3669 38.2376C34.5735 38.2691 34.7723 38.3214 34.9658 38.3947C35.162 38.468 35.345 38.5597 35.5203 38.6723C35.6981 38.7822 35.8603 38.9079 36.0093 39.0519C36.161 39.1959 36.2944 39.353 36.4121 39.5258C36.5298 39.696 36.6292 39.8767 36.7129 40.0678C36.7939 40.259 36.8541 40.4579 36.8959 40.6622C36.9378 40.8638 36.9587 41.0706 36.9587 41.2775C36.9587 41.4869 36.9378 41.6938 36.8959 41.8954C36.8541 42.0996 36.7939 42.2986 36.7129 42.4897C36.6292 42.6809 36.5298 42.8615 36.4121 43.0317C36.2944 43.2045 36.161 43.3616 36.0093 43.5056C35.8603 43.647 35.6981 43.7753 35.5203 43.8853C35.345 43.9979 35.162 44.0895 34.9658 44.1628C34.7723 44.2361 34.5735 44.2885 34.3669 44.3199C34.1629 44.354 33.9563 44.3644 33.7497 44.3566H2.06966C1.86304 44.3644 1.65643 44.354 1.45242 44.3199C1.24843 44.2885 1.04704 44.2361 0.853508 44.1628C0.659966 44.0895 0.474281 43.9979 0.299049 43.8853C0.123817 43.7753 -0.0383377 43.647 -0.190025 43.5056C-0.339104 43.3616 -0.472488 43.2045 -0.592796 43.0317C-0.710487 42.8615 -0.809868 42.6809 -0.890945 42.4897C-0.972023 42.2986 -1.03479 42.0996 -1.07664 41.8954C-1.11848 41.6938 -1.1394 41.4869 -1.1394 41.2775C-1.1394 41.0706 -1.11848 40.8638 -1.07664 40.6622C-1.03479 40.4579 -0.972023 40.259 -0.890945 40.0678C-0.809868 39.8767 -0.710487 39.696 -0.592796 39.5258C-0.472488 39.353 -0.339104 39.1959 -0.190025 39.0519C-0.0383377 38.9079 0.123817 38.7822 0.299049 38.6723C0.474281 38.5597 0.659966 38.468 0.853508 38.3947C1.04704 38.3214 1.24843 38.2691 1.45242 38.2376C1.65643 38.2036 1.86304 38.1931 2.06966 38.201H4.0338C4.23518 38.201 4.43657 38.1826 4.63534 38.1434C4.83149 38.1041 5.02502 38.0465 5.21072 37.9679C5.39902 37.8894 5.57426 37.7951 5.74426 37.6826C5.91164 37.57 6.06594 37.4443 6.20979 37.3003C6.35102 37.1563 6.47917 37.0018 6.59164 36.8342C6.70409 36.664 6.79825 36.4886 6.87671 36.3001C6.95255 36.1142 7.01271 35.9204 7.05194 35.7215C7.09117 35.5251 7.10947 35.3235 7.10947 35.1219C7.10947 34.9203 7.09117 34.7186 7.05194 34.5197C7.01271 34.3207 6.95255 34.1295 6.87671 33.941C6.79825 33.7551 6.70409 33.5771 6.59164 33.4095C6.47917 33.2419 6.35102 33.0848 6.20979 32.9434C6.06594 32.7994 5.91164 32.6711 5.74426 32.5586C5.57426 32.446 5.39902 32.3517 5.21072 32.2758C5.02502 32.1972 4.83149 32.1396 4.63534 32.1004C4.43657 32.0611 4.23518 32.0401 4.0338 32.0401H-11.5643C-11.7735 32.0506 -11.9775 32.0375 -12.1841 32.0061C-12.3881 31.9747 -12.5895 31.9197 -12.783 31.8464C-12.9766 31.7731 -13.1623 31.6814 -13.3375 31.5715C-13.5127 31.4615 -13.6749 31.3332 -13.8266 31.1892C-13.9757 31.0452 -14.109 30.8881 -14.2267 30.7179C-14.347 30.5477 -14.4464 30.3644 -14.5275 30.1733C-14.6086 29.9822 -14.6713 29.7858 -14.7132 29.5816C-14.7524 29.3773 -14.7733 29.1731 -14.7733 28.9636C-14.7733 28.7568 -14.7524 28.5499 -14.7132 28.3457C-14.6713 28.1415 -14.6086 27.9451 -14.5275 27.754C-14.4464 27.5629 -14.347 27.3822 -14.2267 27.2094C-14.109 27.0392 -13.9757 26.8821 -13.8266 26.7381C-13.6749 26.5941 -13.5127 26.4684 -13.3375 26.3558C-13.1623 26.2459 -12.9766 26.1542 -12.783 26.0809C-12.5895 26.0076 -12.3881 25.9552 -12.1841 25.9212C-11.9775 25.8898 -11.7735 25.8767 -11.5643 25.8871H-11.5538Z" fill="#765B33"/>
</g>
<path d="M13.3628 13.5732H4.05212C3.85073 13.5732 3.65197 13.5916 3.4532 13.6308C3.25443 13.6701 3.06351 13.7303 2.87782 13.8063C2.68951 13.8848 2.51428 13.9791 2.3469 14.0917C2.1769 14.2043 2.02259 14.3299 1.87874 14.4739C1.73751 14.6153 1.60936 14.7724 1.4969 14.94C1.38705 15.1076 1.29029 15.2856 1.21444 15.4715C1.13598 15.6574 1.07844 15.8512 1.03921 16.0501C0.999978 16.2465 0.979055 16.4481 0.979055 16.6497C0.979055 16.8513 0.999978 17.053 1.03921 17.2493C1.07844 17.4483 1.13598 17.6395 1.21444 17.828C1.29029 18.0139 1.38705 18.1919 1.4969 18.3595C1.60936 18.5271 1.73751 18.6815 1.87874 18.8255C2.02259 18.9695 2.1769 19.0952 2.3469 19.2078C2.51428 19.3204 2.68951 19.4147 2.87782 19.4932C3.06351 19.5691 3.25443 19.6294 3.4532 19.6686C3.65197 19.7079 3.85073 19.7262 4.05212 19.7262H13.3628C13.5642 19.7262 13.763 19.7079 13.9618 19.6686C14.1579 19.6294 14.3515 19.5691 14.5371 19.4932C14.7228 19.4147 14.9007 19.3204 15.0681 19.2078C15.2354 19.0952 15.3924 18.9695 15.5336 18.8255C15.6774 18.6815 15.8056 18.5271 15.9154 18.3595C16.0279 18.1919 16.1247 18.0139 16.2005 17.828C16.279 17.6395 16.3365 17.4483 16.3758 17.2493C16.415 17.053 16.4333 16.8513 16.4333 16.6497C16.4333 16.4481 16.415 16.2465 16.3758 16.0501C16.3365 15.8512 16.279 15.6574 16.2005 15.4715C16.1247 15.2856 16.0279 15.1076 15.9154 14.94C15.8056 14.7724 15.6774 14.6153 15.5336 14.4739C15.3924 14.3299 15.2354 14.2043 15.0681 14.0917C14.9007 13.9791 14.7228 13.8848 14.5371 13.8063C14.3515 13.7303 14.1579 13.6701 13.9618 13.6308C13.763 13.5916 13.5642 13.5732 13.3628 13.5732Z" fill="#765B33"/>
</g>
</svg>
