<svg width="387" height="38" viewBox="0 0 387 38" fill="none" xmlns="http://www.w3.org/2000/svg">
<mask id="mask0_436_18887" style="mask-type:luminance" maskUnits="userSpaceOnUse" x="0" y="0" width="178" height="35">
<path d="M0 0H177.627V34.4941H0V0Z" fill="white"/>
</mask>
<g mask="url(#mask0_436_18887)">
<path d="M83.967 9.15805C83.6164 8.94169 83.2582 8.71262 82.8999 8.46318L83.967 9.15805ZM83.967 9.15805C87.1177 11.1052 90.1083 11.9706 95.5329 13.5258C102.624 15.5595 108.395 15.9515 110.689 16.0533C123.853 16.6489 124.501 12.3422 133.43 13.5258C141.621 14.6076 139.881 18.0743 154.902 23.0173C159.707 24.5979 163.77 25.5168 169.431 28.7086C173.107 30.783 175.874 32.9185 177.643 34.3999C108.59 34.3999 39.5303 34.3999 -29.522 34.3999C-25.7209 32.9389 -19.9735 30.6227 -13.0955 27.4385C0.198198 21.2788 1.60836 19.3189 10.2726 16.0482C23.302 11.1332 23.1953 14.4039 33.6407 9.72565C44.922 4.67066 48.4055 -0.656679 55.1133 0.870509C59.0872 1.77664 61.2393 4.40595 66.4836 4.03433C70.1525 3.77216 71.024 2.34424 74.0603 2.77186C77.6836 3.27837 78.7837 5.63024 82.8999 8.46318" fill="#1C1916"/>
</g>
<mask id="mask1_436_18887" style="mask-type:luminance" maskUnits="userSpaceOnUse" x="50" y="3" width="208" height="35">
<path d="M50.4484 3.47949H257.595V37.5943H50.4484V3.47949Z" fill="white"/>
</mask>
<g mask="url(#mask1_436_18887)">
<path d="M163.935 12.2581C163.584 12.0418 163.226 11.8127 162.87 11.5633L163.935 12.2581ZM163.935 12.2581C167.085 14.2053 170.076 15.0707 175.501 16.6259C182.595 18.6596 188.362 19.0516 190.657 19.1534C203.821 19.749 204.471 15.4423 213.4 16.6259C221.589 17.7077 219.848 21.1744 234.87 26.1174C239.675 27.698 243.737 28.6169 249.398 31.8087C253.075 33.8831 255.842 36.0186 257.61 37.5C188.558 37.5 119.501 37.5 50.4484 37.5C54.2469 36.039 59.9968 33.7228 66.8723 30.5386C80.166 24.3789 81.5762 22.419 90.2404 19.1483C103.27 14.2333 103.163 17.504 113.608 12.8257C124.892 7.77076 128.373 2.44342 135.081 3.97061C139.055 4.87674 141.207 7.50605 146.451 7.13443C150.123 6.87226 150.992 5.44434 154.028 5.87195C157.654 6.37847 158.752 8.73034 162.87 11.5633" fill="#1C1916"/>
</g>
<mask id="mask2_436_18887" style="mask-type:luminance" maskUnits="userSpaceOnUse" x="162" y="3" width="208" height="35">
<path d="M162.53 3.47949H369.679V37.5943H162.53V3.47949Z" fill="white"/>
</mask>
<g mask="url(#mask2_436_18887)">
<path d="M276.019 12.2581C275.668 12.0418 275.31 11.8127 274.952 11.5633L276.019 12.2581ZM276.019 12.2581C279.169 14.2053 282.16 15.0707 287.585 16.6259C294.676 18.6596 300.446 19.0516 302.741 19.1534C315.905 19.749 316.553 15.4423 325.481 16.6259C333.673 17.7077 331.932 21.1744 346.954 26.1174C351.756 27.698 355.821 28.6169 361.482 31.8087C365.159 33.8831 367.926 36.0186 369.694 37.5C300.642 37.5 231.582 37.5 162.53 37.5C166.331 36.039 172.078 33.7228 178.956 30.5386C192.25 24.3789 193.66 22.419 202.324 19.1483C215.354 14.2333 215.247 17.504 225.692 12.8257C236.974 7.77076 240.457 2.44342 247.165 3.97061C251.139 4.87674 253.291 7.50605 258.535 7.13443C262.204 6.87226 263.076 5.44434 266.112 5.87195C269.735 6.37847 270.836 8.73034 274.952 11.5633" fill="#1C1916"/>
</g>
<mask id="mask3_436_18887" style="mask-type:luminance" maskUnits="userSpaceOnUse" x="309" y="3" width="78" height="35">
<path d="M309.629 3.47949H387V37.5943H309.629V3.47949Z" fill="white"/>
</mask>
<g mask="url(#mask3_436_18887)">
<path d="M423.118 12.2581C422.767 12.0418 422.409 11.8127 422.051 11.5633L423.118 12.2581ZM423.118 12.2581C426.269 14.2053 429.259 15.0707 434.684 16.6259C441.775 18.6596 447.546 19.0516 449.84 19.1534C463.004 19.749 463.652 15.4423 472.58 16.6259C480.772 17.7077 479.032 21.1744 494.053 26.1174C498.858 27.698 502.921 28.6169 508.582 31.8087C512.258 33.8831 515.025 36.0186 516.794 37.5C447.741 37.5 378.684 37.5 309.629 37.5C313.43 36.039 319.177 33.7228 326.055 30.5386C339.349 24.3789 340.759 22.419 349.423 19.1483C362.453 14.2333 362.346 17.504 372.792 12.8257C384.073 7.77076 387.556 2.44342 394.264 3.97061C398.238 4.87674 400.39 7.50605 405.634 7.13443C409.306 6.87226 410.175 5.44434 413.211 5.87195C416.834 6.37847 417.935 8.73034 422.051 11.5633" fill="#1C1916"/>
</g>
</svg>
