<svg width="367" height="837" viewBox="0 0 367 837" fill="none" xmlns="http://www.w3.org/2000/svg">
<mask id="mask0_658_31" style="mask-type:luminance" maskUnits="userSpaceOnUse" x="195" y="826" width="134" height="2">
<path d="M328.079 827.273H195V826.015H328.079V827.273Z" fill="white"/>
</mask>
<g mask="url(#mask0_658_31)">
<path d="M328.079 827.237H194.803V826.318H328.079V827.237Z" fill="#C99949"/>
</g>
<mask id="mask1_658_31" style="mask-type:luminance" maskUnits="userSpaceOnUse" x="328" y="799" width="39" height="34">
<path d="M366.079 832.396H328V799H366.079V832.396Z" fill="white"/>
</mask>
<g mask="url(#mask1_658_31)">
<mask id="mask2_658_31" style="mask-type:luminance" maskUnits="userSpaceOnUse" x="356" y="799" width="1" height="23">
<path d="M356.119 821.318H356.822V799.081H356.119V821.318Z" fill="white"/>
</mask>
<g mask="url(#mask2_658_31)">
<path fill-rule="evenodd" clip-rule="evenodd" d="M357.32 799.081V821.027H355.626V799.081H357.32Z" fill="#C99949"/>
</g>
<mask id="mask3_658_31" style="mask-type:luminance" maskUnits="userSpaceOnUse" x="327" y="826" width="27" height="2">
<path d="M327 827.113H353.12V826.212H327V827.113Z" fill="white"/>
</mask>
<g mask="url(#mask3_658_31)">
<path fill-rule="evenodd" clip-rule="evenodd" d="M327.014 826.01H352.343V827.455H327.014V826.01Z" fill="#C99949"/>
</g>
<mask id="mask4_658_31" style="mask-type:luminance" maskUnits="userSpaceOnUse" x="355" y="824" width="10" height="8">
<path d="M355.764 831.543H364.649V824.405H355.764V831.543Z" fill="white"/>
</mask>
<g mask="url(#mask4_658_31)">
<path fill-rule="evenodd" clip-rule="evenodd" d="M355.626 824.092H364.858V831.978H355.626V824.092ZM357.32 825.537V830.533H363.164V825.537H357.32Z" fill="#C99949"/>
</g>
<mask id="mask5_658_31" style="mask-type:luminance" maskUnits="userSpaceOnUse" x="360" y="818" width="5" height="4">
<path d="M360.825 821.318H364.635V818.087H360.825V821.318Z" fill="white"/>
</mask>
<g mask="url(#mask5_658_31)">
<path fill-rule="evenodd" clip-rule="evenodd" d="M360.357 817.659H365.145V821.75H360.357V817.659ZM362.05 819.104V820.305H363.451V819.104H362.05Z" fill="#C99949"/>
</g>
<path fill-rule="evenodd" clip-rule="evenodd" d="M351.496 820.305H362.05V829.323H351.496V820.305ZM353.19 821.75V827.878H360.357V821.75H353.19Z" fill="#C99949"/>
<path fill-rule="evenodd" clip-rule="evenodd" d="M346.304 815.868H353.19V821.75H346.304V815.868ZM347.998 817.313V820.305H351.496V817.313H347.998Z" fill="#C99949"/>
<path fill-rule="evenodd" clip-rule="evenodd" d="M348.973 827.878H353.19V831.477H348.973V827.878ZM350.667 829.323V830.032H351.496V829.323H350.667Z" fill="#C99949"/>
</g>
<mask id="mask6_658_31" style="mask-type:luminance" maskUnits="userSpaceOnUse" x="0" y="799" width="39" height="34">
<path d="M-9.91821e-05 832.396H38.0791V799H-9.91821e-05V832.396Z" fill="white"/>
</mask>
<g mask="url(#mask6_658_31)">
<mask id="mask7_658_31" style="mask-type:luminance" maskUnits="userSpaceOnUse" x="9" y="799" width="1" height="23">
<path d="M9.95972 821.318H9.2573V799.081H9.95972V821.318Z" fill="white"/>
</mask>
<g mask="url(#mask7_658_31)">
<path fill-rule="evenodd" clip-rule="evenodd" d="M8.75957 799.081V821.027H10.4534V799.081H8.75957Z" fill="#C99949"/>
</g>
<mask id="mask8_658_31" style="mask-type:luminance" maskUnits="userSpaceOnUse" x="12" y="826" width="28" height="2">
<path d="M39.0791 827.113H12.9596V826.212H39.0791V827.113Z" fill="white"/>
</mask>
<g mask="url(#mask8_658_31)">
<path fill-rule="evenodd" clip-rule="evenodd" d="M39.0647 826.01H13.7364V827.455H39.0647V826.01Z" fill="#C99949"/>
</g>
<mask id="mask9_658_31" style="mask-type:luminance" maskUnits="userSpaceOnUse" x="1" y="824" width="10" height="8">
<path d="M10.3152 831.543H1.42963V824.405H10.3152V831.543Z" fill="white"/>
</mask>
<g mask="url(#mask9_658_31)">
<path fill-rule="evenodd" clip-rule="evenodd" d="M10.4534 824.092H1.22098V831.978H10.4534V824.092ZM8.75957 825.537V830.533H2.91478V825.537H8.75957Z" fill="#C99949"/>
</g>
<mask id="mask10_658_31" style="mask-type:luminance" maskUnits="userSpaceOnUse" x="1" y="818" width="5" height="4">
<path d="M5.25366 821.318H1.44409V818.087H5.25366V821.318Z" fill="white"/>
</mask>
<g mask="url(#mask10_658_31)">
<path fill-rule="evenodd" clip-rule="evenodd" d="M5.72241 817.659H0.933839V821.75H5.72241V817.659ZM4.02861 819.104V820.305H2.62764V819.104H4.02861Z" fill="#C99949"/>
</g>
<path fill-rule="evenodd" clip-rule="evenodd" d="M14.5833 820.305H4.02866V829.323H14.5833V820.305ZM12.8894 821.75V827.878H5.72246V821.75H12.8894Z" fill="#C99949"/>
<path fill-rule="evenodd" clip-rule="evenodd" d="M19.7749 815.868H12.8894V821.75H19.7749V815.868ZM18.0811 817.313V820.305H14.5832V817.313H18.0811Z" fill="#C99949"/>
<path fill-rule="evenodd" clip-rule="evenodd" d="M17.1057 827.878H12.8894V831.477H17.1057V827.878ZM15.4119 829.323V830.032H14.5832V829.323H15.4119Z" fill="#C99949"/>
</g>
<mask id="mask11_658_31" style="mask-type:luminance" maskUnits="userSpaceOnUse" x="9" y="35" width="1" height="378">
<path d="M10 412.798L10 35.9667H9L9 412.798H10Z" fill="white"/>
</mask>
<g mask="url(#mask11_658_31)">
<path d="M9.97144 412.798L9.97144 35.409H9.24036L9.24036 412.798H9.97144Z" fill="#C99949"/>
</g>
<mask id="mask12_658_31" style="mask-type:luminance" maskUnits="userSpaceOnUse" x="356" y="35" width="1" height="369">
<path d="M357 403.414L357 35.9666H356L356 403.414H357Z" fill="white"/>
</mask>
<g mask="url(#mask12_658_31)">
<path d="M356.971 403.414L356.971 35.4228H356.24L356.24 403.414H356.971Z" fill="#C99949"/>
</g>
<mask id="mask13_658_31" style="mask-type:luminance" maskUnits="userSpaceOnUse" x="195" y="9" width="133" height="2">
<path d="M195 9.49707H328V10.7555H195V9.49707Z" fill="white"/>
</mask>
<g mask="url(#mask13_658_31)">
<path d="M195 9.5332H328.197V10.4523H195V9.5332Z" fill="#C99949"/>
</g>
<mask id="mask14_658_31" style="mask-type:luminance" maskUnits="userSpaceOnUse" x="38" y="9" width="133" height="2">
<path d="M38 9.49707H171V10.7555H38V9.49707Z" fill="white"/>
</mask>
<g mask="url(#mask14_658_31)">
<path d="M38 9.5332H171.197V10.4523H38V9.5332Z" fill="#C99949"/>
</g>
<mask id="mask15_658_31" style="mask-type:luminance" maskUnits="userSpaceOnUse" x="0" y="4" width="39" height="34">
<path d="M-9.91821e-05 4.37402H38.0791V37.7701H-9.91821e-05V4.37402Z" fill="white"/>
</mask>
<g mask="url(#mask15_658_31)">
<mask id="mask16_658_31" style="mask-type:luminance" maskUnits="userSpaceOnUse" x="9" y="15" width="1" height="23">
<path d="M9.95972 15.4521H9.2573V37.6892H9.95972V15.4521Z" fill="white"/>
</mask>
<g mask="url(#mask16_658_31)">
<path fill-rule="evenodd" clip-rule="evenodd" d="M8.75957 37.6895V15.7432H10.4534V37.6895H8.75957Z" fill="#C99949"/>
</g>
<mask id="mask17_658_31" style="mask-type:luminance" maskUnits="userSpaceOnUse" x="12" y="9" width="28" height="2">
<path d="M39.0791 9.65723H12.9596V10.559H39.0791V9.65723Z" fill="white"/>
</mask>
<g mask="url(#mask17_658_31)">
<path fill-rule="evenodd" clip-rule="evenodd" d="M39.0647 10.7607H13.7364V9.31579H39.0647V10.7607Z" fill="#C99949"/>
</g>
<mask id="mask18_658_31" style="mask-type:luminance" maskUnits="userSpaceOnUse" x="1" y="5" width="10" height="8">
<path d="M10.3152 5.22754H1.42963V12.3655H10.3152V5.22754Z" fill="white"/>
</mask>
<g mask="url(#mask18_658_31)">
<path fill-rule="evenodd" clip-rule="evenodd" d="M10.4534 12.6787H1.22098V4.79216H10.4534V12.6787ZM8.75957 11.2338V6.23711H2.91478V11.2338H8.75957Z" fill="#C99949"/>
</g>
<mask id="mask19_658_31" style="mask-type:luminance" maskUnits="userSpaceOnUse" x="1" y="15" width="5" height="4">
<path d="M5.25366 15.4521H1.44409V18.6835H5.25366V15.4521Z" fill="white"/>
</mask>
<g mask="url(#mask19_658_31)">
<path fill-rule="evenodd" clip-rule="evenodd" d="M5.72241 19.1113H0.933839V15.0203H5.72241V19.1113ZM4.02861 17.6664V16.4652H2.62764V17.6664H4.02861Z" fill="#C99949"/>
</g>
<path fill-rule="evenodd" clip-rule="evenodd" d="M14.5833 16.4658H4.02866V7.44749H14.5833V16.4658ZM12.8894 15.0209V8.89244H5.72246V15.0209H12.8894Z" fill="#C99949"/>
<path fill-rule="evenodd" clip-rule="evenodd" d="M19.7749 20.9023H12.8894V15.0202H19.7749V20.9023ZM18.0811 19.4574V16.4651H14.5832V19.4574H18.0811Z" fill="#C99949"/>
<path fill-rule="evenodd" clip-rule="evenodd" d="M17.1057 8.89258H12.8894V5.29337H17.1057V8.89258ZM15.4119 7.44763V6.73832H14.5832V7.44763H15.4119Z" fill="#C99949"/>
</g>
<mask id="mask20_658_31" style="mask-type:luminance" maskUnits="userSpaceOnUse" x="328" y="4" width="39" height="34">
<path d="M366.079 4.37402H328V37.7701H366.079V4.37402Z" fill="white"/>
</mask>
<g mask="url(#mask20_658_31)">
<mask id="mask21_658_31" style="mask-type:luminance" maskUnits="userSpaceOnUse" x="356" y="15" width="1" height="23">
<path d="M356.119 15.4521H356.822V37.6892H356.119V15.4521Z" fill="white"/>
</mask>
<g mask="url(#mask21_658_31)">
<path fill-rule="evenodd" clip-rule="evenodd" d="M357.32 37.6895V15.7432H355.626V37.6895H357.32Z" fill="#C99949"/>
</g>
<mask id="mask22_658_31" style="mask-type:luminance" maskUnits="userSpaceOnUse" x="327" y="9" width="27" height="2">
<path d="M327 9.65723H353.12V10.559H327V9.65723Z" fill="white"/>
</mask>
<g mask="url(#mask22_658_31)">
<path fill-rule="evenodd" clip-rule="evenodd" d="M327.014 10.7607H352.343V9.31579H327.014V10.7607Z" fill="#C99949"/>
</g>
<mask id="mask23_658_31" style="mask-type:luminance" maskUnits="userSpaceOnUse" x="355" y="5" width="10" height="8">
<path d="M355.764 5.22754H364.649V12.3655H355.764V5.22754Z" fill="white"/>
</mask>
<g mask="url(#mask23_658_31)">
<path fill-rule="evenodd" clip-rule="evenodd" d="M355.626 12.6787H364.858V4.79216H355.626V12.6787ZM357.32 11.2338V6.23711H363.164V11.2338H357.32Z" fill="#C99949"/>
</g>
<mask id="mask24_658_31" style="mask-type:luminance" maskUnits="userSpaceOnUse" x="360" y="15" width="5" height="4">
<path d="M360.825 15.4521H364.635V18.6835H360.825V15.4521Z" fill="white"/>
</mask>
<g mask="url(#mask24_658_31)">
<path fill-rule="evenodd" clip-rule="evenodd" d="M360.357 19.1113H365.145V15.0203H360.357V19.1113ZM362.05 17.6664V16.4652H363.451V17.6664H362.05Z" fill="#C99949"/>
</g>
<path fill-rule="evenodd" clip-rule="evenodd" d="M351.496 16.4658H362.05V7.44749H351.496V16.4658ZM353.19 15.0209V8.89244H360.357V15.0209H353.19Z" fill="#C99949"/>
<path fill-rule="evenodd" clip-rule="evenodd" d="M346.304 20.9023H353.19V15.0202H346.304V20.9023ZM347.998 19.4574V16.4651H351.496V19.4574H347.998Z" fill="#C99949"/>
<path fill-rule="evenodd" clip-rule="evenodd" d="M348.973 8.89258H353.19V5.29337H348.973V8.89258ZM350.667 7.44763V6.73832H351.496V7.44763H350.667Z" fill="#C99949"/>
</g>
<path d="M38 826.67L171 827.275" stroke="#C99949"/>
<mask id="mask25_658_31" style="mask-type:luminance" maskUnits="userSpaceOnUse" x="9" y="236" width="1" height="563">
<path d="M10 799L10 236.689H9L9 799H10Z" fill="white"/>
</mask>
<g mask="url(#mask25_658_31)">
<path d="M9.97144 799L9.97144 235.857H9.24036L9.24036 799H9.97144Z" fill="#C99949"/>
</g>
<mask id="mask26_658_31" style="mask-type:luminance" maskUnits="userSpaceOnUse" x="356" y="236" width="1" height="569">
<path d="M357 805L357 236.688H356L356 805H357Z" fill="white"/>
</mask>
<g mask="url(#mask26_658_31)">
<path d="M356.971 805L356.971 235.847H356.24L356.24 805H356.971Z" fill="#C99949"/>
</g>
<mask id="mask27_658_31" style="mask-type:luminance" maskUnits="userSpaceOnUse" x="173" y="0" width="20" height="20">
<path d="M192.716 19.7246H173.012V0.000303268H192.716V19.7246Z" fill="white"/>
</mask>
<g mask="url(#mask27_658_31)">
<path d="M182.862 1.16988C187.661 1.16988 191.547 5.06205 191.547 9.86246C191.547 14.6629 187.661 18.5529 182.862 18.5529C178.069 18.5529 174.18 14.6629 174.18 9.86246C174.18 5.06205 178.069 1.16988 182.862 1.16988ZM182.862 19.7246C188.305 19.7246 192.716 15.3076 192.716 9.86246C192.716 4.41514 188.305 0.000303268 182.862 0.000303268C177.422 0.000303268 173.012 4.41514 173.012 9.86246C173.012 15.3076 177.422 19.7246 182.862 19.7246Z" fill="#C99949"/>
</g>
<path d="M182.864 16.8281C182.95 13.0388 186.025 9.98845 189.822 9.94347C189.779 13.7521 186.68 16.826 182.864 16.8281Z" fill="#C99949"/>
<path d="M175.905 9.94347C179.702 9.98845 182.775 13.0388 182.86 16.8281C179.047 16.826 175.948 13.7521 175.905 9.94347Z" fill="#C99949"/>
<path d="M175.905 9.78125C175.948 5.97263 179.047 2.89874 182.86 2.89659C182.775 6.68594 179.702 9.73627 175.905 9.78125Z" fill="#C99949"/>
<path d="M182.864 2.89659C186.68 2.89874 189.779 5.97263 189.822 9.78125C186.025 9.73627 182.95 6.68594 182.864 2.89659Z" fill="#C99949"/>
<path d="M182.864 16.8281C182.95 13.0388 186.025 9.98845 189.822 9.94347C189.779 13.7521 186.68 16.826 182.864 16.8281Z" fill="#C99949"/>
<path d="M182.864 3.0587C186.68 3.06084 189.779 6.13474 189.822 9.94336C186.025 9.90052 182.95 6.84805 182.864 3.0587Z" fill="#C99949"/>
<path d="M175.905 9.94336C175.948 6.13474 179.047 3.06084 182.86 3.0587C182.775 6.84805 179.702 9.90052 175.905 9.94336Z" fill="#C99949"/>
<path d="M182.86 16.8281C179.047 16.826 175.948 13.7521 175.905 9.94347C179.702 9.98845 182.775 13.0388 182.86 16.8281Z" fill="#C99949"/>
<mask id="mask28_658_31" style="mask-type:luminance" maskUnits="userSpaceOnUse" x="173" y="816" width="20" height="21">
<path d="M192.715 836.035H173.011V816.311H192.715V836.035Z" fill="white"/>
</mask>
<g mask="url(#mask28_658_31)">
<path d="M182.862 817.48C187.66 817.48 191.547 821.373 191.547 826.173C191.547 830.973 187.66 834.863 182.862 834.863C178.068 834.863 174.18 830.973 174.18 826.173C174.18 821.373 178.068 817.48 182.862 817.48ZM182.862 836.035C188.305 836.035 192.715 831.618 192.715 826.173C192.715 820.726 188.305 816.311 182.862 816.311C177.422 816.311 173.011 820.726 173.011 826.173C173.011 831.618 177.422 836.035 182.862 836.035Z" fill="#C99949"/>
</g>
<path d="M182.864 833.139C182.95 829.349 186.025 826.299 189.822 826.254C189.779 830.063 186.68 833.137 182.864 833.139Z" fill="#C99949"/>
<path d="M175.905 826.254C179.701 826.299 182.775 829.349 182.86 833.139C179.046 833.137 175.948 830.063 175.905 826.254Z" fill="#C99949"/>
<path d="M175.905 826.092C175.948 822.283 179.046 819.209 182.86 819.207C182.775 822.996 179.701 826.047 175.905 826.092Z" fill="#C99949"/>
<path d="M182.864 819.207C186.68 819.209 189.779 822.283 189.822 826.092C186.025 826.047 182.95 822.996 182.864 819.207Z" fill="#C99949"/>
<path d="M182.864 833.139C182.95 829.349 186.025 826.299 189.822 826.254C189.779 830.063 186.68 833.137 182.864 833.139Z" fill="#C99949"/>
<path d="M182.864 819.369C186.68 819.371 189.779 822.445 189.822 826.254C186.025 826.211 182.95 823.159 182.864 819.369Z" fill="#C99949"/>
<path d="M175.905 826.254C175.948 822.445 179.046 819.371 182.86 819.369C182.775 823.159 179.701 826.211 175.905 826.254Z" fill="#C99949"/>
<path d="M182.86 833.139C179.046 833.137 175.948 830.063 175.905 826.254C179.701 826.299 182.775 829.349 182.86 833.139Z" fill="#C99949"/>
</svg>
