<svg width="61" height="62" viewBox="0 0 61 62" fill="none" xmlns="http://www.w3.org/2000/svg">
<path fill-rule="evenodd" clip-rule="evenodd" d="M4.06873 23.7295C4.25169 22.9696 4.39125 22.3046 4.59158 21.6689C5.73811 18.0376 7.59179 14.8117 10.1179 11.9477C12.5705 9.17321 15.4459 6.96629 18.77 5.39173C21.6273 4.00547 24.6642 3.19883 27.8487 2.9384C30.2045 2.74876 32.5744 2.73474 34.9035 3.1414C39.5604 3.95339 43.7606 5.84179 47.4279 8.85936C51.5713 12.2749 54.6069 16.4878 56.2155 21.6461C57.0181 24.2223 57.3867 26.8967 57.5383 29.6017C57.7687 33.683 57.0428 37.5834 55.4756 41.3208C52.7058 47.9396 48.0102 52.726 41.4515 55.5726C34.5396 58.5595 27.4841 58.6476 20.42 56.0093C17.2194 54.8087 14.3708 52.921 11.8561 50.5912C10.3623 49.2049 8.99473 47.6611 7.91431 45.8876C8.35703 45.746 8.35703 45.746 8.57605 46.178C8.6041 46.2314 8.65952 46.3109 8.72095 46.337C9.27319 46.558 9.47351 47.1262 9.88819 47.4801C9.96564 47.5549 10.0565 47.6084 10.0605 47.7352C10.1019 48.1332 10.3756 48.3936 10.6761 48.5786C11.5402 49.1215 12.3195 49.7351 12.9525 50.5551C13.1562 50.8202 13.454 51.0673 13.8246 51.1334C13.9568 51.1635 14.1391 51.2002 14.1244 51.3404C14.111 51.8265 14.5364 51.9494 14.7948 52.1791C15.13 52.497 15.6682 52.5677 15.8846 53.0439C15.9086 53.1233 16.0829 53.2028 16.1757 53.1941C17.1073 53.0706 17.4645 54.0054 18.2017 54.2792C18.6958 54.4475 19.0751 54.7653 19.6507 54.7907C19.9773 54.8087 20.412 54.9416 20.6851 55.2501C20.7692 55.3382 20.8573 55.4705 20.9368 55.4705C21.6052 55.3997 22.2343 55.8057 22.8933 55.7402C23.1805 55.7048 23.3835 55.7616 23.531 55.982C23.7187 56.2557 24.0011 56.3753 24.3029 56.3799C24.7116 56.4053 25.0956 56.4681 25.4682 56.5689C25.973 56.7011 26.4144 56.7058 26.8778 56.432C27.1068 56.3045 27.3345 56.406 27.5636 56.5255C28.4464 56.9756 29.3598 57.1338 30.3374 56.8474C30.465 56.7939 30.6352 56.8073 30.7801 56.8474C31.3257 57.0063 31.8746 57.1338 32.3948 56.7505C32.4308 56.7232 32.4769 56.7145 32.5009 56.7232C33.6281 57.0858 34.6538 56.4594 35.7289 56.3933C36.1021 56.3753 36.5295 56.6444 36.6857 56.0661C36.6857 56.0527 36.836 56.0661 36.8961 56.0795C37.3348 56.2818 37.692 56.0661 37.9939 55.8411C38.2917 55.6214 38.5695 55.5279 38.9247 55.5279C39.2713 55.5279 40.0833 55.0738 40.6195 54.748C40.7978 54.6418 41.0669 54.8087 41.3166 54.6945C42.1039 54.3059 42.8958 53.9046 43.6103 53.3971C44.6193 52.6913 45.6096 51.9895 46.7241 51.4686C47.082 51.301 47.4325 51.094 47.4833 50.6346C47.494 50.5558 47.5728 50.4503 47.6436 50.4096C48.3701 50.0517 48.9343 49.452 49.3583 48.839C50.0955 47.7579 51.3195 47.1142 51.8751 45.8782C52.0387 45.4942 52.2217 45.0756 52.5702 44.8111C52.7485 44.6696 52.7759 44.4839 52.7973 44.2903C52.822 43.9638 52.9061 43.6693 53.2346 43.4963C53.3168 43.4436 53.4156 43.3728 53.4283 43.294C53.5458 42.3051 54.3498 41.652 54.691 40.7786C54.8653 40.2891 54.8339 39.799 54.9775 39.3276C55.1938 38.6084 55.5885 37.9901 55.7808 37.2709C55.9477 36.6138 56.0452 35.9694 56.1294 35.2903C56.2041 34.69 56.138 33.9795 56.347 33.4807C56.6976 32.638 56.7043 31.8534 56.7337 31.0014C56.7557 30.5333 56.8085 30.0839 56.6402 29.6425C56.5921 29.5009 56.6008 29.3687 56.6589 29.2498C56.8966 28.725 56.8632 28.2302 56.5921 27.7187C56.5587 27.6613 56.5153 27.5865 56.5233 27.5157C56.6676 26.8012 56.2222 26.1835 56.2108 25.5178C56.2041 25.0103 56.0539 24.5509 55.9277 24.0828C55.6699 23.1125 55.4075 22.151 54.7671 21.343C54.7124 21.2682 54.691 21.136 54.679 21.0211C54.5828 19.922 54.1034 18.9344 53.5845 17.9722C53.5592 17.9147 53.5171 17.844 53.4677 17.7959C52.645 17.1822 52.396 16.2601 52.1222 15.3386C52.1182 15.3292 52.1182 15.2978 52.1068 15.2938C51.4778 14.9099 51.2581 14.156 50.6705 13.7313C50.5075 13.6171 50.406 13.5196 50.3466 13.3173C50.1697 12.7964 49.9012 12.355 49.3737 12.0813C49.0051 11.8916 48.8989 11.4195 48.5484 11.1725C47.9621 10.7578 47.4325 10.2636 46.7835 9.91041C46.4636 9.71676 46.3728 9.25801 46.0383 8.99358C45.3699 8.46339 44.7976 7.81967 43.8607 7.71817C43.4895 7.67811 43.0601 7.56392 42.9826 7.06445C42.9806 7.01637 42.9159 6.95493 42.8718 6.94559C42.2548 6.8087 41.9082 6.18702 41.2665 6.08085C41.0415 6.05547 40.8338 5.98002 40.6949 5.77234C40.516 5.52461 40.2362 5.45917 39.9851 5.50725C39.5764 5.60006 39.294 5.44648 39.0289 5.18138C38.506 4.66855 37.9465 4.37808 37.1919 4.73132C36.9134 4.85419 36.5055 4.7834 36.3272 4.60311C35.9011 4.20112 35.3008 4.23652 34.8728 3.89262C34.7032 3.74238 34.4842 3.72435 34.2865 3.7731C33.7657 3.8786 33.2148 3.72435 32.7226 3.98945C32.5544 4.08627 32.3961 3.98477 32.2432 3.87927C31.7778 3.56609 31.289 3.55207 30.7882 3.7731C30.505 3.90932 30.2453 3.84855 29.9628 3.7958C29.464 3.69831 28.9565 3.61016 28.5151 3.98945C28.4056 4.08627 28.2794 4.13502 28.1465 4.08627C27.2184 3.71634 26.3115 4.31197 25.3974 4.12233C25.2078 4.08627 25.0208 4.21448 24.8906 4.33868C24.6969 4.54168 24.4625 4.60311 24.2195 4.60311C23.7748 4.59844 23.3835 4.89893 23.0068 4.94233C22.0753 5.05785 21.2567 5.60941 20.3045 5.59673C19.9953 5.57803 19.7596 5.65749 19.598 5.96265C19.4417 6.27583 19.1219 6.41739 18.806 6.45546C18.4047 6.49218 18.1176 6.71254 17.7937 6.91954C16.6372 7.68746 15.5233 8.51681 14.3448 9.26669C13.4006 9.87568 12.5385 10.657 11.7225 11.4689C11.1743 12.0205 10.7449 12.6335 10.2708 13.2205C9.61775 13.997 8.98672 14.7917 8.29359 15.5542C8.15937 15.7092 8.03117 15.9476 8.19209 16.2213C8.33766 16.5025 7.89628 17.0941 7.57042 17.0674C7.34739 17.0413 7.20649 17.0761 7.22786 17.2837C7.25657 17.667 7.03622 17.9722 6.96744 18.3161C6.88797 18.6827 6.50469 18.881 6.30369 19.2122C5.88902 19.9534 5.77617 20.7834 5.30674 21.4532C4.92278 22.0221 5.06167 22.7326 4.68506 23.3109C4.54149 23.5259 4.37522 23.588 4.06873 23.7295Z" fill="#930402"/>
<mask id="mask0_658_1376" style="mask-type:luminance" maskUnits="userSpaceOnUse" x="38" y="23" width="23" height="37">
<path d="M38.6857 23.8965H60.9999V59.6239H38.6857V23.8965Z" fill="white"/>
</mask>
<g mask="url(#mask0_658_1376)">
<path fill-rule="evenodd" clip-rule="evenodd" d="M59.026 27.8638C58.8998 27.6875 58.7823 28.0321 58.6908 27.8418C58.624 27.7182 58.7235 27.6388 58.8143 27.568C59.2197 27.2021 59.2925 26.5003 58.9666 26.0589C58.5566 25.538 58.7302 24.9825 58.9332 24.471C59.1028 24.091 59.601 24.1137 59.9849 24.0469C60.2741 24.0115 60.3715 24.2185 60.4403 24.4529C60.7315 25.4946 60.8924 26.553 60.9411 27.6294C60.9672 28.1543 60.5305 28.4414 60.1859 28.6972C59.8307 28.9536 59.7432 29.2227 59.7539 29.6414C59.7766 30.4493 59.7432 31.2526 60.0557 32.0065C60.0871 32.0947 60.0744 32.1915 60.1806 32.2576C60.9184 32.6863 60.9919 33.3734 60.8924 34.1246C60.6587 35.748 60.3475 37.3632 59.9061 38.9558C59.84 39.1989 59.7212 39.4279 59.5649 39.657C59.4761 39.7985 59.3372 39.9568 59.3526 40.103C59.4013 41.122 58.9072 41.9701 58.5386 42.8522C57.583 45.1813 56.3056 47.3341 54.7771 49.342C53.0096 51.6718 50.9182 53.6704 48.5997 55.4613C46.3234 57.2182 43.7859 58.4796 41.1009 59.4899C40.4131 59.751 39.2726 59.2962 38.904 58.6478C38.699 58.2772 38.9761 57.7083 39.4402 57.518C40.7376 56.9891 42.0297 56.4763 43.3098 55.9207C45.2029 55.082 46.939 53.9749 48.523 52.6474C48.8982 52.3476 49.2495 52.0117 49.8184 52.0865C50.1269 52.1266 50.3479 51.8261 50.5723 51.6184C50.7733 51.4468 51.0357 51.3012 50.784 50.9346C50.6638 50.767 50.9188 50.7757 51.0337 50.759C51.6687 50.6615 51.7729 50.4933 51.4951 49.9644C51.4103 49.7968 51.4611 49.6819 51.5365 49.545C51.7542 49.135 51.9953 48.7291 52.3372 48.3892C53.0096 47.7234 53.286 46.7652 53.9304 46.0727C54.2983 45.6707 54.6916 45.2694 54.914 44.776C55.2031 44.1396 55.728 43.6021 55.7941 42.8602C55.8008 42.6405 55.9023 42.4675 56.0552 42.3133C56.7323 41.6509 56.8358 40.7775 57.0588 39.9127C57.3166 38.9251 57.4354 37.8654 58.3883 37.213C58.7903 36.9305 58.819 36.4351 58.9185 36.003C58.9532 35.8007 58.801 35.7032 58.6401 35.7299C58.2227 35.7693 58.2628 35.5176 58.2795 35.2445C58.375 34.1547 58.3489 33.0562 58.6 31.9792C58.7896 31.1852 58.7596 30.3378 58.7169 29.5172C58.6881 28.9182 58.6661 28.3626 59.026 27.8638Z" fill="#930402"/>
</g>
<mask id="mask1_658_1376" style="mask-type:luminance" maskUnits="userSpaceOnUse" x="1" y="0" width="33" height="23">
<path d="M1.59045 0H33.728V22.8705H1.59045V0Z" fill="white"/>
</mask>
<g mask="url(#mask1_658_1376)">
<path fill-rule="evenodd" clip-rule="evenodd" d="M19.348 3.55122C19.1964 4.59758 18.2916 4.61027 17.6733 4.96752C16.2176 5.82358 14.6551 6.49066 13.3075 7.53636C13.2388 7.57175 13.1312 7.64186 13.0605 7.61515C12.579 7.53636 12.2926 7.84486 11.958 8.10128C11.4305 8.49792 10.9844 8.99206 10.5097 9.44279C10.342 9.60973 10.1417 9.77333 10.1571 10.0598C10.1591 10.1566 10.1103 10.2895 10.0269 10.2755C9.4733 10.1353 9.35578 10.6735 9.03659 10.8891C8.88635 10.9953 8.55915 11.1189 8.91907 11.3966C8.99386 11.446 8.91907 11.5335 8.85496 11.5776C8.34347 12.0283 8.03029 12.628 7.69708 13.2103C7.60426 13.3605 7.46537 13.4533 7.29309 13.5061C7.20495 13.5194 7.05938 13.5895 7.05938 13.6162C7.20495 14.3842 6.38228 14.296 6.09982 14.688C5.64508 15.297 5.04744 15.8352 5.0608 16.6919C5.0608 16.9517 5.02541 17.1547 4.6922 17.2168C4.3857 17.2475 4.44513 17.596 4.33094 17.795C3.90959 18.4301 3.60443 19.1092 3.71327 19.9078C3.74599 20.1729 3.545 20.3666 3.42881 20.5695C3.08826 21.2012 2.74303 21.8323 2.39847 22.4586C2.31033 22.5995 2.22419 22.7851 2.01051 22.6917C1.77813 22.6122 1.74741 22.3518 1.86627 22.2376C2.51132 21.5224 2.11801 20.9315 1.74741 20.3138C1.58581 20.0534 1.62388 19.7843 1.74741 19.5065C2.25891 18.2752 2.80379 17.0659 3.545 15.9761C4.02378 15.2663 4.34163 14.489 4.78702 13.7919C5.68982 12.3969 6.7442 11.1008 7.8914 9.90888C10.6419 7.00616 13.7336 4.54416 17.3554 2.79999C20.773 1.15532 24.3782 0.202438 28.1844 0.00344783C28.7052 -0.0192558 29.172 0.0655487 29.5673 0.396086C29.8851 0.651835 30.227 0.669197 30.5689 0.484229C31.4223 0.043513 32.3224 0.139669 33.2293 0.289914C33.3929 0.307943 33.6653 0.333985 33.6152 0.599083C33.5645 0.912259 33.3595 0.633806 33.2293 0.643154C32.9882 0.687226 32.7792 0.677878 32.7044 1.03579C32.649 1.30022 32.2543 1.4725 32.0266 1.29622C31.6407 1.01376 31.2921 1.09322 30.9609 1.23879C30.0434 1.60939 29.0638 1.5346 28.135 1.60939C27.5413 1.6755 27.1066 2.0067 26.5384 2.08216C24.9558 2.30252 23.4206 2.77996 21.8915 3.212C21.2725 3.38361 20.7176 3.71481 20.1032 3.91714C19.7246 4.04135 19.4535 4.1562 19.348 3.55122Z" fill="#930402"/>
</g>
<path fill-rule="evenodd" clip-rule="evenodd" d="M58.0111 20.7372C57.9404 20.7205 57.8475 20.6858 57.8342 20.7071C57.1771 21.2367 57.1391 20.7071 56.9407 20.2624C55.9024 17.8619 54.6617 15.5848 53.2748 13.3746C52.6678 12.4257 51.7283 11.7466 50.9737 10.9166C50.2899 10.1487 49.5861 9.42548 48.8843 8.68427C48.692 8.47193 48.5311 8.26893 48.5404 7.94641C48.5404 7.60719 48.2907 7.35144 48.0129 7.18784C47.1435 6.60155 46.3228 5.92178 45.3793 5.55585C44.4518 5.19794 43.7854 4.47409 42.8719 4.09949C41.7367 3.63607 40.5915 3.17665 39.4483 2.76265C38.8193 2.55497 38.4226 2.20641 38.2303 1.57071C38.0787 1.10328 38.2176 1.03717 38.6276 1.12064C40.6576 1.49125 42.5567 2.18037 44.3436 3.20804C45.4 3.81703 46.248 4.61566 46.841 5.67939C47.0393 6.05466 47.3865 6.12478 47.7097 6.01861C48.6506 5.73748 49.283 6.18688 49.9781 6.75113C54.0434 10.0866 57.0863 14.1719 59.0609 19.0485C59.0849 19.1192 59.1096 19.198 59.1356 19.2595C59.4762 20.1997 59.0281 20.7739 58.0111 20.7372Z" fill="#930402"/>
<path fill-rule="evenodd" clip-rule="evenodd" d="M5.7628 47.0518C5.98984 47.6875 6.79314 47.6307 7.03554 48.1556C7.51231 49.1218 8.31963 49.6553 9.2458 50.088C9.42275 50.1762 9.58168 50.3171 9.72057 50.4673C9.98967 50.7584 9.58168 50.6349 9.52425 50.7845C10.1593 50.7671 10.2414 51.4028 10.576 51.738C10.9225 52.0733 11.2384 52.4525 11.6283 52.7437C11.7766 52.8498 11.9856 53.2024 12.1692 52.7617C12.1999 52.6736 12.3148 52.6736 12.3742 52.7263C12.7268 53.0882 13.3284 53.2378 13.3865 53.8688C13.3992 54.0278 13.4533 54.1379 13.5808 54.2441C14.6352 55.0514 15.7938 55.6738 16.939 56.3222C17.1153 56.4323 17.2869 56.4237 17.4732 56.3435C17.8411 56.1679 18.1189 56.4323 18.4281 56.5565C18.4741 56.5692 18.5209 56.6447 18.5276 56.6801C18.569 57.1735 18.5603 57.1735 19.0878 57.3418C19.1739 57.3679 19.2554 57.4033 19.3482 57.4433C19.3482 57.3685 19.3743 57.3285 19.3542 57.3144C19.2307 57.1435 18.8474 57.064 19.0063 56.8216C19.1472 56.6013 19.397 56.8824 19.6086 56.9365C21.029 57.2891 22.3331 58.0476 23.8242 58.1979C24.136 58.2239 24.4285 58.3301 24.363 58.7494C24.3537 58.8155 24.3537 58.877 24.3911 58.9211C24.6054 59.1861 24.8745 59.4285 24.5173 59.7818C24.1153 60.1744 23.6986 60.5537 23.0736 60.3995C21.2446 59.944 19.423 59.49 17.7236 58.6212C16.2839 57.9061 14.9511 57.0326 13.6056 56.1599C13.265 55.9476 13.1375 55.6217 13.0273 55.2858C12.8884 54.8538 12.6366 54.6327 12.1559 54.6595C11.8667 54.6948 11.5903 54.6681 11.3479 54.4698C10.0571 53.4335 8.7777 52.3737 7.63919 51.1644C7.13904 50.6436 6.86259 50.0266 6.77044 49.3515C6.69565 48.7198 6.38181 48.2571 6.01321 47.7763C5.87565 47.5993 5.6987 47.4143 5.7628 47.0518Z" fill="#930402"/>
<path fill-rule="evenodd" clip-rule="evenodd" d="M3.43966 43.7787C2.9295 42.9754 2.6851 42.2429 2.3766 41.5504C2.16025 41.0877 2.21567 40.677 2.35857 40.2309C2.57492 39.5518 2.53753 39.4276 1.9045 39.216C1.32155 39.0176 1.01706 38.6157 0.876161 38.0427C0.0154282 34.332 -0.218953 30.5906 0.207741 26.8091C0.242464 26.5267 0.315249 26.2489 0.366666 25.9831C0.498881 25.4536 1.13592 25.0963 1.64741 25.2513C1.8838 25.3347 1.85776 25.5157 1.88113 25.7053C1.98329 26.8265 1.75626 27.9209 1.70751 29.0201C1.68948 29.7112 1.85776 30.3869 1.7803 31.0934C1.62404 32.4383 1.8237 33.7891 1.99665 35.126C2.08279 35.8271 2.08279 36.599 2.80196 37.0631C2.9295 37.1513 2.93417 37.3362 2.92482 37.4778C2.81264 38.7392 3.10645 39.9485 3.21797 41.1705C3.25202 41.5504 3.10178 41.9744 3.48774 42.2609C3.1592 42.6929 3.56386 43.1777 3.43966 43.7787Z" fill="#930402"/>
<path fill-rule="evenodd" clip-rule="evenodd" d="M30.9397 61.2253C29.8406 61.2961 28.8062 61.1812 27.7692 61.1191C27.2657 61.1105 26.0591 60.1008 25.9583 59.6367C25.8187 59.0364 26.2801 58.5162 26.8958 58.6311C28.674 58.9663 30.4649 58.9276 32.2585 58.9403C33.6842 58.9576 35.0718 58.6752 36.468 58.4548C36.6857 58.4114 37.0062 58.2251 37.0683 58.4808C37.1431 58.7626 37.3087 59.0591 37.1672 59.4297C36.7198 60.5896 35.7782 60.9028 34.6704 60.9869C33.4017 61.0931 32.159 61.3355 30.9397 61.2253Z" fill="#930402"/>
<path fill-rule="evenodd" clip-rule="evenodd" d="M7.7753 45.4829C5.01014 41.7148 3.71603 37.4919 3.28934 32.9786C3.03426 30.2601 3.13776 27.5598 3.75543 24.8767C3.76612 24.8327 3.78214 24.7979 3.79349 24.7799C3.86561 24.5949 3.8389 24.3826 4.02654 24.2771C4.12537 24.2237 4.25157 24.3212 4.24089 24.3919C4.17278 24.6564 4.62685 24.7933 4.37577 25.1238C4.13538 25.4456 3.79349 25.8209 4.34906 26.2056C4.44655 26.2797 4.36041 26.4566 4.34038 26.5755C4.17278 27.3434 3.99449 28.1106 3.9197 28.8752C3.8596 29.6037 3.79349 30.3883 4.0646 31.1162C4.09398 31.2043 4.12403 31.3098 4.09398 31.3893C3.74007 32.3081 3.90167 33.1629 4.3317 34.0022C4.55874 34.4603 4.60281 34.9898 4.52602 35.4092C4.30098 36.4368 4.83519 37.2361 5.16038 38.0875C5.26255 38.3653 5.41747 38.587 5.32465 38.8908C5.26255 39.1553 5.43015 39.3669 5.54434 39.588C5.6465 39.787 5.73865 39.9893 5.69659 40.2143C5.65118 40.4086 5.70861 40.5762 5.86753 40.6691C6.36768 40.9248 6.3196 41.4056 6.23546 41.7989C6.18405 42.1121 6.27686 42.297 6.44514 42.4426C6.67017 42.6242 6.72092 42.8753 6.85313 43.083C7.09352 43.4796 7.17833 43.9784 7.64709 44.2743C8.01769 44.512 8.0858 44.9534 7.7753 45.4829Z" fill="#930402"/>
<path fill-rule="evenodd" clip-rule="evenodd" d="M30.4803 7.56345C36.0373 7.72237 40.9239 9.62814 45.1007 13.2994C49.5259 17.1911 51.9792 22.1465 52.7885 27.9219C53.2359 31.1117 52.8787 34.2755 51.9726 37.3379C50.7726 41.4192 48.6986 44.9749 45.5481 47.865C42.0952 51.0154 38.0012 52.8511 33.3923 53.4828C29.8826 53.9635 26.401 53.641 23.0649 52.3923C15.7477 49.6485 11.022 44.4901 8.84445 36.994C8.22277 34.8365 7.91828 32.6389 7.96635 30.4059C8.07653 25.5747 9.49083 21.1582 12.2446 17.1697C14.4001 14.05 17.1773 11.6361 20.5635 9.95534C23.6766 8.40615 26.9545 7.47464 30.4803 7.56345ZM52.2991 30.7812C52.3605 29.7128 52.2196 28.6591 52.1402 27.6087C52.1315 27.4805 52.1074 27.353 52.0801 27.2247C50.8561 20.1693 47.1934 14.7645 41.0321 11.1199C37.2927 8.90964 33.2067 7.83789 28.8697 8.21651C22.9621 8.74537 18.0067 11.2969 14.1177 15.8189C10.7175 19.772 8.90187 24.3654 8.63277 29.5632C8.46784 32.8719 8.97933 36.0938 10.228 39.1949C11.8487 43.2495 14.3861 46.5862 17.9846 49.0743C22.2289 52.013 26.8904 53.4073 32.0949 52.9926C37.5177 52.5686 42.1833 50.4685 45.9427 46.5949C50.181 42.2265 52.2216 36.8698 52.2991 30.7812Z" fill="#930402"/>
<path d="M45.5863 27.4888C45.3472 26.1032 44.7656 24.8545 43.9089 23.7427C43.6912 23.4923 43.4461 23.2879 43.1723 23.1036C42.6942 22.7811 42.1994 22.4813 41.6679 22.2696C41.3634 22.1768 41.0502 22.106 40.7437 22.0265C40.5648 21.9825 40.3885 21.9691 40.2122 21.9558C38.5108 21.8763 38.5528 21.8583 38.0894 20.235C37.823 19.2994 37.5826 18.2978 36.609 17.7596C35.8017 16.9783 34.9016 16.3426 33.8138 16.0081C30.7782 15.0813 27.8114 16.3961 26.1433 19.423C25.4021 20.7738 25.4021 20.7738 24.0359 20.2042C20.9168 18.8848 17.7397 19.829 16.0876 22.6616C15.2095 24.162 14.9091 25.9175 15.4279 27.6036C15.6329 28.2747 15.9861 29.1301 16.4389 29.8893C16.7447 30.4102 17.0913 30.8769 17.4599 31.2128C17.9026 31.6095 18.0395 31.9006 17.6315 32.4481C17.128 33.1012 16.8329 33.8945 16.6699 34.7078C16.5197 36.3351 16.7093 37.893 17.6782 39.2692C17.8505 39.5517 18.0595 39.7901 18.2578 40.0371C18.9069 41.0915 19.9125 41.6958 20.9649 42.2481C21.0537 42.2955 21.1525 42.3449 21.2454 42.375C23.9317 43.5228 26.357 43.0153 28.4578 41.1042C29.1255 40.4952 29.6236 40.4431 30.2647 40.972C30.3869 41.1089 30.4964 41.2458 30.6213 41.3693C32.909 43.7519 36.3486 44.2901 38.9562 42.6481C41.6125 40.9807 42.4665 37.9938 41.129 34.7419C40.8733 34.1189 41.1778 34.0227 41.5898 33.8237C43.1897 33.0571 44.425 31.918 45.0607 30.2058C45.7519 29.3952 45.7559 28.4503 45.5863 27.4888ZM35.2461 32.5323C34.332 32.2231 33.4365 31.8659 32.523 31.552C32.2913 31.4779 32.0429 31.142 31.7798 31.512C32.2379 32.1784 33.0085 32.4922 33.5534 33.0578C33.8512 33.3656 34.1844 33.6481 34.4515 33.984C34.754 34.3492 35.0318 34.8 34.5877 35.2233C34.1336 35.6694 33.6682 35.4837 33.2576 35.0871C32.6726 34.5042 32.2205 33.807 31.7598 33.1232C31.5715 32.8488 31.5194 32.4261 30.9518 32.3507C30.9518 33.401 31.5054 34.2745 31.6556 35.2373C31.7598 35.8897 32.1918 36.7725 31.2937 36.9835C30.3936 37.1825 30.1999 36.2517 30.0871 35.5365C29.9321 34.601 29.8273 33.6608 29.5295 32.7393C29.1936 33.7195 28.8671 34.6978 28.5319 35.6781C28.3329 36.261 28.009 36.6657 27.3386 36.3752C26.6855 36.0934 26.8992 35.5719 27.0715 35.0871C27.4134 34.1169 28.0664 33.2995 28.6133 32.1784C27.6117 32.6779 27.0581 33.4017 26.341 33.9085C25.7721 34.3185 25.0482 34.9896 24.4793 34.2304C23.8549 33.3656 24.8559 33.0037 25.4148 32.6511C26.1847 32.157 27.0061 31.7423 28.0551 31.1514C26.791 31.0539 25.8909 31.3891 24.9627 31.5173C24.6075 31.5747 24.2563 31.6629 23.8983 31.6889C23.3675 31.725 22.9788 31.4993 22.9187 30.9257C22.862 30.3748 23.252 30.1898 23.718 30.097C24.9915 29.8366 26.2882 30.0876 27.6845 30.0309C27.3446 29.4753 26.8064 29.4833 26.3904 29.307C25.6665 28.9798 24.894 28.7635 24.2416 28.3007C23.8596 28.0276 23.4136 27.7185 23.676 27.1709C23.9671 26.5446 24.5474 26.7435 24.9915 26.9546C25.728 27.3125 26.4318 27.7625 27.1396 28.1772C27.5015 28.3889 27.8501 28.6046 28.3422 28.684C27.782 27.8373 27.1884 27.0033 26.6608 26.1386C26.3637 25.6357 25.8495 24.9473 26.546 24.5239C27.2505 24.0999 27.7726 24.7797 28.0598 25.3486C28.5593 26.3155 28.9405 27.3525 29.5802 28.3361C29.6236 27.436 29.6023 26.5178 29.7278 25.6311C29.8273 24.9039 29.7652 23.7306 30.8637 23.9503C31.8539 24.132 31.3845 25.177 31.2937 25.8795C31.1855 26.7135 30.7688 27.4807 30.7775 28.6233C31.4019 27.621 31.874 26.837 32.3968 26.0778C32.8402 25.4334 33.4272 24.4892 34.2345 25.1156C35.1126 25.8134 34.1377 26.5138 33.6829 27.0834C33.1006 27.7979 32.4275 28.4423 31.7371 29.1661C32.6172 28.9985 33.3437 28.5171 34.133 28.2219C34.4969 28.0891 34.8675 27.9301 35.2495 27.8427C35.7296 27.7278 36.1249 27.8867 36.2618 28.3896C36.3927 28.8663 36.0902 29.1488 35.6862 29.299C34.8829 29.5895 34.0468 29.8145 33.1761 29.8145C32.8335 29.9074 32.5003 30.0048 32.1117 30.1063C32.9698 30.5037 33.8699 30.5517 34.7266 30.7674C35.0725 30.8649 35.4344 30.9043 35.7603 31.0372C36.1863 31.2008 36.7225 31.3644 36.5469 31.9814C36.3553 32.6425 35.811 32.7126 35.2461 32.5323Z" fill="#930402"/>
<path d="M29.7745 28.9189C28.9538 28.9189 28.2854 29.5894 28.2854 30.4154C28.2854 31.2401 28.9538 31.9111 29.7745 31.9111C30.5998 31.9111 31.2656 31.2401 31.2656 30.4154C31.2656 29.5894 30.5998 28.9189 29.7745 28.9189Z" fill="#930402"/>
</svg>
