<svg width="526" height="953" viewBox="0 0 526 953" fill="none" xmlns="http://www.w3.org/2000/svg">
<mask id="mask0_15_408" style="mask-type:luminance" maskUnits="userSpaceOnUse" x="280" y="937" width="192" height="3">
<path d="M471.4 939.563H280.185V937.755H471.4V939.563Z" fill="white"/>
</mask>
<g mask="url(#mask0_15_408)">
<path d="M471.4 939.511H279.902V938.19H471.4V939.511Z" fill="#C99949"/>
</g>
<mask id="mask1_15_408" style="mask-type:luminance" maskUnits="userSpaceOnUse" x="471" y="898" width="55" height="49">
<path d="M526 946.924H471.286V898.939H526V946.924Z" fill="white"/>
</mask>
<g mask="url(#mask1_15_408)">
<mask id="mask2_15_408" style="mask-type:luminance" maskUnits="userSpaceOnUse" x="511" y="899" width="2" height="33">
<path d="M511.689 931.006H512.698V899.055H511.689V931.006Z" fill="white"/>
</mask>
<g mask="url(#mask2_15_408)">
<path fill-rule="evenodd" clip-rule="evenodd" d="M513.414 899.055V930.588H510.98V899.055H513.414Z" fill="#C99949"/>
</g>
<mask id="mask3_15_408" style="mask-type:luminance" maskUnits="userSpaceOnUse" x="469" y="938" width="39" height="2">
<path d="M469.849 939.332H507.379V938.036H469.849V939.332Z" fill="white"/>
</mask>
<g mask="url(#mask3_15_408)">
<path fill-rule="evenodd" clip-rule="evenodd" d="M469.87 937.747H506.263V939.823H469.87V937.747Z" fill="#C99949"/>
</g>
<mask id="mask4_15_408" style="mask-type:luminance" maskUnits="userSpaceOnUse" x="511" y="935" width="13" height="11">
<path d="M511.179 945.698H523.946V935.441H511.179V945.698Z" fill="white"/>
</mask>
<g mask="url(#mask4_15_408)">
<path fill-rule="evenodd" clip-rule="evenodd" d="M510.98 934.992H524.246V946.323H510.98V934.992ZM513.414 937.068V944.247H521.812V937.068H513.414Z" fill="#C99949"/>
</g>
<mask id="mask5_15_408" style="mask-type:luminance" maskUnits="userSpaceOnUse" x="518" y="926" width="6" height="6">
<path d="M518.451 931.006H523.925V926.363H518.451V931.006Z" fill="white"/>
</mask>
<g mask="url(#mask5_15_408)">
<path fill-rule="evenodd" clip-rule="evenodd" d="M517.778 925.748H524.658V931.626H517.778V925.748ZM520.211 927.824V929.55H522.224V927.824H520.211Z" fill="#C99949"/>
</g>
<path fill-rule="evenodd" clip-rule="evenodd" d="M505.046 929.55H520.211V942.508H505.046V929.55ZM507.48 931.627V940.432H517.778V931.627H507.48Z" fill="#C99949"/>
<path fill-rule="evenodd" clip-rule="evenodd" d="M497.586 923.175H507.48V931.626H497.586V923.175ZM500.02 925.251V929.55H505.046V925.251H500.02Z" fill="#C99949"/>
<path fill-rule="evenodd" clip-rule="evenodd" d="M501.422 940.432H507.48V945.603H501.422V940.432ZM503.855 942.508V943.527H505.046V942.508H503.855Z" fill="#C99949"/>
</g>
<mask id="mask6_15_408" style="mask-type:luminance" maskUnits="userSpaceOnUse" x="0" y="898" width="55" height="49">
<path d="M-4.08849e-06 946.924H54.714V898.939H-4.08849e-06V946.924Z" fill="white"/>
</mask>
<g mask="url(#mask6_15_408)">
<mask id="mask7_15_408" style="mask-type:luminance" maskUnits="userSpaceOnUse" x="13" y="899" width="2" height="33">
<path d="M14.3108 931.006H13.3015V899.055H14.3108V931.006Z" fill="white"/>
</mask>
<g mask="url(#mask7_15_408)">
<path fill-rule="evenodd" clip-rule="evenodd" d="M12.5862 899.055V930.588H15.0199V899.055H12.5862Z" fill="#C99949"/>
</g>
<mask id="mask8_15_408" style="mask-type:luminance" maskUnits="userSpaceOnUse" x="18" y="938" width="39" height="2">
<path d="M56.1508 939.332H18.621V938.036H56.1508V939.332Z" fill="white"/>
</mask>
<g mask="url(#mask8_15_408)">
<path fill-rule="evenodd" clip-rule="evenodd" d="M56.13 937.747H19.7371V939.823H56.13V937.747Z" fill="#C99949"/>
</g>
<mask id="mask9_15_408" style="mask-type:luminance" maskUnits="userSpaceOnUse" x="2" y="935" width="13" height="11">
<path d="M14.8214 945.698H2.05422V935.441H14.8214V945.698Z" fill="white"/>
</mask>
<g mask="url(#mask9_15_408)">
<path fill-rule="evenodd" clip-rule="evenodd" d="M15.0199 934.992H1.75436V946.323H15.0199V934.992ZM12.5862 937.068V944.247H4.1881V937.068H12.5862Z" fill="#C99949"/>
</g>
<mask id="mask10_15_408" style="mask-type:luminance" maskUnits="userSpaceOnUse" x="2" y="926" width="6" height="6">
<path d="M7.54883 931.006H2.07505V926.363H7.54883V931.006Z" fill="white"/>
</mask>
<g mask="url(#mask10_15_408)">
<path fill-rule="evenodd" clip-rule="evenodd" d="M8.22229 925.748H1.34184V931.626H8.22229V925.748ZM5.78855 927.824V929.55H3.77558V927.824H5.78855Z" fill="#C99949"/>
</g>
<path fill-rule="evenodd" clip-rule="evenodd" d="M20.954 929.55H5.78864V942.508H20.954V929.55ZM18.5202 931.627V940.432H8.22238V931.627H18.5202Z" fill="#C99949"/>
<path fill-rule="evenodd" clip-rule="evenodd" d="M28.4136 923.175H18.5202V931.626H28.4136V923.175ZM25.9798 925.251V929.55H20.9539V925.251H25.9798Z" fill="#C99949"/>
<path fill-rule="evenodd" clip-rule="evenodd" d="M24.5784 940.432H18.5202V945.603H24.5784V940.432ZM22.1446 942.508V943.527H20.9539V942.508H22.1446Z" fill="#C99949"/>
</g>
<mask id="mask11_15_408" style="mask-type:luminance" maskUnits="userSpaceOnUse" x="12" y="52" width="3" height="543">
<path d="M14.3684 594.037L14.3684 52.5887H12.9316L12.9316 594.037H14.3684Z" fill="white"/>
</mask>
<g mask="url(#mask11_15_408)">
<path d="M14.327 594.037L14.327 51.7874H13.2766L13.2766 594.037H14.327Z" fill="#C99949"/>
</g>
<mask id="mask12_15_408" style="mask-type:luminance" maskUnits="userSpaceOnUse" x="511" y="52" width="2" height="529">
<path d="M512.954 580.554L512.954 52.5881H511.518L511.518 580.554H512.954Z" fill="white"/>
</mask>
<g mask="url(#mask12_15_408)">
<path d="M512.913 580.554L512.913 51.8069H511.863L511.863 580.554H512.913Z" fill="#C99949"/>
</g>
<mask id="mask13_15_408" style="mask-type:luminance" maskUnits="userSpaceOnUse" x="280" y="14" width="192" height="3">
<path d="M280.185 14.5555H471.286V16.3637H280.185V14.5555Z" fill="white"/>
</mask>
<g mask="url(#mask13_15_408)">
<path d="M280.185 14.6075H471.569V15.9282H280.185V14.6075Z" fill="#C99949"/>
</g>
<mask id="mask14_15_408" style="mask-type:luminance" maskUnits="userSpaceOnUse" x="54" y="14" width="192" height="3">
<path d="M54.6002 14.5555H245.701V16.3637H54.6002V14.5555Z" fill="white"/>
</mask>
<g mask="url(#mask14_15_408)">
<path d="M54.6002 14.6075H245.984V15.9282H54.6002V14.6075Z" fill="#C99949"/>
</g>
<mask id="mask15_15_408" style="mask-type:luminance" maskUnits="userSpaceOnUse" x="0" y="7" width="55" height="49">
<path d="M-4.08849e-06 7.19386H54.714V55.179H-4.08849e-06V7.19386Z" fill="white"/>
</mask>
<g mask="url(#mask15_15_408)">
<mask id="mask16_15_408" style="mask-type:luminance" maskUnits="userSpaceOnUse" x="13" y="23" width="2" height="33">
<path d="M14.3108 23.1118H13.3015V55.0631H14.3108V23.1118Z" fill="white"/>
</mask>
<g mask="url(#mask16_15_408)">
<path fill-rule="evenodd" clip-rule="evenodd" d="M12.5862 55.063V23.5297H15.0199V55.063H12.5862Z" fill="#C99949"/>
</g>
<mask id="mask17_15_408" style="mask-type:luminance" maskUnits="userSpaceOnUse" x="18" y="14" width="39" height="3">
<path d="M56.1508 14.7862H18.621V16.0819H56.1508V14.7862Z" fill="white"/>
</mask>
<g mask="url(#mask17_15_408)">
<path fill-rule="evenodd" clip-rule="evenodd" d="M56.13 16.371H19.7371V14.2948H56.13V16.371Z" fill="#C99949"/>
</g>
<mask id="mask18_15_408" style="mask-type:luminance" maskUnits="userSpaceOnUse" x="2" y="8" width="13" height="11">
<path d="M14.8214 8.42055H2.05422V18.6767H14.8214V8.42055Z" fill="white"/>
</mask>
<g mask="url(#mask18_15_408)">
<path fill-rule="evenodd" clip-rule="evenodd" d="M15.0199 19.1267H1.75436V7.79489H15.0199V19.1267ZM12.5862 17.0505V9.87107H4.1881V17.0505H12.5862Z" fill="#C99949"/>
</g>
<mask id="mask19_15_408" style="mask-type:luminance" maskUnits="userSpaceOnUse" x="2" y="23" width="6" height="5">
<path d="M7.54883 23.1118H2.07505V27.7548H7.54883V23.1118Z" fill="white"/>
</mask>
<g mask="url(#mask19_15_408)">
<path fill-rule="evenodd" clip-rule="evenodd" d="M8.22229 28.3699H1.34184V22.4917H8.22229V28.3699ZM5.78855 26.2937V24.5679H3.77558V26.2937H5.78855Z" fill="#C99949"/>
</g>
<path fill-rule="evenodd" clip-rule="evenodd" d="M20.9539 24.5678H5.78852V11.6099H20.9539V24.5678ZM18.5201 22.4916V13.686H8.22226V22.4916H18.5201Z" fill="#C99949"/>
<path fill-rule="evenodd" clip-rule="evenodd" d="M28.4136 30.9434H18.5202V22.4916H28.4136V30.9434ZM25.9798 28.8672V24.5678H20.9539V28.8672H25.9798Z" fill="#C99949"/>
<path fill-rule="evenodd" clip-rule="evenodd" d="M24.5784 13.6866H18.5202V8.51511H24.5784V13.6866ZM22.1446 11.6104V10.5913H20.9539V11.6104H22.1446Z" fill="#C99949"/>
</g>
<mask id="mask20_15_408" style="mask-type:luminance" maskUnits="userSpaceOnUse" x="471" y="7" width="55" height="49">
<path d="M526 7.19386H471.286V55.179H526V7.19386Z" fill="white"/>
</mask>
<g mask="url(#mask20_15_408)">
<mask id="mask21_15_408" style="mask-type:luminance" maskUnits="userSpaceOnUse" x="511" y="23" width="2" height="33">
<path d="M511.689 23.1118H512.698V55.0631H511.689V23.1118Z" fill="white"/>
</mask>
<g mask="url(#mask21_15_408)">
<path fill-rule="evenodd" clip-rule="evenodd" d="M513.413 55.063V23.5297H510.98V55.063H513.413Z" fill="#C99949"/>
</g>
<mask id="mask22_15_408" style="mask-type:luminance" maskUnits="userSpaceOnUse" x="469" y="14" width="39" height="3">
<path d="M469.849 14.7862H507.379V16.0819H469.849V14.7862Z" fill="white"/>
</mask>
<g mask="url(#mask22_15_408)">
<path fill-rule="evenodd" clip-rule="evenodd" d="M469.87 16.371H506.263V14.2948H469.87V16.371Z" fill="#C99949"/>
</g>
<mask id="mask23_15_408" style="mask-type:luminance" maskUnits="userSpaceOnUse" x="511" y="8" width="13" height="11">
<path d="M511.178 8.42055H523.945V18.6767H511.178V8.42055Z" fill="white"/>
</mask>
<g mask="url(#mask23_15_408)">
<path fill-rule="evenodd" clip-rule="evenodd" d="M510.98 19.1267H524.245V7.79489H510.98V19.1267ZM513.413 17.0505V9.87107H521.812V17.0505H513.413Z" fill="#C99949"/>
</g>
<mask id="mask24_15_408" style="mask-type:luminance" maskUnits="userSpaceOnUse" x="518" y="23" width="6" height="5">
<path d="M518.451 23.1118H523.925V27.7548H518.451V23.1118Z" fill="white"/>
</mask>
<g mask="url(#mask24_15_408)">
<path fill-rule="evenodd" clip-rule="evenodd" d="M517.777 28.3699H524.658V22.4917H517.777V28.3699ZM520.211 26.2937V24.5679H522.224V26.2937H520.211Z" fill="#C99949"/>
</g>
<path fill-rule="evenodd" clip-rule="evenodd" d="M505.046 24.5678H520.211V11.6099H505.046V24.5678ZM507.48 22.4916V13.686H517.777V22.4916H507.48Z" fill="#C99949"/>
<path fill-rule="evenodd" clip-rule="evenodd" d="M497.586 30.9434H507.48V22.4916H497.586V30.9434ZM500.02 28.8672V24.5678H505.046V28.8672H500.02Z" fill="#C99949"/>
<path fill-rule="evenodd" clip-rule="evenodd" d="M501.421 13.6866H507.48V8.51511H501.421V13.6866ZM503.855 11.6104V10.5913H505.046V11.6104H503.855Z" fill="#C99949"/>
</g>
<path d="M54.6005 938.696L245.701 939.565" stroke="#C99949"/>
<mask id="mask25_15_408" style="mask-type:luminance" maskUnits="userSpaceOnUse" x="12" y="340" width="3" height="568">
<path d="M14.3684 907.56L14.3684 340.996H12.9316L12.9316 907.56H14.3684Z" fill="white"/>
</mask>
<g mask="url(#mask25_15_408)">
<path d="M14.327 907.56L14.327 340.157H13.2766L13.2766 907.56H14.327Z" fill="#C99949"/>
</g>
<mask id="mask26_15_408" style="mask-type:luminance" maskUnits="userSpaceOnUse" x="511" y="340" width="2" height="559">
<path d="M512.954 898.939L512.954 340.994H511.518L511.518 898.939H512.954Z" fill="white"/>
</mask>
<g mask="url(#mask26_15_408)">
<path d="M512.913 898.939L512.913 340.169H511.863L511.863 898.939H512.913Z" fill="#C99949"/>
</g>
<mask id="mask27_15_408" style="mask-type:luminance" maskUnits="userSpaceOnUse" x="248" y="0" width="29" height="30">
<path d="M276.903 29.2503H248.591V0.909493H276.903V29.2503Z" fill="white"/>
</mask>
<g mask="url(#mask27_15_408)">
<path d="M262.745 2.59C269.64 2.59 275.224 8.18245 275.224 15.0799C275.224 21.9774 269.64 27.5667 262.745 27.5667C255.857 27.5667 250.27 21.9774 250.27 15.0799C250.27 8.18245 255.857 2.59 262.745 2.59ZM262.745 29.2503C270.565 29.2503 276.903 22.9038 276.903 15.0799C276.903 7.25294 270.565 0.909493 262.745 0.909493C254.929 0.909493 248.591 7.25294 248.591 15.0799C248.591 22.9038 254.929 29.2503 262.745 29.2503Z" fill="#C99949"/>
</g>
<path d="M262.749 25.0882C262.872 19.6434 267.29 15.2606 272.745 15.196C272.684 20.6684 268.231 25.0851 262.749 25.0882Z" fill="#C99949"/>
<path d="M252.749 15.196C258.204 15.2606 262.619 19.6434 262.742 25.0882C257.263 25.0851 252.81 20.6684 252.749 15.196Z" fill="#C99949"/>
<path d="M252.749 14.9626C252.81 9.49019 257.263 5.07348 262.742 5.0704C262.619 10.5151 258.204 14.898 252.749 14.9626Z" fill="#C99949"/>
<path d="M262.749 5.0704C268.231 5.07348 272.684 9.49019 272.745 14.9626C267.29 14.898 262.872 10.5151 262.749 5.0704Z" fill="#C99949"/>
<path d="M262.749 25.0882C262.872 19.6434 267.29 15.2606 272.745 15.196C272.684 20.6684 268.231 25.0851 262.749 25.0882Z" fill="#C99949"/>
<path d="M262.749 5.30395C268.231 5.30703 272.684 9.72374 272.745 15.1962C267.29 15.1346 262.872 10.7487 262.749 5.30395Z" fill="#C99949"/>
<path d="M252.749 15.1962C252.81 9.72374 257.263 5.30703 262.742 5.30395C262.619 10.7487 258.204 15.1346 252.749 15.1962Z" fill="#C99949"/>
<path d="M262.742 25.0882C257.263 25.0851 252.81 20.6684 252.749 15.196C258.204 15.2606 262.619 19.6434 262.742 25.0882Z" fill="#C99949"/>
<mask id="mask28_15_408" style="mask-type:luminance" maskUnits="userSpaceOnUse" x="248" y="923" width="29" height="30">
<path d="M276.903 952.152H248.591V923.812H276.903V952.152Z" fill="white"/>
</mask>
<g mask="url(#mask28_15_408)">
<path d="M262.745 925.492C269.639 925.492 275.224 931.084 275.224 937.982C275.224 944.879 269.639 950.469 262.745 950.469C255.857 950.469 250.27 944.879 250.27 937.982C250.27 931.084 255.857 925.492 262.745 925.492ZM262.745 952.152C270.565 952.152 276.903 945.806 276.903 937.982C276.903 930.155 270.565 923.812 262.745 923.812C254.928 923.812 248.591 930.155 248.591 937.982C248.591 945.806 254.928 952.152 262.745 952.152Z" fill="#C99949"/>
</g>
<path d="M262.748 947.99C262.871 942.546 267.29 938.163 272.745 938.098C272.684 943.57 268.231 947.987 262.748 947.99Z" fill="#C99949"/>
<path d="M252.748 938.098C258.203 938.163 262.619 942.546 262.742 947.99C257.262 947.987 252.81 943.57 252.748 938.098Z" fill="#C99949"/>
<path d="M252.748 937.865C252.81 932.392 257.262 927.976 262.742 927.973C262.619 933.417 258.203 937.8 252.748 937.865Z" fill="#C99949"/>
<path d="M262.748 927.973C268.231 927.976 272.684 932.392 272.745 937.865C267.29 937.8 262.871 933.417 262.748 927.973Z" fill="#C99949"/>
<path d="M262.748 947.99C262.871 942.546 267.29 938.163 272.745 938.098C272.684 943.57 268.231 947.987 262.748 947.99Z" fill="#C99949"/>
<path d="M262.748 928.206C268.231 928.209 272.684 932.626 272.745 938.098C267.29 938.037 262.871 933.651 262.748 928.206Z" fill="#C99949"/>
<path d="M252.748 938.098C252.81 932.626 257.262 928.209 262.742 928.206C262.619 933.651 258.203 938.037 252.748 938.098Z" fill="#C99949"/>
<path d="M262.742 947.99C257.262 947.987 252.81 943.57 252.748 938.098C258.203 938.163 262.619 942.546 262.742 947.99Z" fill="#C99949"/>
</svg>
