<svg width="367" height="663" viewBox="0 0 367 663" fill="none" xmlns="http://www.w3.org/2000/svg">
<mask id="mask0_658_16029" style="mask-type:luminance" maskUnits="userSpaceOnUse" x="195" y="652" width="134" height="2">
<path d="M328.079 653.273H195V652.015H328.079V653.273Z" fill="white"/>
</mask>
<g mask="url(#mask0_658_16029)">
<path d="M328.079 653.237H194.803V652.318H328.079V653.237Z" fill="#C99949"/>
</g>
<mask id="mask1_658_16029" style="mask-type:luminance" maskUnits="userSpaceOnUse" x="328" y="625" width="39" height="34">
<path d="M366.079 658.396H328V625H366.079V658.396Z" fill="white"/>
</mask>
<g mask="url(#mask1_658_16029)">
<mask id="mask2_658_16029" style="mask-type:luminance" maskUnits="userSpaceOnUse" x="356" y="625" width="1" height="23">
<path d="M356.119 647.318H356.822V625.081H356.119V647.318Z" fill="white"/>
</mask>
<g mask="url(#mask2_658_16029)">
<path fill-rule="evenodd" clip-rule="evenodd" d="M357.319 625.081V647.027H355.625V625.081H357.319Z" fill="#C99949"/>
</g>
<mask id="mask3_658_16029" style="mask-type:luminance" maskUnits="userSpaceOnUse" x="327" y="652" width="27" height="2">
<path d="M327 653.113H353.12V652.212H327V653.113Z" fill="white"/>
</mask>
<g mask="url(#mask3_658_16029)">
<path fill-rule="evenodd" clip-rule="evenodd" d="M327.015 652.01H352.343V653.455H327.015V652.01Z" fill="#C99949"/>
</g>
<mask id="mask4_658_16029" style="mask-type:luminance" maskUnits="userSpaceOnUse" x="355" y="650" width="10" height="8">
<path d="M355.764 657.543H364.65V650.405H355.764V657.543Z" fill="white"/>
</mask>
<g mask="url(#mask4_658_16029)">
<path fill-rule="evenodd" clip-rule="evenodd" d="M355.626 650.092H364.858V657.978H355.626V650.092ZM357.32 651.537V656.533H363.165V651.537H357.32Z" fill="#C99949"/>
</g>
<mask id="mask5_658_16029" style="mask-type:luminance" maskUnits="userSpaceOnUse" x="360" y="644" width="5" height="4">
<path d="M360.826 647.318H364.635V644.087H360.826V647.318Z" fill="white"/>
</mask>
<g mask="url(#mask5_658_16029)">
<path fill-rule="evenodd" clip-rule="evenodd" d="M360.357 643.659H365.146V647.75H360.357V643.659ZM362.051 645.104V646.305H363.452V645.104H362.051Z" fill="#C99949"/>
</g>
<path fill-rule="evenodd" clip-rule="evenodd" d="M351.496 646.305H362.051V655.323H351.496V646.305ZM353.19 647.75V653.878H360.357V647.75H353.19Z" fill="#C99949"/>
<path fill-rule="evenodd" clip-rule="evenodd" d="M346.304 641.868H353.19V647.75H346.304V641.868ZM347.998 643.313V646.305H351.496V643.313H347.998Z" fill="#C99949"/>
<path fill-rule="evenodd" clip-rule="evenodd" d="M348.973 653.878H353.189V657.477H348.973V653.878ZM350.667 655.323V656.032H351.496V655.323H350.667Z" fill="#C99949"/>
</g>
<mask id="mask6_658_16029" style="mask-type:luminance" maskUnits="userSpaceOnUse" x="0" y="625" width="39" height="34">
<path d="M-9.91821e-05 658.396H38.0791V625H-9.91821e-05V658.396Z" fill="white"/>
</mask>
<g mask="url(#mask6_658_16029)">
<mask id="mask7_658_16029" style="mask-type:luminance" maskUnits="userSpaceOnUse" x="9" y="625" width="1" height="23">
<path d="M9.95996 647.318H9.25755V625.081H9.95996V647.318Z" fill="white"/>
</mask>
<g mask="url(#mask7_658_16029)">
<path fill-rule="evenodd" clip-rule="evenodd" d="M8.75981 625.081V647.027H10.4536V625.081H8.75981Z" fill="#C99949"/>
</g>
<mask id="mask8_658_16029" style="mask-type:luminance" maskUnits="userSpaceOnUse" x="12" y="652" width="28" height="2">
<path d="M39.0791 653.113H12.9596V652.212H39.0791V653.113Z" fill="white"/>
</mask>
<g mask="url(#mask8_658_16029)">
<path fill-rule="evenodd" clip-rule="evenodd" d="M39.0645 652.01H13.7361V653.455H39.0645V652.01Z" fill="#C99949"/>
</g>
<mask id="mask9_658_16029" style="mask-type:luminance" maskUnits="userSpaceOnUse" x="1" y="650" width="10" height="8">
<path d="M10.3149 657.543H1.42938V650.405H10.3149V657.543Z" fill="white"/>
</mask>
<g mask="url(#mask9_658_16029)">
<path fill-rule="evenodd" clip-rule="evenodd" d="M10.4531 650.092H1.22073V657.978H10.4531V650.092ZM8.75932 651.537V656.533H2.91454V651.537H8.75932Z" fill="#C99949"/>
</g>
<mask id="mask10_658_16029" style="mask-type:luminance" maskUnits="userSpaceOnUse" x="1" y="644" width="5" height="4">
<path d="M5.25342 647.318H1.44385V644.087H5.25342V647.318Z" fill="white"/>
</mask>
<g mask="url(#mask10_658_16029)">
<path fill-rule="evenodd" clip-rule="evenodd" d="M5.72217 643.659H0.933595V647.75H5.72217V643.659ZM4.02836 645.104V646.305H2.6274V645.104H4.02836Z" fill="#C99949"/>
</g>
<path fill-rule="evenodd" clip-rule="evenodd" d="M14.583 646.305H4.02842V655.323H14.583V646.305ZM12.8892 647.75V653.878H5.72222V647.75H12.8892Z" fill="#C99949"/>
<path fill-rule="evenodd" clip-rule="evenodd" d="M19.7749 641.868H12.8894V647.75H19.7749V641.868ZM18.0811 643.313V646.305H14.5832V643.313H18.0811Z" fill="#C99949"/>
<path fill-rule="evenodd" clip-rule="evenodd" d="M17.106 653.878H12.8896V657.477H17.106V653.878ZM15.4122 655.323V656.032H14.5835V655.323H15.4122Z" fill="#C99949"/>
</g>
<mask id="mask11_658_16029" style="mask-type:luminance" maskUnits="userSpaceOnUse" x="9" y="35" width="1" height="378">
<path d="M10 412.798L10 35.9667H9L9 412.798H10Z" fill="white"/>
</mask>
<g mask="url(#mask11_658_16029)">
<path d="M9.97119 412.798L9.97119 35.409H9.24012L9.24012 412.798H9.97119Z" fill="#C99949"/>
</g>
<mask id="mask12_658_16029" style="mask-type:luminance" maskUnits="userSpaceOnUse" x="356" y="35" width="1" height="369">
<path d="M357 403.414L357 35.9666H356L356 403.414H357Z" fill="white"/>
</mask>
<g mask="url(#mask12_658_16029)">
<path d="M356.971 403.414L356.971 35.4228H356.24L356.24 403.414H356.971Z" fill="#C99949"/>
</g>
<mask id="mask13_658_16029" style="mask-type:luminance" maskUnits="userSpaceOnUse" x="195" y="9" width="133" height="2">
<path d="M195 9.49707H328V10.7555H195V9.49707Z" fill="white"/>
</mask>
<g mask="url(#mask13_658_16029)">
<path d="M195 9.5332H328.197V10.4523H195V9.5332Z" fill="#C99949"/>
</g>
<mask id="mask14_658_16029" style="mask-type:luminance" maskUnits="userSpaceOnUse" x="38" y="9" width="133" height="2">
<path d="M38 9.49707H171V10.7555H38V9.49707Z" fill="white"/>
</mask>
<g mask="url(#mask14_658_16029)">
<path d="M38 9.5332H171.197V10.4523H38V9.5332Z" fill="#C99949"/>
</g>
<mask id="mask15_658_16029" style="mask-type:luminance" maskUnits="userSpaceOnUse" x="0" y="4" width="39" height="34">
<path d="M-9.91821e-05 4.37402H38.0791V37.7701H-9.91821e-05V4.37402Z" fill="white"/>
</mask>
<g mask="url(#mask15_658_16029)">
<mask id="mask16_658_16029" style="mask-type:luminance" maskUnits="userSpaceOnUse" x="9" y="15" width="1" height="23">
<path d="M9.95996 15.4521H9.25755V37.6892H9.95996V15.4521Z" fill="white"/>
</mask>
<g mask="url(#mask16_658_16029)">
<path fill-rule="evenodd" clip-rule="evenodd" d="M8.75981 37.6895V15.7432H10.4536V37.6895H8.75981Z" fill="#C99949"/>
</g>
<mask id="mask17_658_16029" style="mask-type:luminance" maskUnits="userSpaceOnUse" x="12" y="9" width="28" height="2">
<path d="M39.0791 9.65723H12.9596V10.559H39.0791V9.65723Z" fill="white"/>
</mask>
<g mask="url(#mask17_658_16029)">
<path fill-rule="evenodd" clip-rule="evenodd" d="M39.0645 10.7607H13.7361V9.31579H39.0645V10.7607Z" fill="#C99949"/>
</g>
<mask id="mask18_658_16029" style="mask-type:luminance" maskUnits="userSpaceOnUse" x="1" y="5" width="10" height="8">
<path d="M10.3149 5.22754H1.42938V12.3655H10.3149V5.22754Z" fill="white"/>
</mask>
<g mask="url(#mask18_658_16029)">
<path fill-rule="evenodd" clip-rule="evenodd" d="M10.4531 12.6787H1.22073V4.79216H10.4531V12.6787ZM8.75932 11.2338V6.23711H2.91454V11.2338H8.75932Z" fill="#C99949"/>
</g>
<mask id="mask19_658_16029" style="mask-type:luminance" maskUnits="userSpaceOnUse" x="1" y="15" width="5" height="4">
<path d="M5.25342 15.4521H1.44385V18.6835H5.25342V15.4521Z" fill="white"/>
</mask>
<g mask="url(#mask19_658_16029)">
<path fill-rule="evenodd" clip-rule="evenodd" d="M5.72217 19.1113H0.933595V15.0203H5.72217V19.1113ZM4.02836 17.6664V16.4652H2.6274V17.6664H4.02836Z" fill="#C99949"/>
</g>
<path fill-rule="evenodd" clip-rule="evenodd" d="M14.583 16.4658H4.02842V7.44749H14.583V16.4658ZM12.8892 15.0209V8.89244H5.72222V15.0209H12.8892Z" fill="#C99949"/>
<path fill-rule="evenodd" clip-rule="evenodd" d="M19.7749 20.9023H12.8894V15.0202H19.7749V20.9023ZM18.0811 19.4574V16.4651H14.5832V19.4574H18.0811Z" fill="#C99949"/>
<path fill-rule="evenodd" clip-rule="evenodd" d="M17.106 8.89258H12.8896V5.29337H17.106V8.89258ZM15.4122 7.44763V6.73832H14.5835V7.44763H15.4122Z" fill="#C99949"/>
</g>
<mask id="mask20_658_16029" style="mask-type:luminance" maskUnits="userSpaceOnUse" x="328" y="4" width="39" height="34">
<path d="M366.079 4.37402H328V37.7701H366.079V4.37402Z" fill="white"/>
</mask>
<g mask="url(#mask20_658_16029)">
<mask id="mask21_658_16029" style="mask-type:luminance" maskUnits="userSpaceOnUse" x="356" y="15" width="1" height="23">
<path d="M356.119 15.4521H356.822V37.6892H356.119V15.4521Z" fill="white"/>
</mask>
<g mask="url(#mask21_658_16029)">
<path fill-rule="evenodd" clip-rule="evenodd" d="M357.319 37.6895V15.7432H355.625V37.6895H357.319Z" fill="#C99949"/>
</g>
<mask id="mask22_658_16029" style="mask-type:luminance" maskUnits="userSpaceOnUse" x="327" y="9" width="27" height="2">
<path d="M327 9.65723H353.12V10.559H327V9.65723Z" fill="white"/>
</mask>
<g mask="url(#mask22_658_16029)">
<path fill-rule="evenodd" clip-rule="evenodd" d="M327.015 10.7607H352.343V9.31579H327.015V10.7607Z" fill="#C99949"/>
</g>
<mask id="mask23_658_16029" style="mask-type:luminance" maskUnits="userSpaceOnUse" x="355" y="5" width="10" height="8">
<path d="M355.764 5.22754H364.65V12.3655H355.764V5.22754Z" fill="white"/>
</mask>
<g mask="url(#mask23_658_16029)">
<path fill-rule="evenodd" clip-rule="evenodd" d="M355.626 12.6787H364.858V4.79216H355.626V12.6787ZM357.32 11.2338V6.23711H363.165V11.2338H357.32Z" fill="#C99949"/>
</g>
<mask id="mask24_658_16029" style="mask-type:luminance" maskUnits="userSpaceOnUse" x="360" y="15" width="5" height="4">
<path d="M360.826 15.4521H364.635V18.6835H360.826V15.4521Z" fill="white"/>
</mask>
<g mask="url(#mask24_658_16029)">
<path fill-rule="evenodd" clip-rule="evenodd" d="M360.357 19.1113H365.146V15.0203H360.357V19.1113ZM362.051 17.6664V16.4652H363.452V17.6664H362.051Z" fill="#C99949"/>
</g>
<path fill-rule="evenodd" clip-rule="evenodd" d="M351.496 16.4658H362.051V7.44749H351.496V16.4658ZM353.19 15.0209V8.89244H360.357V15.0209H353.19Z" fill="#C99949"/>
<path fill-rule="evenodd" clip-rule="evenodd" d="M346.304 20.9023H353.19V15.0202H346.304V20.9023ZM347.998 19.4574V16.4651H351.496V19.4574H347.998Z" fill="#C99949"/>
<path fill-rule="evenodd" clip-rule="evenodd" d="M348.973 8.89258H353.189V5.29337H348.973V8.89258ZM350.667 7.44763V6.73832H351.496V7.44763H350.667Z" fill="#C99949"/>
</g>
<path d="M38 652.67L171 653.275" stroke="#C99949"/>
<mask id="mask25_658_16029" style="mask-type:luminance" maskUnits="userSpaceOnUse" x="9" y="236" width="1" height="395">
<path d="M10 631L10 236.689H9L9 631H10Z" fill="white"/>
</mask>
<g mask="url(#mask25_658_16029)">
<path d="M9.97119 631L9.97119 236.106H9.24012L9.24012 631H9.97119Z" fill="#C99949"/>
</g>
<mask id="mask26_658_16029" style="mask-type:luminance" maskUnits="userSpaceOnUse" x="356" y="236" width="1" height="389">
<path d="M357 625L357 236.688H356L356 625H357Z" fill="white"/>
</mask>
<g mask="url(#mask26_658_16029)">
<path d="M356.971 625L356.971 236.114H356.24L356.24 625H356.971Z" fill="#C99949"/>
</g>
<mask id="mask27_658_16029" style="mask-type:luminance" maskUnits="userSpaceOnUse" x="173" y="0" width="20" height="20">
<path d="M192.716 19.7246H173.012V0.000303268H192.716V19.7246Z" fill="white"/>
</mask>
<g mask="url(#mask27_658_16029)">
<path d="M182.863 1.16988C187.661 1.16988 191.547 5.06205 191.547 9.86246C191.547 14.6629 187.661 18.5529 182.863 18.5529C178.069 18.5529 174.18 14.6629 174.18 9.86246C174.18 5.06205 178.069 1.16988 182.863 1.16988ZM182.863 19.7246C188.305 19.7246 192.716 15.3076 192.716 9.86246C192.716 4.41514 188.305 0.000303268 182.863 0.000303268C177.423 0.000303268 173.012 4.41514 173.012 9.86246C173.012 15.3076 177.423 19.7246 182.863 19.7246Z" fill="#C99949"/>
</g>
<path d="M182.865 16.8281C182.95 13.0388 186.026 9.98845 189.822 9.94347C189.779 13.7521 186.681 16.826 182.865 16.8281Z" fill="#C99949"/>
<path d="M175.905 9.94347C179.702 9.98845 182.775 13.0388 182.86 16.8281C179.047 16.826 175.948 13.7521 175.905 9.94347Z" fill="#C99949"/>
<path d="M175.905 9.78125C175.948 5.97263 179.047 2.89874 182.86 2.89659C182.775 6.68594 179.702 9.73627 175.905 9.78125Z" fill="#C99949"/>
<path d="M182.865 2.89659C186.681 2.89874 189.779 5.97263 189.822 9.78125C186.026 9.73627 182.95 6.68594 182.865 2.89659Z" fill="#C99949"/>
<path d="M182.865 16.8281C182.95 13.0388 186.026 9.98845 189.822 9.94347C189.779 13.7521 186.681 16.826 182.865 16.8281Z" fill="#C99949"/>
<path d="M182.865 3.0587C186.681 3.06084 189.779 6.13474 189.822 9.94336C186.026 9.90052 182.95 6.84805 182.865 3.0587Z" fill="#C99949"/>
<path d="M175.905 9.94336C175.948 6.13474 179.047 3.06084 182.86 3.0587C182.775 6.84805 179.702 9.90052 175.905 9.94336Z" fill="#C99949"/>
<path d="M182.86 16.8281C179.047 16.826 175.948 13.7521 175.905 9.94347C179.702 9.98845 182.775 13.0388 182.86 16.8281Z" fill="#C99949"/>
<mask id="mask28_658_16029" style="mask-type:luminance" maskUnits="userSpaceOnUse" x="173" y="642" width="20" height="21">
<path d="M192.715 662.035H173.011V642.311H192.715V662.035Z" fill="white"/>
</mask>
<g mask="url(#mask28_658_16029)">
<path d="M182.862 643.48C187.66 643.48 191.547 647.373 191.547 652.173C191.547 656.973 187.66 660.863 182.862 660.863C178.068 660.863 174.18 656.973 174.18 652.173C174.18 647.373 178.068 643.48 182.862 643.48ZM182.862 662.035C188.305 662.035 192.715 657.618 192.715 652.173C192.715 646.726 188.305 642.311 182.862 642.311C177.422 642.311 173.011 646.726 173.011 652.173C173.011 657.618 177.422 662.035 182.862 662.035Z" fill="#C99949"/>
</g>
<path d="M182.864 659.139C182.95 655.349 186.025 652.299 189.822 652.254C189.779 656.063 186.68 659.137 182.864 659.139Z" fill="#C99949"/>
<path d="M175.904 652.254C179.701 652.299 182.774 655.349 182.86 659.139C179.046 659.137 175.947 656.063 175.904 652.254Z" fill="#C99949"/>
<path d="M175.904 652.092C175.947 648.283 179.046 645.209 182.86 645.207C182.774 648.996 179.701 652.047 175.904 652.092Z" fill="#C99949"/>
<path d="M182.864 645.207C186.68 645.209 189.779 648.283 189.822 652.092C186.025 652.047 182.95 648.996 182.864 645.207Z" fill="#C99949"/>
<path d="M182.864 659.139C182.95 655.349 186.025 652.299 189.822 652.254C189.779 656.063 186.68 659.137 182.864 659.139Z" fill="#C99949"/>
<path d="M182.864 645.369C186.68 645.371 189.779 648.445 189.822 652.254C186.025 652.211 182.95 649.159 182.864 645.369Z" fill="#C99949"/>
<path d="M175.904 652.254C175.947 648.445 179.046 645.371 182.86 645.369C182.774 649.159 179.701 652.211 175.904 652.254Z" fill="#C99949"/>
<path d="M182.86 659.139C179.046 659.137 175.947 656.063 175.904 652.254C179.701 652.299 182.774 655.349 182.86 659.139Z" fill="#C99949"/>
</svg>
