<svg width="145" height="51" viewBox="0 0 145 51" fill="none" xmlns="http://www.w3.org/2000/svg">
<g filter="url(#filter0_d_315_1384)">
<path d="M116.259 17.98L117.579 18.64L117.359 18.86V22.6C117.359 22.908 117.447 23.1353 117.623 23.282C117.799 23.414 118.004 23.48 118.239 23.48C118.473 23.48 118.679 23.414 118.855 23.282C119.031 23.1353 119.119 22.908 119.119 22.6V18.86L118.899 18.64L119.779 17.98L121.099 18.64L120.879 18.86V23.04C120.879 23.2893 120.688 23.5753 120.307 23.898C119.925 24.206 119.529 24.36 119.119 24.36V26.34L119.339 26.56L118.459 27.22L117.139 26.56L117.359 26.34V24.36C116.948 24.36 116.552 24.206 116.171 23.898C115.789 23.5753 115.599 23.2893 115.599 23.04V18.86L115.379 18.64L116.259 17.98Z" fill="#FBE9B8"/>
</g>
<g filter="url(#filter1_d_315_1384)">
<path d="M110.521 21.28L110.543 22.16V24.8C110.543 25.0786 110.565 25.2766 110.609 25.394C110.668 25.4966 110.756 25.5186 110.873 25.46C112.032 24.8733 112.948 24.6533 113.623 24.8C113.828 24.844 114.122 25.064 114.503 25.46L113.623 27.22L113.293 27L113.469 26.604C113.308 26.4426 113.176 26.3546 113.073 26.34C112.736 26.2813 112.252 26.3766 111.621 26.626C110.99 26.8753 110.631 27 110.543 27C110.132 27 109.736 26.846 109.355 26.538C108.974 26.2153 108.783 25.9293 108.783 25.68V20.18L108.123 19.52C108.196 19.476 108.284 19.3953 108.387 19.278C108.49 19.1606 108.548 19.0946 108.563 19.08C108.592 19.1093 108.644 19.168 108.717 19.256C108.79 19.3293 108.886 19.344 109.003 19.3C109.12 19.256 109.619 19.0286 110.499 18.618C111.394 18.1926 111.922 17.98 112.083 17.98C112.391 18.0533 112.721 18.31 113.073 18.75C113.44 19.1753 113.623 19.5053 113.623 19.74C113.623 20.0333 113.256 20.3266 112.523 20.62L112.193 20.18L112.633 19.96C112.662 19.9306 112.64 19.8573 112.567 19.74C112.508 19.6226 112.428 19.564 112.325 19.564C112.222 19.564 111.936 19.6666 111.467 19.872C110.998 20.0626 110.712 20.3266 110.609 20.664C110.55 20.8693 110.521 21.0746 110.521 21.28Z" fill="#FBE9B8"/>
</g>
<g filter="url(#filter2_d_315_1384)">
<path d="M105.707 21.544L106.081 21.742C105.656 22.2846 105.275 22.644 104.937 22.82C104.791 22.82 104.585 22.7686 104.321 22.666C104.057 22.5633 103.903 22.512 103.859 22.512C103.83 22.512 103.786 22.5413 103.727 22.6V24.8C103.727 25.0786 103.749 25.2766 103.793 25.394C103.852 25.4966 103.94 25.5186 104.057 25.46C105.216 24.8733 106.133 24.6533 106.807 24.8C107.013 24.844 107.306 25.064 107.687 25.46L106.807 27.22L106.477 27L106.653 26.604C106.492 26.4426 106.36 26.3546 106.257 26.34C105.92 26.2813 105.436 26.3766 104.805 26.626C104.175 26.8753 103.815 27 103.727 27C103.317 27 102.921 26.846 102.539 26.538C102.158 26.2153 101.967 25.9293 101.967 25.68V20.18L101.307 19.52C101.381 19.476 101.469 19.3953 101.571 19.278C101.674 19.1606 101.733 19.0946 101.747 19.08C101.777 19.1093 101.828 19.168 101.901 19.256C101.975 19.3293 102.07 19.344 102.187 19.3C102.305 19.256 102.803 19.0286 103.683 18.618C104.578 18.1926 105.106 17.98 105.267 17.98C105.575 18.0533 105.905 18.31 106.257 18.75C106.624 19.1753 106.807 19.5053 106.807 19.74C106.807 20.0333 106.441 20.3266 105.707 20.62L105.377 20.18L105.817 19.96C105.847 19.9306 105.825 19.8573 105.751 19.74C105.693 19.6226 105.612 19.564 105.509 19.564C105.407 19.564 105.157 19.652 104.761 19.828C104.38 19.9893 104.131 20.1506 104.013 20.312C103.911 20.4586 103.837 20.576 103.793 20.664C103.764 20.7373 103.742 20.8326 103.727 20.95C103.713 21.0673 103.705 21.1626 103.705 21.236C103.705 21.2946 103.705 21.4193 103.705 21.61C103.72 21.786 103.727 21.9253 103.727 22.028C104.05 21.676 104.314 21.4266 104.519 21.28C104.637 21.324 104.783 21.39 104.959 21.478C105.135 21.566 105.26 21.6246 105.333 21.654C105.407 21.6833 105.458 21.698 105.487 21.698C105.517 21.6833 105.59 21.632 105.707 21.544Z" fill="#FBE9B8"/>
</g>
<g filter="url(#filter3_d_315_1384)">
<path d="M95.3604 17.98L96.6804 18.64L96.4604 18.86V23.348C96.7831 22.996 97.0471 22.7466 97.2524 22.6C97.3697 22.644 97.5457 22.7246 97.7804 22.842C98.0297 22.9593 98.1764 23.018 98.2204 23.018V18.86L98.0004 18.64L98.8804 17.98L100.2 18.64L99.9804 18.86V26.34L100.2 26.56L99.3204 27.22L98.0004 26.56L98.2204 26.34V23.722C98.0297 23.9126 97.8464 24.052 97.6704 24.14C97.5237 24.14 97.3184 24.0886 97.0544 23.986C96.7904 23.8833 96.6364 23.832 96.5924 23.832C96.5631 23.832 96.5191 23.8613 96.4604 23.92V26.34L96.6804 26.56L95.8004 27.22L94.4804 26.56L94.7004 26.34V18.86L94.4804 18.64L95.3604 17.98Z" fill="#FBE9B8"/>
</g>
<g filter="url(#filter4_d_315_1384)">
<path d="M89.1935 18.2C89.1935 18.2 89.7802 18.2 90.9535 18.2C91.3642 18.2 91.7602 18.3613 92.1415 18.684C92.5228 18.992 92.7135 19.2706 92.7135 19.52V23.48L92.9335 23.7C92.1415 24.14 91.4815 24.36 90.9535 24.36H89.1935V26.34L89.4135 26.56L88.5335 27.22L87.2135 26.56L87.4335 26.34V19.08L87.2135 18.86C88.0055 18.42 88.6655 18.2 89.1935 18.2ZM90.6895 19.3C90.5135 19.1533 90.3082 19.08 90.0735 19.08C89.8388 19.08 89.6335 19.1533 89.4575 19.3C89.2815 19.432 89.1935 19.652 89.1935 19.96V22.6C89.1935 22.908 89.2815 23.1353 89.4575 23.282C89.6335 23.414 89.8388 23.48 90.0735 23.48C90.3082 23.48 90.5135 23.414 90.6895 23.282C90.8655 23.1353 90.9535 22.908 90.9535 22.6V19.96C90.9535 19.652 90.8655 19.432 90.6895 19.3Z" fill="#FBE9B8"/>
</g>
<g filter="url(#filter5_d_315_1384)">
<path d="M81.9267 18.2C81.9267 18.2 82.5133 18.2 83.6867 18.2C84.2147 18.2 84.8747 18.42 85.6667 18.86L85.4467 19.08V26.12L85.6667 26.34C84.8747 26.78 84.2147 27 83.6867 27H81.9267C81.3987 27 80.7387 26.78 79.9467 26.34L80.1667 26.12V19.08L79.9467 18.86C80.7387 18.42 81.3987 18.2 81.9267 18.2ZM83.4227 19.3C83.2467 19.1533 83.0413 19.08 82.8067 19.08C82.572 19.08 82.3667 19.1533 82.1907 19.3C82.0147 19.432 81.9267 19.652 81.9267 19.96V25.24C81.9267 25.548 82.0147 25.7753 82.1907 25.922C82.3667 26.054 82.572 26.12 82.8067 26.12C83.0413 26.12 83.2467 26.054 83.4227 25.922C83.5987 25.7753 83.6867 25.548 83.6867 25.24V19.96C83.6867 19.652 83.5987 19.432 83.4227 19.3Z" fill="#FBE9B8"/>
</g>
<g filter="url(#filter6_d_315_1384)">
<path d="M74.6598 18.2C74.6598 18.2 75.2464 18.2 76.4198 18.2C76.8304 18.2 77.2264 18.3613 77.6078 18.684C77.9891 18.992 78.1798 19.2706 78.1798 19.52V22.6C78.1798 22.8493 77.9891 23.1353 77.6078 23.458C77.2264 23.766 76.8304 23.92 76.4198 23.92C76.8304 23.92 77.2264 24.0813 77.6078 24.404C77.9891 24.712 78.1798 24.9906 78.1798 25.24V26.34L78.3998 26.56L77.5198 27.22L76.1998 26.56L76.4198 26.34V25.24C76.4198 24.932 76.3318 24.712 76.1558 24.58C75.9798 24.4333 75.7744 24.36 75.5398 24.36H74.6598V26.34L74.8798 26.56L73.9998 27.22L72.6798 26.56L72.8998 26.34V19.08L72.6798 18.86C73.4718 18.42 74.1318 18.2 74.6598 18.2ZM76.1558 19.3C75.9798 19.1533 75.7744 19.08 75.5398 19.08C75.3051 19.08 75.0998 19.1533 74.9238 19.3C74.7478 19.432 74.6598 19.652 74.6598 19.96V22.6C74.6598 22.908 74.7478 23.1353 74.9238 23.282C75.0998 23.414 75.3051 23.48 75.5398 23.48C75.7744 23.48 75.9798 23.414 76.1558 23.282C76.3318 23.1353 76.4198 22.908 76.4198 22.6V19.96C76.4198 19.652 76.3318 19.432 76.1558 19.3Z" fill="#FBE9B8"/>
</g>
<g filter="url(#filter7_d_315_1384)">
<path d="M67.3929 18.2C67.3929 18.2 67.9796 18.2 69.1529 18.2C69.5636 18.2 69.9596 18.3613 70.3409 18.684C70.7222 18.992 70.9129 19.2706 70.9129 19.52V23.48L71.1329 23.7C70.3409 24.14 69.6809 24.36 69.1529 24.36H67.3929V26.34L67.6129 26.56L66.7329 27.22L65.4129 26.56L65.6329 26.34V19.08L65.4129 18.86C66.2049 18.42 66.8649 18.2 67.3929 18.2ZM68.8889 19.3C68.7129 19.1533 68.5076 19.08 68.2729 19.08C68.0382 19.08 67.8329 19.1533 67.6569 19.3C67.4809 19.432 67.3929 19.652 67.3929 19.96V22.6C67.3929 22.908 67.4809 23.1353 67.6569 23.282C67.8329 23.414 68.0382 23.48 68.2729 23.48C68.5076 23.48 68.7129 23.414 68.8889 23.282C69.0649 23.1353 69.1529 22.908 69.1529 22.6V19.96C69.1529 19.652 69.0649 19.432 68.8889 19.3Z" fill="#FBE9B8"/>
</g>
<g filter="url(#filter8_d_315_1384)">
<path d="M57.9329 21.544L58.3069 21.742C57.8816 22.2846 57.5002 22.644 57.1629 22.82C57.0162 22.82 56.8109 22.7686 56.5469 22.666C56.2829 22.5633 56.1289 22.512 56.0849 22.512C56.0556 22.512 56.0116 22.5413 55.9529 22.6V24.8C55.9529 25.0786 55.9749 25.2766 56.0189 25.394C56.0776 25.4966 56.1656 25.5186 56.2829 25.46C57.4416 24.8733 58.3582 24.6533 59.0329 24.8C59.2382 24.844 59.5316 25.064 59.9129 25.46L59.0329 27.22L58.7029 27L58.8789 26.604C58.7176 26.4426 58.5856 26.3546 58.4829 26.34C58.1456 26.2813 57.6616 26.3766 57.0309 26.626C56.4002 26.8753 56.0409 27 55.9529 27C55.5422 27 55.1462 26.846 54.7649 26.538C54.3836 26.2153 54.1929 25.9293 54.1929 25.68V20.18L53.5329 19.52C53.6062 19.476 53.6942 19.3953 53.7969 19.278C53.8996 19.1606 53.9582 19.0946 53.9729 19.08C54.0022 19.1093 54.0536 19.168 54.1269 19.256C54.2002 19.3293 54.2956 19.344 54.4129 19.3C54.5302 19.256 55.0289 19.0286 55.9089 18.618C56.8036 18.1926 57.3316 17.98 57.4929 17.98C57.8009 18.0533 58.1309 18.31 58.4829 18.75C58.8496 19.1753 59.0329 19.5053 59.0329 19.74C59.0329 20.0333 58.6662 20.3266 57.9329 20.62L57.6029 20.18L58.0429 19.96C58.0722 19.9306 58.0502 19.8573 57.9769 19.74C57.9182 19.6226 57.8376 19.564 57.7349 19.564C57.6322 19.564 57.3829 19.652 56.9869 19.828C56.6056 19.9893 56.3562 20.1506 56.2389 20.312C56.1362 20.4586 56.0629 20.576 56.0189 20.664C55.9896 20.7373 55.9676 20.8326 55.9529 20.95C55.9382 21.0673 55.9309 21.1626 55.9309 21.236C55.9309 21.2946 55.9309 21.4193 55.9309 21.61C55.9456 21.786 55.9529 21.9253 55.9529 22.028C56.2756 21.676 56.5396 21.4266 56.7449 21.28C56.8622 21.324 57.0089 21.39 57.1849 21.478C57.3609 21.566 57.4856 21.6246 57.5589 21.654C57.6322 21.6833 57.6836 21.698 57.7129 21.698C57.7422 21.6833 57.8156 21.632 57.9329 21.544Z" fill="#FBE9B8"/>
</g>
<g filter="url(#filter9_d_315_1384)">
<path d="M51.1163 17.98L52.4363 18.64L52.2163 18.86V26.12L52.4363 26.34C51.6443 26.78 50.9843 27 50.4563 27H50.0163C49.7083 27 49.481 26.956 49.3343 26.868L48.8943 26.582C48.733 26.4793 48.5937 26.3986 48.4763 26.34L48.6963 26.12V19.52C48.6963 19.2266 48.623 19.08 48.4763 19.08C48.3297 19.08 48.2563 19.2266 48.2563 19.52V26.34L48.4763 26.56L47.5963 27.22L46.2763 26.56L46.4963 26.34V19.52C46.4963 19.2706 46.687 18.992 47.0683 18.684C47.4497 18.3613 47.8457 18.2 48.2563 18.2H48.6963C49.0043 18.2 49.2977 18.3613 49.5763 18.684C49.8697 18.992 50.0163 19.2706 50.0163 19.52V25.68C50.0163 25.9733 50.0897 26.12 50.2363 26.12C50.383 26.12 50.4563 25.9733 50.4563 25.68V18.86L50.2363 18.64L51.1163 17.98Z" fill="#FBE9B8"/>
</g>
<g filter="url(#filter10_d_315_1384)">
<path d="M40.9895 18.2C40.9895 18.2 41.5761 18.2 42.7495 18.2C43.1601 18.2 43.5561 18.3613 43.9375 18.684C44.3188 18.992 44.5095 19.2706 44.5095 19.52V26.34L44.7295 26.56L43.8495 27.22L42.5295 26.56L42.7495 26.34V24.602C42.5588 24.7926 42.3755 24.932 42.1995 25.02C42.0528 25.02 41.8475 24.9686 41.5835 24.866C41.3195 24.7633 41.1655 24.712 41.1215 24.712C41.0921 24.712 41.0481 24.7413 40.9895 24.8V26.34L41.2095 26.56L40.3295 27.22L39.0095 26.56L39.2295 26.34V19.52C39.2295 19.2706 39.4201 18.992 39.8015 18.684C40.1828 18.3613 40.5788 18.2 40.9895 18.2ZM42.7495 19.52C42.5441 19.2266 42.2361 19.08 41.8255 19.08C41.4148 19.08 41.1361 19.2266 40.9895 19.52V24.228C41.3121 23.876 41.5761 23.6266 41.7815 23.48C41.8988 23.524 42.0748 23.6046 42.3095 23.722C42.5588 23.8393 42.7055 23.898 42.7495 23.898V19.52Z" fill="#FBE9B8"/>
</g>
<g filter="url(#filter11_d_315_1384)">
<path d="M34.1518 21.28L34.1738 22.16V24.8C34.1738 25.0786 34.1958 25.2766 34.2398 25.394C34.2984 25.4966 34.3864 25.5186 34.5038 25.46C35.6624 24.8733 36.5791 24.6533 37.2538 24.8C37.4591 24.844 37.7524 25.064 38.1338 25.46L37.2538 27.22L36.9238 27L37.0998 26.604C36.9384 26.4426 36.8064 26.3546 36.7038 26.34C36.3664 26.2813 35.8824 26.3766 35.2518 26.626C34.6211 26.8753 34.2618 27 34.1738 27C33.7631 27 33.3671 26.846 32.9858 26.538C32.6044 26.2153 32.4138 25.9293 32.4138 25.68V20.18L31.7538 19.52C31.8271 19.476 31.9151 19.3953 32.0178 19.278C32.1204 19.1606 32.1791 19.0946 32.1938 19.08C32.2231 19.1093 32.2744 19.168 32.3478 19.256C32.4211 19.3293 32.5164 19.344 32.6338 19.3C32.7511 19.256 33.2498 19.0286 34.1298 18.618C35.0244 18.1926 35.5524 17.98 35.7138 17.98C36.0218 18.0533 36.3518 18.31 36.7038 18.75C37.0704 19.1753 37.2538 19.5053 37.2538 19.74C37.2538 20.0333 36.8871 20.3266 36.1538 20.62L35.8238 20.18L36.2638 19.96C36.2931 19.9306 36.2711 19.8573 36.1978 19.74C36.1391 19.6226 36.0584 19.564 35.9558 19.564C35.8531 19.564 35.5671 19.6666 35.0978 19.872C34.6284 20.0626 34.3424 20.3266 34.2398 20.664C34.1811 20.8693 34.1518 21.0746 34.1518 21.28Z" fill="#FBE9B8"/>
</g>
<g filter="url(#filter12_d_315_1384)">
<path d="M26.9069 18.2C26.9069 18.2 27.4935 18.2 28.6669 18.2C29.0775 18.2 29.4735 18.3613 29.8549 18.684C30.2362 18.992 30.4269 19.2706 30.4269 19.52V22.6C30.4269 22.8493 30.2362 23.1353 29.8549 23.458C29.4735 23.766 29.0775 23.92 28.6669 23.92C29.0775 23.92 29.4735 24.0813 29.8549 24.404C30.2362 24.712 30.4269 24.9906 30.4269 25.24V26.34L30.6469 26.56L29.7669 27.22L28.4469 26.56L28.6669 26.34V25.24C28.6669 24.932 28.5789 24.712 28.4029 24.58C28.2269 24.4333 28.0215 24.36 27.7869 24.36H26.9069V26.34L27.1269 26.56L26.2469 27.22L24.9269 26.56L25.1469 26.34V19.08L24.9269 18.86C25.7189 18.42 26.3789 18.2 26.9069 18.2ZM28.4029 19.3C28.2269 19.1533 28.0215 19.08 27.7869 19.08C27.5522 19.08 27.3469 19.1533 27.1709 19.3C26.9949 19.432 26.9069 19.652 26.9069 19.96V22.6C26.9069 22.908 26.9949 23.1353 27.1709 23.282C27.3469 23.414 27.5522 23.48 27.7869 23.48C28.0215 23.48 28.2269 23.414 28.4029 23.282C28.5789 23.1353 28.6669 22.908 28.6669 22.6V19.96C28.6669 19.652 28.5789 19.432 28.4029 19.3Z" fill="#FBE9B8"/>
</g>
<g filter="url(#filter13_d_315_1384)">
<path d="M19.64 18.2C19.64 18.2 20.2267 18.2 21.4 18.2C21.8107 18.2 22.2067 18.3613 22.588 18.684C22.9693 18.992 23.16 19.2706 23.16 19.52V26.34L23.38 26.56L22.5 27.22L21.18 26.56L21.4 26.34V24.602C21.2093 24.7926 21.026 24.932 20.85 25.02C20.7033 25.02 20.498 24.9686 20.234 24.866C19.97 24.7633 19.816 24.712 19.772 24.712C19.7427 24.712 19.6987 24.7413 19.64 24.8V26.34L19.86 26.56L18.98 27.22L17.66 26.56L17.88 26.34V19.52C17.88 19.2706 18.0707 18.992 18.452 18.684C18.8333 18.3613 19.2293 18.2 19.64 18.2ZM21.4 19.52C21.1947 19.2266 20.8867 19.08 20.476 19.08C20.0653 19.08 19.7867 19.2266 19.64 19.52V24.228C19.9627 23.876 20.2267 23.6266 20.432 23.48C20.5493 23.524 20.7253 23.6046 20.96 23.722C21.2093 23.8393 21.356 23.898 21.4 23.898V19.52Z" fill="#FBE9B8"/>
</g>
<mask id="mask0_315_1384" style="mask-type:luminance" maskUnits="userSpaceOnUse" x="67" y="11" width="64" height="24">
<path d="M67.8558 11H131V34.9341H67.8558V11Z" fill="white"/>
</mask>
<g mask="url(#mask0_315_1384)">
<path fill-rule="evenodd" clip-rule="evenodd" d="M47.1 32.9605C47.1 32.8581 47.216 32.7206 47.1186 32.6662C47.0907 32.6502 46.2466 32.6406 45.8384 32.6342C45.8616 32.4455 45.8802 32.2951 45.8987 32.2344C45.9683 31.9944 45.9822 31.7449 45.6158 31.7993C45.2494 31.8537 44.498 31.7833 44.2707 31.7833C44.0388 31.7833 43.5333 31.6586 43.6307 31.9337C43.6817 32.0776 43.677 32.3623 43.6678 32.6278C43.5101 32.6278 43.3987 32.6278 43.357 32.6278C43.1158 32.6278 43.0462 32.5575 43.0462 32.2216C43.0462 31.8825 43.1019 19.602 43.088 18.9814C43.0741 18.3608 42.7726 18.3096 42.7309 18.9654C42.6937 19.6212 42.5546 32.3271 42.4201 32.5734C42.2856 32.823 42.2438 33.0629 42.6798 33.0341C42.8097 33.0277 43.1854 33.0085 43.6492 32.9861C43.6446 33.0661 43.6399 33.1333 43.6446 33.1716C43.6585 33.4499 43.8626 33.3092 43.8904 33.1716C43.895 33.1301 43.9089 33.0597 43.9229 32.9701C44.3078 32.9509 44.7345 32.9317 45.1149 32.9157C45.1102 33.1077 45.1056 33.3316 45.0963 33.5459C44.0574 33.5075 42.6381 33.4563 42.5546 33.4499C42.4294 33.4403 42.2438 33.4275 42.2438 33.5843C42.2438 33.7378 42.1835 34.2753 42.114 34.5472C42.0444 34.8223 42.0398 34.9342 42.3181 34.9022C42.5963 34.8702 43.5843 34.8287 43.7605 34.7775C43.9368 34.7295 43.8069 34.6335 43.8069 34.3808C43.8069 34.1281 43.6167 34.1409 43.6307 34.32C43.6353 34.3776 43.6167 34.4256 43.5286 34.4256C43.4405 34.4224 43.0509 34.4096 42.9767 34.4064C42.9025 34.4032 42.9349 34.2689 42.9581 34.1089C42.9767 33.949 43.0045 33.9362 43.1019 33.9362C43.1576 33.9362 44.2104 33.9266 45.0824 33.9202C45.0685 34.2401 45.0592 34.4896 45.0499 34.5184C45.0314 34.6079 44.8922 34.7583 45.2865 34.7231C45.6807 34.6879 49.971 34.6207 50.4117 34.6399C50.8569 34.6559 51.2002 34.4672 50.4024 34.4736C49.6 34.4832 46.511 34.3776 46.0889 34.3968C45.6715 34.4128 45.7086 34.3872 45.7086 34.1825C45.7086 34.1409 45.7132 34.0449 45.7225 33.917C46.0008 33.9138 46.7475 33.9138 46.7846 33.9138C46.9516 33.9202 47.0907 33.9138 47.1557 33.8562C47.216 33.7986 47.1742 33.6259 47.1835 33.37C47.1881 33.1141 46.9423 33.194 46.9423 33.3572C46.9423 33.5203 46.8774 33.5811 46.7243 33.5811C46.6965 33.5811 45.9869 33.5779 45.7503 33.5683C45.7689 33.354 45.7874 33.1109 45.8106 32.8901C46.1167 32.8805 46.8449 32.8613 46.8727 32.8837C46.9052 32.9061 47.0165 33.1205 47.1 32.9605ZM129.395 34.32C129.409 34.1409 129.219 34.1281 129.219 34.3808C129.219 34.6335 129.089 34.7295 129.265 34.7775C129.442 34.8287 130.43 34.8702 130.708 34.9022C130.986 34.9342 130.977 34.8223 130.912 34.5472C130.842 34.2753 130.782 33.7378 130.782 33.5843C130.782 33.4275 130.596 33.4403 130.467 33.4499C130.383 33.4563 128.964 33.5075 127.93 33.5459C127.92 33.3316 127.911 33.1077 127.906 32.9157C128.291 32.9317 128.713 32.9509 129.103 32.9701C129.117 33.0597 129.131 33.1301 129.135 33.1716C129.163 33.3092 129.363 33.4499 129.381 33.1716C129.386 33.1333 129.381 33.0661 129.377 32.9861C129.84 33.0085 130.063 33.0181 130.346 33.0341C130.629 33.0533 130.74 32.823 130.606 32.5734C130.467 32.3271 130.332 30.0495 130.29 29.3938C130.253 28.738 129.952 28.7924 129.938 29.4129C129.924 30.0335 129.98 31.8825 129.98 32.2216C129.98 32.5575 129.808 32.6278 129.669 32.6278C129.525 32.6278 129.516 32.6278 129.358 32.6278C129.349 32.3623 129.344 32.0776 129.395 31.9337C129.488 31.6586 128.987 31.7833 128.755 31.7833C128.523 31.7833 127.776 31.8537 127.41 31.7993C127.044 31.7449 127.058 31.9944 127.122 32.2344C127.141 32.2951 127.164 32.4455 127.187 32.6342C126.779 32.6406 126.232 32.6502 126.204 32.6662C126.107 32.7206 126.223 32.8581 126.223 32.9605C126.306 33.1205 126.417 32.9061 126.45 32.8837C126.478 32.8613 126.909 32.8805 127.215 32.8901C127.234 33.1109 127.257 33.354 127.276 33.5683C127.034 33.5779 126.654 33.5811 126.622 33.5811C126.473 33.5811 126.408 33.5203 126.408 33.3572C126.408 33.194 126.162 33.1141 126.167 33.37C126.176 33.6259 126.135 33.7986 126.195 33.8562C126.255 33.9138 126.399 33.9202 126.561 33.9138C126.603 33.9138 127.02 33.9138 127.299 33.917C127.308 34.0449 127.313 34.1409 127.313 34.1825C127.313 34.3872 127.354 34.4128 126.932 34.3968C126.515 34.3776 55.5369 34.4832 54.7345 34.4736C53.932 34.4672 54.2799 34.6559 54.7205 34.6399C55.1612 34.6207 127.34 34.6879 127.735 34.7231C128.129 34.7583 127.994 34.6079 127.976 34.5184C127.967 34.4896 127.953 34.2401 127.943 33.9202C128.815 33.9266 129.868 33.9362 129.924 33.9362C130.021 33.9362 130.049 33.949 130.068 34.1089C130.086 34.2689 130.123 34.4032 130.049 34.4064C129.97 34.4096 129.585 34.4224 129.497 34.4256C129.409 34.4256 129.391 34.3776 129.395 34.32ZM98.2545 34.0993C98.4585 34.0897 125.541 34.1761 125.652 34.0929C125.763 34.0129 125.805 32.9893 125.717 32.9925C125.629 32.9957 124.34 32.9573 124.284 33.0181C124.228 33.0789 124.302 33.5875 124.377 33.5907C124.451 33.5939 124.562 33.2612 124.636 33.2484C124.706 33.2388 125.276 33.21 125.309 33.2452C125.341 33.2836 125.244 33.789 125.216 33.8242C125.188 33.8594 98.4632 33.933 98.2777 33.9458C98.0921 33.9618 98.0829 34.0897 98.2545 34.0993ZM47.9163 32.7142C48.1251 32.7206 49.1362 32.6374 49.2521 32.7174C49.3634 32.8006 49.4052 33.8242 49.3171 33.821C49.2289 33.8178 47.9349 33.853 47.8792 33.7954C47.8282 33.7346 47.8885 33.0917 47.9627 33.0885C48.0369 33.0853 48.1529 33.5043 48.2271 33.5171C48.3013 33.5267 48.8718 33.6035 48.9043 33.5651C48.9367 33.5299 48.844 33.0245 48.8161 32.9893C48.7883 32.9541 48.1251 32.8805 47.9442 32.8645C47.7586 32.8486 47.7447 32.7238 47.9163 32.7142ZM45.1242 32.6278C44.7206 32.6278 44.3032 32.6246 43.9692 32.6278C43.9878 32.4999 44.0017 32.3911 44.0017 32.3367C44.0017 32.196 44.1269 32.2152 44.2197 32.2024C44.3171 32.1896 44.7763 32.2216 44.934 32.2248C45.0917 32.228 45.1102 32.244 45.1242 32.3591C45.1288 32.3815 45.1288 32.4807 45.1242 32.6278ZM127.902 32.6278C127.897 32.4807 127.897 32.3815 127.902 32.3591C127.911 32.244 127.934 32.228 128.092 32.2248C128.245 32.2216 128.709 32.1896 128.801 32.2024C128.899 32.2152 129.024 32.196 129.024 32.3367C129.024 32.3911 129.038 32.4999 129.052 32.6278C128.723 32.6246 128.305 32.6278 127.902 32.6278ZM43.6492 26.969C43.6585 27.1066 43.5333 31.2587 43.6538 31.3323C43.7791 31.4059 45.3514 31.4314 45.3468 31.3739C45.3421 31.3163 45.3978 30.475 45.305 30.4398C45.2123 30.4046 44.4331 30.4526 44.4284 30.5006C44.4238 30.5486 44.934 30.6221 44.9525 30.6701C44.9665 30.7181 45.0128 31.086 44.9572 31.1084C44.8969 31.1276 44.1223 31.0668 44.0713 31.0476C44.0156 31.0316 43.9043 27.1066 43.8811 26.9882C43.8579 26.8666 43.6631 26.8602 43.6492 26.969ZM127.776 31.3163C127.786 31.1819 127.656 30.5198 127.781 30.4494C127.902 30.3758 129.474 30.347 129.469 30.4046C129.465 30.4622 129.52 31.3035 129.432 31.3387C129.34 31.3739 128.352 31.3355 128.347 31.2843C128.342 31.2363 128.987 31.1627 129.006 31.1148C129.024 31.0668 129.14 30.6925 129.08 30.6733C129.024 30.6509 128.25 30.7149 128.194 30.7309C128.143 30.7501 128.027 31.1787 128.004 31.3003C127.981 31.4186 127.79 31.4282 127.776 31.3163ZM125.926 12.9739C125.926 13.0762 125.81 13.2138 125.903 13.265C125.935 13.2842 126.779 13.2938 127.187 13.3002C127.164 13.4889 127.141 13.6393 127.122 13.7C127.058 13.9399 127.044 14.1895 127.41 14.1351C127.776 14.0807 128.523 14.1543 128.755 14.1543C128.987 14.1543 129.488 14.2758 129.395 14.0007C129.344 13.8568 129.349 13.5721 129.358 13.3066C129.516 13.3066 129.627 13.3066 129.669 13.3066C129.91 13.3066 129.98 13.3769 129.98 13.7128C129.98 14.0519 129.924 26.3324 129.938 26.953C129.952 27.5736 130.253 27.6248 130.29 26.969C130.332 26.3132 130.467 13.6073 130.606 13.3609C130.74 13.1114 130.782 12.8715 130.346 12.9003C130.216 12.9067 129.84 12.9259 129.377 12.9483C129.381 12.8683 129.386 12.8011 129.381 12.7628C129.363 12.4845 129.163 12.6252 129.135 12.7628C129.131 12.8043 129.117 12.8747 129.103 12.9643C128.713 12.9835 128.291 13.0027 127.906 13.0187C127.911 12.8267 127.92 12.6028 127.93 12.3885C128.964 12.4237 130.383 12.4781 130.467 12.4845C130.596 12.4941 130.782 12.5068 130.782 12.3533C130.782 12.1966 130.842 11.6591 130.912 11.3872C130.977 11.1121 130.986 11.0002 130.708 11.0322C130.43 11.0642 129.442 11.1057 129.265 11.1569C129.089 11.2049 129.219 11.3009 129.219 11.5536C129.219 11.8063 129.409 11.7935 129.395 11.6144C129.391 11.5568 129.409 11.5088 129.497 11.5088C129.585 11.512 129.97 11.5248 130.049 11.528C130.123 11.5312 130.086 11.6655 130.068 11.8255C130.049 11.9854 130.021 11.9982 129.924 11.9982C129.868 11.9982 128.815 12.0078 127.943 12.0142C127.953 11.6943 127.967 11.4448 127.976 11.416C127.994 11.3265 128.129 11.1761 127.735 11.2113C127.34 11.2465 123.055 11.3137 122.61 11.2945C122.169 11.2785 121.821 11.4672 122.623 11.4608C123.426 11.4512 126.515 11.5568 126.932 11.5376C127.354 11.5216 127.313 11.5472 127.313 11.7519C127.313 11.7935 127.308 11.8895 127.299 12.0174C127.02 12.0206 126.278 12.0206 126.237 12.0206C126.074 12.0142 125.93 12.0206 125.87 12.0782C125.81 12.1358 125.852 12.3085 125.842 12.5644C125.838 12.8203 126.084 12.7404 126.084 12.5772C126.084 12.4141 126.148 12.3533 126.297 12.3533C126.329 12.3533 127.034 12.3565 127.276 12.3661C127.257 12.5804 127.234 12.8235 127.215 13.0443C126.909 13.0539 126.181 13.073 126.148 13.0507C126.121 13.0283 126.005 12.8139 125.926 12.9739ZM129.377 18.9654C129.367 18.8278 129.493 14.6757 129.372 14.6021C129.247 14.5285 127.674 14.503 127.679 14.5605C127.684 14.6181 127.628 15.4594 127.721 15.4946C127.809 15.5298 128.593 15.4818 128.597 15.4338C128.602 15.3858 128.092 15.3123 128.073 15.2643C128.055 15.2163 128.013 14.8484 128.069 14.826C128.129 14.8068 128.904 14.8676 128.955 14.8868C129.006 14.9028 129.122 18.8278 129.145 18.9462C129.168 19.0678 129.363 19.0742 129.377 18.9654ZM43.6307 11.6144C43.6167 11.7935 43.8069 11.8063 43.8069 11.5536C43.8069 11.3009 43.9368 11.2049 43.7605 11.1569C43.5843 11.1057 42.5963 11.0642 42.3181 11.0322C42.0398 11.0002 42.0444 11.1121 42.114 11.3872C42.1835 11.6591 42.2438 12.1966 42.2438 12.3533C42.2438 12.5068 42.4294 12.4941 42.5546 12.4845C42.6381 12.4781 44.0574 12.4237 45.0963 12.3885C45.1056 12.6028 45.1102 12.8267 45.1149 13.0187C44.7345 13.0027 44.3078 12.9835 43.9229 12.9643C43.9089 12.8747 43.895 12.8043 43.8904 12.7628C43.8626 12.6252 43.6585 12.4845 43.6446 12.7628C43.6399 12.8011 43.6446 12.8683 43.6492 12.9483C43.1854 12.9259 42.9628 12.9163 42.6798 12.9003C42.3969 12.8811 42.2856 13.1114 42.4201 13.3609C42.5546 13.6073 42.6937 15.8849 42.7309 16.5406C42.7726 17.1964 43.0741 17.142 43.088 16.5214C43.1019 15.9041 43.0462 14.0519 43.0462 13.7128C43.0462 13.3769 43.2179 13.3066 43.357 13.3066C43.5008 13.3066 43.5101 13.3066 43.6678 13.3066C43.677 13.5721 43.6817 13.8568 43.6307 14.0007C43.5333 14.2758 44.0388 14.1543 44.2707 14.1543C44.498 14.1543 45.2494 14.0807 45.6158 14.1351C45.9822 14.1895 45.9683 13.9399 45.8987 13.7C45.8802 13.6393 45.8616 13.4889 45.8384 13.3002C46.2466 13.2938 46.7893 13.2842 46.8217 13.265C46.9145 13.2138 46.7985 13.0762 46.7985 12.9739C46.7197 12.8139 46.6037 13.0283 46.5759 13.0507C46.5481 13.073 46.1167 13.0539 45.8106 13.0443C45.7874 12.8235 45.7689 12.5804 45.7503 12.3661C45.9869 12.3565 46.3718 12.3533 46.3996 12.3533C46.5481 12.3533 46.6176 12.4141 46.6176 12.5772C46.6176 12.7404 46.8635 12.8203 46.8542 12.5644C46.8496 12.3085 46.8913 12.1358 46.831 12.0782C46.7661 12.0206 46.6269 12.0142 46.4599 12.0206C46.4228 12.0206 46.0008 12.0206 45.7225 12.0174C45.7132 11.8895 45.7086 11.7935 45.7086 11.7519C45.7086 11.5472 45.6715 11.5216 46.0889 11.5376C46.511 11.5568 117.489 11.4512 118.291 11.4608C119.094 11.4672 118.746 11.2785 118.305 11.2945C117.86 11.3137 45.6807 11.2465 45.2865 11.2113C44.8922 11.1761 45.0314 11.3265 45.0499 11.416C45.0592 11.4448 45.0685 11.6943 45.0824 12.0142C44.2104 12.0078 43.1576 11.9982 43.1019 11.9982C43.0045 11.9982 42.9767 11.9854 42.9581 11.8255C42.9349 11.6655 42.9025 11.5312 42.9767 11.528C43.0509 11.5248 43.4405 11.512 43.5286 11.5088C43.6167 11.5088 43.6353 11.5568 43.6307 11.6144ZM127.902 13.3066C128.305 13.3066 128.723 13.3066 129.052 13.3066C129.038 13.4313 129.024 13.5433 129.024 13.5977C129.024 13.7384 128.899 13.7192 128.801 13.732C128.709 13.7448 128.245 13.7128 128.092 13.7096C127.934 13.7064 127.911 13.6936 127.902 13.5785C127.897 13.5529 127.897 13.4537 127.902 13.3066ZM45.1242 13.3066C45.1288 13.4537 45.1288 13.5529 45.1242 13.5785C45.1102 13.6936 45.0917 13.7064 44.934 13.7096C44.7763 13.7128 44.3171 13.7448 44.2197 13.732C44.1269 13.7192 44.0017 13.7384 44.0017 13.5977C44.0017 13.5433 43.9878 13.4313 43.9692 13.3066C44.3032 13.3066 44.7206 13.3066 45.1242 13.3066ZM125.105 13.2202C124.901 13.2138 123.89 13.297 123.774 13.217C123.662 13.1338 123.621 12.1102 123.709 12.1134C123.797 12.1166 125.086 12.0814 125.142 12.139C125.198 12.1998 125.137 12.8427 125.063 12.8459C124.989 12.8491 124.868 12.4301 124.799 12.4173C124.725 12.4077 124.154 12.3309 124.122 12.3693C124.089 12.4045 124.182 12.9099 124.21 12.9451C124.238 12.9803 124.896 13.0539 125.082 13.0698C125.267 13.0858 125.276 13.2106 125.105 13.2202ZM74.7714 11.8351C74.5673 11.8447 47.485 11.7583 47.3737 11.8415C47.2624 11.9215 47.2206 12.9451 47.3087 12.9419C47.3969 12.9387 48.6863 12.9771 48.7419 12.9163C48.7976 12.8555 48.7234 12.3469 48.6492 12.3437C48.575 12.3405 48.4636 12.6732 48.3894 12.686C48.3152 12.6956 47.7494 12.7244 47.7169 12.6892C47.6844 12.6508 47.7818 12.1454 47.8097 12.1102C47.8328 12.075 74.5627 12.0014 74.7482 11.9854C74.9291 11.9726 74.943 11.8447 74.7714 11.8351Z" fill="#DBA45E"/>
</g>
<mask id="mask1_315_1384" style="mask-type:luminance" maskUnits="userSpaceOnUse" x="4" y="11" width="64" height="24">
<path d="M67.1441 11H3.99999V34.9341H67.1441V11Z" fill="white"/>
</mask>
<g mask="url(#mask1_315_1384)">
<path fill-rule="evenodd" clip-rule="evenodd" d="M87.8999 32.9605C87.8999 32.8581 87.784 32.7206 87.8814 32.6662C87.9092 32.6502 88.7533 32.6406 89.1615 32.6342C89.1383 32.4455 89.1198 32.2951 89.1012 32.2344C89.0316 31.9944 89.0177 31.7449 89.3841 31.7993C89.7506 31.8537 90.5019 31.7833 90.7292 31.7833C90.9611 31.7833 91.4667 31.6586 91.3693 31.9337C91.3183 32.0776 91.3229 32.3623 91.3322 32.6278C91.4899 32.6278 91.6012 32.6278 91.6429 32.6278C91.8841 32.6278 91.9537 32.5575 91.9537 32.2216C91.9537 31.8825 91.898 19.602 91.9119 18.9814C91.9259 18.3608 92.2273 18.3096 92.2691 18.9654C92.3062 19.6212 92.4453 32.3271 92.5798 32.5734C92.7144 32.823 92.7561 33.0629 92.3201 33.0341C92.1902 33.0277 91.8145 33.0085 91.3507 32.9861C91.3554 33.0661 91.36 33.1333 91.3554 33.1716C91.3415 33.4499 91.1374 33.3092 91.1095 33.1716C91.1049 33.1301 91.091 33.0597 91.0771 32.9701C90.6921 32.9509 90.2654 32.9317 89.8851 32.9157C89.8897 33.1077 89.8943 33.3316 89.9036 33.5459C90.9426 33.5075 92.3619 33.4563 92.4453 33.4499C92.5706 33.4403 92.7561 33.4275 92.7561 33.5843C92.7561 33.7378 92.8164 34.2753 92.886 34.5472C92.9555 34.8223 92.9602 34.9342 92.6819 34.9022C92.4036 34.8702 91.4157 34.8287 91.2394 34.7775C91.0632 34.7295 91.193 34.6335 91.193 34.3808C91.193 34.1281 91.3832 34.1409 91.3693 34.32C91.3646 34.3776 91.3832 34.4256 91.4713 34.4256C91.5594 34.4224 91.9491 34.4096 92.0233 34.4064C92.0975 34.4032 92.065 34.2689 92.0418 34.1089C92.0233 33.949 91.9954 33.9362 91.898 33.9362C91.8424 33.9362 90.7895 33.9266 89.9175 33.9202C89.9314 34.2401 89.9407 34.4896 89.95 34.5184C89.9686 34.6079 90.1077 34.7583 89.7135 34.7231C89.3192 34.6879 85.0289 34.6207 84.5883 34.6399C84.143 34.6559 83.7998 34.4672 84.5975 34.4736C85.3999 34.4832 88.489 34.3776 88.911 34.3968C89.3285 34.4128 89.2914 34.3872 89.2914 34.1825C89.2914 34.1409 89.2867 34.0449 89.2775 33.917C88.9992 33.9138 88.2524 33.9138 88.2153 33.9138C88.0483 33.9202 87.9092 33.9138 87.8443 33.8562C87.784 33.7986 87.8257 33.6259 87.8164 33.37C87.8118 33.1141 88.0576 33.194 88.0576 33.3572C88.0576 33.5203 88.1226 33.5811 88.2756 33.5811C88.3034 33.5811 89.0131 33.5779 89.2496 33.5683C89.2311 33.354 89.2125 33.1109 89.1893 32.8901C88.8832 32.8805 88.155 32.8613 88.1272 32.8837C88.0947 32.9061 87.9834 33.1205 87.8999 32.9605ZM5.60475 34.32C5.59084 34.1409 5.781 34.1281 5.781 34.3808C5.781 34.6335 5.91087 34.7295 5.73462 34.7775C5.55836 34.8287 4.57043 34.8702 4.29214 34.9022C4.01385 34.9342 4.02313 34.8223 4.08807 34.5472C4.15764 34.2753 4.21793 33.7378 4.21793 33.5843C4.21793 33.4275 4.40347 33.4403 4.53333 33.4499C4.61681 33.4563 6.03609 33.5075 7.07041 33.5459C7.07968 33.3316 7.08897 33.1077 7.09361 32.9157C6.70863 32.9317 6.28656 32.9509 5.89696 32.9701C5.88304 33.0597 5.86913 33.1301 5.86449 33.1716C5.83665 33.3092 5.63721 33.4499 5.61867 33.1716C5.61403 33.1333 5.61867 33.0661 5.62331 32.9861C5.15948 33.0085 4.93685 33.0181 4.65392 33.0341C4.37099 33.0533 4.25968 32.823 4.39419 32.5734C4.53333 32.3271 4.66783 30.0495 4.70958 29.3938C4.74668 28.738 5.04817 28.7924 5.06209 29.4129C5.076 30.0335 5.02034 31.8825 5.02034 32.2216C5.02034 32.5575 5.19196 32.6278 5.3311 32.6278C5.47488 32.6278 5.48415 32.6278 5.64185 32.6278C5.65113 32.3623 5.65577 32.0776 5.60475 31.9337C5.51199 31.6586 6.01291 31.7833 6.24482 31.7833C6.47673 31.7833 7.22347 31.8537 7.58989 31.7993C7.9563 31.7449 7.94239 31.9944 7.87746 32.2344C7.8589 32.2951 7.83571 32.4455 7.81252 32.6342C8.22068 32.6406 8.76798 32.6502 8.79581 32.6662C8.89321 32.7206 8.77727 32.8581 8.77727 32.9605C8.69378 33.1205 8.58246 32.9061 8.55 32.8837C8.52216 32.8613 8.09081 32.8805 7.78469 32.8901C7.76614 33.1109 7.74294 33.354 7.7244 33.5683C7.96558 33.5779 8.34591 33.5811 8.37838 33.5811C8.5268 33.5811 8.59174 33.5203 8.59174 33.3572C8.59174 33.194 8.83756 33.1141 8.83292 33.37C8.82365 33.6259 8.86539 33.7986 8.80509 33.8562C8.7448 33.9138 8.60101 33.9202 8.43867 33.9138C8.39693 33.9138 7.9795 33.9138 7.70121 33.917C7.69193 34.0449 7.68729 34.1409 7.68729 34.1825C7.68729 34.3872 7.64555 34.4128 8.06763 34.3968C8.48506 34.3776 79.4631 34.4832 80.2655 34.4736C81.0679 34.4672 80.72 34.6559 80.2794 34.6399C79.8388 34.6207 7.65946 34.6879 7.26522 34.7231C6.87097 34.7583 7.00548 34.6079 7.02403 34.5184C7.03331 34.4896 7.04723 34.2401 7.0565 33.9202C6.18452 33.9266 5.13165 33.9362 5.076 33.9362C4.97859 33.9362 4.95076 33.949 4.93221 34.1089C4.91366 34.2689 4.87656 34.4032 4.95077 34.4064C5.02962 34.4096 5.41458 34.4224 5.50271 34.4256C5.59083 34.4256 5.60939 34.3776 5.60475 34.32ZM36.7455 34.0993C36.5414 34.0897 9.45908 34.1761 9.34776 34.0929C9.23644 34.0129 9.1947 32.9893 9.28283 32.9925C9.37095 32.9957 10.6604 32.9573 10.716 33.0181C10.7717 33.0789 10.6975 33.5875 10.6233 33.5907C10.549 33.5939 10.4377 33.2612 10.3635 33.2484C10.2939 33.2388 9.72345 33.21 9.69099 33.2452C9.65852 33.2836 9.75592 33.789 9.78375 33.8242C9.81158 33.8594 36.5368 33.933 36.7223 33.9458C36.9078 33.9618 36.9171 34.0897 36.7455 34.0993ZM87.0836 32.7142C86.8749 32.7206 85.8638 32.6374 85.7478 32.7174C85.6365 32.8006 85.5948 33.8242 85.6829 33.821C85.771 33.8178 87.0651 33.853 87.1207 33.7954C87.1717 33.7346 87.1114 33.0917 87.0372 33.0885C86.963 33.0853 86.8471 33.5043 86.7728 33.5171C86.6986 33.5267 86.1281 33.6035 86.0957 33.5651C86.0632 33.5299 86.156 33.0245 86.1838 32.9893C86.2116 32.9541 86.8749 32.8805 87.0558 32.8645C87.2413 32.8486 87.2552 32.7238 87.0836 32.7142ZM89.8758 32.6278C90.2793 32.6278 90.6967 32.6246 91.0307 32.6278C91.0121 32.4999 90.9982 32.3911 90.9982 32.3367C90.9982 32.196 90.873 32.2152 90.7802 32.2024C90.6828 32.1896 90.2237 32.2216 90.066 32.2248C89.9083 32.228 89.8897 32.244 89.8758 32.3591C89.8711 32.3815 89.8711 32.4807 89.8758 32.6278ZM7.09824 32.6278C7.10288 32.4807 7.10288 32.3815 7.09824 32.3591C7.08897 32.244 7.06577 32.228 6.90808 32.2248C6.75502 32.2216 6.29121 32.1896 6.19844 32.2024C6.10104 32.2152 5.97581 32.196 5.97581 32.3367C5.97581 32.3911 5.96189 32.4999 5.94798 32.6278C6.27728 32.6246 6.69472 32.6278 7.09824 32.6278ZM91.3507 26.969C91.3415 27.1066 91.4667 31.2587 91.3461 31.3323C91.2209 31.4059 89.6485 31.4314 89.6532 31.3739C89.6578 31.3163 89.6021 30.475 89.6949 30.4398C89.7877 30.4046 90.5669 30.4526 90.5715 30.5006C90.5762 30.5486 90.066 30.6221 90.0474 30.6701C90.0335 30.7181 89.9871 31.086 90.0428 31.1084C90.1031 31.1276 90.8776 31.0668 90.9287 31.0476C90.9843 31.0316 91.0956 27.1066 91.1188 26.9882C91.142 26.8666 91.3368 26.8602 91.3507 26.969ZM7.22347 31.3163C7.2142 31.1819 7.34406 30.5198 7.21883 30.4494C7.09824 30.3758 5.5259 30.347 5.53054 30.4046C5.53518 30.4622 5.47952 31.3035 5.56764 31.3387C5.66041 31.3739 6.64834 31.3355 6.65298 31.2843C6.65762 31.2363 6.01291 31.1627 5.99436 31.1148C5.97581 31.0668 5.85985 30.6925 5.92015 30.6733C5.97581 30.6509 6.75037 30.7149 6.80604 30.7309C6.85706 30.7501 6.97301 31.1787 6.99621 31.3003C7.01939 31.4186 7.20956 31.4282 7.22347 31.3163ZM9.0741 12.9739C9.0741 13.0762 9.19006 13.2138 9.0973 13.265C9.06483 13.2842 8.22068 13.2938 7.81252 13.3002C7.83571 13.4889 7.8589 13.6393 7.87746 13.7C7.94239 13.9399 7.9563 14.1895 7.58989 14.1351C7.22347 14.0807 6.47673 14.1543 6.24482 14.1543C6.01291 14.1543 5.51199 14.2758 5.60475 14.0007C5.65577 13.8568 5.65113 13.5721 5.64185 13.3066C5.48415 13.3066 5.37284 13.3066 5.3311 13.3066C5.08991 13.3066 5.02034 13.3769 5.02034 13.7128C5.02034 14.0519 5.076 26.3324 5.06209 26.953C5.04817 27.5736 4.74668 27.6248 4.70958 26.969C4.66783 26.3132 4.53333 13.6073 4.39419 13.3609C4.25968 13.1114 4.21793 12.8715 4.65392 12.9003C4.78379 12.9067 5.15948 12.9259 5.62331 12.9483C5.61867 12.8683 5.61403 12.8011 5.61867 12.7628C5.63721 12.4845 5.83665 12.6252 5.86449 12.7628C5.86913 12.8043 5.88304 12.8747 5.89696 12.9643C6.28656 12.9835 6.70863 13.0027 7.09361 13.0187C7.08897 12.8267 7.07968 12.6028 7.07041 12.3885C6.03609 12.4237 4.61681 12.4781 4.53333 12.4845C4.40347 12.4941 4.21793 12.5068 4.21793 12.3533C4.21793 12.1966 4.15764 11.6591 4.08807 11.3872C4.02313 11.1121 4.01385 11.0002 4.29214 11.0322C4.57043 11.0642 5.55836 11.1057 5.73462 11.1569C5.91087 11.2049 5.781 11.3009 5.781 11.5536C5.781 11.8063 5.59084 11.7935 5.60475 11.6144C5.60939 11.5568 5.59083 11.5088 5.50271 11.5088C5.41458 11.512 5.02962 11.5248 4.95077 11.528C4.87656 11.5312 4.91366 11.6655 4.93221 11.8255C4.95076 11.9854 4.97859 11.9982 5.076 11.9982C5.13165 11.9982 6.18452 12.0078 7.0565 12.0142C7.04723 11.6943 7.03331 11.4448 7.02403 11.416C7.00548 11.3265 6.87097 11.1761 7.26522 11.2113C7.65946 11.2465 11.9451 11.3137 12.3904 11.2945C12.831 11.2785 13.1789 11.4672 12.3765 11.4608C11.5741 11.4512 8.48506 11.5568 8.06763 11.5376C7.64555 11.5216 7.68729 11.5472 7.68729 11.7519C7.68729 11.7935 7.69193 11.8895 7.70121 12.0174C7.9795 12.0206 8.7216 12.0206 8.76335 12.0206C8.92568 12.0142 9.06947 12.0206 9.12977 12.0782C9.19006 12.1358 9.14832 12.3085 9.15759 12.5644C9.16223 12.8203 8.91641 12.7404 8.91641 12.5772C8.91641 12.4141 8.85148 12.3533 8.70306 12.3533C8.67059 12.3533 7.96558 12.3565 7.7244 12.3661C7.74294 12.5804 7.76614 12.8235 7.78469 13.0443C8.09081 13.0539 8.81901 13.073 8.85148 13.0507C8.8793 13.0283 8.99525 12.8139 9.0741 12.9739ZM5.62331 18.9654C5.63258 18.8278 5.50735 14.6757 5.62794 14.6021C5.75317 14.5285 7.32552 14.503 7.32088 14.5605C7.31624 14.6181 7.37189 15.4594 7.27914 15.4946C7.19101 15.5298 6.40716 15.4818 6.40252 15.4338C6.39788 15.3858 6.90807 15.3123 6.92663 15.2643C6.94518 15.2163 6.98692 14.8484 6.93127 14.826C6.87097 14.8068 6.0964 14.8676 6.04538 14.8868C5.99436 14.9028 5.8784 18.8278 5.85521 18.9462C5.83202 19.0678 5.63721 19.0742 5.62331 18.9654ZM91.3693 11.6144C91.3832 11.7935 91.193 11.8063 91.193 11.5536C91.193 11.3009 91.0632 11.2049 91.2394 11.1569C91.4157 11.1057 92.4036 11.0642 92.6819 11.0322C92.9602 11.0002 92.9555 11.1121 92.886 11.3872C92.8164 11.6591 92.7561 12.1966 92.7561 12.3533C92.7561 12.5068 92.5706 12.4941 92.4453 12.4845C92.3619 12.4781 90.9426 12.4237 89.9036 12.3885C89.8943 12.6028 89.8897 12.8267 89.8851 13.0187C90.2654 13.0027 90.6921 12.9835 91.0771 12.9643C91.091 12.8747 91.1049 12.8043 91.1095 12.7628C91.1374 12.6252 91.3415 12.4845 91.3554 12.7628C91.36 12.8011 91.3554 12.8683 91.3507 12.9483C91.8145 12.9259 92.0372 12.9163 92.3201 12.9003C92.603 12.8811 92.7144 13.1114 92.5798 13.3609C92.4453 13.6073 92.3062 15.8849 92.2691 16.5406C92.2273 17.1964 91.9259 17.142 91.9119 16.5214C91.898 15.9041 91.9537 14.0519 91.9537 13.7128C91.9537 13.3769 91.7821 13.3066 91.6429 13.3066C91.4991 13.3066 91.4899 13.3066 91.3322 13.3066C91.3229 13.5721 91.3183 13.8568 91.3693 14.0007C91.4667 14.2758 90.9611 14.1543 90.7292 14.1543C90.5019 14.1543 89.7506 14.0807 89.3841 14.1351C89.0177 14.1895 89.0316 13.9399 89.1012 13.7C89.1198 13.6393 89.1383 13.4889 89.1615 13.3002C88.7533 13.2938 88.2107 13.2842 88.1782 13.265C88.0855 13.2138 88.2014 13.0762 88.2014 12.9739C88.2803 12.8139 88.3962 13.0283 88.424 13.0507C88.4519 13.073 88.8832 13.0539 89.1893 13.0443C89.2125 12.8235 89.2311 12.5804 89.2496 12.3661C89.0131 12.3565 88.6281 12.3533 88.6003 12.3533C88.4519 12.3533 88.3823 12.4141 88.3823 12.5772C88.3823 12.7404 88.1365 12.8203 88.1457 12.5644C88.1504 12.3085 88.1086 12.1358 88.1689 12.0782C88.2339 12.0206 88.373 12.0142 88.54 12.0206C88.5771 12.0206 88.9992 12.0206 89.2775 12.0174C89.2867 11.8895 89.2914 11.7935 89.2914 11.7519C89.2914 11.5472 89.3285 11.5216 88.911 11.5376C88.489 11.5568 17.5109 11.4512 16.7085 11.4608C15.9061 11.4672 16.254 11.2785 16.6946 11.2945C17.1399 11.3137 89.3192 11.2465 89.7135 11.2113C90.1077 11.1761 89.9686 11.3265 89.95 11.416C89.9407 11.4448 89.9314 11.6943 89.9175 12.0142C90.7895 12.0078 91.8424 11.9982 91.898 11.9982C91.9954 11.9982 92.0233 11.9854 92.0418 11.8255C92.065 11.6655 92.0975 11.5312 92.0233 11.528C91.9491 11.5248 91.5594 11.512 91.4713 11.5088C91.3832 11.5088 91.3646 11.5568 91.3693 11.6144ZM7.09824 13.3066C6.69472 13.3066 6.27728 13.3066 5.94798 13.3066C5.96189 13.4313 5.97581 13.5433 5.97581 13.5977C5.97581 13.7384 6.10104 13.7192 6.19844 13.732C6.29121 13.7448 6.75502 13.7128 6.90808 13.7096C7.06577 13.7064 7.08897 13.6936 7.09824 13.5785C7.10288 13.5529 7.10288 13.4537 7.09824 13.3066ZM89.8758 13.3066C89.8711 13.4537 89.8711 13.5529 89.8758 13.5785C89.8897 13.6936 89.9083 13.7064 90.066 13.7096C90.2237 13.7128 90.6828 13.7448 90.7802 13.732C90.873 13.7192 90.9982 13.7384 90.9982 13.5977C90.9982 13.5433 91.0121 13.4313 91.0307 13.3066C90.6967 13.3066 90.2793 13.3066 89.8758 13.3066ZM9.89507 13.2202C10.0991 13.2138 11.1103 13.297 11.2262 13.217C11.3375 13.1338 11.3793 12.1102 11.2912 12.1134C11.203 12.1166 9.91362 12.0814 9.85796 12.139C9.8023 12.1998 9.86259 12.8427 9.93681 12.8459C10.011 12.8491 10.1316 12.4301 10.2012 12.4173C10.2754 12.4077 10.8459 12.3309 10.8784 12.3693C10.9108 12.4045 10.8181 12.9099 10.7902 12.9451C10.7624 12.9803 10.1038 13.0539 9.91826 13.0698C9.73273 13.0858 9.72345 13.2106 9.89507 13.2202ZM60.2286 11.8351C60.4326 11.8447 87.515 11.7583 87.6263 11.8415C87.7376 11.9215 87.7793 12.9451 87.6912 12.9419C87.6031 12.9387 86.3137 12.9771 86.258 12.9163C86.2024 12.8555 86.2766 12.3469 86.3508 12.3437C86.425 12.3405 86.5363 12.6732 86.6105 12.686C86.6847 12.6956 87.2506 12.7244 87.283 12.6892C87.3155 12.6508 87.2181 12.1454 87.1903 12.1102C87.1671 12.075 60.4373 12.0014 60.2518 11.9854C60.0709 11.9726 60.0569 11.8447 60.2286 11.8351Z" fill="#DBA45E"/>
</g>
<defs>
<filter id="filter0_d_315_1384" x="98.3787" y="0.97998" width="45.72" height="49.24" filterUnits="userSpaceOnUse" color-interpolation-filters="sRGB">
<feFlood flood-opacity="0" result="BackgroundImageFix"/>
<feColorMatrix in="SourceAlpha" type="matrix" values="0 0 0 0 0 0 0 0 0 0 0 0 0 0 0 0 0 0 127 0" result="hardAlpha"/>
<feOffset dx="3" dy="3"/>
<feGaussianBlur stdDeviation="10"/>
<feComposite in2="hardAlpha" operator="out"/>
<feColorMatrix type="matrix" values="0 0 0 0 0.976471 0 0 0 0 0.807843 0 0 0 0 0.27451 0 0 0 1 0"/>
<feBlend mode="normal" in2="BackgroundImageFix" result="effect1_dropShadow_315_1384"/>
<feBlend mode="normal" in="SourceGraphic" in2="effect1_dropShadow_315_1384" result="shape"/>
</filter>
<filter id="filter1_d_315_1384" x="91.123" y="0.97998" width="46.38" height="49.24" filterUnits="userSpaceOnUse" color-interpolation-filters="sRGB">
<feFlood flood-opacity="0" result="BackgroundImageFix"/>
<feColorMatrix in="SourceAlpha" type="matrix" values="0 0 0 0 0 0 0 0 0 0 0 0 0 0 0 0 0 0 127 0" result="hardAlpha"/>
<feOffset dx="3" dy="3"/>
<feGaussianBlur stdDeviation="10"/>
<feComposite in2="hardAlpha" operator="out"/>
<feColorMatrix type="matrix" values="0 0 0 0 0.976471 0 0 0 0 0.807843 0 0 0 0 0.27451 0 0 0 1 0"/>
<feBlend mode="normal" in2="BackgroundImageFix" result="effect1_dropShadow_315_1384"/>
<feBlend mode="normal" in="SourceGraphic" in2="effect1_dropShadow_315_1384" result="shape"/>
</filter>
<filter id="filter2_d_315_1384" x="84.3073" y="0.97998" width="46.38" height="49.24" filterUnits="userSpaceOnUse" color-interpolation-filters="sRGB">
<feFlood flood-opacity="0" result="BackgroundImageFix"/>
<feColorMatrix in="SourceAlpha" type="matrix" values="0 0 0 0 0 0 0 0 0 0 0 0 0 0 0 0 0 0 127 0" result="hardAlpha"/>
<feOffset dx="3" dy="3"/>
<feGaussianBlur stdDeviation="10"/>
<feComposite in2="hardAlpha" operator="out"/>
<feColorMatrix type="matrix" values="0 0 0 0 0.976471 0 0 0 0 0.807843 0 0 0 0 0.27451 0 0 0 1 0"/>
<feBlend mode="normal" in2="BackgroundImageFix" result="effect1_dropShadow_315_1384"/>
<feBlend mode="normal" in="SourceGraphic" in2="effect1_dropShadow_315_1384" result="shape"/>
</filter>
<filter id="filter3_d_315_1384" x="77.4804" y="0.97998" width="45.72" height="49.24" filterUnits="userSpaceOnUse" color-interpolation-filters="sRGB">
<feFlood flood-opacity="0" result="BackgroundImageFix"/>
<feColorMatrix in="SourceAlpha" type="matrix" values="0 0 0 0 0 0 0 0 0 0 0 0 0 0 0 0 0 0 127 0" result="hardAlpha"/>
<feOffset dx="3" dy="3"/>
<feGaussianBlur stdDeviation="10"/>
<feComposite in2="hardAlpha" operator="out"/>
<feColorMatrix type="matrix" values="0 0 0 0 0.976471 0 0 0 0 0.807843 0 0 0 0 0.27451 0 0 0 1 0"/>
<feBlend mode="normal" in2="BackgroundImageFix" result="effect1_dropShadow_315_1384"/>
<feBlend mode="normal" in="SourceGraphic" in2="effect1_dropShadow_315_1384" result="shape"/>
</filter>
<filter id="filter4_d_315_1384" x="70.2135" y="1.19995" width="45.72" height="49.02" filterUnits="userSpaceOnUse" color-interpolation-filters="sRGB">
<feFlood flood-opacity="0" result="BackgroundImageFix"/>
<feColorMatrix in="SourceAlpha" type="matrix" values="0 0 0 0 0 0 0 0 0 0 0 0 0 0 0 0 0 0 127 0" result="hardAlpha"/>
<feOffset dx="3" dy="3"/>
<feGaussianBlur stdDeviation="10"/>
<feComposite in2="hardAlpha" operator="out"/>
<feColorMatrix type="matrix" values="0 0 0 0 0.976471 0 0 0 0 0.807843 0 0 0 0 0.27451 0 0 0 1 0"/>
<feBlend mode="normal" in2="BackgroundImageFix" result="effect1_dropShadow_315_1384"/>
<feBlend mode="normal" in="SourceGraphic" in2="effect1_dropShadow_315_1384" result="shape"/>
</filter>
<filter id="filter5_d_315_1384" x="62.9467" y="1.19995" width="45.72" height="48.8" filterUnits="userSpaceOnUse" color-interpolation-filters="sRGB">
<feFlood flood-opacity="0" result="BackgroundImageFix"/>
<feColorMatrix in="SourceAlpha" type="matrix" values="0 0 0 0 0 0 0 0 0 0 0 0 0 0 0 0 0 0 127 0" result="hardAlpha"/>
<feOffset dx="3" dy="3"/>
<feGaussianBlur stdDeviation="10"/>
<feComposite in2="hardAlpha" operator="out"/>
<feColorMatrix type="matrix" values="0 0 0 0 0.976471 0 0 0 0 0.807843 0 0 0 0 0.27451 0 0 0 1 0"/>
<feBlend mode="normal" in2="BackgroundImageFix" result="effect1_dropShadow_315_1384"/>
<feBlend mode="normal" in="SourceGraphic" in2="effect1_dropShadow_315_1384" result="shape"/>
</filter>
<filter id="filter6_d_315_1384" x="55.6798" y="1.19995" width="45.72" height="49.02" filterUnits="userSpaceOnUse" color-interpolation-filters="sRGB">
<feFlood flood-opacity="0" result="BackgroundImageFix"/>
<feColorMatrix in="SourceAlpha" type="matrix" values="0 0 0 0 0 0 0 0 0 0 0 0 0 0 0 0 0 0 127 0" result="hardAlpha"/>
<feOffset dx="3" dy="3"/>
<feGaussianBlur stdDeviation="10"/>
<feComposite in2="hardAlpha" operator="out"/>
<feColorMatrix type="matrix" values="0 0 0 0 0.976471 0 0 0 0 0.807843 0 0 0 0 0.27451 0 0 0 1 0"/>
<feBlend mode="normal" in2="BackgroundImageFix" result="effect1_dropShadow_315_1384"/>
<feBlend mode="normal" in="SourceGraphic" in2="effect1_dropShadow_315_1384" result="shape"/>
</filter>
<filter id="filter7_d_315_1384" x="48.4129" y="1.19995" width="45.72" height="49.02" filterUnits="userSpaceOnUse" color-interpolation-filters="sRGB">
<feFlood flood-opacity="0" result="BackgroundImageFix"/>
<feColorMatrix in="SourceAlpha" type="matrix" values="0 0 0 0 0 0 0 0 0 0 0 0 0 0 0 0 0 0 127 0" result="hardAlpha"/>
<feOffset dx="3" dy="3"/>
<feGaussianBlur stdDeviation="10"/>
<feComposite in2="hardAlpha" operator="out"/>
<feColorMatrix type="matrix" values="0 0 0 0 0.976471 0 0 0 0 0.807843 0 0 0 0 0.27451 0 0 0 1 0"/>
<feBlend mode="normal" in2="BackgroundImageFix" result="effect1_dropShadow_315_1384"/>
<feBlend mode="normal" in="SourceGraphic" in2="effect1_dropShadow_315_1384" result="shape"/>
</filter>
<filter id="filter8_d_315_1384" x="36.5329" y="0.97998" width="46.38" height="49.24" filterUnits="userSpaceOnUse" color-interpolation-filters="sRGB">
<feFlood flood-opacity="0" result="BackgroundImageFix"/>
<feColorMatrix in="SourceAlpha" type="matrix" values="0 0 0 0 0 0 0 0 0 0 0 0 0 0 0 0 0 0 127 0" result="hardAlpha"/>
<feOffset dx="3" dy="3"/>
<feGaussianBlur stdDeviation="10"/>
<feComposite in2="hardAlpha" operator="out"/>
<feColorMatrix type="matrix" values="0 0 0 0 0.976471 0 0 0 0 0.807843 0 0 0 0 0.27451 0 0 0 1 0"/>
<feBlend mode="normal" in2="BackgroundImageFix" result="effect1_dropShadow_315_1384"/>
<feBlend mode="normal" in="SourceGraphic" in2="effect1_dropShadow_315_1384" result="shape"/>
</filter>
<filter id="filter9_d_315_1384" x="29.2763" y="0.97998" width="46.16" height="49.24" filterUnits="userSpaceOnUse" color-interpolation-filters="sRGB">
<feFlood flood-opacity="0" result="BackgroundImageFix"/>
<feColorMatrix in="SourceAlpha" type="matrix" values="0 0 0 0 0 0 0 0 0 0 0 0 0 0 0 0 0 0 127 0" result="hardAlpha"/>
<feOffset dx="3" dy="3"/>
<feGaussianBlur stdDeviation="10"/>
<feComposite in2="hardAlpha" operator="out"/>
<feColorMatrix type="matrix" values="0 0 0 0 0.976471 0 0 0 0 0.807843 0 0 0 0 0.27451 0 0 0 1 0"/>
<feBlend mode="normal" in2="BackgroundImageFix" result="effect1_dropShadow_315_1384"/>
<feBlend mode="normal" in="SourceGraphic" in2="effect1_dropShadow_315_1384" result="shape"/>
</filter>
<filter id="filter10_d_315_1384" x="22.0095" y="1.19995" width="45.72" height="49.02" filterUnits="userSpaceOnUse" color-interpolation-filters="sRGB">
<feFlood flood-opacity="0" result="BackgroundImageFix"/>
<feColorMatrix in="SourceAlpha" type="matrix" values="0 0 0 0 0 0 0 0 0 0 0 0 0 0 0 0 0 0 127 0" result="hardAlpha"/>
<feOffset dx="3" dy="3"/>
<feGaussianBlur stdDeviation="10"/>
<feComposite in2="hardAlpha" operator="out"/>
<feColorMatrix type="matrix" values="0 0 0 0 0.976471 0 0 0 0 0.807843 0 0 0 0 0.27451 0 0 0 1 0"/>
<feBlend mode="normal" in2="BackgroundImageFix" result="effect1_dropShadow_315_1384"/>
<feBlend mode="normal" in="SourceGraphic" in2="effect1_dropShadow_315_1384" result="shape"/>
</filter>
<filter id="filter11_d_315_1384" x="14.7538" y="0.97998" width="46.38" height="49.24" filterUnits="userSpaceOnUse" color-interpolation-filters="sRGB">
<feFlood flood-opacity="0" result="BackgroundImageFix"/>
<feColorMatrix in="SourceAlpha" type="matrix" values="0 0 0 0 0 0 0 0 0 0 0 0 0 0 0 0 0 0 127 0" result="hardAlpha"/>
<feOffset dx="3" dy="3"/>
<feGaussianBlur stdDeviation="10"/>
<feComposite in2="hardAlpha" operator="out"/>
<feColorMatrix type="matrix" values="0 0 0 0 0.976471 0 0 0 0 0.807843 0 0 0 0 0.27451 0 0 0 1 0"/>
<feBlend mode="normal" in2="BackgroundImageFix" result="effect1_dropShadow_315_1384"/>
<feBlend mode="normal" in="SourceGraphic" in2="effect1_dropShadow_315_1384" result="shape"/>
</filter>
<filter id="filter12_d_315_1384" x="7.92688" y="1.19995" width="45.72" height="49.02" filterUnits="userSpaceOnUse" color-interpolation-filters="sRGB">
<feFlood flood-opacity="0" result="BackgroundImageFix"/>
<feColorMatrix in="SourceAlpha" type="matrix" values="0 0 0 0 0 0 0 0 0 0 0 0 0 0 0 0 0 0 127 0" result="hardAlpha"/>
<feOffset dx="3" dy="3"/>
<feGaussianBlur stdDeviation="10"/>
<feComposite in2="hardAlpha" operator="out"/>
<feColorMatrix type="matrix" values="0 0 0 0 0.976471 0 0 0 0 0.807843 0 0 0 0 0.27451 0 0 0 1 0"/>
<feBlend mode="normal" in2="BackgroundImageFix" result="effect1_dropShadow_315_1384"/>
<feBlend mode="normal" in="SourceGraphic" in2="effect1_dropShadow_315_1384" result="shape"/>
</filter>
<filter id="filter13_d_315_1384" x="0.660004" y="1.19995" width="45.72" height="49.02" filterUnits="userSpaceOnUse" color-interpolation-filters="sRGB">
<feFlood flood-opacity="0" result="BackgroundImageFix"/>
<feColorMatrix in="SourceAlpha" type="matrix" values="0 0 0 0 0 0 0 0 0 0 0 0 0 0 0 0 0 0 127 0" result="hardAlpha"/>
<feOffset dx="3" dy="3"/>
<feGaussianBlur stdDeviation="10"/>
<feComposite in2="hardAlpha" operator="out"/>
<feColorMatrix type="matrix" values="0 0 0 0 0.976471 0 0 0 0 0.807843 0 0 0 0 0.27451 0 0 0 1 0"/>
<feBlend mode="normal" in2="BackgroundImageFix" result="effect1_dropShadow_315_1384"/>
<feBlend mode="normal" in="SourceGraphic" in2="effect1_dropShadow_315_1384" result="shape"/>
</filter>
</defs>
</svg>
