<svg width="367" height="631" viewBox="0 0 367 631" fill="none" xmlns="http://www.w3.org/2000/svg">
<mask id="mask0_539_20" style="mask-type:luminance" maskUnits="userSpaceOnUse" x="195" y="620" width="134" height="3">
<path d="M328.079 622.003H195V620.745H328.079V622.003Z" fill="white"/>
</mask>
<g mask="url(#mask0_539_20)">
<path d="M328.079 621.967H194.803V621.048H328.079V621.967Z" fill="#C99949"/>
</g>
<mask id="mask1_539_20" style="mask-type:luminance" maskUnits="userSpaceOnUse" x="328" y="593" width="39" height="35">
<path d="M366.079 627.126H328V593.73H366.079V627.126Z" fill="white"/>
</mask>
<g mask="url(#mask1_539_20)">
<mask id="mask2_539_20" style="mask-type:luminance" maskUnits="userSpaceOnUse" x="356" y="593" width="1" height="24">
<path d="M356.119 616.047H356.822V593.81H356.119V616.047Z" fill="white"/>
</mask>
<g mask="url(#mask2_539_20)">
<path fill-rule="evenodd" clip-rule="evenodd" d="M357.32 593.81V615.756H355.626V593.81H357.32Z" fill="#C99949"/>
</g>
<mask id="mask3_539_20" style="mask-type:luminance" maskUnits="userSpaceOnUse" x="327" y="620" width="27" height="2">
<path d="M327 621.842H353.12V620.94H327V621.842Z" fill="white"/>
</mask>
<g mask="url(#mask3_539_20)">
<path fill-rule="evenodd" clip-rule="evenodd" d="M327.014 620.739H352.343V622.184H327.014V620.739Z" fill="#C99949"/>
</g>
<mask id="mask4_539_20" style="mask-type:luminance" maskUnits="userSpaceOnUse" x="355" y="619" width="10" height="8">
<path d="M355.764 626.272H364.649V619.134H355.764V626.272Z" fill="white"/>
</mask>
<g mask="url(#mask4_539_20)">
<path fill-rule="evenodd" clip-rule="evenodd" d="M355.626 618.821H364.858V626.707H355.626V618.821ZM357.32 620.266V625.262H363.164V620.266H357.32Z" fill="#C99949"/>
</g>
<mask id="mask5_539_20" style="mask-type:luminance" maskUnits="userSpaceOnUse" x="360" y="612" width="5" height="5">
<path d="M360.825 616.047H364.635V612.816H360.825V616.047Z" fill="white"/>
</mask>
<g mask="url(#mask5_539_20)">
<path fill-rule="evenodd" clip-rule="evenodd" d="M360.357 612.388H365.145V616.479H360.357V612.388ZM362.05 613.833V615.034H363.451V613.833H362.05Z" fill="#C99949"/>
</g>
<path fill-rule="evenodd" clip-rule="evenodd" d="M351.496 615.034H362.05V624.053H351.496V615.034ZM353.19 616.479V622.608H360.357V616.479H353.19Z" fill="#C99949"/>
<path fill-rule="evenodd" clip-rule="evenodd" d="M346.304 610.597H353.19V616.479H346.304V610.597ZM347.998 612.042V615.034H351.496V612.042H347.998Z" fill="#C99949"/>
<path fill-rule="evenodd" clip-rule="evenodd" d="M348.973 622.607H353.19V626.206H348.973V622.607ZM350.667 624.052V624.761H351.496V624.052H350.667Z" fill="#C99949"/>
</g>
<mask id="mask6_539_20" style="mask-type:luminance" maskUnits="userSpaceOnUse" x="0" y="593" width="39" height="35">
<path d="M2.28882e-05 627.126H38.0792V593.73H2.28882e-05V627.126Z" fill="white"/>
</mask>
<g mask="url(#mask6_539_20)">
<mask id="mask7_539_20" style="mask-type:luminance" maskUnits="userSpaceOnUse" x="9" y="593" width="1" height="24">
<path d="M9.95996 616.047H9.25755V593.81H9.95996V616.047Z" fill="white"/>
</mask>
<g mask="url(#mask7_539_20)">
<path fill-rule="evenodd" clip-rule="evenodd" d="M8.75975 593.81V615.756H10.4536V593.81H8.75975Z" fill="#C99949"/>
</g>
<mask id="mask8_539_20" style="mask-type:luminance" maskUnits="userSpaceOnUse" x="12" y="620" width="28" height="2">
<path d="M39.0792 621.842H12.9597V620.94H39.0792V621.842Z" fill="white"/>
</mask>
<g mask="url(#mask8_539_20)">
<path fill-rule="evenodd" clip-rule="evenodd" d="M39.0648 620.739H13.7364V622.184H39.0648V620.739Z" fill="#C99949"/>
</g>
<mask id="mask9_539_20" style="mask-type:luminance" maskUnits="userSpaceOnUse" x="1" y="619" width="10" height="8">
<path d="M10.3153 626.272H1.42975V619.134H10.3153V626.272Z" fill="white"/>
</mask>
<g mask="url(#mask9_539_20)">
<path fill-rule="evenodd" clip-rule="evenodd" d="M10.4536 618.821H1.22116V626.707H10.4536V618.821ZM8.75975 620.266V625.262H2.91496V620.266H8.75975Z" fill="#C99949"/>
</g>
<mask id="mask10_539_20" style="mask-type:luminance" maskUnits="userSpaceOnUse" x="1" y="612" width="5" height="5">
<path d="M5.25378 616.047H1.44421V612.816H5.25378V616.047Z" fill="white"/>
</mask>
<g mask="url(#mask10_539_20)">
<path fill-rule="evenodd" clip-rule="evenodd" d="M5.72253 612.388H0.933961V616.479H5.72253V612.388ZM4.02873 613.833V615.034H2.62776V613.833H4.02873Z" fill="#C99949"/>
</g>
<path fill-rule="evenodd" clip-rule="evenodd" d="M14.5833 615.034H4.02872V624.053H14.5833V615.034ZM12.8895 616.479V622.608H5.72253V616.479H12.8895Z" fill="#C99949"/>
<path fill-rule="evenodd" clip-rule="evenodd" d="M19.775 610.597H12.8895V616.479H19.775V610.597ZM18.0812 612.042V615.034H14.5833V612.042H18.0812Z" fill="#C99949"/>
<path fill-rule="evenodd" clip-rule="evenodd" d="M17.1058 622.607H12.8895V626.206H17.1058V622.607ZM15.412 624.052V624.761H14.5833V624.052H15.412Z" fill="#C99949"/>
</g>
<mask id="mask11_539_20" style="mask-type:luminance" maskUnits="userSpaceOnUse" x="9" y="36" width="1" height="377">
<path d="M10 412.84L10 36.0087H9L9 412.84H10Z" fill="white"/>
</mask>
<g mask="url(#mask11_539_20)">
<path d="M9.97131 412.84L9.97131 35.451H9.24024L9.24024 412.84H9.97131Z" fill="#C99949"/>
</g>
<mask id="mask12_539_20" style="mask-type:luminance" maskUnits="userSpaceOnUse" x="356" y="36" width="1" height="368">
<path d="M357 403.456L357 36.0081H356L356 403.456H357Z" fill="white"/>
</mask>
<g mask="url(#mask12_539_20)">
<path d="M356.971 403.456L356.971 35.4643H356.24L356.24 403.456H356.971Z" fill="#C99949"/>
</g>
<mask id="mask13_539_20" style="mask-type:luminance" maskUnits="userSpaceOnUse" x="195" y="9" width="133" height="2">
<path d="M195 9.53857H328V10.797H195V9.53857Z" fill="white"/>
</mask>
<g mask="url(#mask13_539_20)">
<path d="M195 9.57471H328.197V10.4939H195V9.57471Z" fill="#C99949"/>
</g>
<mask id="mask14_539_20" style="mask-type:luminance" maskUnits="userSpaceOnUse" x="38" y="9" width="133" height="2">
<path d="M38 9.53857H171V10.797H38V9.53857Z" fill="white"/>
</mask>
<g mask="url(#mask14_539_20)">
<path d="M38 9.57471H171.197V10.4939H38V9.57471Z" fill="#C99949"/>
</g>
<mask id="mask15_539_20" style="mask-type:luminance" maskUnits="userSpaceOnUse" x="0" y="4" width="39" height="34">
<path d="M2.28882e-05 4.41504H38.0792V37.8112H2.28882e-05V4.41504Z" fill="white"/>
</mask>
<g mask="url(#mask15_539_20)">
<mask id="mask16_539_20" style="mask-type:luminance" maskUnits="userSpaceOnUse" x="9" y="15" width="1" height="23">
<path d="M9.95996 15.4937H9.25755V37.7307H9.95996V15.4937Z" fill="white"/>
</mask>
<g mask="url(#mask16_539_20)">
<path fill-rule="evenodd" clip-rule="evenodd" d="M8.75975 37.731V15.7847H10.4536V37.731H8.75975Z" fill="#C99949"/>
</g>
<mask id="mask17_539_20" style="mask-type:luminance" maskUnits="userSpaceOnUse" x="12" y="9" width="28" height="2">
<path d="M39.0792 9.69922H12.9597V10.601H39.0792V9.69922Z" fill="white"/>
</mask>
<g mask="url(#mask17_539_20)">
<path fill-rule="evenodd" clip-rule="evenodd" d="M39.0648 10.8022H13.7364V9.3573H39.0648V10.8022Z" fill="#C99949"/>
</g>
<mask id="mask18_539_20" style="mask-type:luminance" maskUnits="userSpaceOnUse" x="1" y="5" width="10" height="8">
<path d="M10.3153 5.26904H1.42975V12.407H10.3153V5.26904Z" fill="white"/>
</mask>
<g mask="url(#mask18_539_20)">
<path fill-rule="evenodd" clip-rule="evenodd" d="M10.4536 12.7202H1.22116V4.83366H10.4536V12.7202ZM8.75975 11.2753V6.27861H2.91496V11.2753H8.75975Z" fill="#C99949"/>
</g>
<mask id="mask19_539_20" style="mask-type:luminance" maskUnits="userSpaceOnUse" x="1" y="15" width="5" height="4">
<path d="M5.25378 15.4937H1.44421V18.725H5.25378V15.4937Z" fill="white"/>
</mask>
<g mask="url(#mask19_539_20)">
<path fill-rule="evenodd" clip-rule="evenodd" d="M5.72253 19.1528H0.933961V15.0618H5.72253V19.1528ZM4.02873 17.7079V16.5067H2.62776V17.7079H4.02873Z" fill="#C99949"/>
</g>
<path fill-rule="evenodd" clip-rule="evenodd" d="M14.5833 16.5068H4.02872V7.48851H14.5833V16.5068ZM12.8895 15.0619V8.93346H5.72253V15.0619H12.8895Z" fill="#C99949"/>
<path fill-rule="evenodd" clip-rule="evenodd" d="M19.775 20.9438H12.8895V15.0617H19.775V20.9438ZM18.0812 19.4989V16.5067H14.5833V19.4989H18.0812Z" fill="#C99949"/>
<path fill-rule="evenodd" clip-rule="evenodd" d="M17.1058 8.93408H12.8895V5.33488H17.1058V8.93408ZM15.412 7.48913V6.77983H14.5833V7.48913H15.412Z" fill="#C99949"/>
</g>
<mask id="mask20_539_20" style="mask-type:luminance" maskUnits="userSpaceOnUse" x="328" y="4" width="39" height="34">
<path d="M366.079 4.41504H328V37.8112H366.079V4.41504Z" fill="white"/>
</mask>
<g mask="url(#mask20_539_20)">
<mask id="mask21_539_20" style="mask-type:luminance" maskUnits="userSpaceOnUse" x="356" y="15" width="1" height="23">
<path d="M356.119 15.4937H356.822V37.7307H356.119V15.4937Z" fill="white"/>
</mask>
<g mask="url(#mask21_539_20)">
<path fill-rule="evenodd" clip-rule="evenodd" d="M357.32 37.731V15.7847H355.626V37.731H357.32Z" fill="#C99949"/>
</g>
<mask id="mask22_539_20" style="mask-type:luminance" maskUnits="userSpaceOnUse" x="327" y="9" width="27" height="2">
<path d="M327 9.69922H353.12V10.601H327V9.69922Z" fill="white"/>
</mask>
<g mask="url(#mask22_539_20)">
<path fill-rule="evenodd" clip-rule="evenodd" d="M327.014 10.8022H352.343V9.3573H327.014V10.8022Z" fill="#C99949"/>
</g>
<mask id="mask23_539_20" style="mask-type:luminance" maskUnits="userSpaceOnUse" x="355" y="5" width="10" height="8">
<path d="M355.764 5.26904H364.649V12.407H355.764V5.26904Z" fill="white"/>
</mask>
<g mask="url(#mask23_539_20)">
<path fill-rule="evenodd" clip-rule="evenodd" d="M355.626 12.7202H364.858V4.83366H355.626V12.7202ZM357.32 11.2753V6.27861H363.164V11.2753H357.32Z" fill="#C99949"/>
</g>
<mask id="mask24_539_20" style="mask-type:luminance" maskUnits="userSpaceOnUse" x="360" y="15" width="5" height="4">
<path d="M360.825 15.4937H364.635V18.725H360.825V15.4937Z" fill="white"/>
</mask>
<g mask="url(#mask24_539_20)">
<path fill-rule="evenodd" clip-rule="evenodd" d="M360.357 19.1528H365.145V15.0618H360.357V19.1528ZM362.05 17.7079V16.5067H363.451V17.7079H362.05Z" fill="#C99949"/>
</g>
<path fill-rule="evenodd" clip-rule="evenodd" d="M351.496 16.5068H362.05V7.48851H351.496V16.5068ZM353.19 15.0619V8.93346H360.357V15.0619H353.19Z" fill="#C99949"/>
<path fill-rule="evenodd" clip-rule="evenodd" d="M346.304 20.9438H353.19V15.0617H346.304V20.9438ZM347.998 19.4989V16.5067H351.496V19.4989H347.998Z" fill="#C99949"/>
<path fill-rule="evenodd" clip-rule="evenodd" d="M348.973 8.93408H353.19V5.33488H348.973V8.93408ZM350.667 7.48913V6.77983H351.496V7.48913H350.667Z" fill="#C99949"/>
</g>
<path d="M38 621.4L171 622.005" stroke="#C99949"/>
<mask id="mask25_539_20" style="mask-type:luminance" maskUnits="userSpaceOnUse" x="9" y="236" width="1" height="378">
<path d="M10 613.562L10 236.731H9L9 613.562H10Z" fill="white"/>
</mask>
<g mask="url(#mask25_539_20)">
<path d="M9.97131 613.562L9.97131 236.173H9.24024L9.24024 613.562H9.97131Z" fill="#C99949"/>
</g>
<mask id="mask26_539_20" style="mask-type:luminance" maskUnits="userSpaceOnUse" x="356" y="236" width="1" height="369">
<path d="M357 604.177L357 236.73H356L356 604.177H357Z" fill="white"/>
</mask>
<g mask="url(#mask26_539_20)">
<path d="M356.971 604.177L356.971 236.186H356.24L356.24 604.177H356.971Z" fill="#C99949"/>
</g>
<mask id="mask27_539_20" style="mask-type:luminance" maskUnits="userSpaceOnUse" x="173" y="0" width="20" height="20">
<path d="M192.716 19.7656H173.012V0.0413189H192.716V19.7656Z" fill="white"/>
</mask>
<g mask="url(#mask27_539_20)">
<path d="M182.862 1.2109C187.661 1.2109 191.547 5.10306 191.547 9.90347C191.547 14.7039 187.661 18.5939 182.862 18.5939C178.069 18.5939 174.18 14.7039 174.18 9.90347C174.18 5.10306 178.069 1.2109 182.862 1.2109ZM182.862 19.7656C188.305 19.7656 192.716 15.3486 192.716 9.90347C192.716 4.45615 188.305 0.0413189 182.862 0.0413189C177.422 0.0413189 173.012 4.45615 173.012 9.90347C173.012 15.3486 177.422 19.7656 182.862 19.7656Z" fill="#C99949"/>
</g>
<path d="M182.865 16.8687C182.95 13.0793 186.026 10.029 189.822 9.984C189.779 13.7926 186.68 16.8665 182.865 16.8687Z" fill="#C99949"/>
<path d="M175.905 9.984C179.702 10.029 182.775 13.0793 182.86 16.8687C179.047 16.8665 175.948 13.7926 175.905 9.984Z" fill="#C99949"/>
<path d="M175.905 9.82178C175.948 6.01315 179.047 2.93926 182.86 2.93712C182.775 6.72647 179.702 9.77679 175.905 9.82178Z" fill="#C99949"/>
<path d="M182.865 2.93712C186.68 2.93926 189.779 6.01315 189.822 9.82178C186.026 9.77679 182.95 6.72647 182.865 2.93712Z" fill="#C99949"/>
<path d="M182.865 16.8687C182.95 13.0793 186.026 10.029 189.822 9.984C189.779 13.7926 186.68 16.8665 182.865 16.8687Z" fill="#C99949"/>
<path d="M182.865 3.09972C186.68 3.10186 189.779 6.17575 189.822 9.98438C186.026 9.94153 182.95 6.88906 182.865 3.09972Z" fill="#C99949"/>
<path d="M175.905 9.98438C175.948 6.17575 179.047 3.10186 182.86 3.09972C182.775 6.88906 179.702 9.94153 175.905 9.98438Z" fill="#C99949"/>
<path d="M182.86 16.8687C179.047 16.8665 175.948 13.7926 175.905 9.984C179.702 10.029 182.775 13.0793 182.86 16.8687Z" fill="#C99949"/>
<mask id="mask28_539_20" style="mask-type:luminance" maskUnits="userSpaceOnUse" x="173" y="611" width="20" height="20">
<path d="M192.715 630.765H173.011V611.041H192.715V630.765Z" fill="white"/>
</mask>
<g mask="url(#mask28_539_20)">
<path d="M182.862 612.21C187.66 612.21 191.547 616.103 191.547 620.903C191.547 625.703 187.66 629.593 182.862 629.593C178.068 629.593 174.18 625.703 174.18 620.903C174.18 616.103 178.068 612.21 182.862 612.21ZM182.862 630.765C188.305 630.765 192.715 626.348 192.715 620.903C192.715 615.456 188.305 611.041 182.862 611.041C177.422 611.041 173.011 615.456 173.011 620.903C173.011 626.348 177.422 630.765 182.862 630.765Z" fill="#C99949"/>
</g>
<path d="M182.864 627.868C182.95 624.079 186.025 621.028 189.822 620.984C189.779 624.792 186.68 627.866 182.864 627.868Z" fill="#C99949"/>
<path d="M175.905 620.984C179.701 621.028 182.775 624.079 182.86 627.868C179.046 627.866 175.948 624.792 175.905 620.984Z" fill="#C99949"/>
<path d="M175.905 620.821C175.948 617.013 179.046 613.939 182.86 613.937C182.775 617.726 179.701 620.776 175.905 620.821Z" fill="#C99949"/>
<path d="M182.864 613.937C186.68 613.939 189.779 617.013 189.822 620.821C186.025 620.776 182.95 617.726 182.864 613.937Z" fill="#C99949"/>
<path d="M182.864 627.868C182.95 624.079 186.025 621.028 189.822 620.984C189.779 624.792 186.68 627.866 182.864 627.868Z" fill="#C99949"/>
<path d="M182.864 614.099C186.68 614.101 189.779 617.175 189.822 620.984C186.025 620.941 182.95 617.889 182.864 614.099Z" fill="#C99949"/>
<path d="M175.905 620.984C175.948 617.175 179.046 614.101 182.86 614.099C182.775 617.889 179.701 620.941 175.905 620.984Z" fill="#C99949"/>
<path d="M182.86 627.868C179.046 627.866 175.948 624.792 175.905 620.984C179.701 621.028 182.775 624.079 182.86 627.868Z" fill="#C99949"/>
</svg>
