<svg width="390" height="403" viewBox="0 0 390 403" fill="none" xmlns="http://www.w3.org/2000/svg">
<mask id="mask0_315_49" style="mask-type:luminance" maskUnits="userSpaceOnUse" x="281" y="372" width="96" height="31">
<path d="M376.597 372H281V402.32H376.597V372Z" fill="white"/>
</mask>
<g mask="url(#mask0_315_49)">
<mask id="mask1_315_49" style="mask-type:luminance" maskUnits="userSpaceOnUse" x="281" y="372" width="95" height="30">
<path d="M281.2 372.542H375.985V401.379H281.2V372.542Z" fill="white"/>
</mask>
<g mask="url(#mask1_315_49)">
<path d="M372.514 372.542H329.769C329.543 372.542 329.318 372.565 329.097 372.608C328.874 372.652 328.657 372.718 328.448 372.804C328.238 372.891 328.04 372.996 327.851 373.123C327.665 373.248 327.489 373.39 327.33 373.551C327.168 373.711 327.027 373.884 326.9 374.073C326.774 374.26 326.667 374.458 326.581 374.667C326.494 374.875 326.43 375.091 326.385 375.312C326.342 375.535 326.319 375.758 326.319 375.984C326.319 376.209 326.342 376.435 326.385 376.656C326.43 376.877 326.494 377.093 326.581 377.3C326.667 377.51 326.774 377.708 326.9 377.897C327.027 378.084 327.168 378.257 327.33 378.419C327.489 378.578 327.665 378.719 327.851 378.847C328.04 378.972 328.238 379.077 328.448 379.163C328.657 379.25 328.874 379.316 329.097 379.359C329.318 379.403 329.543 379.425 329.769 379.425H337.579C337.852 379.425 338.111 379.478 338.364 379.582C338.615 379.685 338.838 379.833 339.029 380.024C339.223 380.218 339.371 380.439 339.473 380.689C339.578 380.94 339.63 381.202 339.63 381.473C339.63 381.744 339.578 382.004 339.473 382.256C339.371 382.507 339.223 382.728 339.029 382.919C338.838 383.11 338.615 383.259 338.364 383.363C338.111 383.466 337.852 383.518 337.579 383.518H300.675C300.448 383.518 300.225 383.541 300.001 383.584C299.778 383.63 299.564 383.694 299.355 383.78C299.145 383.867 298.945 383.974 298.758 384.099C298.569 384.224 298.394 384.368 298.235 384.527C298.075 384.687 297.932 384.86 297.806 385.049C297.679 385.235 297.574 385.434 297.488 385.643C297.401 385.853 297.335 386.067 297.29 386.288C297.246 386.511 297.224 386.734 297.224 386.96C297.224 387.187 297.246 387.411 297.29 387.632C297.335 387.852 297.401 388.069 297.488 388.278C297.574 388.486 297.679 388.684 297.806 388.873C297.932 389.06 298.075 389.235 298.235 389.394C298.394 389.554 298.569 389.697 298.758 389.823C298.945 389.948 299.145 390.053 299.355 390.139C299.564 390.226 299.778 390.292 300.001 390.335C300.225 390.381 300.448 390.401 300.675 390.401H308.483C308.756 390.401 309.018 390.454 309.269 390.558C309.522 390.661 309.742 390.809 309.934 391.002C310.127 391.194 310.275 391.415 310.38 391.665C310.482 391.916 310.535 392.178 310.535 392.449C310.535 392.72 310.482 392.982 310.38 393.232C310.275 393.483 310.127 393.704 309.934 393.895C309.742 394.089 309.522 394.234 309.269 394.339C309.018 394.444 308.756 394.494 308.483 394.494H284.664C284.436 394.494 284.213 394.517 283.99 394.56C283.767 394.606 283.553 394.669 283.343 394.756C283.134 394.842 282.933 394.95 282.746 395.075C282.557 395.2 282.382 395.344 282.223 395.503C282.063 395.662 281.92 395.838 281.795 396.025C281.667 396.214 281.562 396.412 281.476 396.619C281.389 396.829 281.323 397.043 281.278 397.266C281.235 397.487 281.212 397.71 281.212 397.938C281.212 398.163 281.235 398.386 281.278 398.607C281.323 398.831 281.389 399.045 281.476 399.254C281.562 399.461 281.667 399.662 281.795 399.849C281.92 400.038 282.063 400.211 282.223 400.37C282.382 400.53 282.557 400.673 282.746 400.798C282.933 400.924 283.134 401.031 283.343 401.117C283.553 401.204 283.767 401.268 283.99 401.313C284.213 401.356 284.436 401.379 284.664 401.379H327.407C327.635 401.379 327.858 401.356 328.081 401.313C328.304 401.268 328.518 401.204 328.728 401.117C328.937 401.031 329.136 400.924 329.325 400.798C329.514 400.673 329.687 400.53 329.848 400.37C330.008 400.211 330.151 400.038 330.276 399.849C330.404 399.662 330.509 399.461 330.595 399.254C330.682 399.045 330.748 398.831 330.791 398.607C330.836 398.386 330.859 398.163 330.859 397.938C330.859 397.71 330.836 397.487 330.791 397.266C330.748 397.043 330.682 396.829 330.595 396.619C330.509 396.412 330.404 396.214 330.276 396.025C330.151 395.838 330.008 395.662 329.848 395.503C329.687 395.344 329.514 395.2 329.325 395.075C329.136 394.95 328.937 394.842 328.728 394.756C328.518 394.669 328.304 394.606 328.081 394.56C327.858 394.517 327.635 394.494 327.407 394.494H319.324C319.051 394.494 318.789 394.444 318.538 394.339C318.288 394.234 318.065 394.089 317.874 393.895C317.68 393.704 317.532 393.483 317.427 393.232C317.325 392.982 317.272 392.72 317.272 392.449C317.272 392.178 317.325 391.916 317.43 391.667C317.534 391.417 317.682 391.196 317.876 391.005C318.067 390.813 318.288 390.665 318.541 390.561C318.791 390.456 319.051 390.403 319.324 390.401H356.503C356.73 390.401 356.954 390.381 357.177 390.335C357.398 390.292 357.614 390.226 357.823 390.139C358.033 390.053 358.231 389.948 358.42 389.823C358.609 389.697 358.782 389.554 358.941 389.394C359.103 389.235 359.246 389.06 359.372 388.873C359.497 388.684 359.604 388.486 359.69 388.278C359.777 388.069 359.843 387.852 359.886 387.632C359.932 387.411 359.952 387.187 359.952 386.96C359.952 386.734 359.932 386.511 359.886 386.288C359.843 386.067 359.777 385.853 359.69 385.643C359.604 385.434 359.497 385.235 359.372 385.049C359.246 384.86 359.103 384.687 358.941 384.527C358.782 384.368 358.609 384.224 358.42 384.099C358.231 383.974 358.033 383.867 357.823 383.78C357.614 383.694 357.398 383.63 357.177 383.584C356.954 383.541 356.73 383.518 356.503 383.518H348.417C348.146 383.518 347.884 383.466 347.634 383.363C347.381 383.259 347.16 383.11 346.967 382.919C346.775 382.728 346.627 382.507 346.523 382.256C346.418 382.004 346.366 381.744 346.366 381.473C346.368 381.202 346.42 380.94 346.525 380.689C346.63 380.439 346.778 380.218 346.969 380.027C347.162 379.835 347.383 379.687 347.634 379.582C347.884 379.48 348.146 379.428 348.417 379.425H372.514C372.74 379.425 372.965 379.403 373.186 379.359C373.409 379.316 373.626 379.25 373.833 379.163C374.042 379.077 374.243 378.972 374.429 378.847C374.618 378.719 374.794 378.578 374.953 378.419C375.113 378.257 375.256 378.084 375.383 377.897C375.509 377.708 375.613 377.51 375.702 377.3C375.789 377.093 375.853 376.877 375.898 376.656C375.941 376.435 375.964 376.209 375.964 375.984C375.964 375.758 375.941 375.535 375.898 375.312C375.853 375.091 375.789 374.875 375.702 374.667C375.613 374.458 375.509 374.26 375.383 374.073C375.256 373.884 375.113 373.711 374.953 373.551C374.794 373.39 374.618 373.248 374.429 373.123C374.243 372.996 374.042 372.891 373.833 372.804C373.626 372.718 373.409 372.652 373.186 372.608C372.965 372.565 372.74 372.542 372.514 372.542ZM372.514 378.544H348.417C348.226 378.544 348.035 378.562 347.846 378.601C347.657 378.637 347.472 378.694 347.295 378.767C347.117 378.842 346.948 378.931 346.787 379.038C346.627 379.145 346.479 379.266 346.343 379.403C346.206 379.539 346.083 379.687 345.976 379.847C345.869 380.006 345.778 380.175 345.705 380.352C345.63 380.53 345.573 380.712 345.534 380.901C345.498 381.09 345.478 381.279 345.478 381.473C345.478 381.664 345.496 381.856 345.534 382.045C345.571 382.234 345.628 382.416 345.703 382.593C345.776 382.773 345.867 382.942 345.974 383.101C346.081 383.261 346.204 383.409 346.34 383.546C346.475 383.682 346.625 383.803 346.784 383.91C346.946 384.017 347.115 384.108 347.292 384.183C347.472 384.256 347.654 384.313 347.846 384.35C348.035 384.388 348.226 384.406 348.417 384.406H356.503C356.671 384.406 356.837 384.422 357.004 384.457C357.168 384.488 357.329 384.536 357.484 384.602C357.639 384.666 357.787 384.746 357.928 384.837C358.067 384.93 358.197 385.037 358.315 385.156C358.436 385.274 358.541 385.404 358.634 385.543C358.73 385.684 358.807 385.83 358.873 385.987C358.937 386.142 358.985 386.301 359.019 386.465C359.051 386.632 359.067 386.798 359.067 386.964C359.067 387.133 359.051 387.299 359.019 387.463C358.985 387.629 358.937 387.789 358.873 387.944C358.807 388.098 358.73 388.246 358.634 388.385C358.541 388.527 358.436 388.654 358.315 388.775C358.197 388.893 358.067 388.998 357.928 389.091C357.787 389.185 357.639 389.265 357.484 389.328C357.329 389.392 357.168 389.442 357.004 389.474C356.837 389.506 356.671 389.522 356.503 389.522H319.324C319.13 389.524 318.939 389.542 318.75 389.581C318.561 389.618 318.377 389.675 318.199 389.747C318.022 389.823 317.851 389.914 317.691 390.021C317.53 390.128 317.382 390.249 317.245 390.385C317.108 390.522 316.988 390.67 316.881 390.829C316.771 390.989 316.683 391.157 316.608 391.335C316.535 391.515 316.478 391.697 316.439 391.886C316.403 392.075 316.382 392.264 316.382 392.458C316.382 392.651 316.403 392.84 316.439 393.029C316.478 393.219 316.532 393.403 316.608 393.581C316.68 393.758 316.771 393.927 316.879 394.086C316.986 394.246 317.108 394.394 317.245 394.53C317.382 394.667 317.53 394.788 317.691 394.895C317.851 395.002 318.019 395.093 318.199 395.166C318.377 395.241 318.561 395.296 318.75 395.334C318.939 395.371 319.13 395.391 319.324 395.391H327.407C327.576 395.391 327.744 395.407 327.908 395.439C328.074 395.473 328.234 395.521 328.389 395.585C328.546 395.649 328.694 395.728 328.833 395.822C328.974 395.915 329.101 396.022 329.222 396.141C329.34 396.259 329.447 396.389 329.541 396.528C329.634 396.667 329.714 396.815 329.778 396.97C329.841 397.125 329.889 397.284 329.923 397.45C329.955 397.614 329.973 397.781 329.973 397.949C329.973 398.118 329.955 398.284 329.923 398.448C329.889 398.612 329.841 398.774 329.778 398.928C329.714 399.083 329.634 399.231 329.541 399.37C329.447 399.509 329.34 399.639 329.222 399.758C329.101 399.876 328.974 399.983 328.833 400.076C328.694 400.17 328.546 400.247 328.389 400.311C328.234 400.377 328.074 400.425 327.908 400.457C327.744 400.491 327.576 400.507 327.407 400.507H284.664C284.495 400.507 284.327 400.491 284.163 400.457C283.997 400.425 283.837 400.377 283.682 400.311C283.525 400.247 283.377 400.17 283.238 400.076C283.097 399.983 282.97 399.876 282.849 399.758C282.731 399.639 282.623 399.509 282.53 399.37C282.437 399.231 282.357 399.083 282.293 398.928C282.23 398.774 282.179 398.612 282.148 398.448C282.116 398.284 282.098 398.118 282.098 397.949C282.098 397.781 282.116 397.614 282.148 397.45C282.179 397.284 282.23 397.125 282.293 396.97C282.357 396.815 282.437 396.667 282.53 396.528C282.623 396.389 282.731 396.259 282.849 396.141C282.97 396.022 283.097 395.915 283.238 395.822C283.377 395.728 283.525 395.649 283.682 395.585C283.837 395.521 283.997 395.473 284.163 395.439C284.327 395.407 284.495 395.391 284.664 395.391H308.483C308.677 395.391 308.868 395.371 309.057 395.334C309.248 395.296 309.43 395.241 309.61 395.168C309.788 395.093 309.956 395.004 310.118 394.897C310.278 394.79 310.428 394.667 310.564 394.53C310.701 394.396 310.822 394.248 310.929 394.086C311.036 393.927 311.127 393.758 311.202 393.581C311.275 393.401 311.332 393.219 311.368 393.029C311.407 392.84 311.425 392.649 311.425 392.458C311.425 392.264 311.407 392.073 311.368 391.884C311.332 391.695 311.275 391.513 311.202 391.335C311.127 391.157 311.036 390.986 310.929 390.827C310.822 390.668 310.701 390.52 310.564 390.383C310.428 390.246 310.278 390.126 310.118 390.018C309.956 389.911 309.788 389.82 309.61 389.747C309.43 389.672 309.248 389.618 309.057 389.579C308.868 389.542 308.677 389.522 308.483 389.522H300.675C300.507 389.522 300.338 389.506 300.175 389.474C300.008 389.442 299.849 389.392 299.694 389.328C299.537 389.265 299.389 389.185 299.25 389.091C299.109 388.998 298.981 388.893 298.861 388.775C298.742 388.654 298.635 388.527 298.542 388.385C298.449 388.246 298.369 388.098 298.305 387.944C298.241 387.789 298.191 387.629 298.159 387.463C298.128 387.299 298.109 387.133 298.109 386.964C298.109 386.798 298.128 386.632 298.159 386.465C298.191 386.301 298.241 386.142 298.305 385.987C298.369 385.83 298.449 385.684 298.542 385.543C298.635 385.404 298.742 385.274 298.861 385.156C298.981 385.037 299.109 384.93 299.25 384.837C299.389 384.746 299.537 384.666 299.694 384.602C299.849 384.536 300.008 384.488 300.175 384.457C300.338 384.422 300.507 384.406 300.675 384.406H337.579C337.772 384.406 337.963 384.388 338.152 384.35C338.341 384.313 338.526 384.258 338.703 384.183C338.883 384.11 339.052 384.019 339.214 383.912C339.373 383.805 339.521 383.684 339.658 383.548C339.794 383.411 339.917 383.263 340.024 383.104C340.131 382.942 340.222 382.773 340.295 382.596C340.37 382.418 340.425 382.234 340.464 382.045C340.5 381.856 340.52 381.666 340.52 381.473C340.52 381.282 340.5 381.09 340.464 380.901C340.425 380.712 340.37 380.528 340.295 380.35C340.222 380.172 340.131 380.004 340.024 379.842C339.917 379.683 339.794 379.535 339.658 379.398C339.521 379.261 339.373 379.141 339.214 379.034C339.052 378.927 338.883 378.835 338.703 378.763C338.526 378.69 338.341 378.633 338.152 378.596C337.963 378.558 337.772 378.539 337.579 378.539H329.769C329.6 378.539 329.434 378.523 329.27 378.489C329.104 378.457 328.944 378.409 328.787 378.343C328.632 378.28 328.484 378.202 328.345 378.109C328.204 378.015 328.074 377.908 327.956 377.79C327.838 377.672 327.731 377.542 327.637 377.403C327.544 377.262 327.464 377.116 327.4 376.961C327.334 376.806 327.287 376.644 327.255 376.48C327.221 376.316 327.205 376.15 327.205 375.982C327.205 375.813 327.221 375.647 327.255 375.483C327.287 375.316 327.334 375.157 327.4 375.002C327.464 374.847 327.544 374.699 327.637 374.56C327.731 374.421 327.838 374.292 327.956 374.173C328.074 374.055 328.204 373.948 328.345 373.854C328.484 373.761 328.632 373.681 328.787 373.617C328.944 373.554 329.104 373.506 329.27 373.472C329.434 373.44 329.6 373.424 329.769 373.424H372.514C372.683 373.424 372.849 373.44 373.013 373.472C373.179 373.506 373.339 373.554 373.496 373.617C373.651 373.681 373.799 373.761 373.938 373.854C374.079 373.948 374.209 374.055 374.327 374.173C374.445 374.292 374.552 374.421 374.646 374.56C374.739 374.699 374.819 374.847 374.883 375.002C374.946 375.157 374.996 375.316 375.028 375.483C375.062 375.647 375.078 375.813 375.078 375.982C375.078 376.15 375.062 376.316 375.028 376.48C374.996 376.644 374.946 376.806 374.883 376.961C374.819 377.116 374.739 377.262 374.646 377.403C374.552 377.542 374.445 377.672 374.327 377.79C374.209 377.908 374.079 378.015 373.938 378.109C373.799 378.202 373.651 378.28 373.496 378.343C373.339 378.409 373.179 378.457 373.013 378.489C372.849 378.523 372.683 378.539 372.514 378.539V378.544ZM306.263 379.136H319.007C319.217 379.141 319.424 379.122 319.631 379.086C319.839 379.047 320.039 378.99 320.233 378.913C320.428 378.835 320.613 378.74 320.788 378.624C320.963 378.51 321.127 378.38 321.275 378.232C321.426 378.086 321.56 377.927 321.676 377.754C321.795 377.58 321.895 377.396 321.974 377.205C322.056 377.011 322.118 376.813 322.159 376.608C322.2 376.401 322.22 376.196 322.22 375.986C322.22 375.777 322.2 375.569 322.159 375.364C322.118 375.159 322.056 374.959 321.974 374.768C321.895 374.574 321.795 374.392 321.676 374.219C321.56 374.043 321.426 373.884 321.275 373.738C321.127 373.59 320.963 373.46 320.788 373.346C320.613 373.232 320.428 373.137 320.233 373.059C320.039 372.982 319.839 372.923 319.631 372.886C319.424 372.848 319.217 372.832 319.007 372.834H306.263C306.054 372.832 305.847 372.848 305.639 372.886C305.434 372.923 305.234 372.982 305.038 373.059C304.845 373.137 304.658 373.232 304.483 373.346C304.307 373.46 304.146 373.59 303.995 373.738C303.845 373.884 303.711 374.043 303.595 374.219C303.476 374.392 303.376 374.574 303.296 374.768C303.214 374.959 303.153 375.159 303.112 375.364C303.071 375.569 303.05 375.777 303.05 375.986C303.05 376.196 303.071 376.401 303.112 376.608C303.153 376.813 303.214 377.011 303.296 377.205C303.376 377.396 303.476 377.58 303.595 377.754C303.711 377.927 303.845 378.086 303.995 378.232C304.146 378.38 304.307 378.51 304.483 378.624C304.658 378.74 304.845 378.835 305.038 378.913C305.234 378.99 305.434 379.047 305.639 379.086C305.847 379.122 306.054 379.141 306.263 379.136ZM304.658 374.383C305.102 373.939 305.637 373.718 306.263 373.72H319.007C319.158 373.718 319.308 373.729 319.456 373.756C319.606 373.784 319.75 373.825 319.891 373.879C320.03 373.936 320.164 374.005 320.292 374.087C320.417 374.169 320.535 374.262 320.642 374.367C320.749 374.474 320.847 374.588 320.932 374.713C321.016 374.838 321.089 374.968 321.146 375.107C321.205 375.246 321.25 375.389 321.28 375.537C321.31 375.685 321.323 375.836 321.323 375.986C321.323 376.136 321.31 376.284 321.28 376.433C321.25 376.581 321.205 376.724 321.146 376.863C321.089 377.002 321.016 377.134 320.932 377.257C320.847 377.382 320.749 377.498 320.642 377.603C320.535 377.708 320.417 377.801 320.292 377.883C320.164 377.968 320.03 378.036 319.891 378.091C319.75 378.148 319.606 378.189 319.456 378.214C319.308 378.241 319.158 378.252 319.007 378.25H306.263C306.04 378.25 305.819 378.218 305.603 378.154C305.389 378.088 305.188 377.995 304.999 377.87C304.813 377.744 304.649 377.596 304.505 377.423C304.362 377.25 304.248 377.059 304.164 376.852C304.077 376.644 304.023 376.43 304 376.207C303.979 375.984 303.991 375.763 304.034 375.542C304.08 375.321 304.155 375.114 304.259 374.916C304.366 374.717 304.499 374.54 304.658 374.383Z" fill="#E8BC76"/>
</g>
</g>
<mask id="mask2_315_49" style="mask-type:luminance" maskUnits="userSpaceOnUse" x="-5" y="324" width="106" height="45">
<path d="M100.787 324H-5V368.201H100.787V324Z" fill="white"/>
</mask>
<g mask="url(#mask2_315_49)">
<path d="M71.4238 336.732H80.7345C80.9359 336.732 81.1347 336.75 81.3334 336.789C81.5322 336.829 81.7231 336.889 81.9088 336.965C82.0971 337.043 82.2723 337.137 82.4397 337.25C82.6097 337.362 82.764 337.488 82.9079 337.632C83.0491 337.773 83.1773 337.93 83.2897 338.098C83.3996 338.265 83.4963 338.443 83.5722 338.629C83.6506 338.814 83.7082 339.008 83.7474 339.207C83.7866 339.403 83.8076 339.604 83.8076 339.806C83.8076 340.007 83.7866 340.209 83.7474 340.405C83.7082 340.604 83.6506 340.795 83.5722 340.983C83.4963 341.169 83.3996 341.347 83.2897 341.514C83.1773 341.682 83.0491 341.836 82.9079 341.98C82.764 342.124 82.6097 342.249 82.4397 342.362C82.2723 342.474 82.0971 342.568 81.9088 342.647C81.7231 342.723 81.5322 342.783 81.3334 342.822C81.1347 342.861 80.9359 342.88 80.7345 342.88H71.4238C71.2224 342.88 71.0236 342.861 70.8249 342.822C70.6287 342.783 70.4352 342.723 70.2495 342.647C70.0638 342.568 69.8859 342.474 69.7186 342.362C69.5512 342.249 69.3943 342.124 69.253 341.98C69.1092 341.836 68.981 341.682 68.8712 341.514C68.7587 341.347 68.6619 341.169 68.5861 340.983C68.5076 340.795 68.4501 340.604 68.4109 340.405C68.3716 340.209 68.3533 340.007 68.3533 339.806C68.3533 339.604 68.3716 339.403 68.4109 339.207C68.4501 339.008 68.5076 338.814 68.5861 338.629C68.6619 338.443 68.7587 338.265 68.8712 338.098C68.981 337.93 69.1092 337.773 69.253 337.632C69.3943 337.488 69.5512 337.362 69.7186 337.25C69.8859 337.137 70.0638 337.043 70.2495 336.965C70.4352 336.889 70.6287 336.829 70.8249 336.789C71.0236 336.75 71.2224 336.732 71.4238 336.732Z" fill="#765B33"/>
<mask id="mask3_315_49" style="mask-type:luminance" maskUnits="userSpaceOnUse" x="-5" y="324" width="105" height="44">
<path d="M-4.58154 324.365H99.7718V367.526H-4.58154V324.365Z" fill="white"/>
</mask>
<g mask="url(#mask3_315_49)">
<path d="M96.3404 349.036H47.9534C47.7494 349.036 47.5507 349.015 47.3519 348.975C47.1558 348.936 46.9622 348.879 46.7765 348.8C46.5908 348.724 46.413 348.627 46.2456 348.515C46.0782 348.403 45.9239 348.277 45.7801 348.133C45.6388 347.989 45.5107 347.835 45.3982 347.667C45.2858 347.5 45.1916 347.322 45.1158 347.136C45.0373 346.948 44.9798 346.757 44.9405 346.558C44.9013 346.359 44.8804 346.161 44.8804 345.959C44.8804 345.755 44.9013 345.556 44.9405 345.357C44.9798 345.159 45.0373 344.968 45.1158 344.782C45.1916 344.593 45.2858 344.416 45.3982 344.248C45.5107 344.081 45.6388 343.926 45.7801 343.782C45.9239 343.639 46.0782 343.513 46.2456 343.401C46.413 343.288 46.5908 343.194 46.7765 343.115C46.9622 343.037 47.1558 342.979 47.3519 342.94C47.5507 342.901 47.7494 342.88 47.9534 342.88H60.8865C61.0878 342.88 61.2866 342.859 61.4828 342.82C61.6815 342.781 61.8725 342.723 62.0581 342.644C62.2438 342.569 62.4217 342.474 62.5891 342.362C62.7565 342.249 62.9108 342.121 63.0546 341.98C63.1958 341.836 63.324 341.682 63.4364 341.514C63.5489 341.347 63.6431 341.169 63.7215 340.983C63.7974 340.798 63.8575 340.607 63.8968 340.408C63.936 340.212 63.9569 340.01 63.9569 339.809C63.9569 339.607 63.9386 339.406 63.8994 339.21C63.8575 339.011 63.8 338.82 63.7215 338.631C63.6457 338.446 63.5515 338.268 63.4391 338.1C63.3266 337.933 63.1984 337.779 63.0572 337.635C62.9134 337.491 62.7591 337.365 62.5917 337.253C62.4243 337.14 62.2465 337.043 62.0608 336.968C61.8751 336.889 61.6815 336.832 61.4854 336.792C61.2866 336.753 61.0878 336.732 60.8865 336.732H58.3705C58.1691 336.732 57.9677 336.711 57.7715 336.672C57.5728 336.633 57.3819 336.575 57.1936 336.497C57.0079 336.421 56.83 336.324 56.6626 336.212C56.4952 336.102 56.3409 335.973 56.1971 335.83C56.0559 335.688 55.9277 335.531 55.8153 335.364C55.7028 335.196 55.6086 335.019 55.5328 334.833C55.4543 334.644 55.3968 334.454 55.3576 334.255C55.3183 334.056 55.2974 333.857 55.2974 333.653C55.2974 333.452 55.3183 333.253 55.3576 333.054C55.3968 332.855 55.4543 332.662 55.5328 332.476C55.6086 332.29 55.7028 332.112 55.8153 331.945C55.9277 331.777 56.0559 331.62 56.1971 331.476C56.3409 331.335 56.4952 331.207 56.6626 331.094C56.83 330.982 57.0079 330.888 57.1936 330.809C57.3819 330.733 57.5728 330.676 57.7715 330.637C57.9677 330.595 58.1691 330.576 58.3705 330.576H95.7337C95.9403 330.584 96.1469 330.574 96.3509 330.542C96.5575 330.508 96.7563 330.456 96.9498 330.383C97.146 330.31 97.3291 330.218 97.5069 330.108C97.6821 329.996 97.8443 329.87 97.9934 329.726C98.145 329.582 98.2784 329.425 98.3961 329.253C98.5138 329.083 98.6132 328.902 98.6969 328.711C98.778 328.52 98.8381 328.321 98.88 328.12C98.9218 327.916 98.9427 327.709 98.9427 327.503C98.9427 327.293 98.9218 327.089 98.88 326.885C98.8381 326.681 98.778 326.485 98.6969 326.291C98.6132 326.1 98.5138 325.92 98.3961 325.75C98.2784 325.58 98.145 325.423 97.9934 325.279C97.8443 325.135 97.6821 325.007 97.5069 324.897C97.3291 324.787 97.146 324.693 96.9498 324.62C96.7563 324.549 96.5575 324.494 96.3509 324.463C96.1469 324.429 95.9403 324.418 95.7337 324.426H30.7155C30.5089 324.418 30.3023 324.429 30.0983 324.463C29.8917 324.494 29.6929 324.549 29.4994 324.62C29.3058 324.693 29.1202 324.787 28.9449 324.897C28.7671 325.007 28.6049 325.135 28.4558 325.279C28.3068 325.423 28.1708 325.58 28.0531 325.75C27.9354 325.92 27.836 326.1 27.7549 326.291C27.6712 326.485 27.6111 326.681 27.5692 326.885C27.5274 327.089 27.5065 327.293 27.5065 327.503C27.5065 327.709 27.5274 327.916 27.5692 328.12C27.6111 328.321 27.6712 328.52 27.7549 328.711C27.836 328.902 27.9354 329.083 28.0531 329.253C28.1708 329.425 28.3068 329.582 28.4558 329.726C28.6049 329.87 28.7671 329.996 28.9449 330.108C29.1202 330.218 29.3058 330.31 29.4994 330.383C29.6929 330.456 29.8917 330.508 30.0983 330.542C30.3023 330.574 30.5089 330.584 30.7155 330.576H42.5893C42.7907 330.576 42.9895 330.595 43.1882 330.637C43.387 330.676 43.5779 330.733 43.7636 330.809C43.9519 330.888 44.1272 330.982 44.2945 331.094C44.4645 331.207 44.6188 331.335 44.7601 331.476C44.9039 331.62 45.0321 331.777 45.1445 331.945C45.2544 332.112 45.3511 332.29 45.427 332.476C45.5055 332.662 45.563 332.855 45.6022 333.054C45.6415 333.253 45.6624 333.452 45.6624 333.653C45.6624 333.857 45.6415 334.056 45.6022 334.255C45.563 334.454 45.5055 334.644 45.427 334.833C45.3511 335.019 45.2544 335.196 45.1445 335.364C45.0321 335.531 44.9039 335.688 44.7601 335.83C44.6188 335.973 44.4645 336.102 44.2945 336.212C44.1272 336.324 43.9519 336.421 43.7636 336.497C43.5779 336.575 43.387 336.633 43.1882 336.672C42.9895 336.711 42.7907 336.732 42.5893 336.732H-1.45355C-1.65493 336.732 -1.8537 336.753 -2.05247 336.792C-2.25124 336.832 -2.44216 336.889 -2.62785 336.968C-2.81354 337.043 -2.99139 337.14 -3.15877 337.253C-3.32616 337.365 -3.48308 337.491 -3.62431 337.635C-3.76815 337.779 -3.89369 337.933 -4.00615 338.1C-4.11861 338.268 -4.21277 338.446 -4.29123 338.631C-4.36707 338.82 -4.42723 339.011 -4.46646 339.21C-4.50569 339.406 -4.52661 339.607 -4.52661 339.809C-4.52661 340.01 -4.50569 340.212 -4.46646 340.408C-4.42461 340.607 -4.36707 340.798 -4.28861 340.983C-4.21277 341.169 -4.116 341.347 -4.00354 341.514C-3.89108 341.682 -3.76554 341.836 -3.62169 341.98C-3.48046 342.121 -3.32616 342.249 -3.15616 342.362C-2.98877 342.474 -2.81354 342.569 -2.62785 342.644C-2.44216 342.723 -2.24862 342.781 -2.05247 342.82C-1.8537 342.859 -1.65493 342.88 -1.45355 342.88H32.1697C32.3711 342.88 32.5724 342.901 32.7712 342.94C32.9674 342.979 33.1609 343.037 33.3466 343.115C33.5323 343.191 33.7101 343.288 33.8775 343.398C34.0449 343.51 34.2018 343.639 34.343 343.782C34.4869 343.924 34.6124 344.081 34.7249 344.248C34.8374 344.416 34.9315 344.593 35.01 344.779C35.0858 344.968 35.146 345.159 35.1852 345.357C35.2244 345.556 35.2427 345.755 35.2427 345.959C35.2427 346.161 35.2244 346.359 35.1852 346.558C35.146 346.757 35.0858 346.948 35.01 347.136C34.9315 347.322 34.8374 347.5 34.7249 347.667C34.6124 347.835 34.4869 347.992 34.343 348.133C34.2018 348.277 34.0449 348.405 33.8775 348.518C33.7101 348.63 33.5323 348.724 33.3466 348.8C33.1609 348.879 32.9674 348.936 32.7712 348.975C32.5724 349.015 32.3711 349.036 32.1697 349.036H31.9474C31.7381 349.025 31.5315 349.038 31.3275 349.07C31.1235 349.104 30.9221 349.156 30.7286 349.229C30.5351 349.302 30.3494 349.394 30.1741 349.504C29.9989 349.616 29.8368 349.742 29.6851 349.886C29.536 350.03 29.4026 350.187 29.2849 350.357C29.1646 350.529 29.0652 350.71 28.9842 350.901C28.9031 351.092 28.8403 351.288 28.7985 351.492C28.7566 351.696 28.7383 351.903 28.7383 352.11C28.7383 352.319 28.7566 352.523 28.7985 352.727C28.8403 352.931 28.9031 353.127 28.9842 353.318C29.0652 353.509 29.1646 353.692 29.2849 353.862C29.4026 354.032 29.536 354.189 29.6851 354.333C29.8368 354.477 29.9989 354.605 30.1741 354.715C30.3494 354.825 30.5351 354.917 30.7286 354.99C30.9221 355.063 31.1235 355.118 31.3275 355.149C31.5315 355.181 31.7381 355.194 31.9474 355.183H66.7946C66.996 355.183 67.1947 355.204 67.3935 355.244C67.5923 355.283 67.7832 355.343 67.9689 355.419C68.1546 355.497 68.3324 355.592 68.4998 355.704C68.6672 355.817 68.8241 355.945 68.9653 356.086C69.1066 356.23 69.2347 356.384 69.3472 356.554C69.4596 356.722 69.5538 356.9 69.6296 357.085C69.7081 357.271 69.7656 357.465 69.8049 357.661C69.8441 357.86 69.865 358.061 69.865 358.263C69.865 358.464 69.8441 358.663 69.8049 358.862C69.7656 359.06 69.7081 359.251 69.6296 359.44C69.5538 359.626 69.4596 359.803 69.3472 359.971C69.2347 360.138 69.1066 360.295 68.9653 360.437C68.8241 360.58 68.6672 360.709 68.4998 360.821C68.3324 360.931 68.1546 361.028 67.9689 361.104C67.7832 361.182 67.5923 361.24 67.3935 361.279C67.1947 361.321 66.996 361.339 66.7946 361.339H51.037C50.8304 361.331 50.6237 361.342 50.4197 361.376C50.2131 361.407 50.0144 361.459 49.8208 361.533C49.6247 361.606 49.4416 361.697 49.2664 361.81C49.0885 361.92 48.9264 362.045 48.7773 362.189C48.6256 362.333 48.4922 362.49 48.3745 362.663C48.2568 362.833 48.1574 363.013 48.0738 363.204C47.9927 363.395 47.9325 363.594 47.8907 363.798C47.8488 364 47.8279 364.206 47.8279 364.413C47.8279 364.622 47.8488 364.829 47.8907 365.03C47.9325 365.234 47.9927 365.433 48.0738 365.624C48.1574 365.815 48.2568 365.996 48.3745 366.166C48.4922 366.338 48.6256 366.495 48.7773 366.639C48.9264 366.781 49.0885 366.909 49.2664 367.019C49.4416 367.131 49.6247 367.223 49.8208 367.296C50.0144 367.369 50.2131 367.421 50.4197 367.453C50.6237 367.487 50.8304 367.497 51.037 367.489H82.717C82.9236 367.497 83.1302 367.487 83.3342 367.453C83.5382 367.421 83.7396 367.369 83.9331 367.296C84.1267 367.223 84.3123 367.131 84.4876 367.019C84.6628 366.909 84.825 366.781 84.9766 366.639C85.1257 366.495 85.2591 366.338 85.3794 366.166C85.4971 365.996 85.5965 365.815 85.6776 365.624C85.7586 365.433 85.8214 365.234 85.8633 365.03C85.9051 364.829 85.926 364.622 85.926 364.413C85.926 364.206 85.9051 364 85.8633 363.798C85.8214 363.594 85.7586 363.395 85.6776 363.204C85.5965 363.013 85.4971 362.833 85.3794 362.663C85.2591 362.49 85.1257 362.333 84.9766 362.189C84.825 362.045 84.6628 361.92 84.4876 361.81C84.3123 361.697 84.1267 361.606 83.9331 361.533C83.7396 361.459 83.5382 361.407 83.3342 361.376C83.1302 361.342 82.9236 361.331 82.717 361.339H80.7528C80.5514 361.339 80.3501 361.321 80.1513 361.282C79.9551 361.242 79.7616 361.185 79.5759 361.106C79.3876 361.028 79.2124 360.934 79.0424 360.821C78.875 360.709 78.7207 360.583 78.5768 360.439C78.4356 360.295 78.3074 360.141 78.195 359.973C78.0825 359.803 77.9884 359.628 77.9099 359.44C77.8341 359.254 77.7739 359.06 77.7347 358.862C77.6955 358.665 77.6771 358.464 77.6771 358.263C77.6771 358.061 77.6955 357.86 77.7347 357.661C77.7739 357.462 77.8341 357.271 77.9099 357.083C77.9884 356.897 78.0825 356.719 78.195 356.552C78.3074 356.384 78.4356 356.227 78.5768 356.086C78.7207 355.942 78.875 355.814 79.0424 355.701C79.2124 355.589 79.3876 355.495 79.5759 355.419C79.7616 355.34 79.9551 355.283 80.1513 355.244C80.3501 355.204 80.5514 355.183 80.7528 355.183H96.3509C96.5601 355.194 96.7641 355.181 96.9707 355.149C97.1747 355.118 97.3761 355.063 97.5697 354.99C97.7632 354.917 97.9489 354.825 98.1241 354.715C98.2994 354.605 98.4615 354.477 98.6132 354.333C98.7623 354.189 98.8957 354.032 99.0134 353.862C99.1337 353.692 99.233 353.509 99.3141 353.318C99.3952 353.127 99.458 352.931 99.4998 352.727C99.539 352.523 99.56 352.319 99.56 352.11C99.56 351.903 99.539 351.696 99.4998 351.492C99.458 351.288 99.3952 351.092 99.3141 350.901C99.233 350.71 99.1337 350.529 99.0134 350.357C98.8957 350.187 98.7623 350.03 98.6132 349.886C98.4615 349.742 98.2994 349.616 98.1241 349.504C97.9489 349.394 97.7632 349.302 97.5697 349.229C97.3761 349.156 97.1747 349.104 96.9707 349.07C96.7641 349.038 96.5601 349.025 96.3509 349.036H96.3404Z" fill="#765B33"/>
</g>
</g>
<mask id="mask4_315_49" style="mask-type:luminance" maskUnits="userSpaceOnUse" x="287" y="135" width="118" height="50">
<path d="M404.753 135H287V184.202H404.753V135Z" fill="white"/>
</mask>
<g mask="url(#mask4_315_49)">
<path d="M372.069 149.172H382.433C382.657 149.172 382.878 149.193 383.1 149.236C383.321 149.28 383.533 149.347 383.74 149.431C383.95 149.519 384.145 149.624 384.331 149.749C384.52 149.874 384.692 150.014 384.852 150.174C385.009 150.331 385.152 150.506 385.277 150.692C385.399 150.879 385.507 151.077 385.592 151.283C385.679 151.49 385.743 151.706 385.787 151.927C385.83 152.145 385.854 152.37 385.854 152.594C385.854 152.818 385.83 153.042 385.787 153.261C385.743 153.482 385.679 153.695 385.592 153.904C385.507 154.111 385.399 154.309 385.277 154.495C385.152 154.682 385.009 154.854 384.852 155.014C384.692 155.174 384.52 155.314 384.331 155.439C384.145 155.564 383.95 155.669 383.74 155.756C383.533 155.841 383.321 155.908 383.1 155.951C382.878 155.995 382.657 156.015 382.433 156.015H372.069C371.845 156.015 371.623 155.995 371.402 155.951C371.184 155.908 370.968 155.841 370.762 155.756C370.555 155.669 370.357 155.564 370.171 155.439C369.984 155.314 369.81 155.174 369.653 155.014C369.492 154.854 369.35 154.682 369.228 154.495C369.102 154.309 368.995 154.111 368.91 153.904C368.823 153.695 368.759 153.482 368.715 153.261C368.671 153.042 368.651 152.818 368.651 152.594C368.651 152.37 368.671 152.145 368.715 151.927C368.759 151.706 368.823 151.49 368.91 151.283C368.995 151.077 369.102 150.879 369.228 150.692C369.35 150.506 369.492 150.331 369.653 150.174C369.81 150.014 369.984 149.874 370.171 149.749C370.357 149.624 370.555 149.519 370.762 149.431C370.968 149.347 371.184 149.28 371.402 149.236C371.623 149.193 371.845 149.172 372.069 149.172Z" fill="#765B33"/>
<mask id="mask5_315_49" style="mask-type:luminance" maskUnits="userSpaceOnUse" x="287" y="135" width="117" height="49">
<path d="M287.466 135.407H403.624V183.45H287.466V135.407Z" fill="white"/>
</mask>
<g mask="url(#mask5_315_49)">
<path d="M399.804 162.868H345.944C345.716 162.868 345.495 162.844 345.274 162.801C345.056 162.757 344.84 162.693 344.633 162.606C344.427 162.521 344.229 162.413 344.043 162.288C343.856 162.163 343.684 162.023 343.524 161.863C343.367 161.703 343.224 161.531 343.099 161.345C342.974 161.158 342.869 160.96 342.785 160.754C342.698 160.544 342.633 160.331 342.59 160.11C342.546 159.889 342.523 159.667 342.523 159.443C342.523 159.216 342.546 158.995 342.59 158.773C342.633 158.552 342.698 158.34 342.785 158.133C342.869 157.923 342.974 157.725 343.099 157.539C343.224 157.352 343.367 157.181 343.524 157.02C343.684 156.86 343.856 156.72 344.043 156.595C344.229 156.47 344.427 156.365 344.633 156.278C344.84 156.19 345.056 156.126 345.274 156.083C345.495 156.039 345.716 156.016 345.944 156.016H360.34C360.564 156.016 360.785 155.992 361.003 155.949C361.225 155.905 361.437 155.841 361.644 155.754C361.85 155.669 362.048 155.564 362.235 155.439C362.421 155.314 362.593 155.171 362.753 155.014C362.91 154.854 363.053 154.682 363.178 154.496C363.303 154.309 363.408 154.111 363.495 153.904C363.58 153.698 363.647 153.485 363.69 153.264C363.734 153.045 363.757 152.821 363.757 152.597C363.757 152.373 363.737 152.149 363.693 151.93C363.647 151.709 363.583 151.496 363.495 151.287C363.411 151.08 363.306 150.882 363.181 150.695C363.056 150.509 362.913 150.337 362.756 150.177C362.596 150.017 362.424 149.877 362.238 149.752C362.051 149.627 361.853 149.519 361.647 149.435C361.44 149.347 361.225 149.283 361.006 149.239C360.785 149.196 360.564 149.172 360.34 149.172H357.539C357.315 149.172 357.091 149.149 356.872 149.105C356.651 149.062 356.439 148.998 356.229 148.91C356.022 148.826 355.824 148.718 355.638 148.593C355.452 148.471 355.28 148.328 355.12 148.168C354.963 148.011 354.82 147.836 354.695 147.649C354.57 147.463 354.465 147.265 354.38 147.058C354.293 146.849 354.229 146.636 354.185 146.415C354.142 146.193 354.118 145.972 354.118 145.745C354.118 145.521 354.142 145.299 354.185 145.078C354.229 144.857 354.293 144.641 354.38 144.435C354.465 144.228 354.57 144.03 354.695 143.843C354.82 143.657 354.963 143.482 355.12 143.322C355.28 143.165 355.452 143.022 355.638 142.897C355.824 142.772 356.022 142.667 356.229 142.58C356.439 142.495 356.651 142.431 356.872 142.387C357.091 142.341 357.315 142.32 357.539 142.32H399.129C399.359 142.329 399.589 142.318 399.816 142.283C400.046 142.245 400.267 142.187 400.482 142.105C400.701 142.023 400.905 141.922 401.103 141.799C401.298 141.674 401.478 141.534 401.644 141.374C401.813 141.214 401.961 141.039 402.092 140.847C402.223 140.658 402.334 140.457 402.427 140.244C402.517 140.032 402.584 139.81 402.631 139.586C402.678 139.359 402.701 139.129 402.701 138.899C402.701 138.666 402.678 138.439 402.631 138.212C402.584 137.984 402.517 137.766 402.427 137.551C402.334 137.338 402.223 137.137 402.092 136.948C401.961 136.759 401.813 136.584 401.644 136.424C401.478 136.263 401.298 136.121 401.103 135.998C400.905 135.876 400.701 135.771 400.482 135.69C400.267 135.611 400.046 135.55 399.816 135.515C399.589 135.477 399.359 135.466 399.129 135.474H326.756C326.526 135.466 326.296 135.477 326.069 135.515C325.839 135.55 325.617 135.611 325.402 135.69C325.187 135.771 324.98 135.876 324.785 135.998C324.587 136.121 324.406 136.263 324.24 136.424C324.074 136.584 323.923 136.759 323.792 136.948C323.661 137.137 323.55 137.338 323.46 137.551C323.367 137.766 323.3 137.984 323.253 138.212C323.207 138.439 323.184 138.666 323.184 138.899C323.184 139.129 323.207 139.359 323.253 139.586C323.3 139.81 323.367 140.032 323.46 140.244C323.55 140.457 323.661 140.658 323.792 140.847C323.923 141.039 324.074 141.214 324.24 141.374C324.406 141.534 324.587 141.674 324.785 141.799C324.98 141.922 325.187 142.023 325.402 142.105C325.617 142.187 325.839 142.245 326.069 142.283C326.296 142.318 326.526 142.329 326.756 142.32H339.973C340.197 142.32 340.418 142.341 340.639 142.387C340.861 142.431 341.073 142.495 341.28 142.58C341.489 142.667 341.684 142.772 341.871 142.897C342.06 143.022 342.232 143.165 342.389 143.322C342.549 143.482 342.692 143.657 342.817 143.843C342.939 144.03 343.047 144.228 343.131 144.435C343.219 144.641 343.283 144.857 343.326 145.078C343.37 145.299 343.393 145.521 343.393 145.745C343.393 145.972 343.37 146.193 343.326 146.415C343.283 146.636 343.219 146.849 343.131 147.058C343.047 147.265 342.939 147.463 342.817 147.649C342.692 147.836 342.549 148.011 342.389 148.168C342.232 148.328 342.06 148.471 341.871 148.593C341.684 148.718 341.489 148.826 341.28 148.91C341.073 148.998 340.861 149.062 340.639 149.105C340.418 149.149 340.197 149.172 339.973 149.172H290.948C290.723 149.172 290.502 149.196 290.281 149.239C290.06 149.283 289.847 149.347 289.64 149.435C289.434 149.519 289.236 149.627 289.049 149.752C288.863 149.877 288.688 150.017 288.531 150.177C288.371 150.337 288.231 150.509 288.106 150.695C287.981 150.882 287.876 151.08 287.789 151.287C287.705 151.496 287.638 151.709 287.594 151.93C287.55 152.149 287.527 152.373 287.527 152.597C287.527 152.821 287.55 153.045 287.594 153.264C287.64 153.485 287.705 153.698 287.792 153.904C287.876 154.111 287.984 154.309 288.109 154.496C288.234 154.682 288.374 154.854 288.534 155.014C288.691 155.171 288.863 155.314 289.052 155.439C289.239 155.564 289.434 155.669 289.64 155.754C289.847 155.841 290.063 155.905 290.281 155.949C290.502 155.992 290.723 156.016 290.948 156.016H328.374C328.598 156.016 328.823 156.039 329.044 156.083C329.262 156.126 329.478 156.19 329.684 156.278C329.891 156.362 330.089 156.47 330.275 156.592C330.462 156.718 330.636 156.86 330.794 157.02C330.954 157.178 331.093 157.352 331.219 157.539C331.344 157.725 331.449 157.923 331.536 158.13C331.62 158.34 331.687 158.552 331.731 158.773C331.775 158.995 331.795 159.216 331.795 159.443C331.795 159.667 331.775 159.889 331.731 160.11C331.687 160.331 331.62 160.544 331.536 160.754C331.449 160.96 331.344 161.158 331.219 161.345C331.093 161.531 330.954 161.706 330.794 161.863C330.636 162.023 330.462 162.166 330.275 162.291C330.089 162.416 329.891 162.521 329.684 162.606C329.478 162.693 329.262 162.757 329.044 162.801C328.823 162.844 328.598 162.868 328.374 162.868H328.127C327.894 162.856 327.664 162.871 327.437 162.906C327.21 162.943 326.986 163.002 326.77 163.083C326.555 163.165 326.348 163.267 326.153 163.389C325.958 163.514 325.777 163.654 325.609 163.814C325.443 163.974 325.294 164.149 325.163 164.338C325.029 164.53 324.919 164.731 324.828 164.944C324.738 165.157 324.668 165.375 324.622 165.602C324.575 165.829 324.555 166.059 324.555 166.289C324.555 166.522 324.575 166.749 324.622 166.977C324.668 167.204 324.738 167.422 324.828 167.635C324.919 167.847 325.029 168.051 325.163 168.24C325.294 168.43 325.443 168.604 325.609 168.765C325.777 168.925 325.958 169.067 326.153 169.19C326.348 169.312 326.555 169.414 326.77 169.495C326.986 169.577 327.21 169.638 327.437 169.673C327.664 169.708 327.894 169.723 328.127 169.711H366.916C367.14 169.711 367.361 169.734 367.583 169.778C367.804 169.822 368.016 169.889 368.223 169.973C368.43 170.06 368.628 170.165 368.814 170.29C369 170.416 369.175 170.558 369.332 170.716C369.49 170.876 369.632 171.048 369.757 171.237C369.883 171.423 369.987 171.621 370.072 171.828C370.159 172.035 370.223 172.25 370.267 172.469C370.311 172.69 370.334 172.914 370.334 173.138C370.334 173.363 370.311 173.584 370.267 173.805C370.223 174.027 370.159 174.239 370.072 174.449C369.987 174.656 369.883 174.854 369.757 175.04C369.632 175.226 369.49 175.401 369.332 175.558C369.175 175.718 369 175.861 368.814 175.986C368.628 176.109 368.43 176.216 368.223 176.301C368.016 176.388 367.804 176.452 367.583 176.496C367.361 176.543 367.14 176.563 366.916 176.563H349.376C349.146 176.554 348.916 176.566 348.689 176.604C348.459 176.639 348.238 176.697 348.022 176.778C347.804 176.86 347.6 176.962 347.405 177.087C347.207 177.209 347.027 177.349 346.861 177.509C346.692 177.67 346.543 177.844 346.412 178.036C346.281 178.226 346.171 178.427 346.077 178.639C345.987 178.852 345.92 179.073 345.874 179.3C345.827 179.524 345.804 179.755 345.804 179.985C345.804 180.218 345.827 180.448 345.874 180.672C345.92 180.899 345.987 181.12 346.077 181.333C346.171 181.545 346.281 181.746 346.412 181.936C346.543 182.128 346.692 182.303 346.861 182.463C347.027 182.62 347.207 182.763 347.405 182.885C347.6 183.01 347.804 183.112 348.022 183.194C348.238 183.275 348.459 183.333 348.689 183.368C348.916 183.406 349.146 183.418 349.376 183.409H384.64C384.87 183.418 385.1 183.406 385.327 183.368C385.554 183.333 385.778 183.275 385.993 183.194C386.209 183.112 386.415 183.01 386.61 182.885C386.806 182.763 386.986 182.62 387.155 182.463C387.321 182.303 387.469 182.128 387.603 181.936C387.734 181.746 387.845 181.545 387.935 181.333C388.025 181.12 388.095 180.899 388.142 180.672C388.188 180.448 388.212 180.218 388.212 179.985C388.212 179.755 388.188 179.524 388.142 179.3C388.095 179.073 388.025 178.852 387.935 178.639C387.845 178.427 387.734 178.226 387.603 178.036C387.469 177.844 387.321 177.67 387.155 177.509C386.986 177.349 386.806 177.209 386.61 177.087C386.415 176.962 386.209 176.86 385.993 176.778C385.778 176.697 385.554 176.639 385.327 176.604C385.1 176.566 384.87 176.554 384.64 176.563H382.453C382.229 176.563 382.005 176.543 381.784 176.499C381.565 176.455 381.35 176.391 381.143 176.304C380.934 176.216 380.739 176.112 380.549 175.986C380.363 175.861 380.191 175.721 380.031 175.561C379.874 175.401 379.731 175.229 379.606 175.043C379.481 174.854 379.376 174.658 379.289 174.449C379.204 174.242 379.137 174.027 379.094 173.805C379.05 173.587 379.03 173.363 379.03 173.138C379.03 172.914 379.05 172.69 379.094 172.469C379.137 172.247 379.204 172.035 379.289 171.825C379.376 171.618 379.481 171.42 379.606 171.234C379.731 171.048 379.874 170.873 380.031 170.716C380.191 170.555 380.363 170.413 380.549 170.288C380.739 170.162 380.934 170.057 381.143 169.973C381.35 169.886 381.565 169.822 381.784 169.778C382.005 169.734 382.229 169.711 382.453 169.711H399.816C400.049 169.723 400.276 169.708 400.506 169.673C400.733 169.638 400.957 169.577 401.172 169.495C401.388 169.414 401.595 169.312 401.79 169.19C401.985 169.067 402.165 168.925 402.334 168.765C402.5 168.604 402.648 168.43 402.779 168.24C402.913 168.051 403.024 167.847 403.114 167.635C403.204 167.422 403.274 167.204 403.321 166.977C403.365 166.749 403.388 166.522 403.388 166.289C403.388 166.059 403.365 165.829 403.321 165.602C403.274 165.375 403.204 165.157 403.114 164.944C403.024 164.731 402.913 164.53 402.779 164.338C402.648 164.149 402.5 163.974 402.334 163.814C402.165 163.654 401.985 163.514 401.79 163.389C401.595 163.267 401.388 163.165 401.172 163.083C400.957 163.002 400.733 162.943 400.506 162.906C400.276 162.871 400.049 162.856 399.816 162.868H399.804Z" fill="#765B33"/>
</g>
</g>
<mask id="mask6_315_49" style="mask-type:luminance" maskUnits="userSpaceOnUse" x="2" y="0" width="143" height="46">
<path d="M145 0H2V45.079H145V0Z" fill="white"/>
</mask>
<g mask="url(#mask6_315_49)">
<mask id="mask7_315_49" style="mask-type:luminance" maskUnits="userSpaceOnUse" x="3" y="0" width="142" height="44">
<path d="M3.1781 0.873535H144.022V43.748H3.1781V0.873535Z" fill="white"/>
</mask>
<g mask="url(#mask7_315_49)">
<path d="M8.33746 0.873535H71.8919C72.227 0.873535 72.5622 0.907399 72.8906 0.97174C73.2224 1.03947 73.544 1.13428 73.8554 1.26296C74.1669 1.39165 74.4614 1.5508 74.7424 1.73705C75.02 1.9233 75.2807 2.13664 75.5177 2.37369C75.758 2.61073 75.9679 2.86809 76.1575 3.14916C76.3437 3.42684 76.5028 3.72484 76.6315 4.033C76.7601 4.34454 76.8583 4.66285 76.9226 4.99472C76.9869 5.32319 77.0208 5.65505 77.0208 5.9903C77.0208 6.32894 76.9869 6.6608 76.9226 6.98927C76.8583 7.32113 76.7601 7.63945 76.6315 7.95099C76.5028 8.25915 76.3437 8.55376 76.1575 8.83483C75.9679 9.11251 75.758 9.37326 75.5177 9.6103C75.2807 9.84735 75.02 10.0607 74.7424 10.2469C74.4614 10.4332 74.1669 10.5923 73.8554 10.721C73.544 10.8497 73.2224 10.9445 72.8906 11.0122C72.5622 11.0766 72.227 11.1105 71.8919 11.1105H60.2799C59.877 11.1105 59.4877 11.185 59.1119 11.3407C58.7395 11.4965 58.4078 11.7132 58.1234 12.0011C57.8356 12.2855 57.6156 12.614 57.4632 12.9865C57.3075 13.359 57.2297 13.7484 57.2297 14.1514C57.2297 14.5544 57.3075 14.9438 57.4632 15.3163C57.6156 15.6888 57.8356 16.0173 58.1234 16.3017C58.4078 16.5896 58.7395 16.8097 59.1119 16.9621C59.4877 17.1178 59.877 17.1957 60.2799 17.1957H115.147C115.486 17.1957 115.818 17.2262 116.149 17.2939C116.481 17.3583 116.799 17.4565 117.111 17.5851C117.422 17.7138 117.72 17.8696 117.998 18.0558C118.279 18.2421 118.54 18.4554 118.777 18.6925C119.014 18.9295 119.227 19.1903 119.413 19.468C119.603 19.749 119.758 20.0436 119.887 20.3518C120.016 20.6633 120.114 20.985 120.181 21.3135C120.246 21.642 120.28 21.9738 120.28 22.3125C120.28 22.6477 120.246 22.9796 120.181 23.3115C120.114 23.6399 120.016 23.9582 119.887 24.2698C119.758 24.5813 119.603 24.8759 119.413 25.1536C119.227 25.4347 119.014 25.6921 118.777 25.9291C118.54 26.1661 118.279 26.3795 117.998 26.5657C117.72 26.752 117.422 26.9111 117.111 27.0398C116.799 27.1685 116.481 27.2633 116.149 27.331C115.818 27.3954 115.486 27.4292 115.147 27.4292H103.539C103.133 27.4292 102.743 27.5071 102.371 27.6595C101.998 27.8153 101.667 28.0354 101.382 28.3199C101.094 28.6043 100.874 28.9328 100.719 29.3053C100.566 29.6812 100.489 30.0672 100.489 30.4702C100.489 30.8732 100.566 31.2626 100.719 31.6351C100.874 32.0076 101.094 32.3361 101.382 32.6239C101.667 32.9084 101.998 33.1285 102.371 33.2808C102.743 33.4366 103.133 33.5145 103.539 33.5145H138.954C139.292 33.5145 139.627 33.5484 139.956 33.6127C140.287 33.6771 140.606 33.7753 140.917 33.9039C141.229 34.0326 141.527 34.1884 141.804 34.3746C142.085 34.5643 142.346 34.7742 142.583 35.0113C142.82 35.2517 143.033 35.5091 143.219 35.7867C143.409 36.0678 143.565 36.3624 143.693 36.674C143.822 36.9821 143.92 37.3038 143.988 37.6323C144.052 37.9608 144.086 38.296 144.086 38.6313C144.086 38.9665 144.052 39.2984 143.988 39.6302C143.92 39.9587 143.822 40.2804 143.693 40.5886C143.565 40.9001 143.409 41.1947 143.219 41.4724C143.033 41.7535 142.82 42.0108 142.583 42.2479C142.346 42.4883 142.085 42.6983 141.804 42.8845C141.527 43.0742 141.229 43.2299 140.917 43.3586C140.606 43.4873 140.287 43.5855 139.956 43.6498C139.627 43.7142 139.292 43.748 138.954 43.748H75.4026C75.064 43.748 74.7323 43.7142 74.4005 43.6498C74.0721 43.5855 73.7505 43.4873 73.439 43.3586C73.1276 43.2299 72.833 43.0742 72.552 42.8845C72.2711 42.6983 72.0138 42.4883 71.7734 42.2479C71.5364 42.0108 71.3231 41.7535 71.1369 41.4724C70.9507 41.1947 70.7916 40.9001 70.663 40.5886C70.5343 40.2804 70.4362 39.9587 70.3718 39.6302C70.3041 39.2984 70.2703 38.9665 70.2703 38.6313C70.2703 38.296 70.3041 37.9608 70.3718 37.6323C70.4362 37.3038 70.5343 36.9821 70.663 36.674C70.7916 36.3624 70.9507 36.0678 71.1369 35.7867C71.3231 35.5091 71.5364 35.2517 71.7734 35.0113C72.0138 34.7742 72.2711 34.5643 72.552 34.3746C72.833 34.1884 73.1276 34.0326 73.439 33.9039C73.7505 33.7753 74.0721 33.6771 74.4005 33.6127C74.7323 33.5484 75.064 33.5145 75.4026 33.5145H87.4208C87.827 33.5145 88.2164 33.4366 88.5888 33.2808C88.9612 33.1285 89.2929 32.9084 89.5773 32.6239C89.8651 32.3361 90.0851 32.0076 90.2409 31.6351C90.3932 31.2626 90.4711 30.8732 90.4711 30.4702C90.4711 30.0672 90.3932 29.6812 90.2375 29.3087C90.0817 28.9362 89.8617 28.6077 89.5739 28.3232C89.2895 28.0388 88.9612 27.8187 88.5888 27.6629C88.213 27.5071 87.827 27.4292 87.4208 27.4292H32.1437C31.8086 27.4292 31.4734 27.3954 31.1416 27.331C30.8132 27.2633 30.4916 27.1685 30.1802 27.0398C29.8687 26.9111 29.5742 26.752 29.2932 26.5657C29.0122 26.3795 28.7549 26.1661 28.5179 25.9291C28.2776 25.6921 28.0643 25.4347 27.8781 25.1536C27.6919 24.8759 27.5328 24.5813 27.4041 24.2698C27.2755 23.9582 27.1773 23.6399 27.113 23.3115C27.0453 22.9796 27.0148 22.6477 27.0148 22.3125C27.0148 21.9738 27.0453 21.642 27.113 21.3135C27.1773 20.985 27.2755 20.6633 27.4041 20.3518C27.5328 20.0436 27.6919 19.749 27.8781 19.468C28.0643 19.1903 28.2776 18.9295 28.5179 18.6925C28.7549 18.4554 29.0122 18.2421 29.2932 18.0558C29.5742 17.8696 29.8687 17.7138 30.1802 17.5851C30.4916 17.4565 30.8132 17.3583 31.1416 17.2939C31.4734 17.2262 31.8086 17.1957 32.1437 17.1957H44.1653C44.5682 17.1957 44.9575 17.1178 45.3299 16.9621C45.7057 16.8097 46.0341 16.5896 46.3218 16.3017C46.6062 16.0173 46.8263 15.6888 46.982 15.3163C47.1377 14.9438 47.2156 14.5544 47.2156 14.1514C47.2122 13.7484 47.1343 13.3624 46.9786 12.9899C46.8229 12.6174 46.6028 12.2889 46.3185 12.0044C46.0307 11.7166 45.7023 11.4965 45.3299 11.3441C44.9575 11.1883 44.5682 11.1105 44.1653 11.1105H8.33746C8.00231 11.1105 7.66715 11.0766 7.33877 11.0122C7.007 10.9445 6.68538 10.8497 6.37731 10.721C6.06585 10.5923 5.76793 10.4332 5.49033 10.2469C5.20934 10.0607 4.94866 9.84735 4.71168 9.6103C4.4747 9.37326 4.26142 9.11251 4.07522 8.83483C3.88564 8.55376 3.72991 8.25915 3.60127 7.95099C3.46923 7.63945 3.37444 7.32113 3.30673 6.98927C3.24241 6.6608 3.20856 6.32894 3.20856 5.9903C3.20856 5.65505 3.24241 5.32319 3.30673 4.99472C3.37444 4.66285 3.46923 4.34454 3.60127 4.033C3.72991 3.72484 3.88564 3.42684 4.07522 3.14916C4.26142 2.86809 4.4747 2.61073 4.71168 2.37369C4.94866 2.13664 5.20934 1.9233 5.49033 1.73705C5.76793 1.5508 6.06585 1.39165 6.37731 1.26296C6.68538 1.13428 7.007 1.03947 7.33877 0.97174C7.66715 0.907399 8.00231 0.873535 8.33746 0.873535ZM8.33746 9.79655H44.1653C44.4497 9.79655 44.7341 9.82703 45.0151 9.88121C45.2961 9.93878 45.5703 10.0201 45.8343 10.1318C46.0984 10.2402 46.3489 10.3756 46.5893 10.5348C46.8263 10.6939 47.0463 10.8734 47.2494 11.0766C47.4526 11.2764 47.6354 11.4965 47.7945 11.7335C47.9536 11.9706 48.089 12.2212 48.1974 12.4853C48.3091 12.7494 48.3937 13.0237 48.4513 13.3014C48.5054 13.5825 48.5359 13.8669 48.5359 14.1514C48.5359 14.4392 48.5088 14.7203 48.4513 15.0014C48.3971 15.2824 48.3125 15.5567 48.2041 15.8209C48.0924 16.085 47.957 16.3356 47.7979 16.5726C47.6388 16.8131 47.456 17.0332 47.2562 17.2364C47.0531 17.4361 46.8296 17.619 46.5927 17.7782C46.3523 17.9373 46.1018 18.0728 45.8377 18.1811C45.5703 18.2895 45.2994 18.3742 45.0185 18.4317C44.7341 18.4859 44.4497 18.513 44.1653 18.5164H32.1437C31.8932 18.5164 31.6461 18.5401 31.3989 18.5875C31.1552 18.6383 30.9148 18.7094 30.6846 18.8042C30.4544 18.899 30.2343 19.0176 30.0244 19.1564C29.8179 19.2952 29.625 19.451 29.4489 19.6305C29.2695 19.8066 29.1138 19.9962 28.975 20.2062C28.8362 20.4127 28.7177 20.6329 28.6229 20.8631C28.5247 21.0934 28.4536 21.3304 28.4028 21.5776C28.3554 21.8215 28.3317 22.0687 28.3317 22.3193C28.3317 22.5665 28.3554 22.817 28.4028 23.0609C28.4536 23.3047 28.5247 23.5417 28.6229 23.7754C28.7177 24.0057 28.8362 24.2224 28.975 24.4323C29.1138 24.6389 29.2695 24.8319 29.4489 25.008C29.625 25.1841 29.8179 25.3433 30.0244 25.4821C30.2343 25.6209 30.4544 25.7361 30.6846 25.8309C30.9148 25.9291 31.1552 26.0002 31.3989 26.0476C31.6461 26.0984 31.8932 26.1221 32.1437 26.1221H87.4208C87.7086 26.1221 87.9929 26.1526 88.2739 26.2068C88.5549 26.2643 88.8291 26.3456 89.0932 26.4574C89.3573 26.5657 89.6112 26.7012 89.8481 26.8603C90.0885 27.0195 90.3086 27.199 90.5117 27.4022C90.7148 27.6053 90.8942 27.8254 91.0534 28.0625C91.2159 28.3029 91.3479 28.5535 91.4596 28.8176C91.5679 29.0818 91.6526 29.3527 91.7101 29.6338C91.7643 29.9148 91.7948 30.1993 91.7948 30.4837C91.7948 30.7716 91.7643 31.056 91.7101 31.3371C91.6526 31.6148 91.5713 31.8891 91.4596 32.1532C91.3513 32.4173 91.2158 32.6679 91.0567 32.9084C90.8976 33.1454 90.7148 33.3655 90.5117 33.5687C90.3086 33.7685 90.0885 33.9513 89.8481 34.1105C89.6112 34.2697 89.3606 34.4017 89.0932 34.5135C88.8291 34.6218 88.5549 34.7065 88.2739 34.7607C87.9929 34.8182 87.7086 34.8453 87.4208 34.8453H75.4026C75.152 34.8453 74.9049 34.869 74.6578 34.9198C74.4106 34.9673 74.1737 35.0384 73.9435 35.1366C73.7099 35.2314 73.4932 35.3465 73.2833 35.4854C73.0768 35.6242 72.8838 35.7834 72.7044 35.9594C72.5283 36.1355 72.3692 36.3286 72.2304 36.5351C72.0916 36.7451 71.9765 36.9618 71.8783 37.1921C71.7836 37.4257 71.7125 37.6628 71.6617 37.9066C71.6143 38.1504 71.5872 38.401 71.5872 38.6482C71.5872 38.8988 71.6143 39.146 71.6617 39.3898C71.7125 39.637 71.7836 39.8741 71.8783 40.1043C71.9765 40.3346 72.0916 40.5547 72.2304 40.7613C72.3692 40.9712 72.5283 41.1609 72.7044 41.337C72.8838 41.5164 73.0768 41.6722 73.2833 41.8111C73.4932 41.9499 73.7099 42.0684 73.9435 42.1632C74.1737 42.258 74.4106 42.3292 74.6578 42.38C74.9049 42.4274 75.152 42.4511 75.4026 42.4511H138.954C139.204 42.4511 139.455 42.4274 139.698 42.38C139.946 42.3292 140.183 42.258 140.413 42.1632C140.646 42.0684 140.866 41.9499 141.073 41.8111C141.283 41.6722 141.476 41.5164 141.652 41.337C141.828 41.1609 141.987 40.9712 142.126 40.7613C142.265 40.5547 142.383 40.3346 142.478 40.1043C142.573 39.8741 142.647 39.637 142.694 39.3898C142.742 39.146 142.769 38.8988 142.769 38.6482C142.769 38.401 142.742 38.1504 142.694 37.9066C142.647 37.6628 142.573 37.4257 142.478 37.1921C142.383 36.9618 142.265 36.7451 142.126 36.5351C141.987 36.3286 141.828 36.1355 141.652 35.9594C141.476 35.7834 141.283 35.6242 141.073 35.4854C140.866 35.3465 140.646 35.2314 140.413 35.1366C140.183 35.0384 139.946 34.9673 139.698 34.9198C139.455 34.869 139.204 34.8453 138.954 34.8453H103.539C103.251 34.8453 102.967 34.8182 102.686 34.7607C102.401 34.7065 102.13 34.6218 101.863 34.5135C101.599 34.4051 101.348 34.2697 101.108 34.1105C100.871 33.9513 100.648 33.7719 100.444 33.5687C100.241 33.3655 100.062 33.1454 99.9028 32.9084C99.7437 32.6679 99.6083 32.4173 99.4966 32.1532C99.3882 31.8891 99.3036 31.6148 99.2494 31.3337C99.1919 31.0526 99.1648 30.7716 99.1648 30.4837C99.1648 30.1959 99.1919 29.9148 99.2494 29.6338C99.3036 29.3527 99.3882 29.0784 99.4966 28.8143C99.6083 28.5501 99.7437 28.2995 99.9028 28.0591C100.062 27.8221 100.241 27.602 100.444 27.3988C100.648 27.1956 100.871 27.0161 101.108 26.857C101.348 26.6978 101.599 26.5623 101.863 26.454C102.13 26.3456 102.401 26.261 102.686 26.2068C102.967 26.1492 103.251 26.1221 103.539 26.1221H115.147C115.398 26.1221 115.648 26.0984 115.892 26.0476C116.139 26.0002 116.376 25.9291 116.606 25.8309C116.84 25.7361 117.06 25.6209 117.267 25.4821C117.477 25.3433 117.669 25.1841 117.846 25.008C118.022 24.8319 118.181 24.6389 118.319 24.4323C118.458 24.2224 118.577 24.0057 118.672 23.7754C118.766 23.5417 118.841 23.3047 118.888 23.0609C118.936 22.817 118.963 22.5665 118.963 22.3193C118.963 22.0687 118.936 21.8215 118.888 21.5776C118.841 21.3304 118.766 21.0934 118.672 20.8631C118.577 20.6329 118.458 20.4127 118.319 20.2062C118.181 19.9962 118.022 19.8066 117.846 19.6305C117.669 19.451 117.477 19.2952 117.267 19.1564C117.06 19.0176 116.84 18.899 116.606 18.8042C116.376 18.7094 116.139 18.6383 115.892 18.5875C115.648 18.5401 115.398 18.5164 115.147 18.5164H60.2799C59.9921 18.5164 59.7078 18.4859 59.4268 18.4317C59.1458 18.3742 58.8716 18.2929 58.6075 18.1845C58.3401 18.0728 58.0895 17.9407 57.8492 17.7816C57.6122 17.6224 57.3922 17.4395 57.189 17.2364C56.9859 17.0366 56.8031 16.8131 56.644 16.576C56.4849 16.339 56.3494 16.0884 56.2411 15.8209C56.1294 15.5567 56.0481 15.2858 55.9906 15.0048C55.9364 14.7237 55.906 14.4392 55.906 14.1514C55.906 13.8669 55.9364 13.5825 55.9906 13.3014C56.0481 13.0204 56.1294 12.7494 56.2411 12.4853C56.3494 12.2178 56.4849 11.9672 56.644 11.7302C56.8031 11.4931 56.9859 11.2696 57.189 11.0698C57.3922 10.8666 57.6122 10.6838 57.8492 10.5246C58.0895 10.3655 58.3401 10.2334 58.6075 10.1216C58.8716 10.0133 59.1458 9.93201 59.4268 9.87444C59.7078 9.82026 59.9921 9.78978 60.2799 9.78978H71.8919C72.1424 9.78978 72.3896 9.76608 72.6333 9.71867C72.8804 9.66787 73.1174 9.59676 73.351 9.50194C73.5812 9.40712 73.8013 9.2886 74.0078 9.14976C74.2177 9.01092 74.4106 8.85515 74.5867 8.67567C74.7627 8.49958 74.9218 8.30995 75.0606 8.09999C75.1994 7.89343 75.3179 7.67331 75.4127 7.44304C75.5109 7.21277 75.582 6.97573 75.6294 6.72853C75.6802 6.48471 75.7039 6.2375 75.7039 5.98692C75.7039 5.73633 75.6802 5.48912 75.6294 5.24531C75.582 5.00149 75.5109 4.76445 75.4127 4.53079C75.3179 4.30052 75.1994 4.08379 75.0606 3.87384C74.9218 3.66727 74.7627 3.47425 74.5867 3.29816C74.4106 3.12207 74.2177 2.96291 74.0078 2.82407C73.8013 2.68523 73.5812 2.57009 73.351 2.47528C73.1174 2.37707 72.8804 2.30596 72.6333 2.25855C72.3896 2.20776 72.1424 2.18405 71.8919 2.18405H8.33746C8.08694 2.18405 7.83981 2.20776 7.59606 2.25855C7.34892 2.30596 7.11194 2.37707 6.87835 2.47528C6.64814 2.57009 6.42809 2.68523 6.22158 2.82407C6.01168 2.96291 5.81871 3.12207 5.64267 3.29816C5.46663 3.47425 5.30752 3.66727 5.16871 3.87384C5.02991 4.08379 4.91142 4.30052 4.81663 4.53079C4.72184 4.76445 4.64736 5.00149 4.59996 5.24531C4.54918 5.48912 4.52548 5.73633 4.52548 5.98692C4.52548 6.2375 4.54918 6.48471 4.59996 6.72853C4.64736 6.97573 4.72184 7.21277 4.81663 7.44304C4.91142 7.67331 5.02991 7.89343 5.16871 8.09999C5.30752 8.30995 5.46663 8.49958 5.64267 8.67567C5.81871 8.85515 6.01168 9.01092 6.22158 9.14976C6.42809 9.2886 6.64814 9.40712 6.87835 9.50194C7.11194 9.59676 7.34892 9.66787 7.59606 9.71867C7.83981 9.76608 8.08694 9.78978 8.33746 9.78978V9.79655ZM106.84 10.6804H87.8914C87.5799 10.6838 87.2718 10.6601 86.9638 10.6025C86.6591 10.5483 86.3578 10.4603 86.07 10.3451C85.7789 10.23 85.5046 10.0878 85.244 9.91846C84.9833 9.74914 84.7395 9.55274 84.5195 9.33601C84.2961 9.1159 84.0963 8.87885 83.9237 8.62149C83.7476 8.36413 83.5987 8.09322 83.4802 7.80538C83.3583 7.51754 83.2669 7.22293 83.206 6.91816C83.145 6.61339 83.1145 6.30523 83.1145 5.99369C83.1145 5.68214 83.145 5.37399 83.206 5.06922C83.2669 4.76445 83.3583 4.46983 83.4802 4.18199C83.5987 3.89416 83.7476 3.62325 83.9237 3.36588C84.0963 3.10852 84.2961 2.87148 84.5195 2.65137C84.7395 2.43464 84.9833 2.24162 85.244 2.06892C85.5046 1.8996 85.7789 1.75737 86.07 1.64224C86.3578 1.5271 86.6591 1.44244 86.9638 1.38487C87.2718 1.32731 87.5799 1.3036 87.8914 1.31037H106.84C107.151 1.3036 107.459 1.32731 107.767 1.38487C108.072 1.44244 108.37 1.5271 108.661 1.64224C108.952 1.75737 109.226 1.8996 109.487 2.06892C109.748 2.24162 109.991 2.43464 110.211 2.65137C110.435 2.87148 110.635 3.10852 110.807 3.36588C110.983 3.62325 111.132 3.89416 111.251 4.18199C111.373 4.46983 111.464 4.76445 111.525 5.06922C111.586 5.37399 111.616 5.68214 111.616 5.99369C111.616 6.30523 111.586 6.61339 111.525 6.91816C111.464 7.22293 111.373 7.51754 111.251 7.80538C111.132 8.09322 110.983 8.36413 110.807 8.62149C110.635 8.87885 110.435 9.1159 110.211 9.33601C109.991 9.55274 109.748 9.74914 109.487 9.91846C109.226 10.0878 108.952 10.23 108.661 10.3451C108.37 10.4603 108.072 10.5483 107.767 10.6025C107.459 10.6601 107.151 10.6838 106.84 10.6804ZM109.226 3.6097C108.566 2.94936 107.771 2.62428 106.84 2.62766H87.8914C87.6679 2.62089 87.4445 2.64121 87.2244 2.67846C87.001 2.71909 86.7877 2.78005 86.5778 2.86471C86.3713 2.94598 86.1716 3.04757 85.982 3.16948C85.7958 3.29139 85.6198 3.43023 85.4606 3.58938C85.3015 3.74516 85.156 3.91786 85.0307 4.10072C84.9054 4.28697 84.7971 4.48338 84.7125 4.68995C84.6244 4.89651 84.5567 5.10985 84.5127 5.32997C84.4687 5.54669 84.4484 5.77019 84.4484 5.99369C84.4484 6.21719 84.4687 6.44069 84.5127 6.6608C84.5567 6.87752 84.6244 7.09086 84.7125 7.29743C84.7971 7.504 84.9054 7.70041 85.0307 7.88665C85.156 8.0729 85.3015 8.24222 85.4606 8.39799C85.6198 8.55715 85.7958 8.69599 85.982 8.8179C86.1716 8.93981 86.3713 9.0414 86.5778 9.12606C86.7877 9.20733 87.001 9.26828 87.2244 9.30892C87.4445 9.34617 87.6679 9.36649 87.8914 9.35971H106.84C107.171 9.3631 107.5 9.31231 107.821 9.21749C108.14 9.12267 108.441 8.98044 108.718 8.79419C108.996 8.61133 109.24 8.38783 109.453 8.13047C109.666 7.87311 109.836 7.59204 109.964 7.28389C110.09 6.97573 110.171 6.65403 110.205 6.32216C110.235 5.9903 110.218 5.66183 110.154 5.33335C110.086 5.00826 109.974 4.69672 109.819 4.40211C109.66 4.11088 109.463 3.84675 109.226 3.6097Z" fill="#E8BC76" fill-opacity="0.61"/>
</g>
</g>
</svg>
