<svg width="89" height="54" viewBox="0 0 89 54" fill="none" xmlns="http://www.w3.org/2000/svg">
<mask id="mask0_647_1640" style="mask-type:luminance" maskUnits="userSpaceOnUse" x="5" y="13" width="39" height="25">
<path d="M43.1441 13.4688H5.00002V37.4028H43.1441V13.4688Z" fill="white"/>
</mask>
<g mask="url(#mask0_647_1640)">
<path fill-rule="evenodd" clip-rule="evenodd" d="M55.6823 35.4297C55.6823 35.3274 55.6123 35.1898 55.6711 35.1355C55.6879 35.1195 56.1978 35.1099 56.4444 35.1035C56.4304 34.9147 56.4192 34.7644 56.408 34.7036C56.366 34.4637 56.3576 34.2142 56.5789 34.2686C56.8002 34.3229 57.2541 34.2526 57.3914 34.2526C57.5315 34.2526 57.8369 34.1278 57.7781 34.4029C57.7473 34.5469 57.7501 34.8316 57.7557 35.0971C57.8509 35.0971 57.9182 35.0971 57.9434 35.0971C58.0891 35.0971 58.1311 35.0267 58.1311 34.6908C58.1311 34.3517 58.0975 22.0712 58.1059 21.4506C58.1143 20.83 58.2964 20.7789 58.3216 21.4346C58.3441 22.0904 58.4281 34.7964 58.5094 35.0427C58.5906 35.2922 58.6158 35.5321 58.3525 35.5033C58.274 35.4969 58.0471 35.4777 57.7669 35.4553C57.7697 35.5353 57.7725 35.6025 57.7697 35.6409C57.7613 35.9192 57.638 35.7784 57.6212 35.6409C57.6184 35.5993 57.61 35.5289 57.6016 35.4393C57.369 35.4202 57.1112 35.401 56.8815 35.385C56.8843 35.5769 56.8871 35.8008 56.8927 36.0151C57.5203 35.9768 58.3777 35.9256 58.4281 35.9192C58.5038 35.9096 58.6158 35.8968 58.6158 36.0535C58.6158 36.2071 58.6523 36.7445 58.6943 37.0164C58.7363 37.2915 58.7391 37.4035 58.571 37.3715C58.4029 37.3395 57.8061 37.2979 57.6996 37.2467C57.5932 37.1987 57.6716 37.1028 57.6716 36.8501C57.6716 36.5973 57.7865 36.6101 57.7781 36.7893C57.7753 36.8469 57.7865 36.8948 57.8397 36.8948C57.893 36.8916 58.1283 36.8788 58.1731 36.8756C58.218 36.8724 58.1984 36.7381 58.1843 36.5781C58.1731 36.4182 58.1563 36.4054 58.0975 36.4054C58.0639 36.4054 57.4279 36.3958 56.9011 36.3894C56.9095 36.7093 56.9151 36.9588 56.9207 36.9876C56.9319 37.0772 57.016 37.2275 56.7778 37.1923C56.5397 37.1571 53.948 37.09 53.6818 37.1092C53.4128 37.1252 53.2055 36.9364 53.6874 36.9428C54.1721 36.9524 56.0381 36.8469 56.2931 36.866C56.5453 36.882 56.5229 36.8565 56.5229 36.6517C56.5229 36.6101 56.5201 36.5142 56.5145 36.3862C56.3463 36.383 55.8953 36.383 55.8728 36.383C55.772 36.3894 55.6879 36.383 55.6487 36.3254C55.6123 36.2679 55.6375 36.0951 55.6319 35.8392C55.6291 35.5833 55.7776 35.6633 55.7776 35.8264C55.7776 35.9896 55.8168 36.0503 55.9093 36.0503C55.9261 36.0503 56.3547 36.0471 56.4976 36.0375C56.4864 35.8232 56.4752 35.5801 56.4612 35.3594C56.2763 35.3498 55.8364 35.3306 55.8196 35.353C55.8 35.3754 55.7327 35.5897 55.6823 35.4297ZM5.96942 36.7893C5.96101 36.6101 6.07588 36.5973 6.07588 36.8501C6.07588 37.1028 6.15434 37.1987 6.04787 37.2467C5.94139 37.2979 5.3446 37.3395 5.17649 37.3715C5.00838 37.4035 5.01399 37.2915 5.05322 37.0164C5.09524 36.7445 5.13167 36.2071 5.13167 36.0535C5.13167 35.8968 5.24374 35.9096 5.32219 35.9192C5.37263 35.9256 6.22998 35.9768 6.85479 36.0151C6.8604 35.8008 6.866 35.5769 6.8688 35.385C6.63625 35.401 6.38129 35.4202 6.14593 35.4393C6.13753 35.5289 6.12912 35.5993 6.12632 35.6409C6.1095 35.7784 5.98903 35.9192 5.97782 35.6409C5.97502 35.6025 5.97782 35.5353 5.98063 35.4553C5.70044 35.4777 5.56595 35.4873 5.39504 35.5033C5.22413 35.5225 5.15689 35.2922 5.23814 35.0427C5.32219 34.7964 5.40344 32.5188 5.42866 31.863C5.45108 31.2072 5.6332 31.2616 5.64161 31.8822C5.65001 32.5028 5.61639 34.3517 5.61639 34.6908C5.61639 35.0267 5.72005 35.0971 5.80411 35.0971C5.89096 35.0971 5.89657 35.0971 5.99183 35.0971C5.99743 34.8316 6.00024 34.5469 5.96942 34.4029C5.91338 34.1278 6.21598 34.2526 6.35607 34.2526C6.49616 34.2526 6.94725 34.3229 7.1686 34.2686C7.38994 34.2142 7.38154 34.4637 7.34231 34.7036C7.3311 34.7644 7.3171 34.9147 7.30309 35.1035C7.54965 35.1099 7.88026 35.1195 7.89708 35.1355C7.95591 35.1898 7.88587 35.3274 7.88587 35.4297C7.83544 35.5897 7.76819 35.3754 7.74858 35.353C7.73177 35.3306 7.4712 35.3498 7.28627 35.3594C7.27507 35.5801 7.26106 35.8232 7.24985 36.0375C7.39555 36.0471 7.6253 36.0503 7.64491 36.0503C7.73457 36.0503 7.7738 35.9896 7.7738 35.8264C7.7738 35.6633 7.92229 35.5833 7.91949 35.8392C7.91389 36.0951 7.9391 36.2679 7.90268 36.3254C7.86626 36.383 7.7794 36.3894 7.68133 36.383C7.65612 36.383 7.40395 36.383 7.23584 36.3862C7.23024 36.5142 7.22744 36.6101 7.22744 36.6517C7.22744 36.8565 7.20222 36.882 7.45719 36.866C7.70935 36.8469 50.5858 36.9524 51.0705 36.9428C51.5552 36.9364 51.3451 37.1252 51.0789 37.1092C50.8127 37.09 7.21063 37.1571 6.97247 37.1923C6.73432 37.2275 6.81557 37.0772 6.82677 36.9876C6.83238 36.9588 6.84079 36.7093 6.84639 36.3894C6.31964 36.3958 5.68363 36.4054 5.65001 36.4054C5.59117 36.4054 5.57436 36.4182 5.56315 36.5781C5.55194 36.7381 5.52953 36.8724 5.57436 36.8756C5.62199 36.8788 5.85454 36.8916 5.90777 36.8948C5.96101 36.8948 5.97222 36.8469 5.96942 36.7893ZM24.7809 36.5686C24.6576 36.559 8.29774 36.6453 8.2305 36.5622C8.16325 36.4822 8.13803 35.4585 8.19127 35.4617C8.24451 35.4649 9.02341 35.4265 9.05704 35.4873C9.09066 35.5481 9.04583 36.0567 9.001 36.0599C8.95617 36.0631 8.88892 35.7304 8.84409 35.7176C8.80207 35.7081 8.45744 35.6793 8.43783 35.7144C8.41822 35.7528 8.47706 36.2583 8.49387 36.2934C8.51068 36.3286 24.6548 36.4022 24.7669 36.415C24.879 36.431 24.8846 36.559 24.7809 36.5686ZM55.1892 35.1834C55.0631 35.1898 54.4523 35.1067 54.3823 35.1866C54.315 35.2698 54.2898 36.2934 54.343 36.2902C54.3963 36.2871 55.178 36.3222 55.2116 36.2647C55.2424 36.2039 55.206 35.5609 55.1612 35.5577C55.1163 35.5545 55.0463 35.9736 55.0015 35.9864C54.9566 35.996 54.612 36.0727 54.5924 36.0343C54.5728 35.9991 54.6288 35.4937 54.6456 35.4585C54.6624 35.4234 55.0631 35.3498 55.1724 35.3338C55.2845 35.3178 55.2929 35.193 55.1892 35.1834ZM56.8759 35.0971C57.1196 35.0971 57.3718 35.0939 57.5735 35.0971C57.5623 34.9691 57.5539 34.8603 57.5539 34.806C57.5539 34.6652 57.4783 34.6844 57.4222 34.6716C57.3634 34.6588 57.086 34.6908 56.9908 34.694C56.8955 34.6972 56.8843 34.7132 56.8759 34.8284C56.8731 34.8508 56.8731 34.9499 56.8759 35.0971ZM6.8716 35.0971C6.87441 34.9499 6.87441 34.8508 6.8716 34.8284C6.866 34.7132 6.85199 34.6972 6.75673 34.694C6.66427 34.6908 6.38409 34.6588 6.32805 34.6716C6.26921 34.6844 6.19357 34.6652 6.19357 34.806C6.19357 34.8603 6.18516 34.9691 6.17675 35.0971C6.37568 35.0939 6.62785 35.0971 6.8716 35.0971ZM57.7669 29.4382C57.7613 29.5758 57.8369 33.7279 57.7641 33.8015C57.6884 33.8751 56.7386 33.9007 56.7414 33.8431C56.7442 33.7855 56.7106 32.9442 56.7666 32.909C56.8227 32.8738 57.2934 32.9218 57.2962 32.9698C57.299 33.0178 56.9908 33.0914 56.9796 33.1393C56.9712 33.1873 56.9431 33.5552 56.9768 33.5776C57.0132 33.5968 57.4811 33.536 57.5119 33.5168C57.5455 33.5008 57.6128 29.5758 57.6268 29.4574C57.6408 29.3359 57.7585 29.3295 57.7669 29.4382ZM6.94725 33.7855C6.94165 33.6512 7.0201 32.989 6.94445 32.9186C6.8716 32.8451 5.92178 32.8163 5.92459 32.8738C5.92739 32.9314 5.89376 33.7727 5.947 33.8079C6.00304 33.8431 6.59983 33.8047 6.60263 33.7535C6.60543 33.7056 6.21598 33.632 6.20477 33.584C6.19357 33.536 6.12352 33.1617 6.15994 33.1425C6.19357 33.1202 6.66147 33.1841 6.69509 33.2001C6.72591 33.2193 6.79596 33.648 6.80997 33.7695C6.82398 33.8879 6.93885 33.8975 6.94725 33.7855ZM8.06519 15.4431C8.06519 15.5455 8.13523 15.683 8.07919 15.7342C8.05958 15.7534 7.54965 15.763 7.30309 15.7694C7.3171 15.9581 7.3311 16.1085 7.34231 16.1693C7.38154 16.4092 7.38994 16.6587 7.1686 16.6043C6.94725 16.5499 6.49616 16.6235 6.35607 16.6235C6.21598 16.6235 5.91338 16.7451 5.96942 16.47C6.00024 16.326 5.99743 16.0413 5.99183 15.7758C5.89657 15.7758 5.82933 15.7758 5.80411 15.7758C5.65841 15.7758 5.61639 15.8462 5.61639 16.1821C5.61639 16.5211 5.65001 28.8017 5.64161 29.4222C5.6332 30.0428 5.45108 30.094 5.42866 29.4382C5.40344 28.7825 5.32219 16.0765 5.23814 15.8302C5.15689 15.5807 5.13167 15.3408 5.39504 15.3695C5.47349 15.3759 5.70044 15.3951 5.98063 15.4175C5.97782 15.3376 5.97502 15.2704 5.97782 15.232C5.98903 14.9537 6.1095 15.0944 6.12632 15.232C6.12912 15.2736 6.13753 15.344 6.14593 15.4335C6.38129 15.4527 6.63625 15.4719 6.8688 15.4879C6.866 15.296 6.8604 15.0721 6.85479 14.8577C6.22998 14.8929 5.37263 14.9473 5.32219 14.9537C5.24374 14.9633 5.13167 14.9761 5.13167 14.8225C5.13167 14.6658 5.09524 14.1284 5.05322 13.8565C5.01399 13.5814 5.00838 13.4694 5.17649 13.5014C5.3446 13.5334 5.94139 13.575 6.04787 13.6262C6.15434 13.6741 6.07588 13.7701 6.07588 14.0228C6.07588 14.2755 5.96101 14.2627 5.96942 14.0836C5.97222 14.026 5.96101 13.978 5.90777 13.978C5.85454 13.9812 5.62199 13.994 5.57436 13.9972C5.52953 14.0004 5.55194 14.1348 5.56315 14.2947C5.57436 14.4547 5.59117 14.4675 5.65001 14.4675C5.68363 14.4675 6.31964 14.4771 6.84639 14.4835C6.84079 14.1636 6.83238 13.9141 6.82677 13.8853C6.81557 13.7957 6.73432 13.6453 6.97247 13.6805C7.21063 13.7157 9.79952 13.7829 10.0685 13.7637C10.3347 13.7477 10.5448 13.9364 10.0601 13.93C9.57537 13.9205 7.70935 14.026 7.45719 14.0068C7.20222 13.9908 7.22744 14.0164 7.22744 14.2211C7.22744 14.2627 7.23024 14.3587 7.23584 14.4867C7.40395 14.4899 7.85225 14.4899 7.87746 14.4899C7.97553 14.4835 8.06239 14.4899 8.09881 14.5474C8.13523 14.605 8.11002 14.7778 8.11562 15.0337C8.11842 15.2896 7.96992 15.2096 7.96992 15.0465C7.96992 14.8833 7.9307 14.8225 7.84104 14.8225C7.82143 14.8225 7.39555 14.8257 7.24985 14.8353C7.26106 15.0497 7.27507 15.2928 7.28627 15.5135C7.4712 15.5231 7.91109 15.5423 7.9307 15.5199C7.94751 15.4975 8.01755 15.2832 8.06519 15.4431ZM5.98063 21.4346C5.98623 21.2971 5.91058 17.1449 5.98343 17.0714C6.05907 16.9978 7.0089 16.9722 7.00609 17.0298C7.00329 17.0873 7.03691 17.9287 6.98088 17.9638C6.92764 17.999 6.45413 17.951 6.45133 17.9031C6.44853 17.8551 6.75673 17.7815 6.76794 17.7335C6.77914 17.6855 6.80436 17.3177 6.77074 17.2953C6.73431 17.2761 6.26641 17.3369 6.23559 17.3561C6.20477 17.372 6.13472 21.2971 6.12071 21.4154C6.1067 21.537 5.98903 21.5434 5.98063 21.4346ZM57.7781 14.0836C57.7865 14.2627 57.6716 14.2755 57.6716 14.0228C57.6716 13.7701 57.5932 13.6741 57.6996 13.6262C57.8061 13.575 58.4029 13.5334 58.571 13.5014C58.7391 13.4694 58.7363 13.5814 58.6943 13.8565C58.6523 14.1284 58.6158 14.6658 58.6158 14.8225C58.6158 14.9761 58.5038 14.9633 58.4281 14.9537C58.3777 14.9473 57.5203 14.8929 56.8927 14.8577C56.8871 15.0721 56.8843 15.296 56.8815 15.4879C57.1112 15.4719 57.369 15.4527 57.6016 15.4335C57.61 15.344 57.6184 15.2736 57.6212 15.232C57.638 15.0944 57.7613 14.9537 57.7697 15.232C57.7725 15.2704 57.7697 15.3376 57.7669 15.4175C58.0471 15.3951 58.1815 15.3855 58.3525 15.3695C58.5234 15.3504 58.5906 15.5807 58.5094 15.8302C58.4281 16.0765 58.3441 18.3541 58.3216 19.0099C58.2964 19.6656 58.1143 19.6113 58.1059 18.9907C58.0975 18.3733 58.1311 16.5211 58.1311 16.1821C58.1311 15.8462 58.0274 15.7758 57.9434 15.7758C57.8565 15.7758 57.8509 15.7758 57.7557 15.7758C57.7501 16.0413 57.7473 16.326 57.7781 16.47C57.8369 16.7451 57.5315 16.6235 57.3914 16.6235C57.2541 16.6235 56.8002 16.5499 56.5789 16.6043C56.3576 16.6587 56.366 16.4092 56.408 16.1693C56.4192 16.1085 56.4304 15.9581 56.4444 15.7694C56.1978 15.763 55.87 15.7534 55.8504 15.7342C55.7944 15.683 55.8644 15.5455 55.8644 15.4431C55.9121 15.2832 55.9821 15.4975 55.9989 15.5199C56.0157 15.5423 56.2763 15.5231 56.4612 15.5135C56.4752 15.2928 56.4864 15.0497 56.4976 14.8353C56.3547 14.8257 56.1222 14.8225 56.1054 14.8225C56.0157 14.8225 55.9737 14.8833 55.9737 15.0465C55.9737 15.2096 55.8252 15.2896 55.8308 15.0337C55.8336 14.7778 55.8084 14.605 55.8448 14.5474C55.884 14.4899 55.9681 14.4835 56.069 14.4899C56.0914 14.4899 56.3463 14.4899 56.5145 14.4867C56.5201 14.3587 56.5229 14.2627 56.5229 14.2211C56.5229 14.0164 56.5453 13.9908 56.2931 14.0068C56.0381 14.026 13.1617 13.9205 12.677 13.93C12.1923 13.9364 12.4024 13.7477 12.6686 13.7637C12.9376 13.7829 56.5397 13.7157 56.7778 13.6805C57.016 13.6453 56.9319 13.7957 56.9207 13.8853C56.9151 13.9141 56.9095 14.1636 56.9011 14.4835C57.4279 14.4771 58.0639 14.4675 58.0975 14.4675C58.1563 14.4675 58.1731 14.4547 58.1843 14.2947C58.1984 14.1348 58.218 14.0004 58.1731 13.9972C58.1283 13.994 57.893 13.9812 57.8397 13.978C57.7865 13.978 57.7753 14.026 57.7781 14.0836ZM6.8716 15.7758C6.62785 15.7758 6.37568 15.7758 6.17675 15.7758C6.18516 15.9006 6.19357 16.0125 6.19357 16.0669C6.19357 16.2077 6.26921 16.1885 6.32805 16.2013C6.38409 16.2141 6.66427 16.1821 6.75673 16.1789C6.85199 16.1757 6.866 16.1629 6.8716 16.0477C6.87441 16.0221 6.87441 15.923 6.8716 15.7758ZM56.8759 15.7758C56.8731 15.923 56.8731 16.0221 56.8759 16.0477C56.8843 16.1629 56.8955 16.1757 56.9908 16.1789C57.086 16.1821 57.3634 16.2141 57.4222 16.2013C57.4783 16.1885 57.5539 16.2077 57.5539 16.0669C57.5539 16.0125 57.5623 15.9006 57.5735 15.7758C57.3718 15.7758 57.1196 15.7758 56.8759 15.7758ZM8.56111 15.6894C8.68439 15.683 9.29519 15.7662 9.36523 15.6862C9.43248 15.6031 9.4577 14.5794 9.40446 14.5826C9.35122 14.5858 8.57232 14.5506 8.5387 14.6082C8.50508 14.669 8.5415 15.312 8.58633 15.3152C8.63115 15.3184 8.70401 14.8993 8.74603 14.8865C8.79086 14.8769 9.13548 14.8001 9.1551 14.8385C9.17471 14.8737 9.11867 15.3791 9.10186 15.4143C9.08505 15.4495 8.68719 15.5231 8.57512 15.5391C8.46305 15.5551 8.45744 15.6798 8.56111 15.6894ZM38.9666 14.3043C39.0899 14.3139 55.4498 14.2275 55.517 14.3107C55.5842 14.3907 55.6095 15.4143 55.5562 15.4111C55.503 15.4079 54.7241 15.4463 54.6905 15.3855C54.6568 15.3248 54.7017 14.8161 54.7465 14.8129C54.7913 14.8097 54.8586 15.1424 54.9034 15.1552C54.9482 15.1648 55.2901 15.1936 55.3097 15.1584C55.3293 15.12 55.2704 14.6146 55.2536 14.5794C55.2396 14.5442 39.0927 14.4707 38.9806 14.4547C38.8713 14.4419 38.8629 14.3139 38.9666 14.3043Z" fill="#DBA45E"/>
</g>
<mask id="mask1_647_1640" style="mask-type:luminance" maskUnits="userSpaceOnUse" x="45" y="13" width="35" height="25">
<path d="M45 13.4688H80V37.4028H45V13.4688Z" fill="white"/>
</mask>
<g mask="url(#mask1_647_1640)">
<path fill-rule="evenodd" clip-rule="evenodd" d="M33.4953 35.4297C33.4953 35.3274 33.5596 35.1898 33.5056 35.1355C33.4902 35.1195 33.0223 35.1099 32.796 35.1035C32.8089 34.9147 32.8192 34.7644 32.8295 34.7036C32.868 34.4637 32.8757 34.2142 32.6726 34.2686C32.4695 34.3229 32.0531 34.2526 31.9271 34.2526C31.7985 34.2526 31.5183 34.1278 31.5723 34.4029C31.6006 34.5469 31.598 34.8316 31.5929 35.0971C31.5055 35.0971 31.4438 35.0971 31.4206 35.0971C31.2869 35.0971 31.2484 35.0267 31.2484 34.6908C31.2484 34.3517 31.2792 22.0712 31.2715 21.4506C31.2638 20.83 31.0967 20.7789 31.0735 21.4346C31.053 22.0904 30.9759 34.7964 30.9013 35.0427C30.8267 35.2922 30.8036 35.5321 31.0453 35.5033C31.1173 35.4969 31.3255 35.4777 31.5826 35.4553C31.58 35.5353 31.5774 35.6025 31.58 35.6409C31.5877 35.9192 31.7008 35.7784 31.7163 35.6409C31.7188 35.5993 31.7266 35.5289 31.7343 35.4393C31.9476 35.4202 32.1842 35.401 32.395 35.385C32.3924 35.5769 32.3898 35.8008 32.3847 36.0151C31.8088 35.9768 31.0221 35.9256 30.9759 35.9192C30.9064 35.9096 30.8036 35.8968 30.8036 36.0535C30.8036 36.2071 30.7702 36.7445 30.7316 37.0164C30.6931 37.2915 30.6905 37.4035 30.8447 37.3715C30.999 37.3395 31.5466 37.2979 31.6443 37.2467C31.742 37.1987 31.67 37.1028 31.67 36.8501C31.67 36.5973 31.5646 36.6101 31.5723 36.7893C31.5749 36.8469 31.5646 36.8948 31.5157 36.8948C31.4669 36.8916 31.2509 36.8788 31.2098 36.8756C31.1687 36.8724 31.1867 36.7381 31.1995 36.5781C31.2098 36.4182 31.2252 36.4054 31.2792 36.4054C31.3101 36.4054 31.8937 36.3958 32.377 36.3894C32.3693 36.7093 32.3641 36.9588 32.359 36.9876C32.3487 37.0772 32.2716 37.2275 32.4901 37.1923C32.7086 37.1571 35.0867 37.09 35.3309 37.1092C35.5777 37.1252 35.768 36.9364 35.3258 36.9428C34.881 36.9524 33.1688 36.8469 32.9349 36.866C32.7035 36.882 32.7241 36.8565 32.7241 36.6517C32.7241 36.6101 32.7266 36.5142 32.7318 36.3862C32.886 36.383 33.2999 36.383 33.3205 36.383C33.4131 36.3894 33.4902 36.383 33.5262 36.3254C33.5596 36.2679 33.5365 36.0951 33.5416 35.8392C33.5442 35.5833 33.4079 35.6633 33.4079 35.8264C33.4079 35.9896 33.3719 36.0503 33.2871 36.0503C33.2717 36.0503 32.8783 36.0471 32.7472 36.0375C32.7575 35.8232 32.7678 35.5801 32.7806 35.3594C32.9503 35.3498 33.3539 35.3306 33.3693 35.353C33.3873 35.3754 33.449 35.5897 33.4953 35.4297ZM79.1105 36.7893C79.1182 36.6101 79.0128 36.5973 79.0128 36.8501C79.0128 37.1028 78.9408 37.1987 79.0385 37.2467C79.1362 37.2979 79.6838 37.3395 79.8381 37.3715C79.9923 37.4035 79.9872 37.2915 79.9512 37.0164C79.9126 36.7445 79.8792 36.2071 79.8792 36.0535C79.8792 35.8968 79.7764 35.9096 79.7044 35.9192C79.6581 35.9256 78.8714 35.9768 78.2981 36.0151C78.293 35.8008 78.2878 35.5769 78.2852 35.385C78.4986 35.401 78.7326 35.4202 78.9485 35.4393C78.9562 35.5289 78.964 35.5993 78.9665 35.6409C78.982 35.7784 79.0925 35.9192 79.1028 35.6409C79.1054 35.6025 79.1028 35.5353 79.1002 35.4553C79.3573 35.4777 79.4807 35.4873 79.6375 35.5033C79.7944 35.5225 79.8561 35.2922 79.7815 35.0427C79.7044 34.7964 79.6298 32.5188 79.6067 31.863C79.5861 31.2072 79.419 31.2616 79.4113 31.8822C79.4036 32.5028 79.4344 34.3517 79.4344 34.6908C79.4344 35.0267 79.3393 35.0971 79.2622 35.0971C79.1825 35.0971 79.1773 35.0971 79.0899 35.0971C79.0848 34.8316 79.0822 34.5469 79.1105 34.4029C79.1619 34.1278 78.8843 34.2526 78.7557 34.2526C78.6272 34.2526 78.2133 34.3229 78.0102 34.2686C77.8071 34.2142 77.8148 34.4637 77.8508 34.7036C77.861 34.7644 77.8739 34.9147 77.8868 35.1035C77.6605 35.1099 77.3572 35.1195 77.3417 35.1355C77.2877 35.1898 77.352 35.3274 77.352 35.4297C77.3983 35.5897 77.46 35.3754 77.478 35.353C77.4934 35.3306 77.7325 35.3498 77.9022 35.3594C77.9125 35.5801 77.9253 35.8232 77.9356 36.0375C77.8019 36.0471 77.5911 36.0503 77.5731 36.0503C77.4908 36.0503 77.4548 35.9896 77.4548 35.8264C77.4548 35.6633 77.3186 35.5833 77.3212 35.8392C77.3263 36.0951 77.3032 36.2679 77.3366 36.3254C77.37 36.383 77.4497 36.3894 77.5397 36.383C77.5628 36.383 77.7942 36.383 77.9485 36.3862C77.9536 36.5142 77.9562 36.6101 77.9562 36.6517C77.9562 36.8565 77.9793 36.882 77.7454 36.866C77.514 36.8469 38.1718 36.9524 37.727 36.9428C37.2822 36.9364 37.475 37.1252 37.7193 37.1092C37.9635 37.09 77.9716 37.1571 78.1901 37.1923C78.4086 37.2275 78.3341 37.0772 78.3238 36.9876C78.3187 36.9588 78.311 36.7093 78.3058 36.3894C78.7891 36.3958 79.3727 36.4054 79.4036 36.4054C79.4576 36.4054 79.473 36.4182 79.4833 36.5781C79.4936 36.7381 79.5141 36.8724 79.473 36.8756C79.4293 36.8788 79.2159 36.8916 79.1671 36.8948C79.1182 36.8948 79.1079 36.8469 79.1105 36.7893ZM61.8496 36.5686C61.9627 36.559 76.9741 36.6453 77.0358 36.5622C77.0975 36.4822 77.1206 35.4585 77.0718 35.4617C77.0229 35.4649 76.3082 35.4265 76.2774 35.4873C76.2465 35.5481 76.2877 36.0567 76.3288 36.0599C76.3699 36.0631 76.4316 35.7304 76.4728 35.7176C76.5113 35.7081 76.8276 35.6793 76.8455 35.7144C76.8635 35.7528 76.8096 36.2583 76.7941 36.2934C76.7787 36.3286 61.9653 36.4022 61.8624 36.415C61.7596 36.431 61.7545 36.559 61.8496 36.5686ZM33.9478 35.1834C34.0635 35.1898 34.6239 35.1067 34.6882 35.1866C34.7499 35.2698 34.773 36.2934 34.7242 36.2902C34.6754 36.2871 33.9581 36.3222 33.9272 36.2647C33.8989 36.2039 33.9324 35.5609 33.9735 35.5577C34.0146 35.5545 34.0789 35.9736 34.12 35.9864C34.1612 35.996 34.4774 36.0727 34.4954 36.0343C34.5134 35.9991 34.462 35.4937 34.4465 35.4585C34.4311 35.4234 34.0635 35.3498 33.9632 35.3338C33.8604 35.3178 33.8527 35.193 33.9478 35.1834ZM32.4001 35.0971C32.1765 35.0971 31.9451 35.0939 31.76 35.0971C31.7703 34.9691 31.778 34.8603 31.778 34.806C31.778 34.6652 31.8474 34.6844 31.8988 34.6716C31.9528 34.6588 32.2073 34.6908 32.2947 34.694C32.3821 34.6972 32.3924 34.7132 32.4001 34.8284C32.4027 34.8508 32.4027 34.9499 32.4001 35.0971ZM78.2827 35.0971C78.2801 34.9499 78.2801 34.8508 78.2827 34.8284C78.2878 34.7132 78.3007 34.6972 78.3881 34.694C78.4729 34.6908 78.73 34.6588 78.7814 34.6716C78.8354 34.6844 78.9048 34.6652 78.9048 34.806C78.9048 34.8603 78.9125 34.9691 78.9203 35.0971C78.7377 35.0939 78.5063 35.0971 78.2827 35.0971ZM31.5826 29.4382C31.5877 29.5758 31.5183 33.7279 31.5852 33.8015C31.6546 33.8751 32.5261 33.9007 32.5235 33.8431C32.521 33.7855 32.5518 32.9442 32.5004 32.909C32.449 32.8738 32.0171 32.9218 32.0145 32.9698C32.0119 33.0178 32.2947 33.0914 32.305 33.1393C32.3127 33.1873 32.3384 33.5552 32.3076 33.5776C32.2742 33.5968 31.8448 33.536 31.8165 33.5168C31.7857 33.5008 31.724 29.5758 31.7111 29.4574C31.6983 29.3359 31.5903 29.3295 31.5826 29.4382ZM78.2133 33.7855C78.2184 33.6512 78.1464 32.989 78.2158 32.9186C78.2827 32.8451 79.1542 32.8163 79.1516 32.8738C79.1491 32.9314 79.1799 33.7727 79.1311 33.8079C79.0796 33.8431 78.532 33.8047 78.5295 33.7535C78.5269 33.7056 78.8843 33.632 78.8945 33.584C78.9048 33.536 78.9691 33.1617 78.9357 33.1425C78.9048 33.1202 78.4755 33.1841 78.4446 33.2001C78.4164 33.2193 78.3521 33.648 78.3392 33.7695C78.3264 33.8879 78.221 33.8975 78.2133 33.7855ZM77.1875 15.4431C77.1875 15.5455 77.1232 15.683 77.1746 15.7342C77.1926 15.7534 77.6605 15.763 77.8868 15.7694C77.8739 15.9581 77.861 16.1085 77.8508 16.1693C77.8148 16.4092 77.8071 16.6587 78.0102 16.6043C78.2133 16.5499 78.6272 16.6235 78.7557 16.6235C78.8843 16.6235 79.1619 16.7451 79.1105 16.47C79.0822 16.326 79.0848 16.0413 79.0899 15.7758C79.1773 15.7758 79.239 15.7758 79.2622 15.7758C79.3959 15.7758 79.4344 15.8462 79.4344 16.1821C79.4344 16.5211 79.4036 28.8017 79.4113 29.4222C79.419 30.0428 79.5861 30.094 79.6067 29.4382C79.6298 28.7825 79.7044 16.0765 79.7815 15.8302C79.8561 15.5807 79.8792 15.3408 79.6375 15.3695C79.5655 15.3759 79.3573 15.3951 79.1002 15.4175C79.1028 15.3376 79.1054 15.2704 79.1028 15.232C79.0925 14.9537 78.982 15.0944 78.9665 15.232C78.964 15.2736 78.9562 15.344 78.9485 15.4335C78.7326 15.4527 78.4986 15.4719 78.2852 15.4879C78.2878 15.296 78.293 15.0721 78.2981 14.8577C78.8714 14.8929 79.6581 14.9473 79.7044 14.9537C79.7764 14.9633 79.8792 14.9761 79.8792 14.8225C79.8792 14.6658 79.9126 14.1284 79.9512 13.8565C79.9872 13.5814 79.9923 13.4694 79.8381 13.5014C79.6838 13.5334 79.1362 13.575 79.0385 13.6262C78.9408 13.6741 79.0128 13.7701 79.0128 14.0228C79.0128 14.2755 79.1182 14.2627 79.1105 14.0836C79.1079 14.026 79.1182 13.978 79.1671 13.978C79.2159 13.9812 79.4293 13.994 79.473 13.9972C79.5141 14.0004 79.4936 14.1348 79.4833 14.2947C79.473 14.4547 79.4576 14.4675 79.4036 14.4675C79.3727 14.4675 78.7891 14.4771 78.3058 14.4835C78.311 14.1636 78.3187 13.9141 78.3238 13.8853C78.3341 13.7957 78.4086 13.6453 78.1901 13.6805C77.9716 13.7157 75.5961 13.7829 75.3493 13.7637C75.1051 13.7477 74.9122 13.9364 75.357 13.93C75.8018 13.9205 77.514 14.026 77.7454 14.0068C77.9793 13.9908 77.9562 14.0164 77.9562 14.2211C77.9562 14.2627 77.9536 14.3587 77.9485 14.4867C77.7942 14.4899 77.3829 14.4899 77.3597 14.4899C77.2697 14.4835 77.19 14.4899 77.1566 14.5474C77.1232 14.605 77.1463 14.7778 77.1412 15.0337C77.1386 15.2896 77.2749 15.2096 77.2749 15.0465C77.2749 14.8833 77.3109 14.8225 77.3931 14.8225C77.4111 14.8225 77.8019 14.8257 77.9356 14.8353C77.9253 15.0497 77.9125 15.2928 77.9022 15.5135C77.7325 15.5231 77.3289 15.5423 77.3109 15.5199C77.2955 15.4975 77.2312 15.2832 77.1875 15.4431ZM79.1002 21.4346C79.0951 21.2971 79.1645 17.1449 79.0976 17.0714C79.0282 16.9978 78.1567 16.9722 78.1593 17.0298C78.1618 17.0873 78.131 17.9287 78.1824 17.9638C78.2313 17.999 78.6657 17.951 78.6683 17.9031C78.6709 17.8551 78.3881 17.7815 78.3778 17.7335C78.3675 17.6855 78.3444 17.3177 78.3752 17.2953C78.4086 17.2761 78.838 17.3369 78.8663 17.3561C78.8945 17.372 78.9588 21.2971 78.9717 21.4154C78.9845 21.537 79.0925 21.5434 79.1002 21.4346ZM31.5723 14.0836C31.5646 14.2627 31.67 14.2755 31.67 14.0228C31.67 13.7701 31.742 13.6741 31.6443 13.6262C31.5466 13.575 30.999 13.5334 30.8447 13.5014C30.6905 13.4694 30.6931 13.5814 30.7316 13.8565C30.7702 14.1284 30.8036 14.6658 30.8036 14.8225C30.8036 14.9761 30.9064 14.9633 30.9759 14.9537C31.0221 14.9473 31.8088 14.8929 32.3847 14.8577C32.3898 15.0721 32.3924 15.296 32.395 15.4879C32.1842 15.4719 31.9476 15.4527 31.7343 15.4335C31.7266 15.344 31.7188 15.2736 31.7163 15.232C31.7008 15.0944 31.5877 14.9537 31.58 15.232C31.5774 15.2704 31.58 15.3376 31.5826 15.4175C31.3255 15.3951 31.2021 15.3855 31.0453 15.3695C30.8884 15.3504 30.8267 15.5807 30.9013 15.8302C30.9759 16.0765 31.053 18.3541 31.0735 19.0099C31.0967 19.6656 31.2638 19.6113 31.2715 18.9907C31.2792 18.3733 31.2484 16.5211 31.2484 16.1821C31.2484 15.8462 31.3435 15.7758 31.4206 15.7758C31.5003 15.7758 31.5055 15.7758 31.5929 15.7758C31.598 16.0413 31.6006 16.326 31.5723 16.47C31.5183 16.7451 31.7985 16.6235 31.9271 16.6235C32.0531 16.6235 32.4695 16.5499 32.6726 16.6043C32.8757 16.6587 32.868 16.4092 32.8295 16.1693C32.8192 16.1085 32.8089 15.9581 32.796 15.7694C33.0223 15.763 33.3231 15.7534 33.3411 15.7342C33.3925 15.683 33.3282 15.5455 33.3282 15.4431C33.2845 15.2832 33.2202 15.4975 33.2048 15.5199C33.1894 15.5423 32.9503 15.5231 32.7806 15.5135C32.7678 15.2928 32.7575 15.0497 32.7472 14.8353C32.8783 14.8257 33.0917 14.8225 33.1071 14.8225C33.1894 14.8225 33.2279 14.8833 33.2279 15.0465C33.2279 15.2096 33.3642 15.2896 33.3591 15.0337C33.3565 14.7778 33.3796 14.605 33.3462 14.5474C33.3102 14.4899 33.2331 14.4835 33.1405 14.4899C33.12 14.4899 32.886 14.4899 32.7318 14.4867C32.7266 14.3587 32.7241 14.2627 32.7241 14.2211C32.7241 14.0164 32.7035 13.9908 32.9349 14.0068C33.1688 14.026 72.511 13.9205 72.9558 13.93C73.4006 13.9364 73.2077 13.7477 72.9635 13.7637C72.7167 13.7829 32.7086 13.7157 32.4901 13.6805C32.2716 13.6453 32.3487 13.7957 32.359 13.8853C32.3641 13.9141 32.3693 14.1636 32.377 14.4835C31.8937 14.4771 31.3101 14.4675 31.2792 14.4675C31.2252 14.4675 31.2098 14.4547 31.1995 14.2947C31.1867 14.1348 31.1687 14.0004 31.2098 13.9972C31.2509 13.994 31.4669 13.9812 31.5157 13.978C31.5646 13.978 31.5749 14.026 31.5723 14.0836ZM78.2827 15.7758C78.5063 15.7758 78.7377 15.7758 78.9203 15.7758C78.9125 15.9006 78.9048 16.0125 78.9048 16.0669C78.9048 16.2077 78.8354 16.1885 78.7814 16.2013C78.73 16.2141 78.4729 16.1821 78.3881 16.1789C78.3007 16.1757 78.2878 16.1629 78.2827 16.0477C78.2801 16.0221 78.2801 15.923 78.2827 15.7758ZM32.4001 15.7758C32.4027 15.923 32.4027 16.0221 32.4001 16.0477C32.3924 16.1629 32.3821 16.1757 32.2947 16.1789C32.2073 16.1821 31.9528 16.2141 31.8988 16.2013C31.8474 16.1885 31.778 16.2077 31.778 16.0669C31.778 16.0125 31.7703 15.9006 31.76 15.7758C31.9451 15.7758 32.1765 15.7758 32.4001 15.7758ZM76.7324 15.6894C76.6193 15.683 76.0589 15.7662 75.9946 15.6862C75.9329 15.6031 75.9097 14.5794 75.9586 14.5826C76.0074 14.5858 76.7221 14.5506 76.753 14.6082C76.7838 14.669 76.7504 15.312 76.7093 15.3152C76.6682 15.3184 76.6013 14.8993 76.5628 14.8865C76.5216 14.8769 76.2054 14.8001 76.1874 14.8385C76.1694 14.8737 76.2208 15.3791 76.2363 15.4143C76.2517 15.4495 76.6167 15.5231 76.7196 15.5391C76.8224 15.5551 76.8276 15.6798 76.7324 15.6894ZM48.8332 14.3043C48.7201 14.3139 33.7087 14.2275 33.647 14.3107C33.5853 14.3907 33.5622 15.4143 33.611 15.4111C33.6599 15.4079 34.3746 15.4463 34.4054 15.3855C34.4363 15.3248 34.3951 14.8161 34.354 14.8129C34.3129 14.8097 34.2512 15.1424 34.21 15.1552C34.1689 15.1648 33.8552 15.1936 33.8372 15.1584C33.8193 15.12 33.8732 14.6146 33.8887 14.5794C33.9015 14.5442 48.7175 14.4707 48.8204 14.4547C48.9206 14.4419 48.9283 14.3139 48.8332 14.3043Z" fill="#DBA45E"/>
</g>
<g filter="url(#filter0_d_647_1640)">
<path d="M20.7015 22.6687C20.7015 22.6687 21.5815 22.6687 23.3415 22.6687C23.7522 22.6687 24.1482 22.8301 24.5295 23.1527C24.9109 23.4607 25.1015 23.7394 25.1015 23.9887V30.8087L25.3215 31.0287L24.4415 31.6888L23.1215 31.0287L23.3415 30.8087V24.4287C23.2389 23.9007 22.7989 23.6074 22.0215 23.5487C21.6255 23.5487 21.3175 23.6294 21.0975 23.7907C20.8775 23.9521 20.7529 24.0841 20.7235 24.1867C20.7089 24.2894 20.7015 24.3701 20.7015 24.4287V30.1487C20.7015 30.4421 20.7749 30.5887 20.9215 30.5887C21.0682 30.5887 21.1415 30.4421 21.1415 30.1487V27.5087L20.7015 27.2887L21.5815 25.0887C21.7429 25.0594 21.9775 25.0961 22.2855 25.1987C22.5935 25.3014 22.8355 25.4114 23.0115 25.5287L23.1215 25.3087L23.3415 25.4187C23.1949 26.0054 22.9749 26.5921 22.6815 27.1787C22.6082 27.2521 22.4982 27.3254 22.3515 27.3987L22.2415 27.0687L22.4615 26.8927C22.4909 26.8634 22.4909 26.8194 22.4615 26.7607C22.4322 26.6874 22.3882 26.6434 22.3295 26.6287C22.2709 26.5994 22.1902 26.6141 22.0875 26.6727C21.9849 26.7167 21.9262 26.7754 21.9115 26.8487C21.8382 27.2007 22.0215 27.4207 22.4615 27.5087V30.5887L22.6815 30.8087C22.1975 31.1314 21.8675 31.3221 21.6915 31.3807C21.5302 31.4394 21.3469 31.4688 21.1415 31.4688H20.7015C20.1735 31.4688 19.5135 31.2487 18.7215 30.8087L18.9415 30.5887V23.9887C18.9415 23.7394 19.1322 23.4607 19.5135 23.1527C19.8949 22.8301 20.2909 22.6687 20.7015 22.6687ZM20.9293 21.0187C21.6773 19.6107 22.2933 18.8994 22.7773 18.8847C22.9239 18.9141 23.1953 19.0167 23.5913 19.1927C23.9726 19.3687 24.2586 19.5301 24.4493 19.6767C24.5519 19.7061 24.6106 19.7207 24.6253 19.7207C24.6399 19.7061 24.6986 19.6401 24.8013 19.5227L25.1093 19.8087L24.8453 20.2927C24.3466 21.2607 24.0019 21.7594 23.8113 21.7887C23.6206 21.8034 23.4446 21.7961 23.2833 21.7667C23.1219 21.7227 22.9826 21.6787 22.8653 21.6347C22.7479 21.5761 22.5793 21.4881 22.3593 21.3707C22.1246 21.2534 21.9339 21.1654 21.7873 21.1067C21.6259 21.0334 21.4793 21.0921 21.3473 21.2827L20.9293 21.0187ZM22.9093 20.0067L22.6893 20.2927L23.3493 20.6447L23.5693 20.3588L22.9093 20.0067ZM27.3093 22.4487L27.6393 22.6687L27.4633 23.0647C27.6393 23.2261 27.8006 23.3141 27.9473 23.3287C28.1086 23.3434 28.3726 23.2407 28.7393 23.0207C29.1206 22.7861 29.3773 22.6687 29.5093 22.6687C29.9199 22.6687 30.3159 22.8301 30.6973 23.1527C31.0786 23.4607 31.2693 23.7394 31.2693 23.9887V30.8087L31.4893 31.0287L30.6093 31.6888L29.2893 31.0287L29.5093 30.8087V24.8687C29.5093 24.5901 29.4799 24.3994 29.4213 24.2967C29.3773 24.1794 29.3186 24.1427 29.2453 24.1867C29.1719 24.2161 29.0253 24.2894 28.8053 24.4067C28.5999 24.5241 28.4386 24.6121 28.3213 24.6707C27.6613 24.9787 27.1186 24.9127 26.6933 24.4727C26.6493 24.4434 26.5979 24.3994 26.5393 24.3407C26.4806 24.2674 26.4439 24.2234 26.4293 24.2087L27.3093 22.4487ZM33.3653 22.4487L33.6953 22.6687L33.5193 23.0647C33.6806 23.2261 33.8126 23.3141 33.9153 23.3287C34.2673 23.3874 34.7733 23.2921 35.4333 23.0427C36.108 22.7934 36.482 22.6687 36.5553 22.6687C36.966 22.6687 37.362 22.8301 37.7433 23.1527C38.1246 23.4607 38.3153 23.7394 38.3153 23.9887V30.5887L38.5353 30.8087C37.7433 31.2487 37.0833 31.4688 36.5553 31.4688H34.7953C34.2673 31.4688 33.6073 31.2487 32.8153 30.8087L33.0353 30.5887V27.5087L32.8153 27.2887L34.0253 25.3087C34.172 25.2794 34.4286 25.3454 34.7953 25.5067C35.1766 25.6681 35.47 25.8221 35.6753 25.9688L35.7853 25.7487L36.1153 25.9688C35.8953 26.4087 35.602 26.8854 35.2353 27.3987C35.162 27.4721 34.9786 27.5087 34.6853 27.5087L34.5753 27.1787L34.9053 27.0687C34.9346 27.0394 34.9346 26.9881 34.9053 26.9147C34.876 26.8267 34.8246 26.7607 34.7513 26.7167C34.6926 26.6727 34.6046 26.6507 34.4873 26.6507C34.3846 26.6361 34.304 26.6654 34.2453 26.7387C34.1573 26.9587 34.15 27.1421 34.2233 27.2887C34.2966 27.4207 34.4873 27.6407 34.7953 27.9487V29.7087C34.7953 30.0167 34.8833 30.2441 35.0593 30.3907C35.2353 30.5227 35.4406 30.5887 35.6753 30.5887C35.91 30.5887 36.1153 30.5227 36.2913 30.3907C36.4673 30.2441 36.5553 30.0167 36.5553 29.7087V24.4287C36.5553 24.1501 36.526 23.9594 36.4673 23.8567C36.4233 23.7394 36.3426 23.7101 36.2253 23.7687C35.0666 24.3554 34.15 24.5754 33.4753 24.4287C33.27 24.3847 32.9766 24.1647 32.5953 23.7687L33.3653 22.4487ZM43.6022 27.0687C43.1182 26.1887 42.5315 25.7487 41.8422 25.7487C41.4902 25.7487 41.1382 25.8734 40.7862 26.1227L40.8522 26.2987L40.3022 26.6287L39.6422 24.4287C40.0235 23.9154 40.4415 23.4607 40.8962 23.0647C41.3655 22.6541 41.7688 22.4487 42.1062 22.4487C42.4435 22.4487 42.8028 22.5294 43.1842 22.6907C43.5802 22.8521 43.8882 22.9987 44.1082 23.1307C44.3282 23.2481 44.5848 23.2701 44.8782 23.1967C45.1862 23.1087 45.4942 22.8594 45.8022 22.4487L46.2422 22.8887C46.0662 23.2554 45.7215 23.7321 45.2082 24.3187C44.7095 24.9054 44.3208 25.1621 44.0422 25.0887C43.7635 25.0154 43.3968 24.8907 42.9422 24.7147C42.5022 24.5241 42.2088 24.4287 42.0622 24.4287C41.6955 24.4287 41.1822 24.7294 40.5222 25.3307L40.5882 25.5067C41.1308 25.0814 41.6955 24.8687 42.2822 24.8687C42.5902 24.8687 43.0228 25.0081 43.5802 25.2867C44.1522 25.5654 44.6142 25.8514 44.9662 26.1447L45.1422 25.9688L45.5822 26.4087L45.3622 26.6287V30.5887L45.5822 30.8087C44.7902 31.2487 44.1302 31.4688 43.6022 31.4688H41.8422C41.3142 31.4688 40.6542 31.2487 39.8622 30.8087L40.0822 30.5887V27.7287L39.8622 27.5087L40.7422 26.8487L42.0622 27.5087L41.8422 27.7287V29.7087C41.8422 30.0167 41.9302 30.2441 42.1062 30.3907C42.2822 30.5227 42.4875 30.5887 42.7222 30.5887C42.9568 30.5887 43.1622 30.5227 43.3382 30.3907C43.5142 30.2441 43.6022 30.0167 43.6022 29.7087V27.0687ZM40.309 21.0187C41.057 19.6107 41.673 18.8994 42.157 18.8847C42.2304 18.8994 42.5897 19.0094 43.235 19.2147C43.8657 19.4201 44.2984 19.5521 44.533 19.6107C44.753 19.6694 44.8777 19.6987 44.907 19.6987C44.9217 19.6841 44.973 19.6254 45.061 19.5227L45.369 19.8087L45.105 20.2927C44.6064 21.2607 44.2544 21.7594 44.049 21.7887C43.7117 21.8181 43.2644 21.7667 42.707 21.6347C42.1497 21.4881 41.6217 21.3047 41.123 21.0847C40.991 21.0261 40.859 21.0921 40.727 21.2827L40.309 21.0187ZM44.049 20.4688C43.873 20.4394 43.323 20.2561 42.399 19.9187L41.849 20.4688C41.981 20.5127 42.2597 20.6081 42.685 20.7547C43.0957 20.9014 43.477 20.9527 43.829 20.9087C43.8584 20.8647 43.895 20.7914 43.939 20.6887C43.983 20.5861 44.0197 20.5127 44.049 20.4688ZM49.989 22.4487L50.429 22.6687L49.219 25.4187L48.889 25.3087V29.7087C48.889 30.0021 48.9917 30.2221 49.197 30.3687C49.4024 30.5154 49.6297 30.5887 49.879 30.5887C50.1284 30.5887 50.3924 30.5154 50.671 30.3687C50.9497 30.2221 51.089 30.0021 51.089 29.7087V23.3287L50.869 23.1087L51.749 22.4487L53.069 23.1087L52.849 23.3287V30.5887L53.069 30.8087C52.277 31.2487 51.617 31.4688 51.089 31.4688H48.889C48.361 31.4688 47.701 31.2487 46.909 30.8087L47.129 30.5887V25.7487C48.053 25.2061 48.4197 24.7661 48.229 24.4287C48.1704 24.3261 48.053 24.2381 47.877 24.1647C47.7157 24.0767 47.591 24.0327 47.503 24.0327C47.4297 24.0327 47.3564 24.0914 47.283 24.2087C47.2244 24.3261 47.217 24.4067 47.261 24.4507C47.3197 24.4947 47.459 24.5607 47.679 24.6487L47.349 25.0887L46.689 24.6487C46.689 24.3994 46.8724 23.9887 47.239 23.4167C47.6204 22.8154 47.9504 22.4927 48.229 22.4487C48.3317 22.4341 48.5957 22.5074 49.021 22.6687C49.417 22.8154 49.6224 22.8961 49.637 22.9107C49.6517 22.9254 49.6737 22.9181 49.703 22.8887C49.747 22.8447 49.769 22.8227 49.769 22.8227C49.7837 22.8227 49.8057 22.8007 49.835 22.7567C49.8644 22.6981 49.879 22.6614 49.879 22.6467C49.8937 22.6321 49.9157 22.6027 49.945 22.5587C49.9744 22.5001 49.989 22.4634 49.989 22.4487ZM55.0456 22.4487L55.3756 22.6687L55.1996 23.0647C55.3756 23.2261 55.5369 23.3141 55.6836 23.3287C55.8449 23.3434 56.1089 23.2407 56.4756 23.0207C56.8569 22.7861 57.1136 22.6687 57.2456 22.6687C57.6563 22.6687 58.0523 22.8301 58.4336 23.1527C58.8149 23.4607 59.0056 23.7394 59.0056 23.9887V30.8087L59.2256 31.0287L58.3456 31.6888L57.0256 31.0287L57.2456 30.8087V24.8687C57.2456 24.5901 57.2163 24.3994 57.1576 24.2967C57.1136 24.1794 57.0549 24.1427 56.9816 24.1867C56.9083 24.2161 56.7616 24.2894 56.5416 24.4067C56.3363 24.5241 56.1749 24.6121 56.0576 24.6707C55.3976 24.9787 54.8549 24.9127 54.4296 24.4727C54.3856 24.4434 54.3343 24.3994 54.2756 24.3407C54.2169 24.2674 54.1803 24.2234 54.1656 24.2087L55.0456 22.4487ZM62.0916 22.4487C62.2383 22.4194 62.6196 22.5587 63.2356 22.8667C63.8663 23.1747 64.2916 23.4021 64.5116 23.5487L64.6216 23.3287L64.9516 23.5487C64.893 23.7687 64.7023 24.1721 64.3796 24.7587C64.0716 25.3454 63.8956 25.6754 63.8516 25.7487C63.7783 25.8221 63.5583 25.8587 63.1916 25.8587L63.0816 25.5287C63.243 25.5141 63.3456 25.4847 63.3896 25.4407C63.4483 25.3967 63.463 25.3161 63.4336 25.1987C63.419 25.0814 63.3823 25.0154 63.3236 25.0008C63.265 24.9714 63.1916 24.9274 63.1036 24.8687C62.6196 24.6047 62.2896 24.5241 62.1136 24.6267C61.9523 24.7294 61.8496 24.8981 61.8056 25.1327C61.7323 25.6607 61.9963 26.1154 62.5976 26.4967C62.9936 26.7314 63.2796 26.8487 63.4556 26.8487C63.6463 26.8487 63.815 26.7754 63.9616 26.6287L64.1816 26.8487C64.0203 27.1714 63.8443 27.4354 63.6536 27.6407C63.463 27.8461 63.331 27.9487 63.2576 27.9487C63.1843 27.9487 63.1403 27.9487 63.1256 27.9487L62.5316 29.7087C62.4876 29.8554 62.5903 30.0387 62.8396 30.2587C63.089 30.4787 63.2723 30.5887 63.3896 30.5887C63.5216 30.5887 63.6756 30.5007 63.8516 30.3247C64.0276 30.1341 64.1743 29.9287 64.2916 29.7087V26.4087L64.0716 26.1887L64.5116 25.5287L66.2716 26.1887L66.0516 26.4087V29.7087L66.2716 29.9287C66.037 30.0607 65.7583 30.2587 65.4356 30.5227C65.1276 30.7721 64.9223 30.9261 64.8196 30.9847C64.717 31.0434 64.5556 31.1461 64.3356 31.2927C64.1303 31.4394 63.9616 31.5421 63.8296 31.6008C63.6976 31.6594 63.5583 31.6888 63.4116 31.6888C63.265 31.6888 63.1256 31.6594 62.9936 31.6008C62.8616 31.5421 62.6856 31.4394 62.4656 31.2927C62.2603 31.1461 62.1063 31.0434 62.0036 30.9847C61.901 30.9261 61.6883 30.7721 61.3656 30.5227C61.0576 30.2587 60.7863 30.0607 60.5516 29.9287L60.7716 29.7087L61.7396 27.4647C61.241 27.1421 60.7716 26.6434 60.3316 25.9688C61.0063 24.2967 61.593 23.1234 62.0916 22.4487Z" fill="#FBE9B8"/>
</g>
<defs>
<filter id="filter0_d_647_1640" x="0.721542" y="0.884766" width="87.5501" height="52.8037" filterUnits="userSpaceOnUse" color-interpolation-filters="sRGB">
<feFlood flood-opacity="0" result="BackgroundImageFix"/>
<feColorMatrix in="SourceAlpha" type="matrix" values="0 0 0 0 0 0 0 0 0 0 0 0 0 0 0 0 0 0 127 0" result="hardAlpha"/>
<feOffset dx="2" dy="2"/>
<feGaussianBlur stdDeviation="10"/>
<feComposite in2="hardAlpha" operator="out"/>
<feColorMatrix type="matrix" values="0 0 0 0 0.983333 0 0 0 0 0.9735 0 0 0 0 0.9735 0 0 0 1 0"/>
<feBlend mode="normal" in2="BackgroundImageFix" result="effect1_dropShadow_647_1640"/>
<feBlend mode="normal" in="SourceGraphic" in2="effect1_dropShadow_647_1640" result="shape"/>
</filter>
</defs>
</svg>
