<svg width="587" height="19" viewBox="0 0 587 19" fill="none" xmlns="http://www.w3.org/2000/svg">
<mask id="mask0_978_20" style="mask-type:luminance" maskUnits="userSpaceOnUse" x="0" y="0" width="587" height="19">
<path d="M586.507 0H0V18.5205H586.507V0Z" fill="white"/>
</mask>
<g mask="url(#mask0_978_20)">
<mask id="mask1_978_20" style="mask-type:luminance" maskUnits="userSpaceOnUse" x="0" y="3" width="587" height="13">
<path d="M0.250488 3.36816H586.492V15.154H0.250488V3.36816Z" fill="white"/>
</mask>
<g mask="url(#mask1_978_20)">
<path d="M588.51 13.5722H598.144V8.59347H596.049V12.1417H590.535V3.8877H604.501V5.46615H592.383V10.5632H594.201V7.01501H599.988V15.1506H586.658V5.46615H576.539V10.5632H578.348V7.01501H584.143V15.1506H570.817V5.46615H560.698V10.5632H562.507V7.01501H568.298V15.1506H554.976V5.46615H544.857V10.5632H546.666V7.01501H552.458V15.1506H539.131V5.46615H529.012V10.5632H530.825V7.01501H536.617V15.1506H523.29V5.46615H513.171V10.5632H514.981V7.01501H520.776V15.1506H507.449V5.46615H497.33V10.5632H499.14V7.01501H504.931V15.1506H491.604V5.46615H481.485V10.5632H483.299V7.01501H489.09V15.1506H475.763V5.46615H465.644V10.5632H467.454V7.01501H473.249V15.1506H459.922V5.46615H449.803V10.5632H451.613V7.01501H457.404V15.1506H444.082V5.46615H433.962V10.5632H435.772V7.01501H441.563V15.1506H428.237V5.46615H418.118V10.5632H419.931V7.01501H425.722V15.1506H412.396V5.46615H402.277V10.5632H404.086V7.01501H409.881V15.1506H396.555V5.46615H386.436V10.5632H388.246V7.01501H394.037V15.1506H380.71V5.46615H370.345V10.5632H372.154V7.01501H377.945V15.1506H364.619V5.46615H354.5V10.5632H356.313V7.01501H362.105V15.1506H348.778V5.46615H338.659V10.5632H340.469V7.01501H346.264V15.1506H332.937V5.46615H322.818V10.5632H324.628V7.01501H330.419V15.1506H317.096V5.46615H306.977V10.5632H308.787V7.01501H314.578V15.1506H301.251V5.46615H291.132V10.5632H292.946V7.01501H298.737V15.1506H285.41V5.46615H275.291V10.5632H277.101V7.01501H282.896V15.1506H269.569V5.46615H259.45V10.5632H261.26V7.01501H267.051V15.1506H253.725V5.46615H243.606V10.5632H245.419V7.01501H251.21V15.1506H237.884V5.46615H227.765V10.5632H229.574V7.01501H235.369V15.1506H222.043V5.46615H211.924V10.5632H213.733V7.01501H219.528V15.1506H206.202V5.46615H196.083V10.5632H197.893V7.01501H203.684V15.1506H190.357V5.46615H180.238V10.5632H182.052V7.01501H187.843V15.1506H174.516V5.46615H164.397V10.5632H166.207V7.01501H172.002V15.1506H158.675V5.46615H148.556V10.5632H150.366V7.01501H156.157V15.1506H142.834V5.46615H132.711V10.5632H134.525V7.01501H140.316V15.1506H126.99V5.46615H116.87V10.5632H118.684V7.01501H124.475V15.1506H111.149V5.46615H101.03V10.5632H102.839V7.01501H108.634V15.1506H95.3077V5.46615H85.1886V10.5632H86.9983V7.01501H92.7895V15.1506H79.4629V5.46615H69.34V10.5632H71.1574V7.01501H76.9485V15.1506H63.622V5.46615H53.499V10.5632H55.3126V7.01501H61.1076V15.1506H47.781V5.46615H37.6581V10.5632H39.4717V7.01501H45.2628V15.1506H31.9401V5.46615H21.8172V10.5632H23.6307V7.01501H29.4219V15.1506H16.0953V5.46615H5.97238V10.5632H7.78981V7.01501H13.581V15.1506H0.254395V4.68021H2.10263V13.5722H11.7327V8.59347H9.63805V12.1417H4.12414V3.8877H17.9474V13.5722H27.5736V8.59347H25.479V12.1417H19.9651V3.8877H33.7883V13.5722H43.4146V8.59347H41.3199V12.1417H35.806V3.8877H49.6293V13.5722H59.2555V8.59347H57.1647V12.1417H51.6546V3.8877H65.4702V13.5722H75.1003V8.59347H73.0056V12.1417H67.4956V3.8877H81.315V13.5722H90.9412V8.59347H88.8465V12.1417H83.3365V3.8877H97.1559V13.5722H106.782V8.59347H104.691V12.1417H99.1813V3.8877H112.997V13.5722H122.627V8.59347H120.532V12.1417H115.022V3.8877H128.842V13.5722H138.468V8.59347H136.373V12.1417H130.863V3.8877H144.683V13.5722H154.309V8.59347H152.214V12.1417H146.704V3.8877H160.523V13.5722H170.15V8.59347H168.059V12.1417H162.549V3.8877H176.364V13.5722H185.995V8.59347H183.9V12.1417H178.39V3.8877H192.209V13.5722H201.835V8.59347H199.741V12.1417H194.231V3.8877H208.05V13.5722H217.676V8.59347H215.582V12.1417H210.075V3.8877H223.891V13.5722H233.521V8.59347H231.426V12.1417H225.916V3.8877H239.732V13.5722H249.362V8.59347H247.267V12.1417H241.757V3.8877H255.577V13.5722H265.203V8.59347H263.108V12.1417H257.598V3.8877H271.418V13.5722H281.044V8.59347H278.953V12.1417H273.443V3.8877H287.259V13.5722H296.889V8.59347H294.794V12.1417H289.284V3.8877H303.103V13.5722H312.73V8.59347H310.635V12.1417H305.125V3.8877H318.944V13.5722H328.571V8.59347H326.476V12.1417H320.97V3.8877H334.785V13.5722H344.411V8.59347H342.321V12.1417H336.811V3.8877H350.626V13.5722H360.256V8.59347H358.162V12.1417H352.652V3.8877H366.471V13.5722H376.097V8.59347H374.003V12.1417H368.492V3.8877H382.562V13.5722H392.188V8.59347H390.094V12.1417H384.584V3.8877H398.403V13.5722H408.029V8.59347H405.939V12.1417H400.428V3.8877H414.244V13.5722H423.874V8.59347H421.779V12.1417H416.269V3.8877H430.089V13.5722H439.715V8.59347H437.62V12.1417H432.11V3.8877H445.93V13.5722H455.556V8.59347H453.461V12.1417H447.955V3.8877H461.771V13.5722H471.397V8.59347H469.306V12.1417H463.796V3.8877H477.612V13.5722H487.242V8.59347H485.147V12.1417H479.637V3.8877H493.456V13.5722H503.083V8.59347H500.988V12.1417H495.478V3.8877H509.297V13.5722H518.924V8.59347H516.833V12.1417H511.323V3.8877H525.138V13.5722H534.768V8.59347H532.674V12.1417H527.164V3.8877H540.983V13.5722H550.609V8.59347H548.515V12.1417H543.005V3.8877H556.824V13.5722H566.45V8.59347H564.356V12.1417H558.846V3.8877H572.665V13.5722H582.291V8.59347H580.2V12.1417H574.69V3.8877H588.506V13.5722H588.51Z" fill="#F0B95C"/>
</g>
<mask id="mask2_978_20" style="mask-type:luminance" maskUnits="userSpaceOnUse" x="0" y="0" width="587" height="3">
<path d="M0.250488 0.730469H586.492V2.52596H0.250488V0.730469Z" fill="white"/>
</mask>
<g mask="url(#mask2_978_20)">
<path d="M0.466309 0.730469H604.501V2.30892H0.466309V0.730469Z" fill="#F0B95C"/>
</g>
<mask id="mask3_978_20" style="mask-type:luminance" maskUnits="userSpaceOnUse" x="0" y="15" width="587" height="4">
<path d="M0.250488 15.9951H586.492V18.3957H0.250488V15.9951Z" fill="white"/>
</mask>
<g mask="url(#mask3_978_20)">
<path d="M0.466309 16.7285H604.501V18.307H0.466309V16.7285Z" fill="#F0B95C"/>
</g>
</g>
</svg>
