<svg width="88" height="54" viewBox="0 0 88 54" fill="none" xmlns="http://www.w3.org/2000/svg">
<mask id="mask0_672_3604" style="mask-type:luminance" maskUnits="userSpaceOnUse" x="4" y="13" width="39" height="25">
<path d="M42.644 13.376H4.49991V37.31H42.644V13.376Z" fill="white"/>
</mask>
<g mask="url(#mask0_672_3604)">
<path fill-rule="evenodd" clip-rule="evenodd" d="M55.1822 35.337C55.1822 35.2346 55.1122 35.0971 55.171 35.0427C55.1878 35.0267 55.6977 35.0171 55.9443 35.0107C55.9303 34.822 55.9191 34.6716 55.9079 34.6108C55.8659 34.3709 55.8574 34.1214 56.0788 34.1758C56.3001 34.2302 56.754 34.1598 56.8913 34.1598C57.0314 34.1598 57.3368 34.035 57.278 34.3101C57.2472 34.4541 57.25 34.7388 57.2556 35.0043C57.3508 35.0043 57.4181 35.0043 57.4433 35.0043C57.589 35.0043 57.631 34.9339 57.631 34.598C57.631 34.259 57.5974 21.9784 57.6058 21.3579C57.6142 20.7373 57.7963 20.6861 57.8215 21.3419C57.8439 21.9976 57.928 34.7036 58.0093 34.9499C58.0905 35.1994 58.1157 35.4393 57.8523 35.4105C57.7739 35.4042 57.5469 35.385 57.2668 35.3626C57.2696 35.4425 57.2724 35.5097 57.2696 35.5481C57.2612 35.8264 57.1379 35.6857 57.1211 35.5481C57.1183 35.5065 57.1099 35.4361 57.1015 35.3466C56.8689 35.3274 56.6111 35.3082 56.3814 35.2922C56.3842 35.4841 56.387 35.708 56.3926 35.9224C57.0202 35.884 57.8776 35.8328 57.928 35.8264C58.0036 35.8168 58.1157 35.804 58.1157 35.9608C58.1157 36.1143 58.1521 36.6517 58.1942 36.9236C58.2362 37.1987 58.239 37.3107 58.0709 37.2787C57.9028 37.2467 57.306 37.2051 57.1995 37.1539C57.0931 37.106 57.1715 37.01 57.1715 36.7573C57.1715 36.5046 57.2864 36.5174 57.278 36.6965C57.2752 36.7541 57.2864 36.8021 57.3396 36.8021C57.3928 36.7989 57.6282 36.7861 57.673 36.7829C57.7179 36.7797 57.6982 36.6453 57.6842 36.4854C57.673 36.3254 57.6562 36.3126 57.5974 36.3126C57.5638 36.3126 56.9277 36.303 56.401 36.2966C56.4094 36.6165 56.415 36.866 56.4206 36.8948C56.4318 36.9844 56.5159 37.1347 56.2777 37.0996C56.0396 37.0644 53.4479 36.9972 53.1817 37.0164C52.9127 37.0324 52.7054 36.8437 53.1873 36.85C53.672 36.8596 55.538 36.7541 55.793 36.7733C56.0452 36.7893 56.0228 36.7637 56.0228 36.5589C56.0228 36.5174 56.02 36.4214 56.0143 36.2934C55.8462 36.2902 55.3951 36.2902 55.3727 36.2902C55.2719 36.2966 55.1878 36.2902 55.1486 36.2327C55.1122 36.1751 55.1374 36.0023 55.1318 35.7464C55.129 35.4905 55.2775 35.5705 55.2775 35.7336C55.2775 35.8968 55.3167 35.9576 55.4092 35.9576C55.426 35.9576 55.8546 35.9544 55.9975 35.9448C55.9863 35.7304 55.9751 35.4873 55.9611 35.2666C55.7762 35.257 55.3363 35.2378 55.3195 35.2602C55.2999 35.2826 55.2326 35.4969 55.1822 35.337ZM5.46931 36.6965C5.4609 36.5174 5.57578 36.5046 5.57578 36.7573C5.57578 37.01 5.65423 37.106 5.54776 37.1539C5.44129 37.2051 4.8445 37.2467 4.67639 37.2787C4.50828 37.3107 4.51388 37.1987 4.55311 36.9236C4.59513 36.6517 4.63156 36.1143 4.63156 35.9608C4.63156 35.804 4.74363 35.8168 4.82209 35.8264C4.87252 35.8328 5.72988 35.884 6.35469 35.9224C6.36029 35.708 6.36589 35.4841 6.3687 35.2922C6.13614 35.3082 5.88118 35.3274 5.64582 35.3466C5.63742 35.4361 5.62901 35.5065 5.62621 35.5481C5.6094 35.6857 5.48892 35.8264 5.47771 35.5481C5.47491 35.5097 5.47771 35.4425 5.48052 35.3626C5.20033 35.385 5.06585 35.3946 4.89493 35.4105C4.72402 35.4297 4.65678 35.1994 4.73803 34.9499C4.82209 34.7036 4.90334 32.426 4.92855 31.7702C4.95097 31.1144 5.13309 31.1688 5.1415 31.7894C5.1499 32.41 5.11628 34.259 5.11628 34.598C5.11628 34.9339 5.21995 35.0043 5.304 35.0043C5.39086 35.0043 5.39646 35.0043 5.49172 35.0043C5.49733 34.7388 5.50013 34.4541 5.46931 34.3101C5.41327 34.035 5.71587 34.1598 5.85596 34.1598C5.99606 34.1598 6.44715 34.2302 6.66849 34.1758C6.88984 34.1214 6.88143 34.3709 6.84221 34.6108C6.831 34.6716 6.81699 34.822 6.80298 35.0107C7.04954 35.0171 7.38016 35.0267 7.39697 35.0427C7.45581 35.0971 7.38577 35.2346 7.38577 35.337C7.33533 35.4969 7.26809 35.2826 7.24847 35.2602C7.23166 35.2378 6.97109 35.257 6.78617 35.2666C6.77496 35.4873 6.76095 35.7304 6.74974 35.9448C6.89544 35.9544 7.12519 35.9576 7.1448 35.9576C7.23446 35.9576 7.27369 35.8968 7.27369 35.7336C7.27369 35.5705 7.42219 35.4905 7.41938 35.7464C7.41378 36.0023 7.439 36.1751 7.40257 36.2327C7.36615 36.2902 7.27929 36.2966 7.18122 36.2902C7.15601 36.2902 6.90385 36.2902 6.73574 36.2934C6.73013 36.4214 6.72733 36.5174 6.72733 36.5589C6.72733 36.7637 6.70212 36.7893 6.95708 36.7733C7.20925 36.7541 50.0857 36.8596 50.5704 36.85C51.0551 36.8437 50.845 37.0324 50.5788 37.0164C50.3126 36.9972 6.71052 37.0644 6.47237 37.0996C6.23421 37.1347 6.31546 36.9844 6.32667 36.8948C6.33227 36.866 6.34068 36.6165 6.34628 36.2966C5.81954 36.303 5.18352 36.3126 5.1499 36.3126C5.09106 36.3126 5.07425 36.3254 5.06304 36.4854C5.05183 36.6453 5.02942 36.7797 5.07425 36.7829C5.12188 36.7861 5.35443 36.7989 5.40767 36.8021C5.4609 36.8021 5.47211 36.7541 5.46931 36.6965ZM24.2808 36.4758C24.1575 36.4662 7.79763 36.5526 7.73039 36.4694C7.66314 36.3894 7.63793 35.3658 7.69116 35.369C7.7444 35.3722 8.52331 35.3338 8.55693 35.3946C8.59055 35.4553 8.54572 35.964 8.50089 35.9672C8.45606 35.9704 8.38882 35.6377 8.34399 35.6249C8.30196 35.6153 7.95734 35.5865 7.93773 35.6217C7.91811 35.6601 7.97695 36.1655 7.99376 36.2007C8.01057 36.2359 24.1547 36.3094 24.2668 36.3222C24.3789 36.3382 24.3845 36.4662 24.2808 36.4758ZM54.6891 35.0907C54.563 35.0971 53.9522 35.0139 53.8822 35.0939C53.8149 35.177 53.7897 36.2007 53.8429 36.1975C53.8962 36.1943 54.6779 36.2295 54.7115 36.1719C54.7423 36.1111 54.7059 35.4681 54.6611 35.4649C54.6162 35.4617 54.5462 35.8808 54.5014 35.8936C54.4565 35.9032 54.1119 35.9799 54.0923 35.9416C54.0727 35.9064 54.1287 35.401 54.1455 35.3658C54.1623 35.3306 54.563 35.257 54.6723 35.241C54.7843 35.225 54.7928 35.1003 54.6891 35.0907ZM56.3758 35.0043C56.6195 35.0043 56.8717 35.0011 57.0734 35.0043C57.0622 34.8763 57.0538 34.7676 57.0538 34.7132C57.0538 34.5724 56.9782 34.5916 56.9221 34.5788C56.8633 34.566 56.5859 34.598 56.4907 34.6012C56.3954 34.6044 56.3842 34.6204 56.3758 34.7356C56.373 34.758 56.373 34.8571 56.3758 35.0043ZM6.3715 35.0043C6.3743 34.8571 6.3743 34.758 6.3715 34.7356C6.36589 34.6204 6.35189 34.6044 6.25663 34.6012C6.16417 34.598 5.88398 34.566 5.82795 34.5788C5.76911 34.5916 5.69346 34.5724 5.69346 34.7132C5.69346 34.7676 5.68505 34.8763 5.67664 35.0043C5.87558 35.0011 6.12774 35.0043 6.3715 35.0043ZM57.2668 29.3455C57.2612 29.483 57.3368 33.6352 57.264 33.7087C57.1883 33.7823 56.2385 33.8079 56.2413 33.7503C56.2441 33.6927 56.2105 32.8514 56.2665 32.8163C56.3225 32.7811 56.7933 32.8291 56.7961 32.877C56.7989 32.925 56.4907 32.9986 56.4795 33.0466C56.471 33.0946 56.443 33.4624 56.4767 33.4848C56.5131 33.504 56.981 33.4432 57.0118 33.424C57.0454 33.408 57.1127 29.483 57.1267 29.3647C57.1407 29.2431 57.2584 29.2367 57.2668 29.3455ZM6.44715 33.6927C6.44154 33.5584 6.51999 32.8962 6.44434 32.8259C6.3715 32.7523 5.42168 32.7235 5.42448 32.7811C5.42728 32.8386 5.39366 33.68 5.44689 33.7151C5.50293 33.7503 6.09972 33.7119 6.10252 33.6608C6.10532 33.6128 5.71587 33.5392 5.70467 33.4912C5.69346 33.4432 5.62341 33.069 5.65984 33.0498C5.69346 33.0274 6.16136 33.0914 6.19498 33.1074C6.2258 33.1265 6.29585 33.5552 6.30986 33.6768C6.32387 33.7951 6.43874 33.8047 6.44715 33.6927ZM7.56508 15.3503C7.56508 15.4527 7.63512 15.5903 7.57909 15.6414C7.55947 15.6606 7.04954 15.6702 6.80298 15.6766C6.81699 15.8654 6.831 16.0157 6.84221 16.0765C6.88143 16.3164 6.88984 16.5659 6.66849 16.5115C6.44715 16.4572 5.99606 16.5307 5.85596 16.5307C5.71587 16.5307 5.41327 16.6523 5.46931 16.3772C5.50013 16.2332 5.49733 15.9485 5.49172 15.683C5.39646 15.683 5.32922 15.683 5.304 15.683C5.15831 15.683 5.11628 15.7534 5.11628 16.0893C5.11628 16.4284 5.1499 28.7089 5.1415 29.3295C5.13309 29.9501 4.95097 30.0012 4.92855 29.3455C4.90334 28.6897 4.82209 15.9837 4.73803 15.7374C4.65678 15.4879 4.63156 15.248 4.89493 15.2768C4.97338 15.2832 5.20033 15.3024 5.48052 15.3248C5.47771 15.2448 5.47491 15.1776 5.47771 15.1392C5.48892 14.8609 5.6094 15.0017 5.62621 15.1392C5.62901 15.1808 5.63742 15.2512 5.64582 15.3408C5.88118 15.3599 6.13614 15.3791 6.3687 15.3951C6.36589 15.2032 6.36029 14.9793 6.35469 14.765C5.72988 14.8001 4.87252 14.8545 4.82209 14.8609C4.74363 14.8705 4.63156 14.8833 4.63156 14.7298C4.63156 14.573 4.59513 14.0356 4.55311 13.7637C4.51388 13.4886 4.50828 13.3766 4.67639 13.4086C4.8445 13.4406 5.44129 13.4822 5.54776 13.5334C5.65423 13.5814 5.57578 13.6773 5.57578 13.93C5.57578 14.1828 5.4609 14.17 5.46931 13.9908C5.47211 13.9332 5.4609 13.8853 5.40767 13.8853C5.35443 13.8885 5.12188 13.9013 5.07425 13.9045C5.02942 13.9077 5.05183 14.042 5.06304 14.2019C5.07425 14.3619 5.09106 14.3747 5.1499 14.3747C5.18352 14.3747 5.81954 14.3843 6.34628 14.3907C6.34068 14.0708 6.33227 13.8213 6.32667 13.7925C6.31546 13.7029 6.23421 13.5526 6.47237 13.5878C6.71052 13.623 9.29941 13.6901 9.56839 13.6709C9.83456 13.6549 10.0447 13.8437 9.55998 13.8373C9.07526 13.8277 7.20925 13.9332 6.95708 13.914C6.70212 13.8981 6.72733 13.9236 6.72733 14.1284C6.72733 14.17 6.73013 14.2659 6.73574 14.3939C6.90385 14.3971 7.35214 14.3971 7.37736 14.3971C7.47542 14.3907 7.56228 14.3971 7.5987 14.4547C7.63513 14.5122 7.60991 14.685 7.61551 14.9409C7.61831 15.1968 7.46982 15.1168 7.46982 14.9537C7.46982 14.7905 7.43059 14.7298 7.34093 14.7298C7.32132 14.7298 6.89544 14.733 6.74974 14.7426C6.76095 14.9569 6.77496 15.2 6.78617 15.4207C6.97109 15.4303 7.41098 15.4495 7.43059 15.4271C7.4474 15.4047 7.51744 15.1904 7.56508 15.3503ZM5.48052 21.3419C5.48612 21.2043 5.41047 17.0522 5.48332 16.9786C5.55897 16.905 6.50879 16.8794 6.50599 16.937C6.50319 16.9946 6.53681 17.8359 6.48077 17.8711C6.42754 17.9063 5.95403 17.8583 5.95123 17.8103C5.94842 17.7623 6.25662 17.6887 6.26783 17.6407C6.27904 17.5928 6.30425 17.2249 6.27063 17.2025C6.23421 17.1833 5.7663 17.2441 5.73549 17.2633C5.70467 17.2793 5.63461 21.2043 5.62061 21.3227C5.6066 21.4442 5.48892 21.4506 5.48052 21.3419ZM57.278 13.9908C57.2864 14.17 57.1715 14.1828 57.1715 13.93C57.1715 13.6773 57.0931 13.5814 57.1995 13.5334C57.306 13.4822 57.9028 13.4406 58.0709 13.4086C58.239 13.3766 58.2362 13.4886 58.1942 13.7637C58.1521 14.0356 58.1157 14.573 58.1157 14.7298C58.1157 14.8833 58.0036 14.8705 57.928 14.8609C57.8776 14.8545 57.0202 14.8001 56.3926 14.765C56.387 14.9793 56.3842 15.2032 56.3814 15.3951C56.6111 15.3791 56.8689 15.3599 57.1015 15.3408C57.1099 15.2512 57.1183 15.1808 57.1211 15.1392C57.1379 15.0017 57.2612 14.8609 57.2696 15.1392C57.2724 15.1776 57.2696 15.2448 57.2668 15.3248C57.5469 15.3024 57.6814 15.2928 57.8523 15.2768C58.0233 15.2576 58.0905 15.4879 58.0093 15.7374C57.928 15.9837 57.8439 18.2613 57.8215 18.9171C57.7963 19.5729 57.6142 19.5185 57.6058 18.8979C57.5974 18.2805 57.631 16.4284 57.631 16.0893C57.631 15.7534 57.5273 15.683 57.4433 15.683C57.3564 15.683 57.3508 15.683 57.2556 15.683C57.25 15.9485 57.2472 16.2332 57.278 16.3772C57.3368 16.6523 57.0314 16.5307 56.8913 16.5307C56.754 16.5307 56.3001 16.4572 56.0788 16.5115C55.8574 16.5659 55.8659 16.3164 55.9079 16.0765C55.9191 16.0157 55.9303 15.8654 55.9443 15.6766C55.6977 15.6702 55.3699 15.6606 55.3503 15.6414C55.2943 15.5903 55.3643 15.4527 55.3643 15.3503C55.412 15.1904 55.482 15.4047 55.4988 15.4271C55.5156 15.4495 55.7762 15.4303 55.9611 15.4207C55.9751 15.2 55.9863 14.9569 55.9975 14.7426C55.8546 14.733 55.6221 14.7298 55.6053 14.7298C55.5156 14.7298 55.4736 14.7905 55.4736 14.9537C55.4736 15.1168 55.3251 15.1968 55.3307 14.9409C55.3335 14.685 55.3083 14.5122 55.3447 14.4547C55.3839 14.3971 55.468 14.3907 55.5689 14.3971C55.5913 14.3971 55.8462 14.3971 56.0143 14.3939C56.02 14.2659 56.0228 14.17 56.0228 14.1284C56.0228 13.9236 56.0452 13.8981 55.793 13.914C55.538 13.9332 12.6616 13.8277 12.1769 13.8373C11.6922 13.8437 11.9023 13.6549 12.1685 13.6709C12.4375 13.6901 56.0396 13.623 56.2777 13.5878C56.5159 13.5526 56.4318 13.7029 56.4206 13.7925C56.415 13.8213 56.4094 14.0708 56.401 14.3907C56.9277 14.3843 57.5638 14.3747 57.5974 14.3747C57.6562 14.3747 57.673 14.3619 57.6842 14.2019C57.6982 14.042 57.7179 13.9077 57.673 13.9045C57.6282 13.9013 57.3928 13.8885 57.3396 13.8853C57.2864 13.8853 57.2752 13.9332 57.278 13.9908ZM6.3715 15.683C6.12774 15.683 5.87558 15.683 5.67664 15.683C5.68505 15.8078 5.69346 15.9197 5.69346 15.9741C5.69346 16.1149 5.76911 16.0957 5.82795 16.1085C5.88398 16.1213 6.16417 16.0893 6.25663 16.0861C6.35189 16.0829 6.36589 16.0701 6.3715 15.9549C6.3743 15.9293 6.3743 15.8302 6.3715 15.683ZM56.3758 15.683C56.373 15.8302 56.373 15.9293 56.3758 15.9549C56.3842 16.0701 56.3954 16.0829 56.4907 16.0861C56.5859 16.0893 56.8633 16.1213 56.9221 16.1085C56.9782 16.0957 57.0538 16.1149 57.0538 15.9741C57.0538 15.9197 57.0622 15.8078 57.0734 15.683C56.8717 15.683 56.6195 15.683 56.3758 15.683ZM8.061 15.5967C8.18428 15.5903 8.79508 15.6734 8.86513 15.5935C8.93237 15.5103 8.95759 14.4866 8.90435 14.4898C8.85112 14.493 8.07221 14.4579 8.03859 14.5154C8.00497 14.5762 8.04139 15.2192 8.08622 15.2224C8.13105 15.2256 8.2039 14.8065 8.24593 14.7937C8.29076 14.7841 8.63538 14.7074 8.65499 14.7458C8.6746 14.7809 8.61856 15.2864 8.60175 15.3216C8.58494 15.3567 8.18709 15.4303 8.07501 15.4463C7.96294 15.4623 7.95734 15.5871 8.061 15.5967ZM38.4665 14.2115C38.5898 14.2211 54.9497 14.1348 55.0169 14.2179C55.0841 14.2979 55.1094 15.3216 55.0561 15.3184C55.0029 15.3152 54.224 15.3535 54.1904 15.2928C54.1567 15.232 54.2016 14.7234 54.2464 14.7202C54.2912 14.717 54.3585 15.0497 54.4033 15.0624C54.4481 15.072 54.7899 15.1008 54.8096 15.0656C54.8292 15.0273 54.7703 14.5218 54.7535 14.4866C54.7395 14.4515 38.5926 14.3779 38.4805 14.3619C38.3712 14.3491 38.3628 14.2211 38.4665 14.2115Z" fill="#DBA45E"/>
</g>
<mask id="mask1_672_3604" style="mask-type:luminance" maskUnits="userSpaceOnUse" x="44" y="13" width="36" height="25">
<path d="M44.5 13.376H79.5V37.31H44.5V13.376Z" fill="white"/>
</mask>
<g mask="url(#mask1_672_3604)">
<path fill-rule="evenodd" clip-rule="evenodd" d="M32.9953 35.337C32.9953 35.2346 33.0595 35.0971 33.0056 35.0427C32.9901 35.0267 32.5222 35.0171 32.296 35.0107C32.3088 34.822 32.3191 34.6716 32.3294 34.6108C32.368 34.3709 32.3757 34.1214 32.1726 34.1758C31.9695 34.2302 31.553 34.1598 31.427 34.1598C31.2985 34.1598 31.0183 34.035 31.0723 34.3101C31.1005 34.4541 31.098 34.7388 31.0928 35.0043C31.0054 35.0043 30.9437 35.0043 30.9206 35.0043C30.7869 35.0043 30.7483 34.9339 30.7483 34.598C30.7483 34.259 30.7792 21.9784 30.7715 21.3579C30.7637 20.7373 30.5966 20.6861 30.5735 21.3419C30.5529 21.9976 30.4758 34.7036 30.4013 34.9499C30.3267 35.1994 30.3036 35.4393 30.5452 35.4105C30.6172 35.4042 30.8255 35.385 31.0825 35.3626C31.08 35.4425 31.0774 35.5097 31.08 35.5481C31.0877 35.8264 31.2008 35.6857 31.2162 35.5481C31.2188 35.5065 31.2265 35.4361 31.2342 35.3466C31.4476 35.3274 31.6841 35.3082 31.8949 35.2922C31.8924 35.4841 31.8898 35.708 31.8847 35.9224C31.3088 35.884 30.5221 35.8328 30.4758 35.8264C30.4064 35.8168 30.3036 35.804 30.3036 35.9608C30.3036 36.1143 30.2701 36.6517 30.2316 36.9236C30.193 37.1987 30.1904 37.3107 30.3447 37.2787C30.4989 37.2467 31.0465 37.2051 31.1442 37.1539C31.2419 37.106 31.1699 37.01 31.1699 36.7573C31.1699 36.5046 31.0645 36.5174 31.0723 36.6965C31.0748 36.7541 31.0645 36.8021 31.0157 36.8021C30.9668 36.7989 30.7509 36.7861 30.7098 36.7829C30.6686 36.7797 30.6866 36.6453 30.6995 36.4854C30.7098 36.3254 30.7252 36.3126 30.7792 36.3126C30.81 36.3126 31.3936 36.303 31.8769 36.2966C31.8692 36.6165 31.8641 36.866 31.8589 36.8948C31.8487 36.9844 31.7715 37.1347 31.9901 37.0996C32.2086 37.0644 34.5867 36.9972 34.8309 37.0164C35.0777 37.0324 35.2679 36.8437 34.8257 36.85C34.381 36.8596 32.6688 36.7541 32.4348 36.7733C32.2034 36.7893 32.224 36.7637 32.224 36.5589C32.224 36.5174 32.2266 36.4214 32.2317 36.2934C32.386 36.2902 32.7999 36.2902 32.8205 36.2902C32.913 36.2966 32.9901 36.2902 33.0261 36.2327C33.0595 36.1751 33.0364 36.0023 33.0416 35.7464C33.0441 35.4905 32.9079 35.5705 32.9079 35.7336C32.9079 35.8968 32.8719 35.9576 32.787 35.9576C32.7716 35.9576 32.3783 35.9544 32.2471 35.9448C32.2574 35.7304 32.2677 35.4873 32.2806 35.2666C32.4502 35.257 32.8539 35.2378 32.8693 35.2602C32.8873 35.2826 32.949 35.4969 32.9953 35.337ZM78.6105 36.6965C78.6182 36.5174 78.5128 36.5046 78.5128 36.7573C78.5128 37.01 78.4408 37.106 78.5385 37.1539C78.6362 37.2051 79.1838 37.2467 79.338 37.2787C79.4923 37.3107 79.4871 37.1987 79.4511 36.9236C79.4126 36.6517 79.3791 36.1143 79.3791 35.9608C79.3791 35.804 79.2763 35.8168 79.2043 35.8264C79.1581 35.8328 78.3714 35.884 77.7981 35.9224C77.7929 35.708 77.7878 35.4841 77.7852 35.2922C77.9986 35.3082 78.2325 35.3274 78.4485 35.3466C78.4562 35.4361 78.4639 35.5065 78.4665 35.5481C78.4819 35.6857 78.5925 35.8264 78.6027 35.5481C78.6053 35.5097 78.6027 35.4425 78.6002 35.3626C78.8573 35.385 78.9807 35.3946 79.1375 35.4105C79.2943 35.4297 79.356 35.1994 79.2815 34.9499C79.2043 34.7036 79.1298 32.426 79.1066 31.7702C79.0861 31.1144 78.919 31.1688 78.9112 31.7894C78.9035 32.41 78.9344 34.259 78.9344 34.598C78.9344 34.9339 78.8393 35.0043 78.7621 35.0043C78.6824 35.0043 78.6773 35.0043 78.5899 35.0043C78.5847 34.7388 78.5822 34.4541 78.6105 34.3101C78.6619 34.035 78.3842 34.1598 78.2557 34.1598C78.1271 34.1598 77.7132 34.2302 77.5101 34.1758C77.307 34.1214 77.3147 34.3709 77.3507 34.6108C77.361 34.6716 77.3739 34.822 77.3867 35.0107C77.1605 35.0171 76.8571 35.0267 76.8417 35.0427C76.7877 35.0971 76.852 35.2346 76.852 35.337C76.8982 35.4969 76.9599 35.2826 76.9779 35.2602C76.9934 35.2378 77.2325 35.257 77.4021 35.2666C77.4124 35.4873 77.4253 35.7304 77.4356 35.9448C77.3019 35.9544 77.0911 35.9576 77.0731 35.9576C76.9908 35.9576 76.9548 35.8968 76.9548 35.7336C76.9548 35.5705 76.8185 35.4905 76.8211 35.7464C76.8263 36.0023 76.8031 36.1751 76.8365 36.2327C76.87 36.2902 76.9497 36.2966 77.0396 36.2902C77.0628 36.2902 77.2942 36.2902 77.4484 36.2934C77.4536 36.4214 77.4561 36.5174 77.4561 36.5589C77.4561 36.7637 77.4793 36.7893 77.2453 36.7733C77.0139 36.7541 37.6717 36.8596 37.2269 36.85C36.7822 36.8437 36.975 37.0324 37.2192 37.0164C37.4635 36.9972 77.4715 37.0644 77.6901 37.0996C77.9086 37.1347 77.834 36.9844 77.8238 36.8948C77.8186 36.866 77.8109 36.6165 77.8058 36.2966C78.2891 36.303 78.8727 36.3126 78.9035 36.3126C78.9575 36.3126 78.9729 36.3254 78.9832 36.4854C78.9935 36.6453 79.0141 36.7797 78.9729 36.7829C78.9292 36.7861 78.7159 36.7989 78.667 36.8021C78.6182 36.8021 78.6079 36.7541 78.6105 36.6965ZM61.3495 36.4758C61.4627 36.4662 76.474 36.5526 76.5357 36.4694C76.5974 36.3894 76.6206 35.3658 76.5717 35.369C76.5229 35.3722 75.8082 35.3338 75.7773 35.3946C75.7465 35.4553 75.7876 35.964 75.8288 35.9672C75.8699 35.9704 75.9316 35.6377 75.9727 35.6249C76.0113 35.6153 76.3275 35.5865 76.3455 35.6217C76.3635 35.6601 76.3095 36.1655 76.2941 36.2007C76.2787 36.2359 61.4652 36.3094 61.3624 36.3222C61.2596 36.3382 61.2544 36.4662 61.3495 36.4758ZM33.4478 35.0907C33.5634 35.0971 34.1239 35.0139 34.1882 35.0939C34.2499 35.177 34.273 36.2007 34.2242 36.1975C34.1753 36.1943 33.458 36.2295 33.4272 36.1719C33.3989 36.1111 33.4323 35.4681 33.4735 35.4649C33.5146 35.4617 33.5789 35.8808 33.62 35.8936C33.6611 35.9032 33.9774 35.9799 33.9953 35.9416C34.0133 35.9064 33.9619 35.401 33.9465 35.3658C33.9311 35.3306 33.5634 35.257 33.4632 35.241C33.3603 35.225 33.3526 35.1003 33.4478 35.0907ZM31.9001 35.0043C31.6764 35.0043 31.445 35.0011 31.2599 35.0043C31.2702 34.8763 31.2779 34.7676 31.2779 34.7132C31.2779 34.5724 31.3473 34.5916 31.3988 34.5788C31.4527 34.566 31.7073 34.598 31.7947 34.6012C31.8821 34.6044 31.8924 34.6204 31.9001 34.7356C31.9027 34.758 31.9027 34.8571 31.9001 35.0043ZM77.7826 35.0043C77.7801 34.8571 77.7801 34.758 77.7826 34.7356C77.7878 34.6204 77.8006 34.6044 77.888 34.6012C77.9729 34.598 78.23 34.566 78.2814 34.5788C78.3354 34.5916 78.4048 34.5724 78.4048 34.7132C78.4048 34.7676 78.4125 34.8763 78.4202 35.0043C78.2377 35.0011 78.0063 35.0043 77.7826 35.0043ZM31.0825 29.3455C31.0877 29.483 31.0183 33.6352 31.0851 33.7087C31.1545 33.7823 32.0261 33.8079 32.0235 33.7503C32.0209 33.6927 32.0518 32.8514 32.0003 32.8163C31.9489 32.7811 31.517 32.8291 31.5144 32.877C31.5119 32.925 31.7947 32.9986 31.805 33.0466C31.8127 33.0946 31.8384 33.4624 31.8075 33.4848C31.7741 33.504 31.3448 33.4432 31.3165 33.424C31.2856 33.408 31.2239 29.483 31.2111 29.3647C31.1982 29.2431 31.0903 29.2367 31.0825 29.3455ZM77.7132 33.6927C77.7184 33.5584 77.6464 32.8962 77.7158 32.8259C77.7826 32.7523 78.6542 32.7235 78.6516 32.7811C78.649 32.8386 78.6799 33.68 78.631 33.7151C78.5796 33.7503 78.032 33.7119 78.0294 33.6608C78.0269 33.6128 78.3842 33.5392 78.3945 33.4912C78.4048 33.4432 78.4691 33.069 78.4356 33.0498C78.4048 33.0274 77.9754 33.0914 77.9446 33.1074C77.9163 33.1265 77.852 33.5552 77.8392 33.6768C77.8263 33.7951 77.7209 33.8047 77.7132 33.6927ZM76.6874 15.3503C76.6874 15.4527 76.6232 15.5903 76.6746 15.6414C76.6926 15.6606 77.1605 15.6702 77.3867 15.6766C77.3739 15.8654 77.361 16.0157 77.3507 16.0765C77.3147 16.3164 77.307 16.5659 77.5101 16.5115C77.7132 16.4572 78.1271 16.5307 78.2557 16.5307C78.3842 16.5307 78.6619 16.6523 78.6105 16.3772C78.5822 16.2332 78.5847 15.9485 78.5899 15.683C78.6773 15.683 78.739 15.683 78.7621 15.683C78.8958 15.683 78.9344 15.7534 78.9344 16.0893C78.9344 16.4284 78.9035 28.7089 78.9112 29.3295C78.919 29.9501 79.0861 30.0012 79.1066 29.3455C79.1298 28.6897 79.2043 15.9837 79.2815 15.7374C79.356 15.4879 79.3791 15.248 79.1375 15.2768C79.0655 15.2832 78.8573 15.3024 78.6002 15.3248C78.6027 15.2448 78.6053 15.1776 78.6027 15.1392C78.5925 14.8609 78.4819 15.0017 78.4665 15.1392C78.4639 15.1808 78.4562 15.2512 78.4485 15.3408C78.2325 15.3599 77.9986 15.3791 77.7852 15.3951C77.7878 15.2032 77.7929 14.9793 77.7981 14.765C78.3714 14.8001 79.1581 14.8545 79.2043 14.8609C79.2763 14.8705 79.3791 14.8833 79.3791 14.7298C79.3791 14.573 79.4126 14.0356 79.4511 13.7637C79.4871 13.4886 79.4923 13.3766 79.338 13.4086C79.1838 13.4406 78.6362 13.4822 78.5385 13.5334C78.4408 13.5814 78.5128 13.6773 78.5128 13.93C78.5128 14.1828 78.6182 14.17 78.6105 13.9908C78.6079 13.9332 78.6182 13.8853 78.667 13.8853C78.7159 13.8885 78.9292 13.9013 78.9729 13.9045C79.0141 13.9077 78.9935 14.042 78.9832 14.2019C78.9729 14.3619 78.9575 14.3747 78.9035 14.3747C78.8727 14.3747 78.2891 14.3843 77.8058 14.3907C77.8109 14.0708 77.8186 13.8213 77.8238 13.7925C77.834 13.7029 77.9086 13.5526 77.6901 13.5878C77.4715 13.623 75.0961 13.6901 74.8493 13.6709C74.605 13.6549 74.4122 13.8437 74.857 13.8373C75.3017 13.8277 77.0139 13.9332 77.2453 13.914C77.4793 13.8981 77.4561 13.9236 77.4561 14.1284C77.4561 14.17 77.4536 14.2659 77.4484 14.3939C77.2942 14.3971 76.8828 14.3971 76.8597 14.3971C76.7697 14.3907 76.69 14.3971 76.6566 14.4547C76.6232 14.5122 76.6463 14.685 76.6412 14.9409C76.6386 15.1968 76.7748 15.1168 76.7748 14.9537C76.7748 14.7905 76.8108 14.7298 76.8931 14.7298C76.9111 14.7298 77.3019 14.733 77.4356 14.7426C77.4253 14.9569 77.4124 15.2 77.4021 15.4207C77.2325 15.4303 76.8288 15.4495 76.8108 15.4271C76.7954 15.4047 76.7311 15.1904 76.6874 15.3503ZM78.6002 21.3419C78.595 21.2043 78.6644 17.0522 78.5976 16.9786C78.5282 16.905 77.6567 16.8794 77.6592 16.937C77.6618 16.9946 77.6309 17.8359 77.6824 17.8711C77.7312 17.9063 78.1657 17.8583 78.1683 17.8103C78.1708 17.7623 77.888 17.6887 77.8778 17.6407C77.8675 17.5928 77.8443 17.2249 77.8752 17.2025C77.9086 17.1833 78.3379 17.2441 78.3662 17.2633C78.3945 17.2793 78.4588 21.2043 78.4716 21.3227C78.4845 21.4442 78.5925 21.4506 78.6002 21.3419ZM31.0723 13.9908C31.0645 14.17 31.1699 14.1828 31.1699 13.93C31.1699 13.6773 31.2419 13.5814 31.1442 13.5334C31.0465 13.4822 30.4989 13.4406 30.3447 13.4086C30.1904 13.3766 30.193 13.4886 30.2316 13.7637C30.2701 14.0356 30.3036 14.573 30.3036 14.7298C30.3036 14.8833 30.4064 14.8705 30.4758 14.8609C30.5221 14.8545 31.3088 14.8001 31.8847 14.765C31.8898 14.9793 31.8924 15.2032 31.8949 15.3951C31.6841 15.3791 31.4476 15.3599 31.2342 15.3408C31.2265 15.2512 31.2188 15.1808 31.2162 15.1392C31.2008 15.0017 31.0877 14.8609 31.08 15.1392C31.0774 15.1776 31.08 15.2448 31.0825 15.3248C30.8255 15.3024 30.702 15.2928 30.5452 15.2768C30.3884 15.2576 30.3267 15.4879 30.4013 15.7374C30.4758 15.9837 30.5529 18.2613 30.5735 18.9171C30.5966 19.5729 30.7637 19.5185 30.7715 18.8979C30.7792 18.2805 30.7483 16.4284 30.7483 16.0893C30.7483 15.7534 30.8434 15.683 30.9206 15.683C31.0003 15.683 31.0054 15.683 31.0928 15.683C31.098 15.9485 31.1005 16.2332 31.0723 16.3772C31.0183 16.6523 31.2985 16.5307 31.427 16.5307C31.553 16.5307 31.9695 16.4572 32.1726 16.5115C32.3757 16.5659 32.368 16.3164 32.3294 16.0765C32.3191 16.0157 32.3088 15.8654 32.296 15.6766C32.5222 15.6702 32.823 15.6606 32.841 15.6414C32.8924 15.5903 32.8282 15.4527 32.8282 15.3503C32.7845 15.1904 32.7202 15.4047 32.7048 15.4271C32.6893 15.4495 32.4502 15.4303 32.2806 15.4207C32.2677 15.2 32.2574 14.9569 32.2471 14.7426C32.3783 14.733 32.5916 14.7298 32.6071 14.7298C32.6893 14.7298 32.7279 14.7905 32.7279 14.9537C32.7279 15.1168 32.8642 15.1968 32.859 14.9409C32.8564 14.685 32.8796 14.5122 32.8462 14.4547C32.8102 14.3971 32.733 14.3907 32.6405 14.3971C32.6199 14.3971 32.386 14.3971 32.2317 14.3939C32.2266 14.2659 32.224 14.17 32.224 14.1284C32.224 13.9236 32.2034 13.8981 32.4348 13.914C32.6688 13.9332 72.011 13.8277 72.4558 13.8373C72.9005 13.8437 72.7077 13.6549 72.4635 13.6709C72.2167 13.6901 32.2086 13.623 31.9901 13.5878C31.7715 13.5526 31.8487 13.7029 31.8589 13.7925C31.8641 13.8213 31.8692 14.0708 31.8769 14.3907C31.3936 14.3843 30.81 14.3747 30.7792 14.3747C30.7252 14.3747 30.7098 14.3619 30.6995 14.2019C30.6866 14.042 30.6686 13.9077 30.7098 13.9045C30.7509 13.9013 30.9668 13.8885 31.0157 13.8853C31.0645 13.8853 31.0748 13.9332 31.0723 13.9908ZM77.7826 15.683C78.0063 15.683 78.2377 15.683 78.4202 15.683C78.4125 15.8078 78.4048 15.9197 78.4048 15.9741C78.4048 16.1149 78.3354 16.0957 78.2814 16.1085C78.23 16.1213 77.9729 16.0893 77.888 16.0861C77.8006 16.0829 77.7878 16.0701 77.7826 15.9549C77.7801 15.9293 77.7801 15.8302 77.7826 15.683ZM31.9001 15.683C31.9027 15.8302 31.9027 15.9293 31.9001 15.9549C31.8924 16.0701 31.8821 16.0829 31.7947 16.0861C31.7073 16.0893 31.4527 16.1213 31.3988 16.1085C31.3473 16.0957 31.2779 16.1149 31.2779 15.9741C31.2779 15.9197 31.2702 15.8078 31.2599 15.683C31.445 15.683 31.6764 15.683 31.9001 15.683ZM76.2324 15.5967C76.1193 15.5903 75.5588 15.6734 75.4945 15.5935C75.4328 15.5103 75.4097 14.4866 75.4585 14.4898C75.5074 14.493 76.2221 14.4579 76.2529 14.5154C76.2838 14.5762 76.2504 15.2192 76.2092 15.2224C76.1681 15.2256 76.1013 14.8065 76.0627 14.7937C76.0216 14.7841 75.7054 14.7074 75.6874 14.7458C75.6694 14.7809 75.7208 15.2864 75.7362 15.3216C75.7516 15.3567 76.1167 15.4303 76.2195 15.4463C76.3224 15.4623 76.3275 15.5871 76.2324 15.5967ZM48.3332 14.2115C48.22 14.2211 33.2087 14.1348 33.147 14.2179C33.0853 14.2979 33.0621 15.3216 33.111 15.3184C33.1598 15.3152 33.8745 15.3535 33.9054 15.2928C33.9362 15.232 33.8951 14.7234 33.854 14.7202C33.8128 14.717 33.7511 15.0497 33.71 15.0624C33.6688 15.072 33.3552 15.1008 33.3372 15.0656C33.3192 15.0273 33.3732 14.5218 33.3886 14.4866C33.4015 14.4515 48.2175 14.3779 48.3203 14.3619C48.4206 14.3491 48.4283 14.2211 48.3332 14.2115Z" fill="#DBA45E"/>
</g>
<g filter="url(#filter0_d_672_3604)">
<path d="M20.2015 22.576C20.2015 22.576 21.0815 22.576 22.8415 22.576C23.2522 22.576 23.6482 22.7373 24.0295 23.06C24.4109 23.368 24.6015 23.6466 24.6015 23.896V30.716L24.8215 30.936L23.9415 31.596L22.6215 30.936L22.8415 30.716V24.336C22.7389 23.808 22.2989 23.5146 21.5215 23.456C21.1255 23.456 20.8175 23.5366 20.5975 23.698C20.3775 23.8593 20.2529 23.9913 20.2235 24.094C20.2089 24.1966 20.2015 24.2773 20.2015 24.336V30.056C20.2015 30.3493 20.2749 30.496 20.4215 30.496C20.5682 30.496 20.6415 30.3493 20.6415 30.056V27.416L20.2015 27.196L21.0815 24.996C21.2429 24.9666 21.4775 25.0033 21.7855 25.106C22.0935 25.2086 22.3355 25.3186 22.5115 25.436L22.6215 25.216L22.8415 25.326C22.6949 25.9126 22.4749 26.4993 22.1815 27.086C22.1082 27.1593 21.9982 27.2326 21.8515 27.306L21.7415 26.976L21.9615 26.8C21.9909 26.7706 21.9909 26.7266 21.9615 26.668C21.9322 26.5946 21.8882 26.5506 21.8295 26.536C21.7709 26.5066 21.6902 26.5213 21.5875 26.58C21.4849 26.624 21.4262 26.6826 21.4115 26.756C21.3382 27.108 21.5215 27.328 21.9615 27.416V30.496L22.1815 30.716C21.6975 31.0386 21.3675 31.2293 21.1915 31.288C21.0302 31.3466 20.8469 31.376 20.6415 31.376H20.2015C19.6735 31.376 19.0135 31.156 18.2215 30.716L18.4415 30.496V23.896C18.4415 23.6466 18.6322 23.368 19.0135 23.06C19.3949 22.7373 19.7909 22.576 20.2015 22.576ZM20.4293 20.926C21.1773 19.518 21.7933 18.8066 22.2773 18.792C22.4239 18.8213 22.6953 18.924 23.0913 19.1C23.4726 19.276 23.7586 19.4373 23.9493 19.584C24.0519 19.6133 24.1106 19.628 24.1253 19.628C24.1399 19.6133 24.1986 19.5473 24.3013 19.43L24.6093 19.716L24.3453 20.2C23.8466 21.168 23.5019 21.6666 23.3113 21.696C23.1206 21.7106 22.9446 21.7033 22.7833 21.674C22.6219 21.63 22.4826 21.586 22.3653 21.542C22.2479 21.4833 22.0793 21.3953 21.8593 21.278C21.6246 21.1606 21.4339 21.0726 21.2873 21.014C21.1259 20.9406 20.9793 20.9993 20.8473 21.19L20.4293 20.926ZM22.4093 19.914L22.1893 20.2L22.8493 20.552L23.0693 20.266L22.4093 19.914ZM26.8093 22.356L27.1393 22.576L26.9633 22.972C27.1393 23.1333 27.3006 23.2213 27.4473 23.236C27.6086 23.2506 27.8726 23.148 28.2393 22.928C28.6206 22.6933 28.8773 22.576 29.0093 22.576C29.4199 22.576 29.8159 22.7373 30.1973 23.06C30.5786 23.368 30.7693 23.6466 30.7693 23.896V30.716L30.9893 30.936L30.1093 31.596L28.7893 30.936L29.0093 30.716V24.776C29.0093 24.4973 28.9799 24.3066 28.9213 24.204C28.8773 24.0866 28.8186 24.05 28.7453 24.094C28.6719 24.1233 28.5253 24.1966 28.3053 24.314C28.0999 24.4313 27.9386 24.5193 27.8213 24.578C27.1613 24.886 26.6186 24.82 26.1933 24.38C26.1493 24.3506 26.0979 24.3066 26.0393 24.248C25.9806 24.1746 25.9439 24.1306 25.9293 24.116L26.8093 22.356ZM32.8653 22.356L33.1953 22.576L33.0193 22.972C33.1806 23.1333 33.3126 23.2213 33.4153 23.236C33.7673 23.2946 34.2733 23.1993 34.9333 22.95C35.6079 22.7006 35.9819 22.576 36.0553 22.576C36.4659 22.576 36.8619 22.7373 37.2433 23.06C37.6246 23.368 37.8153 23.6466 37.8153 23.896V30.496L38.0353 30.716C37.2433 31.156 36.5833 31.376 36.0553 31.376H34.2953C33.7673 31.376 33.1073 31.156 32.3153 30.716L32.5353 30.496V27.416L32.3153 27.196L33.5253 25.216C33.6719 25.1866 33.9286 25.2526 34.2953 25.414C34.6766 25.5753 34.9699 25.7293 35.1753 25.876L35.2853 25.656L35.6153 25.876C35.3953 26.316 35.1019 26.7926 34.7353 27.306C34.6619 27.3793 34.4786 27.416 34.1853 27.416L34.0753 27.086L34.4053 26.976C34.4346 26.9466 34.4346 26.8953 34.4053 26.822C34.3759 26.734 34.3246 26.668 34.2513 26.624C34.1926 26.58 34.1046 26.558 33.9873 26.558C33.8846 26.5433 33.8039 26.5726 33.7453 26.646C33.6573 26.866 33.6499 27.0493 33.7233 27.196C33.7966 27.328 33.9873 27.548 34.2953 27.856V29.616C34.2953 29.924 34.3833 30.1513 34.5593 30.298C34.7353 30.43 34.9406 30.496 35.1753 30.496C35.4099 30.496 35.6153 30.43 35.7913 30.298C35.9673 30.1513 36.0553 29.924 36.0553 29.616V24.336C36.0553 24.0573 36.0259 23.8666 35.9673 23.764C35.9233 23.6466 35.8426 23.6173 35.7253 23.676C34.5666 24.2626 33.6499 24.4826 32.9753 24.336C32.7699 24.292 32.4766 24.072 32.0953 23.676L32.8653 22.356ZM43.1021 26.976C42.6181 26.096 42.0315 25.656 41.3421 25.656C40.9901 25.656 40.6381 25.7806 40.2861 26.03L40.3521 26.206L39.8021 26.536L39.1421 24.336C39.5235 23.8226 39.9415 23.368 40.3961 22.972C40.8655 22.5613 41.2688 22.356 41.6061 22.356C41.9435 22.356 42.3028 22.4366 42.6841 22.598C43.0801 22.7593 43.3881 22.906 43.6081 23.038C43.8281 23.1553 44.0848 23.1773 44.3781 23.104C44.6861 23.016 44.9941 22.7666 45.3021 22.356L45.7421 22.796C45.5661 23.1626 45.2215 23.6393 44.7081 24.226C44.2095 24.8126 43.8208 25.0693 43.5421 24.996C43.2635 24.9226 42.8968 24.798 42.4421 24.622C42.0021 24.4313 41.7088 24.336 41.5621 24.336C41.1955 24.336 40.6821 24.6366 40.0221 25.238L40.0881 25.414C40.6308 24.9886 41.1955 24.776 41.7821 24.776C42.0901 24.776 42.5228 24.9153 43.0801 25.194C43.6521 25.4726 44.1141 25.7586 44.4661 26.052L44.6421 25.876L45.0821 26.316L44.8621 26.536V30.496L45.0821 30.716C44.2901 31.156 43.6301 31.376 43.1021 31.376H41.3421C40.8141 31.376 40.1541 31.156 39.3621 30.716L39.5821 30.496V27.636L39.3621 27.416L40.2421 26.756L41.5621 27.416L41.3421 27.636V29.616C41.3421 29.924 41.4301 30.1513 41.6061 30.298C41.7821 30.43 41.9875 30.496 42.2221 30.496C42.4568 30.496 42.6621 30.43 42.8381 30.298C43.0141 30.1513 43.1021 29.924 43.1021 29.616V26.976ZM39.809 20.926C40.557 19.518 41.173 18.8066 41.657 18.792C41.7304 18.8066 42.0897 18.9166 42.735 19.122C43.3657 19.3273 43.7984 19.4593 44.033 19.518C44.253 19.5766 44.3777 19.606 44.407 19.606C44.4217 19.5913 44.473 19.5326 44.561 19.43L44.869 19.716L44.605 20.2C44.1064 21.168 43.7544 21.6666 43.549 21.696C43.2117 21.7253 42.7644 21.674 42.207 21.542C41.6497 21.3953 41.1217 21.212 40.623 20.992C40.491 20.9333 40.359 20.9993 40.227 21.19L39.809 20.926ZM43.549 20.376C43.373 20.3466 42.823 20.1633 41.899 19.826L41.349 20.376C41.481 20.42 41.7597 20.5153 42.185 20.662C42.5957 20.8086 42.977 20.86 43.329 20.816C43.3584 20.772 43.395 20.6986 43.439 20.596C43.483 20.4933 43.5197 20.42 43.549 20.376ZM49.489 22.356L49.929 22.576L48.719 25.326L48.389 25.216V29.616C48.389 29.9093 48.4917 30.1293 48.697 30.276C48.9024 30.4226 49.1297 30.496 49.379 30.496C49.6284 30.496 49.8924 30.4226 50.171 30.276C50.4497 30.1293 50.589 29.9093 50.589 29.616V23.236L50.369 23.016L51.249 22.356L52.569 23.016L52.349 23.236V30.496L52.569 30.716C51.777 31.156 51.117 31.376 50.589 31.376H48.389C47.861 31.376 47.201 31.156 46.409 30.716L46.629 30.496V25.656C47.553 25.1133 47.9197 24.6733 47.729 24.336C47.6704 24.2333 47.553 24.1453 47.377 24.072C47.2157 23.984 47.091 23.94 47.003 23.94C46.9297 23.94 46.8564 23.9986 46.783 24.116C46.7244 24.2333 46.717 24.314 46.761 24.358C46.8197 24.402 46.959 24.468 47.179 24.556L46.849 24.996L46.189 24.556C46.189 24.3066 46.3724 23.896 46.739 23.324C47.1204 22.7226 47.4504 22.4 47.729 22.356C47.8317 22.3413 48.0957 22.4146 48.521 22.576C48.917 22.7226 49.1224 22.8033 49.137 22.818C49.1517 22.8326 49.1737 22.8253 49.203 22.796C49.247 22.752 49.269 22.73 49.269 22.73C49.2837 22.73 49.3057 22.708 49.335 22.664C49.3644 22.6053 49.379 22.5686 49.379 22.554C49.3937 22.5393 49.4157 22.51 49.445 22.466C49.4744 22.4073 49.489 22.3706 49.489 22.356ZM54.5456 22.356L54.8756 22.576L54.6996 22.972C54.8756 23.1333 55.0369 23.2213 55.1836 23.236C55.3449 23.2506 55.6089 23.148 55.9756 22.928C56.3569 22.6933 56.6136 22.576 56.7456 22.576C57.1563 22.576 57.5523 22.7373 57.9336 23.06C58.3149 23.368 58.5056 23.6466 58.5056 23.896V30.716L58.7256 30.936L57.8456 31.596L56.5256 30.936L56.7456 30.716V24.776C56.7456 24.4973 56.7163 24.3066 56.6576 24.204C56.6136 24.0866 56.5549 24.05 56.4816 24.094C56.4083 24.1233 56.2616 24.1966 56.0416 24.314C55.8363 24.4313 55.6749 24.5193 55.5576 24.578C54.8976 24.886 54.3549 24.82 53.9296 24.38C53.8856 24.3506 53.8343 24.3066 53.7756 24.248C53.7169 24.1746 53.6803 24.1306 53.6656 24.116L54.5456 22.356ZM61.5916 22.356C61.7383 22.3266 62.1196 22.466 62.7356 22.774C63.3663 23.082 63.7916 23.3093 64.0116 23.456L64.1216 23.236L64.4516 23.456C64.3929 23.676 64.2023 24.0793 63.8796 24.666C63.5716 25.2526 63.3956 25.5826 63.3516 25.656C63.2783 25.7293 63.0583 25.766 62.6916 25.766L62.5816 25.436C62.7429 25.4213 62.8456 25.392 62.8896 25.348C62.9483 25.304 62.9629 25.2233 62.9336 25.106C62.9189 24.9886 62.8823 24.9226 62.8236 24.908C62.7649 24.8786 62.6916 24.8346 62.6036 24.776C62.1196 24.512 61.7896 24.4313 61.6136 24.534C61.4523 24.6366 61.3496 24.8053 61.3056 25.04C61.2323 25.568 61.4963 26.0226 62.0976 26.404C62.4936 26.6386 62.7796 26.756 62.9556 26.756C63.1463 26.756 63.3149 26.6826 63.4616 26.536L63.6816 26.756C63.5203 27.0786 63.3443 27.3426 63.1536 27.548C62.9629 27.7533 62.8309 27.856 62.7576 27.856C62.6843 27.856 62.6403 27.856 62.6256 27.856L62.0316 29.616C61.9876 29.7626 62.0903 29.946 62.3396 30.166C62.5889 30.386 62.7723 30.496 62.8896 30.496C63.0216 30.496 63.1756 30.408 63.3516 30.232C63.5276 30.0413 63.6743 29.836 63.7916 29.616V26.316L63.5716 26.096L64.0116 25.436L65.7716 26.096L65.5516 26.316V29.616L65.7716 29.836C65.5369 29.968 65.2583 30.166 64.9356 30.43C64.6276 30.6793 64.4223 30.8333 64.3196 30.892C64.2169 30.9506 64.0556 31.0533 63.8356 31.2C63.6303 31.3466 63.4616 31.4493 63.3296 31.508C63.1976 31.5666 63.0583 31.596 62.9116 31.596C62.7649 31.596 62.6256 31.5666 62.4936 31.508C62.3616 31.4493 62.1856 31.3466 61.9656 31.2C61.7603 31.0533 61.6063 30.9506 61.5036 30.892C61.4009 30.8333 61.1883 30.6793 60.8656 30.43C60.5576 30.166 60.2863 29.968 60.0516 29.836L60.2716 29.616L61.2396 27.372C60.7409 27.0493 60.2716 26.5506 59.8316 25.876C60.5063 24.204 61.0929 23.0306 61.5916 22.356Z" fill="#FBE9B8"/>
</g>
<defs>
<filter id="filter0_d_672_3604" x="0.22168" y="0.791992" width="87.5498" height="52.8037" filterUnits="userSpaceOnUse" color-interpolation-filters="sRGB">
<feFlood flood-opacity="0" result="BackgroundImageFix"/>
<feColorMatrix in="SourceAlpha" type="matrix" values="0 0 0 0 0 0 0 0 0 0 0 0 0 0 0 0 0 0 127 0" result="hardAlpha"/>
<feOffset dx="2" dy="2"/>
<feGaussianBlur stdDeviation="10"/>
<feComposite in2="hardAlpha" operator="out"/>
<feColorMatrix type="matrix" values="0 0 0 0 0.983333 0 0 0 0 0.9735 0 0 0 0 0.9735 0 0 0 1 0"/>
<feBlend mode="normal" in2="BackgroundImageFix" result="effect1_dropShadow_672_3604"/>
<feBlend mode="normal" in="SourceGraphic" in2="effect1_dropShadow_672_3604" result="shape"/>
</filter>
</defs>
</svg>
