<svg width="327" height="30" viewBox="0 0 327 30" fill="none" xmlns="http://www.w3.org/2000/svg">
<mask id="mask0_635_3826" style="mask-type:luminance" maskUnits="userSpaceOnUse" x="100" y="1" width="127" height="23">
<path d="M100.5 1.5H226.5V23.4579H100.5V1.5Z" fill="white"/>
</mask>
<g mask="url(#mask0_635_3826)">
<path d="M115.266 1.7085H211.443C212.404 1.7085 213.358 1.77718 214.304 1.9174C215.246 2.05476 216.165 2.26081 217.053 2.53267C217.944 2.80453 218.789 3.13649 219.588 3.5314C220.39 3.92632 221.131 4.37561 221.809 4.87927C222.492 5.38007 223.1 5.92665 223.635 6.51903C224.166 7.10854 224.62 7.73239 224.988 8.38772C225.356 9.04592 225.635 9.72128 225.822 10.4195C226.012 11.1149 226.105 11.8189 226.105 12.5315C226.105 13.2412 226.012 13.9452 225.822 14.6406C225.635 15.3388 225.356 16.0142 224.988 16.6724C224.62 17.3277 224.166 17.9516 223.635 18.5439C223.1 19.1334 222.492 19.68 221.809 20.1837C221.131 20.6845 220.39 21.1338 219.588 21.5287C218.789 21.9236 217.944 22.2584 217.053 22.5303C216.165 22.8021 215.246 23.0053 214.304 23.1456C213.358 23.2829 212.404 23.3516 211.443 23.3516H115.266C114.305 23.3516 113.351 23.2829 112.405 23.1456C111.463 23.0053 110.544 22.8021 109.657 22.5303C108.765 22.2584 107.92 21.9236 107.121 21.5287C106.319 21.1338 105.578 20.6845 104.9 20.1837C104.218 19.68 103.609 19.1334 103.074 18.5439C102.539 17.9516 102.089 17.3277 101.721 16.6724C101.353 16.0142 101.074 15.3388 100.888 14.6406C100.698 13.9452 100.605 13.2412 100.605 12.5315C100.605 11.8189 100.698 11.1149 100.888 10.4195C101.074 9.72128 101.353 9.04592 101.721 8.38772C102.089 7.73239 102.539 7.10854 103.074 6.51903C103.609 5.92665 104.218 5.38007 104.9 4.87927C105.578 4.37561 106.319 3.92632 107.121 3.5314C107.92 3.13649 108.765 2.80453 109.657 2.53267C110.544 2.26081 111.463 2.05476 112.405 1.9174C113.351 1.77718 114.305 1.7085 115.266 1.7085Z" fill="#383527"/>
</g>
<mask id="mask1_635_3826" style="mask-type:luminance" maskUnits="userSpaceOnUse" x="210" y="1" width="17" height="23">
<path d="M226.5 1.5H210.317V23.299H226.5V1.5Z" fill="white"/>
</mask>
<g mask="url(#mask1_635_3826)">
<path d="M211.425 23.4128C219.611 23.4128 226.273 18.4951 226.273 12.4523C226.273 6.40947 219.611 1.4917 211.425 1.4917C211.259 1.4917 211.132 1.58829 211.132 1.70762C211.132 1.82694 211.263 1.92353 211.425 1.92353C219.288 1.92353 225.684 6.64527 225.684 12.4494C225.684 18.2564 219.288 22.9782 211.425 22.9782C211.259 22.9782 211.132 23.0748 211.132 23.1941C211.132 23.3134 211.263 23.41 211.425 23.41V23.4128Z" fill="#A37745"/>
</g>
<mask id="mask2_635_3826" style="mask-type:luminance" maskUnits="userSpaceOnUse" x="100" y="1" width="17" height="23">
<path d="M100.5 1.5H116.683V23.299H100.5V1.5Z" fill="white"/>
</mask>
<g mask="url(#mask2_635_3826)">
<path d="M115.575 23.4128C107.389 23.4128 100.727 18.4951 100.727 12.4523C100.727 6.40947 107.389 1.4917 115.575 1.4917C115.741 1.4917 115.868 1.58829 115.868 1.70762C115.868 1.82694 115.737 1.92353 115.575 1.92353C107.712 1.92353 101.316 6.64527 101.316 12.4494C101.316 18.2564 107.712 22.9782 115.575 22.9782C115.741 22.9782 115.868 23.0748 115.868 23.1941C115.868 23.3134 115.737 23.41 115.575 23.41V23.4128Z" fill="#A37745"/>
</g>
<g filter="url(#filter0_d_635_3826)">
<path d="M142.436 17.3682C142.367 17.3584 142.265 17.3828 142.128 17.4414C142.001 17.5 141.884 17.5488 141.776 17.5879C141.669 17.6172 141.552 17.6514 141.425 17.6904C141.298 17.7295 141.176 17.7441 141.059 17.7344C140.98 17.7246 140.907 17.7002 140.839 17.6611C140.771 17.6318 140.707 17.6221 140.648 17.6318C140.6 17.6318 140.556 17.6514 140.517 17.6904C140.478 17.7295 140.429 17.7588 140.37 17.7783C140.263 17.8174 140.136 17.8467 139.989 17.8662C139.843 17.8955 139.701 17.9053 139.564 17.8955C139.428 17.8857 139.315 17.8467 139.228 17.7783C139.149 17.7197 139.125 17.6221 139.154 17.4854C139.174 17.3975 139.208 17.3096 139.257 17.2217C139.315 17.124 139.369 17.0166 139.418 16.8994C139.496 16.6943 139.555 16.4795 139.594 16.2549C139.633 16.0205 139.687 15.835 139.755 15.6982C139.794 15.6201 139.853 15.5469 139.931 15.4785C140.009 15.4102 140.053 15.3369 140.062 15.2588C140.072 15.2002 140.062 15.1514 140.033 15.1123C140.004 15.0732 139.989 15.0195 139.989 14.9512C139.989 14.9023 139.999 14.8535 140.019 14.8047C140.048 14.7461 140.067 14.6777 140.077 14.5996C140.087 14.5215 140.087 14.4531 140.077 14.3945C140.067 14.3262 140.072 14.2676 140.092 14.2188C140.111 14.1602 140.141 14.1064 140.18 14.0576C140.219 13.999 140.258 13.9453 140.297 13.8965C140.346 13.8379 140.385 13.7744 140.414 13.7061C140.443 13.6377 140.458 13.5596 140.458 13.4717C140.458 13.4229 140.473 13.3447 140.502 13.2373C140.531 13.1201 140.541 13.0322 140.531 12.9736C140.502 12.7686 140.502 12.5977 140.531 12.4609C140.57 12.3242 140.614 12.2021 140.663 12.0947C140.722 11.9775 140.78 11.8604 140.839 11.7432C140.907 11.626 140.956 11.4844 140.985 11.3184C141.024 11.1133 141.054 10.8984 141.073 10.6738C141.093 10.4492 141.127 10.249 141.176 10.0732C141.234 9.8877 141.317 9.74121 141.425 9.63379C141.542 9.52637 141.718 9.4873 141.952 9.5166C142.05 9.63379 142.113 9.74609 142.143 9.85352C142.182 9.96094 142.235 10.083 142.304 10.2197C142.333 10.2979 142.411 10.3662 142.538 10.4248C142.665 10.4834 142.753 10.5469 142.802 10.6152C142.851 10.6738 142.904 10.7373 142.963 10.8057C143.031 10.8643 143.075 10.9277 143.095 10.9961C143.124 11.123 143.129 11.2695 143.109 11.4355C143.1 11.6016 143.09 11.7529 143.08 11.8896C143.07 11.9678 143.061 12.0508 143.051 12.1387C143.041 12.2168 143.026 12.2852 143.007 12.3438C142.987 12.4121 142.963 12.4707 142.934 12.5195C142.914 12.5684 142.899 12.6172 142.89 12.666C142.87 12.7637 142.855 12.8516 142.846 12.9297C142.846 12.998 142.836 13.0664 142.816 13.1348C142.768 13.2812 142.694 13.4082 142.597 13.5156C142.509 13.623 142.44 13.75 142.392 13.8965C142.362 13.9648 142.338 14.043 142.318 14.1309C142.309 14.2188 142.294 14.3018 142.274 14.3799C142.216 14.5947 142.152 14.8389 142.084 15.1123C142.016 15.3857 141.991 15.6494 142.011 15.9033C142.089 15.8838 142.157 15.8691 142.216 15.8594C142.274 15.8496 142.328 15.8447 142.377 15.8447C142.426 15.835 142.479 15.835 142.538 15.8447C142.606 15.8545 142.689 15.8691 142.787 15.8887C142.934 15.9277 143.095 15.9766 143.271 16.0352C143.446 16.0938 143.627 16.1328 143.812 16.1523C143.949 16.1621 144.086 16.1621 144.223 16.1523C144.369 16.1426 144.511 16.1475 144.647 16.167C144.784 16.1865 144.911 16.2109 145.028 16.2402C145.155 16.2598 145.272 16.2598 145.38 16.2402C145.429 16.2207 145.463 16.2061 145.482 16.1963C145.512 16.1768 145.546 16.1621 145.585 16.1523C145.741 16.123 145.922 16.1279 146.127 16.167C146.332 16.1963 146.522 16.2207 146.698 16.2402C146.728 16.2402 146.771 16.2402 146.83 16.2402C146.889 16.2305 146.947 16.2305 147.006 16.2402C147.064 16.2402 147.113 16.2549 147.152 16.2842C147.191 16.3135 147.211 16.3574 147.211 16.416C147.201 16.5039 147.133 16.5723 147.006 16.6211C146.889 16.6699 146.791 16.7041 146.713 16.7236C146.596 16.7529 146.483 16.7676 146.376 16.7676C146.278 16.7676 146.171 16.7822 146.054 16.8115C145.946 16.8408 145.849 16.8799 145.761 16.9287C145.683 16.9678 145.6 16.9971 145.512 17.0166C145.482 17.0361 145.453 17.0459 145.424 17.0459C145.395 17.0361 145.36 17.0361 145.321 17.0459C145.263 17.0654 145.194 17.0996 145.116 17.1484C145.038 17.1875 144.975 17.2119 144.926 17.2217C144.75 17.2607 144.56 17.251 144.354 17.1924C144.159 17.1338 143.959 17.1143 143.754 17.1338C143.676 17.1436 143.598 17.1631 143.52 17.1924C143.441 17.2119 143.363 17.2314 143.285 17.251C143.207 17.2705 143.129 17.2852 143.051 17.2949C142.973 17.3047 142.904 17.3193 142.846 17.3389L142.436 17.3682ZM154.55 11.1133C154.647 11.3086 154.721 11.4893 154.77 11.6553C154.818 11.8213 154.857 12.0459 154.887 12.3291C154.906 12.5244 154.926 12.7002 154.945 12.8564C154.975 13.0029 154.979 13.1885 154.96 13.4131C154.95 13.5693 154.926 13.7354 154.887 13.9111C154.848 14.0771 154.799 14.2334 154.74 14.3799C154.652 14.6436 154.569 14.873 154.491 15.0684C154.413 15.2637 154.32 15.4736 154.213 15.6982C154.145 15.8252 154.076 15.9277 154.008 16.0059C153.939 16.084 153.866 16.167 153.788 16.2549C153.769 16.2842 153.749 16.3184 153.729 16.3574C153.72 16.3965 153.7 16.4307 153.671 16.46C153.544 16.6064 153.368 16.7578 153.144 16.9141C152.929 17.0703 152.729 17.1826 152.543 17.251C152.475 17.2705 152.401 17.2852 152.323 17.2949C152.255 17.2949 152.182 17.3047 152.104 17.3242C152.006 17.3633 151.923 17.4219 151.854 17.5C151.786 17.5684 151.698 17.6172 151.591 17.6465C151.532 17.666 151.459 17.6807 151.371 17.6904C151.293 17.71 151.215 17.7295 151.137 17.749C150.941 17.7979 150.697 17.8467 150.404 17.8955C150.121 17.9443 149.857 17.9395 149.613 17.8809C149.574 17.8711 149.535 17.8516 149.496 17.8223C149.457 17.793 149.413 17.7686 149.364 17.749C149.315 17.7295 149.267 17.7148 149.218 17.7051C149.169 17.6953 149.125 17.6807 149.086 17.6611C148.959 17.6123 148.837 17.5439 148.72 17.4561C148.603 17.3682 148.48 17.2998 148.354 17.251C148.217 17.1729 148.08 17.1045 147.943 17.0459C147.807 16.9775 147.714 16.8604 147.665 16.6943C147.499 16.6455 147.382 16.5332 147.313 16.3574C147.245 16.1816 147.162 16.0254 147.064 15.8887C147.035 15.8398 146.991 15.8008 146.933 15.7715C146.884 15.7324 146.85 15.6885 146.83 15.6396C146.762 15.5322 146.708 15.3613 146.669 15.127C146.63 14.8828 146.605 14.6777 146.596 14.5117C146.586 14.3359 146.596 14.1699 146.625 14.0137C146.664 13.8477 146.703 13.6865 146.742 13.5303C146.791 13.374 146.84 13.2227 146.889 13.0762C146.947 12.9297 146.996 12.7881 147.035 12.6514C147.074 12.4854 147.147 12.3535 147.255 12.2559C147.362 12.1582 147.465 12.0508 147.562 11.9336C147.602 11.8945 147.631 11.8506 147.65 11.8018C147.67 11.7529 147.699 11.7041 147.738 11.6553C147.816 11.5576 147.904 11.4746 148.002 11.4062C148.1 11.3281 148.192 11.25 148.28 11.1719C148.378 11.0938 148.48 11.0205 148.588 10.9521C148.695 10.874 148.783 10.7959 148.852 10.7178C148.93 10.6104 148.988 10.5029 149.027 10.3955C149.076 10.2881 149.149 10.1953 149.247 10.1172C149.354 10.0293 149.472 9.96582 149.599 9.92676C149.735 9.8877 149.892 9.84375 150.067 9.79492C150.233 9.75586 150.395 9.70215 150.551 9.63379C150.717 9.55566 150.893 9.50684 151.078 9.4873C151.254 9.46777 151.444 9.45801 151.649 9.45801C151.854 9.44824 152.055 9.45312 152.25 9.47266C152.455 9.49219 152.646 9.52637 152.821 9.5752C153.007 9.62402 153.168 9.69238 153.305 9.78027C153.373 9.81934 153.441 9.87793 153.51 9.95605C153.588 10.0342 153.661 10.1074 153.729 10.1758C153.886 10.332 154.018 10.4932 154.125 10.6592C154.242 10.8154 154.384 10.9668 154.55 11.1133ZM151.356 10.4541C151.317 10.4541 151.259 10.4688 151.181 10.498C151.112 10.5273 151.039 10.5615 150.961 10.6006C150.893 10.6299 150.829 10.6641 150.771 10.7031C150.712 10.7422 150.668 10.7715 150.639 10.791C150.521 10.8984 150.414 11.0352 150.316 11.2012C150.229 11.3574 150.126 11.499 150.009 11.626C149.96 11.6748 149.906 11.7139 149.848 11.7432C149.799 11.7627 149.76 11.792 149.73 11.8311C149.564 12.0166 149.442 12.2314 149.364 12.4756C149.296 12.7197 149.223 12.9541 149.145 13.1787C149.057 13.4131 148.974 13.6768 148.896 13.9697C148.817 14.2627 148.793 14.541 148.822 14.8047C148.832 14.8633 148.852 14.9414 148.881 15.0391C148.92 15.127 148.954 15.21 148.983 15.2881C149.022 15.376 149.057 15.4639 149.086 15.5518C149.125 15.6299 149.164 15.7031 149.203 15.7715C149.262 15.8887 149.335 16.0156 149.423 16.1523C149.521 16.2793 149.628 16.3916 149.745 16.4893C149.872 16.5771 150.009 16.6455 150.155 16.6943C150.312 16.7334 150.478 16.7285 150.653 16.6797C150.761 16.6406 150.893 16.582 151.049 16.5039C151.205 16.416 151.347 16.333 151.474 16.2549C151.659 16.1377 151.791 16.0205 151.869 15.9033C151.947 15.7764 152.025 15.6152 152.104 15.4199C152.123 15.3711 152.147 15.3271 152.177 15.2881C152.216 15.2393 152.25 15.1904 152.279 15.1416C152.338 15.0342 152.387 14.917 152.426 14.79C152.465 14.6631 152.514 14.541 152.572 14.4238C152.689 14.1602 152.763 13.9062 152.792 13.6621C152.821 13.418 152.846 13.125 152.865 12.7832C152.875 12.5977 152.86 12.4609 152.821 12.373C152.792 12.2852 152.768 12.1631 152.748 12.0068C152.738 11.8994 152.733 11.8018 152.733 11.7139C152.733 11.6162 152.714 11.5332 152.675 11.4648C152.626 11.377 152.533 11.3184 152.396 11.2891C152.27 11.2598 152.167 11.2061 152.089 11.1279C152.011 11.001 151.928 10.8789 151.84 10.7617C151.752 10.6445 151.645 10.5469 151.518 10.4688C151.469 10.4785 151.435 10.4785 151.415 10.4688C151.396 10.459 151.376 10.4541 151.356 10.4541ZM163.588 9.86816C163.568 9.96582 163.534 10.0488 163.485 10.1172C163.446 10.1855 163.402 10.2588 163.354 10.3369C163.178 10.376 163.012 10.4541 162.855 10.5713C162.709 10.6787 162.538 10.7422 162.343 10.7617C162.304 10.7617 162.265 10.7568 162.226 10.7471C162.196 10.7275 162.162 10.7178 162.123 10.7178C162.006 10.708 161.874 10.7129 161.728 10.7324C161.591 10.752 161.454 10.7715 161.317 10.791C161.132 10.8105 160.976 10.8545 160.849 10.9229C160.722 10.9912 160.575 11.0449 160.409 11.084C160.028 11.1816 159.687 11.3232 159.384 11.5088C159.091 11.6846 158.861 11.9287 158.695 12.2412C158.617 12.3877 158.534 12.5586 158.446 12.7539C158.368 12.9395 158.251 13.0908 158.095 13.208C158.144 13.3154 158.158 13.4131 158.139 13.501C158.129 13.5889 158.104 13.6719 158.065 13.75C158.036 13.8184 157.997 13.8916 157.948 13.9697C157.909 14.0381 157.88 14.1064 157.86 14.1748C157.841 14.2139 157.831 14.2578 157.831 14.3066C157.841 14.3555 157.841 14.4043 157.831 14.4531C157.782 14.7656 157.802 15.0586 157.89 15.332C157.978 15.5957 158.144 15.7812 158.388 15.8887C158.544 15.9668 158.695 16.0107 158.842 16.0205C158.988 16.0303 159.169 16.0254 159.384 16.0059C159.608 15.9863 159.853 15.9717 160.116 15.9619C160.38 15.9521 160.585 15.8936 160.731 15.7861C160.81 15.7275 160.868 15.6494 160.907 15.5518C160.946 15.4541 161.005 15.3564 161.083 15.2588C161.161 15.1514 161.225 15.0244 161.273 14.8779C161.322 14.7217 161.342 14.5801 161.332 14.4531C161.322 14.3848 161.273 14.3164 161.186 14.248C161.107 14.1797 161.039 14.1357 160.98 14.1162C160.912 14.0869 160.839 14.0723 160.761 14.0723C160.692 14.0625 160.624 14.0527 160.556 14.043C160.497 14.0234 160.443 13.999 160.395 13.9697C160.355 13.9404 160.336 13.8867 160.336 13.8086C160.336 13.7109 160.399 13.6426 160.526 13.6035C160.663 13.5547 160.824 13.5254 161.01 13.5156C161.195 13.4961 161.386 13.4863 161.581 13.4863C161.786 13.4863 161.947 13.4766 162.064 13.457C162.211 13.4277 162.362 13.3643 162.519 13.2666C162.685 13.1689 162.851 13.125 163.017 13.1348C163.114 13.1348 163.188 13.1396 163.236 13.1494C163.285 13.1592 163.324 13.1738 163.354 13.1934C163.383 13.2129 163.407 13.2422 163.427 13.2812C163.456 13.3105 163.485 13.3496 163.515 13.3984C163.573 13.6133 163.583 13.8086 163.544 13.9844C163.505 14.1504 163.446 14.3164 163.368 14.4824C163.339 14.5703 163.319 14.6631 163.31 14.7607C163.31 14.8486 163.3 14.9316 163.28 15.0098C163.261 15.0879 163.217 15.1709 163.148 15.2588C163.09 15.3467 163.031 15.4443 162.973 15.5518C162.924 15.6592 162.88 15.7715 162.841 15.8887C162.812 16.0059 162.772 16.1182 162.724 16.2256C162.704 16.2549 162.68 16.2842 162.65 16.3135C162.631 16.333 162.611 16.3623 162.592 16.4014C162.543 16.5088 162.514 16.6162 162.504 16.7236C162.494 16.8213 162.47 16.9092 162.431 16.9873C162.372 17.1729 162.279 17.334 162.152 17.4707C162.035 17.6074 161.933 17.7441 161.845 17.8809C161.776 17.9004 161.713 17.9102 161.654 17.9102C161.596 17.9199 161.542 17.9297 161.493 17.9395C161.444 17.959 161.415 17.9443 161.405 17.8955C161.405 17.8467 161.386 17.8125 161.347 17.793C161.239 17.8711 161.117 17.9541 160.98 18.042C160.854 18.1299 160.707 18.1445 160.541 18.0859C160.521 17.9785 160.526 17.8809 160.556 17.793C160.585 17.7148 160.619 17.6367 160.658 17.5586C160.707 17.4902 160.756 17.4219 160.805 17.3535C160.854 17.2852 160.888 17.207 160.907 17.1191C160.771 17.1387 160.639 17.1973 160.512 17.2949C160.385 17.3926 160.248 17.4658 160.102 17.5146C160.053 17.5342 159.994 17.5342 159.926 17.5146C159.867 17.5049 159.804 17.5098 159.735 17.5293C159.491 17.5684 159.223 17.627 158.93 17.7051C158.637 17.7832 158.373 17.7979 158.139 17.749C158.08 17.7393 158.031 17.7148 157.992 17.6758C157.963 17.6465 157.924 17.6172 157.875 17.5879C157.768 17.5293 157.646 17.4902 157.509 17.4707C157.372 17.4512 157.25 17.4219 157.143 17.3828C156.957 17.3242 156.806 17.2314 156.688 17.1045C156.571 16.9678 156.459 16.8506 156.352 16.7529C156.342 16.6748 156.312 16.6064 156.264 16.5479C156.215 16.4795 156.156 16.4209 156.088 16.3721C156.029 16.3135 155.971 16.2598 155.912 16.2109C155.854 16.1523 155.81 16.0889 155.78 16.0205C155.751 15.9424 155.731 15.8545 155.722 15.7568C155.722 15.6592 155.707 15.5615 155.678 15.4639C155.639 15.3076 155.595 15.1709 155.546 15.0537C155.507 14.9268 155.473 14.8047 155.443 14.6875C155.424 14.5605 155.414 14.4287 155.414 14.292C155.414 14.1553 155.438 13.999 155.487 13.8232C155.546 13.6572 155.614 13.4814 155.692 13.2959C155.771 13.1104 155.844 12.9395 155.912 12.7832C156.029 12.5391 156.176 12.2852 156.352 12.0215C156.459 11.8652 156.562 11.7334 156.659 11.626C156.757 11.5088 156.859 11.3916 156.967 11.2744C157.143 11.0693 157.372 10.8789 157.655 10.7031C157.948 10.5176 158.231 10.3564 158.505 10.2197C158.739 10.1123 159.003 10.0049 159.296 9.89746C159.599 9.79004 159.916 9.72656 160.248 9.70703C160.541 9.67773 160.829 9.69238 161.112 9.75098C161.396 9.80957 161.679 9.84863 161.962 9.86816C162.128 9.87793 162.309 9.8877 162.504 9.89746C162.699 9.89746 162.88 9.87793 163.046 9.83887C163.095 9.8291 163.144 9.81934 163.192 9.80957C163.241 9.79004 163.285 9.77539 163.324 9.76562C163.373 9.75586 163.417 9.76074 163.456 9.78027C163.505 9.79004 163.549 9.81934 163.588 9.86816ZM172.216 11.1133C172.313 11.3086 172.387 11.4893 172.436 11.6553C172.484 11.8213 172.523 12.0459 172.553 12.3291C172.572 12.5244 172.592 12.7002 172.611 12.8564C172.641 13.0029 172.646 13.1885 172.626 13.4131C172.616 13.5693 172.592 13.7354 172.553 13.9111C172.514 14.0771 172.465 14.2334 172.406 14.3799C172.318 14.6436 172.235 14.873 172.157 15.0684C172.079 15.2637 171.986 15.4736 171.879 15.6982C171.811 15.8252 171.742 15.9277 171.674 16.0059C171.605 16.084 171.532 16.167 171.454 16.2549C171.435 16.2842 171.415 16.3184 171.396 16.3574C171.386 16.3965 171.366 16.4307 171.337 16.46C171.21 16.6064 171.034 16.7578 170.81 16.9141C170.595 17.0703 170.395 17.1826 170.209 17.251C170.141 17.2705 170.067 17.2852 169.989 17.2949C169.921 17.2949 169.848 17.3047 169.77 17.3242C169.672 17.3633 169.589 17.4219 169.521 17.5C169.452 17.5684 169.364 17.6172 169.257 17.6465C169.198 17.666 169.125 17.6807 169.037 17.6904C168.959 17.71 168.881 17.7295 168.803 17.749C168.607 17.7979 168.363 17.8467 168.07 17.8955C167.787 17.9443 167.523 17.9395 167.279 17.8809C167.24 17.8711 167.201 17.8516 167.162 17.8223C167.123 17.793 167.079 17.7686 167.03 17.749C166.981 17.7295 166.933 17.7148 166.884 17.7051C166.835 17.6953 166.791 17.6807 166.752 17.6611C166.625 17.6123 166.503 17.5439 166.386 17.4561C166.269 17.3682 166.146 17.2998 166.02 17.251C165.883 17.1729 165.746 17.1045 165.609 17.0459C165.473 16.9775 165.38 16.8604 165.331 16.6943C165.165 16.6455 165.048 16.5332 164.979 16.3574C164.911 16.1816 164.828 16.0254 164.73 15.8887C164.701 15.8398 164.657 15.8008 164.599 15.7715C164.55 15.7324 164.516 15.6885 164.496 15.6396C164.428 15.5322 164.374 15.3613 164.335 15.127C164.296 14.8828 164.271 14.6777 164.262 14.5117C164.252 14.3359 164.262 14.1699 164.291 14.0137C164.33 13.8477 164.369 13.6865 164.408 13.5303C164.457 13.374 164.506 13.2227 164.555 13.0762C164.613 12.9297 164.662 12.7881 164.701 12.6514C164.74 12.4854 164.813 12.3535 164.921 12.2559C165.028 12.1582 165.131 12.0508 165.229 11.9336C165.268 11.8945 165.297 11.8506 165.316 11.8018C165.336 11.7529 165.365 11.7041 165.404 11.6553C165.482 11.5576 165.57 11.4746 165.668 11.4062C165.766 11.3281 165.858 11.25 165.946 11.1719C166.044 11.0938 166.146 11.0205 166.254 10.9521C166.361 10.874 166.449 10.7959 166.518 10.7178C166.596 10.6104 166.654 10.5029 166.693 10.3955C166.742 10.2881 166.815 10.1953 166.913 10.1172C167.021 10.0293 167.138 9.96582 167.265 9.92676C167.401 9.8877 167.558 9.84375 167.733 9.79492C167.899 9.75586 168.061 9.70215 168.217 9.63379C168.383 9.55566 168.559 9.50684 168.744 9.4873C168.92 9.46777 169.11 9.45801 169.315 9.45801C169.521 9.44824 169.721 9.45312 169.916 9.47266C170.121 9.49219 170.312 9.52637 170.487 9.5752C170.673 9.62402 170.834 9.69238 170.971 9.78027C171.039 9.81934 171.107 9.87793 171.176 9.95605C171.254 10.0342 171.327 10.1074 171.396 10.1758C171.552 10.332 171.684 10.4932 171.791 10.6592C171.908 10.8154 172.05 10.9668 172.216 11.1133ZM169.022 10.4541C168.983 10.4541 168.925 10.4688 168.847 10.498C168.778 10.5273 168.705 10.5615 168.627 10.6006C168.559 10.6299 168.495 10.6641 168.437 10.7031C168.378 10.7422 168.334 10.7715 168.305 10.791C168.188 10.8984 168.08 11.0352 167.982 11.2012C167.895 11.3574 167.792 11.499 167.675 11.626C167.626 11.6748 167.572 11.7139 167.514 11.7432C167.465 11.7627 167.426 11.792 167.396 11.8311C167.23 12.0166 167.108 12.2314 167.03 12.4756C166.962 12.7197 166.889 12.9541 166.811 13.1787C166.723 13.4131 166.64 13.6768 166.562 13.9697C166.483 14.2627 166.459 14.541 166.488 14.8047C166.498 14.8633 166.518 14.9414 166.547 15.0391C166.586 15.127 166.62 15.21 166.649 15.2881C166.688 15.376 166.723 15.4639 166.752 15.5518C166.791 15.6299 166.83 15.7031 166.869 15.7715C166.928 15.8887 167.001 16.0156 167.089 16.1523C167.187 16.2793 167.294 16.3916 167.411 16.4893C167.538 16.5771 167.675 16.6455 167.821 16.6943C167.978 16.7334 168.144 16.7285 168.319 16.6797C168.427 16.6406 168.559 16.582 168.715 16.5039C168.871 16.416 169.013 16.333 169.14 16.2549C169.325 16.1377 169.457 16.0205 169.535 15.9033C169.613 15.7764 169.691 15.6152 169.77 15.4199C169.789 15.3711 169.813 15.3271 169.843 15.2881C169.882 15.2393 169.916 15.1904 169.945 15.1416C170.004 15.0342 170.053 14.917 170.092 14.79C170.131 14.6631 170.18 14.541 170.238 14.4238C170.355 14.1602 170.429 13.9062 170.458 13.6621C170.487 13.418 170.512 13.125 170.531 12.7832C170.541 12.5977 170.526 12.4609 170.487 12.373C170.458 12.2852 170.434 12.1631 170.414 12.0068C170.404 11.8994 170.399 11.8018 170.399 11.7139C170.399 11.6162 170.38 11.5332 170.341 11.4648C170.292 11.377 170.199 11.3184 170.062 11.2891C169.936 11.2598 169.833 11.2061 169.755 11.1279C169.677 11.001 169.594 10.8789 169.506 10.7617C169.418 10.6445 169.311 10.5469 169.184 10.4688C169.135 10.4785 169.101 10.4785 169.081 10.4688C169.062 10.459 169.042 10.4541 169.022 10.4541ZM180.155 9.26758C180.233 9.28711 180.272 9.3457 180.272 9.44336C180.272 9.53125 180.292 9.59961 180.331 9.64844C180.429 9.58984 180.551 9.53125 180.697 9.47266C180.844 9.4043 181.01 9.38477 181.195 9.41406C181.244 9.53125 181.269 9.64355 181.269 9.75098C181.269 9.84863 181.259 9.94629 181.239 10.0439C181.22 10.1416 181.195 10.2441 181.166 10.3516C181.137 10.4492 181.112 10.5566 181.093 10.6738C181.073 10.8691 181.049 11.0205 181.02 11.1279C180.99 11.2354 180.956 11.3623 180.917 11.5088C180.868 11.665 180.829 11.8213 180.8 11.9775C180.78 12.124 180.756 12.2656 180.727 12.4023C180.697 12.5391 180.658 12.666 180.609 12.7832C180.561 12.8906 180.487 12.9883 180.39 13.0762C180.399 13.4766 180.351 13.8818 180.243 14.292C180.146 14.7021 180.028 15.0684 179.892 15.3906C179.853 15.4785 179.818 15.5713 179.789 15.6689C179.77 15.7666 179.745 15.8496 179.716 15.918C179.687 15.9766 179.647 16.0352 179.599 16.0938C179.56 16.1426 179.516 16.1963 179.467 16.2549C179.33 16.5088 179.184 16.748 179.027 16.9727C178.881 17.1875 178.671 17.3486 178.397 17.4561C178.319 17.4854 178.246 17.5098 178.178 17.5293C178.119 17.5488 178.056 17.5781 177.987 17.6172C177.899 17.666 177.782 17.7344 177.636 17.8223C177.499 17.9102 177.367 17.959 177.24 17.9688C177.172 17.9688 177.094 17.9541 177.006 17.9248C176.918 17.8955 176.835 17.8809 176.757 17.8809C176.669 17.8809 176.571 17.8857 176.464 17.8955C176.366 17.915 176.269 17.9248 176.171 17.9248C176.083 17.9248 176 17.915 175.922 17.8955C175.844 17.876 175.78 17.8271 175.731 17.749C175.614 17.7295 175.507 17.7539 175.409 17.8223C175.312 17.8906 175.209 17.9248 175.102 17.9248C174.984 17.915 174.882 17.8711 174.794 17.793C174.716 17.7148 174.623 17.6514 174.516 17.6025C174.447 17.6416 174.384 17.6562 174.325 17.6465C174.267 17.6465 174.203 17.6562 174.135 17.6758C174.076 17.6367 174.018 17.6074 173.959 17.5879C173.9 17.5781 173.842 17.5537 173.783 17.5146C173.676 17.4268 173.593 17.3145 173.534 17.1777C173.485 17.0312 173.441 16.8799 173.402 16.7236C173.363 16.5576 173.319 16.4014 173.271 16.2549C173.231 16.0986 173.168 15.9668 173.08 15.8594C173.109 15.6543 173.153 15.4639 173.212 15.2881C173.271 15.1123 173.334 14.9414 173.402 14.7754C173.432 14.6582 173.446 14.5312 173.446 14.3945C173.456 14.248 173.461 14.1064 173.461 13.9697C173.471 13.8232 173.485 13.6816 173.505 13.5449C173.524 13.3984 173.559 13.2666 173.607 13.1494C173.627 13.1006 173.671 13.0518 173.739 13.0029C173.808 12.9443 173.856 12.8906 173.886 12.8418C173.915 12.7637 173.939 12.6758 173.959 12.5781C173.979 12.4707 173.998 12.3779 174.018 12.2998C174.037 12.1729 174.057 12.0166 174.076 11.8311C174.096 11.6455 174.11 11.4844 174.12 11.3477C174.14 11.0938 174.169 10.8545 174.208 10.6299C174.257 10.3955 174.369 10.2295 174.545 10.1318C174.691 10.0928 174.823 10.0391 174.94 9.9707C175.067 9.90234 175.233 9.8877 175.438 9.92676C175.487 9.93652 175.546 9.95605 175.614 9.98535C175.692 10.0049 175.761 10.0244 175.819 10.0439C175.956 10.083 176.063 10.1172 176.142 10.1465C176.229 10.166 176.283 10.2588 176.303 10.4248C176.312 10.4736 176.308 10.5566 176.288 10.6738C176.269 10.7812 176.244 10.874 176.215 10.9521C176.195 11.001 176.166 11.0449 176.127 11.084C176.088 11.123 176.059 11.167 176.039 11.2158C176.02 11.2451 176.01 11.2793 176.01 11.3184C176.02 11.3574 176.015 11.3916 175.995 11.4209C175.976 11.4697 175.937 11.5479 175.878 11.6553C175.819 11.7627 175.78 11.8408 175.761 11.8896C175.702 11.9971 175.653 12.1094 175.614 12.2266C175.575 12.3438 175.531 12.4707 175.482 12.6074C175.424 12.7734 175.355 12.959 175.277 13.1641C175.199 13.3691 175.136 13.5742 175.087 13.7793C175.048 13.9844 175.028 14.1797 175.028 14.3652C175.028 14.541 175.014 14.7217 174.984 14.9072C174.965 14.9854 174.94 15.0586 174.911 15.127C174.882 15.1953 174.877 15.2832 174.896 15.3906C174.789 15.498 174.755 15.6055 174.794 15.7129C174.833 15.8203 174.892 15.9326 174.97 16.0498C175.028 16.1084 175.092 16.1768 175.16 16.2549C175.229 16.333 175.307 16.4062 175.395 16.4746C175.482 16.543 175.585 16.5967 175.702 16.6357C175.819 16.665 175.951 16.6699 176.098 16.6504C176.195 16.6309 176.298 16.5918 176.405 16.5332C176.513 16.4746 176.61 16.4209 176.698 16.3721C176.894 16.2939 177.064 16.1963 177.211 16.0791C177.357 15.9521 177.465 15.791 177.533 15.5957C177.572 15.498 177.592 15.4053 177.592 15.3174C177.602 15.2197 177.602 15.127 177.592 15.0391C177.592 14.9414 177.592 14.8438 177.592 14.7461C177.602 14.6387 177.631 14.5264 177.68 14.4092C177.729 14.3018 177.802 14.2041 177.899 14.1162C177.997 14.0283 178.061 13.9258 178.09 13.8086C178.109 13.75 178.109 13.6963 178.09 13.6475C178.08 13.5889 178.075 13.5303 178.075 13.4717C178.075 13.335 178.095 13.1982 178.134 13.0615C178.173 12.9248 178.217 12.7881 178.266 12.6514C178.324 12.5049 178.373 12.3633 178.412 12.2266C178.461 12.0898 178.49 11.9531 178.5 11.8164C178.51 11.6895 178.52 11.582 178.529 11.4941C178.539 11.4062 178.549 11.3281 178.559 11.2598C178.578 11.1816 178.598 11.1084 178.617 11.04C178.637 10.9619 178.671 10.874 178.72 10.7764C178.769 10.6885 178.812 10.5957 178.852 10.498C178.891 10.3906 178.92 10.2588 178.939 10.1025C178.959 10.0537 178.969 9.99512 178.969 9.92676C178.969 9.84863 178.983 9.78027 179.013 9.72168C179.052 9.63379 179.115 9.56543 179.203 9.5166C179.291 9.45801 179.389 9.41406 179.496 9.38477C179.604 9.35547 179.716 9.33594 179.833 9.32617C179.95 9.30664 180.058 9.28711 180.155 9.26758ZM189.208 9.83887C189.188 9.99512 189.13 10.0928 189.032 10.1318C188.944 10.1709 188.852 10.2148 188.754 10.2637C188.686 10.3125 188.637 10.376 188.607 10.4541C188.578 10.5322 188.539 10.5908 188.49 10.6299C188.441 10.6787 188.368 10.7178 188.271 10.7471C188.183 10.7666 188.109 10.7861 188.051 10.8057C187.885 10.8545 187.709 10.8789 187.523 10.8789C187.348 10.8789 187.191 10.8887 187.055 10.9082C186.977 10.9277 186.898 10.9717 186.82 11.04C186.742 11.1084 186.659 11.1621 186.571 11.2012C186.483 11.2305 186.415 11.2549 186.366 11.2744C186.317 11.2939 186.273 11.3184 186.234 11.3477C186.205 11.377 186.176 11.416 186.146 11.4648C186.117 11.5039 186.078 11.5625 186.029 11.6406C185.98 11.7285 185.956 11.8555 185.956 12.0215C185.956 12.1875 185.941 12.3242 185.912 12.4316C185.883 12.5195 185.849 12.6221 185.81 12.7393C185.78 12.8564 185.746 12.9834 185.707 13.1201C185.688 13.1982 185.678 13.2861 185.678 13.3838C185.678 13.4717 185.668 13.5547 185.648 13.6328C185.619 13.7305 185.57 13.8037 185.502 13.8525C185.443 13.9014 185.399 13.9893 185.37 14.1162C185.351 14.1748 185.341 14.2383 185.341 14.3066C185.351 14.3652 185.351 14.4238 185.341 14.4824C185.302 14.7168 185.253 14.9707 185.194 15.2441C185.146 15.5176 185.097 15.7861 185.048 16.0498C184.999 16.2744 184.945 16.4893 184.887 16.6943C184.838 16.8994 184.774 17.0898 184.696 17.2656C184.618 17.2559 184.54 17.2803 184.462 17.3389C184.384 17.3877 184.306 17.4219 184.228 17.4414C184.159 17.4609 184.091 17.4707 184.022 17.4707C183.964 17.4707 183.905 17.4951 183.847 17.5439C183.778 17.6123 183.69 17.7002 183.583 17.8076C183.476 17.9248 183.383 17.9932 183.305 18.0127C183.236 18.0322 183.173 18.0322 183.114 18.0127C183.065 17.9932 183.017 17.9785 182.968 17.9688C182.89 17.9688 182.812 17.9688 182.733 17.9688C182.665 17.9785 182.582 17.9785 182.484 17.9688C182.445 17.8711 182.431 17.7637 182.44 17.6465C182.45 17.5391 182.47 17.4316 182.499 17.3242C182.538 17.2168 182.577 17.1143 182.616 17.0166C182.665 16.9092 182.699 16.8066 182.719 16.709C182.738 16.6406 182.748 16.5674 182.748 16.4893C182.758 16.4111 182.777 16.333 182.807 16.2549C182.836 16.167 182.88 16.0889 182.938 16.0205C183.007 15.9424 183.056 15.8545 183.085 15.7568C183.124 15.6494 183.173 15.5225 183.231 15.376C183.29 15.2295 183.324 15.1074 183.334 15.0098C183.354 14.8926 183.349 14.7803 183.319 14.6729C183.3 14.5654 183.31 14.4482 183.349 14.3213C183.368 14.2627 183.393 14.2139 183.422 14.1748C183.461 14.126 183.49 14.0625 183.51 13.9844C183.539 13.877 183.559 13.7646 183.568 13.6475C183.578 13.5205 183.593 13.3984 183.612 13.2812C183.632 13.1738 183.651 13.0713 183.671 12.9736C183.69 12.8662 183.715 12.7588 183.744 12.6514C183.773 12.5244 183.803 12.4072 183.832 12.2998C183.871 12.1826 183.9 12.0703 183.92 11.9629C183.949 11.8555 183.964 11.7529 183.964 11.6553C183.964 11.5479 183.935 11.4355 183.876 11.3184C183.817 11.2109 183.739 11.1328 183.642 11.084C183.544 11.0352 183.437 11.0059 183.319 10.9961C183.202 10.9863 183.075 10.9863 182.938 10.9961C182.802 11.0059 182.67 11.0107 182.543 11.0107C182.494 10.9814 182.45 10.9277 182.411 10.8496C182.372 10.7715 182.318 10.7178 182.25 10.6885C182.133 10.6494 182.001 10.6299 181.854 10.6299C181.718 10.6299 181.615 10.5762 181.547 10.4688C181.488 10.3223 181.483 10.1807 181.532 10.0439C181.591 9.90723 181.659 9.80957 181.737 9.75098C182.099 9.69238 182.475 9.69727 182.865 9.76562C183.256 9.82422 183.646 9.84863 184.037 9.83887C184.193 9.8291 184.35 9.7998 184.506 9.75098C184.662 9.70215 184.823 9.70215 184.989 9.75098C185.038 9.77051 185.121 9.80469 185.238 9.85352C185.365 9.89258 185.453 9.92188 185.502 9.94141C185.551 9.95117 185.6 9.95117 185.648 9.94141C185.697 9.93164 185.746 9.93164 185.795 9.94141C185.873 9.94141 185.946 9.95605 186.015 9.98535C186.093 10.0049 186.171 10.0146 186.249 10.0146C186.347 10.0146 186.415 10.0146 186.454 10.0146C186.503 10.0049 186.542 9.99512 186.571 9.98535C186.61 9.97559 186.649 9.96582 186.688 9.95605C186.728 9.93652 186.791 9.92188 186.879 9.91211C186.957 9.90234 187.035 9.90723 187.113 9.92676C187.191 9.94629 187.27 9.95605 187.348 9.95605C187.562 9.96582 187.768 9.94141 187.963 9.88281C188.168 9.81445 188.368 9.77051 188.563 9.75098C188.671 9.74121 188.778 9.74121 188.886 9.75098C189.003 9.75098 189.11 9.78027 189.208 9.83887Z" fill="white"/>
</g>
<defs>
<filter id="filter0_d_635_3826" x="130.11" y="0.267578" width="70.0977" height="28.9062" filterUnits="userSpaceOnUse" color-interpolation-filters="sRGB">
<feFlood flood-opacity="0" result="BackgroundImageFix"/>
<feColorMatrix in="SourceAlpha" type="matrix" values="0 0 0 0 0 0 0 0 0 0 0 0 0 0 0 0 0 0 127 0" result="hardAlpha"/>
<feOffset dx="1" dy="1"/>
<feGaussianBlur stdDeviation="5"/>
<feComposite in2="hardAlpha" operator="out"/>
<feColorMatrix type="matrix" values="0 0 0 0 1 0 0 0 0 1 0 0 0 0 1 0 0 0 0.89 0"/>
<feBlend mode="normal" in2="BackgroundImageFix" result="effect1_dropShadow_635_3826"/>
<feBlend mode="normal" in="SourceGraphic" in2="effect1_dropShadow_635_3826" result="shape"/>
</filter>
</defs>
</svg>
