<svg width="22" height="20" viewBox="0 0 22 20" fill="none" xmlns="http://www.w3.org/2000/svg">
<rect x="0.0947266" y="0.106934" width="21.2817" height="19.2549" fill="#D9D9D9"/>
<mask id="mask0_672_3251" style="mask-type:luminance" maskUnits="userSpaceOnUse" x="8" y="8" width="7" height="11">
<path d="M8.20215 8.09814H14.2902V18.607H8.20215V8.09814Z" fill="white"/>
</mask>
<g mask="url(#mask0_672_3251)">
<path d="M12.5858 8.21436H9.08008C8.96315 8.21436 8.85217 8.23536 8.74317 8.27928C8.63616 8.32129 8.54103 8.3824 8.45978 8.4626C8.37853 8.54089 8.31511 8.63255 8.26953 8.73567C8.22593 8.83879 8.20215 8.94763 8.20215 9.05839V18.3485H13.4618V9.05839C13.4618 8.94763 13.44 8.83879 13.3944 8.73567C13.3508 8.63255 13.2874 8.54089 13.2042 8.4626C13.1229 8.3824 13.0278 8.32129 12.9208 8.27928C12.8138 8.23536 12.7008 8.21436 12.5858 8.21436Z" fill="#7E5D16"/>
</g>
<mask id="mask1_672_3251" style="mask-type:luminance" maskUnits="userSpaceOnUse" x="14" y="10" width="6" height="9">
<path d="M14.29 10.6343H19.9124V18.3482H14.29V10.6343Z" fill="white"/>
</mask>
<g mask="url(#mask1_672_3251)">
<path d="M19.078 10.7573H15.5723C15.4553 10.7573 15.3424 10.7784 15.2354 10.8225C15.1283 10.8647 15.0332 10.9261 14.952 11.0047C14.8687 11.0852 14.8053 11.1772 14.7617 11.2808C14.7161 11.3843 14.6943 11.4917 14.6943 11.6048V18.3888H19.954V11.6048C19.954 11.4917 19.9322 11.3843 19.8866 11.2808C19.843 11.1772 19.7796 11.0852 19.6964 11.0047C19.6151 10.9261 19.52 10.8647 19.413 10.8225C19.3059 10.7784 19.193 10.7573 19.078 10.7573Z" fill="#7E5D16"/>
</g>
<mask id="mask2_672_3251" style="mask-type:luminance" maskUnits="userSpaceOnUse" x="2" y="10" width="6" height="9">
<path d="M2.12158 10.2412H7.7439V18.3485H2.12158V10.2412Z" fill="white"/>
</mask>
<g mask="url(#mask2_672_3251)">
<path d="M6.50528 10.2412H2.99951C2.88259 10.2412 2.76962 10.2634 2.66261 10.3097C2.55559 10.3541 2.46047 10.4186 2.37921 10.5012C2.29598 10.5858 2.23256 10.6825 2.18896 10.7914C2.14338 10.9002 2.12158 11.013 2.12158 11.1319V18.2619H7.38123V11.1319C7.38123 11.013 7.35943 10.9002 7.31385 10.7914C7.27025 10.6825 7.20683 10.5858 7.1236 10.5012C7.04235 10.4186 6.94722 10.3541 6.8402 10.3097C6.73319 10.2634 6.62023 10.2412 6.50528 10.2412Z" fill="#7E5D16"/>
</g>
<mask id="mask3_672_3251" style="mask-type:luminance" maskUnits="userSpaceOnUse" x="8" y="1" width="7" height="6">
<path d="M8.20215 1.12012H14.2902V6.57571H8.20215V1.12012Z" fill="white"/>
</mask>
<g mask="url(#mask3_672_3251)">
<path d="M11.1884 1.12012L10.3125 2.87391L8.55859 3.12955L10.0211 4.33442L9.56336 6.37952L11.1884 5.21032L12.8135 6.37952L12.3577 4.33442L13.8182 3.12955L12.0644 2.87391L11.1884 1.12012Z" fill="#7E5D16"/>
</g>
</svg>
