<svg width="180" height="45" viewBox="0 0 180 45" fill="none" xmlns="http://www.w3.org/2000/svg">
<mask id="mask0_672_2179" style="mask-type:luminance" maskUnits="userSpaceOnUse" x="6" y="0" width="169" height="35">
<path d="M6.25 0.375977H175V34.1939H6.25V0.375977Z" fill="white"/>
</mask>
<g mask="url(#mask0_672_2179)">
<path d="M175.171 15.9243V18.5828C175.171 21.009 174.107 23.3792 172.174 25.2548C170.338 27.0357 167.8 28.3025 165.001 28.8424C163.146 32.0579 159.109 34.1206 154.626 34.1206H26.7952C22.3099 34.1206 18.2753 32.0579 16.4209 28.8424C13.619 28.3025 11.0831 27.0357 9.24772 25.2548C7.31458 23.3792 6.24756 21.009 6.24756 18.5828V15.9243C6.24756 13.4982 7.31458 11.1279 9.24772 9.25237C11.0831 7.47145 13.619 6.2046 16.4209 5.66688C18.2753 2.45135 22.3099 0.388672 26.7952 0.388672H154.626C159.109 0.388672 163.146 2.45135 165.001 5.66688C167.8 6.2046 170.338 7.47145 172.174 9.25237C174.107 11.1279 175.171 13.4982 175.171 15.9243Z" fill="url(#paint0_angular_672_2179)"/>
</g>
<path d="M164.87 5.78995C163.217 2.60999 159.339 0.375977 154.82 0.375977H25.1831C20.6634 0.375977 16.7854 2.60999 15.1301 5.78995C9.34068 6.80521 5 10.987 5 15.994V18.758C5 23.765 9.34068 27.9467 15.1301 28.962C16.7854 32.1442 20.6634 34.376 25.1831 34.376H154.82C159.339 34.376 163.217 32.1442 164.87 28.962C170.662 27.9467 175 23.765 175 18.758V15.994C175 10.987 170.662 6.80521 164.87 5.78995ZM170.384 18.4896C170.384 22.5663 166.385 25.8961 161.408 26.0347C161.389 26.4015 161.325 26.7593 161.226 27.1082C160.623 29.7111 157.803 31.688 154.426 31.688H25.8716C21.9634 31.688 18.7629 29.1767 18.5949 26.0347C13.6153 25.8961 9.61886 22.5663 9.61886 18.4896V16.2623C9.61886 12.1879 13.6153 8.85585 18.5949 8.7172C18.6115 8.41754 18.6555 8.12459 18.7216 7.83835C19.2284 5.1392 22.1038 3.06619 25.5659 3.06619H154.131C158.039 3.06619 161.237 5.5775 161.408 8.7172C166.385 8.85585 170.384 12.1879 170.384 16.2623V18.4896Z" fill="#785C34"/>
<path d="M169.723 16.2632V18.4905C169.723 22.2966 165.969 25.4028 161.312 25.5012C160.962 22.6656 158.007 20.445 154.426 20.445C150.595 20.445 147.483 22.9765 147.483 26.0849V26.5813C147.061 26.6864 146.755 27.004 146.755 27.3774C146.755 27.8381 147.213 28.2115 147.783 28.2115H147.794C147.799 28.2115 147.805 28.2138 147.81 28.2138C147.827 28.2138 147.843 28.2115 147.857 28.2093C148.389 28.178 148.807 27.818 148.807 27.3774C148.807 27.0218 148.529 26.7177 148.141 26.597V26.0849C148.141 23.2716 150.958 20.9817 154.426 20.9817C157.88 20.9817 160.686 23.2627 160.686 26.067C160.686 26.3823 160.651 26.6909 160.582 26.9905C159.901 29.3721 157.268 31.1522 154.131 31.1522H25.8719C22.2197 31.1522 19.2479 28.7393 19.2452 25.7718C19.2452 25.6264 19.0992 25.5057 18.9174 25.5057C14.1526 25.5057 10.2773 22.3593 10.2773 18.4905V16.2632C10.2773 12.4594 14.0259 9.35544 18.6805 9.25481C19.0303 12.0881 21.9856 14.3065 25.5661 14.3065C29.3973 14.3065 32.5123 11.7795 32.5123 8.66891V8.16128C32.8842 8.03605 33.1458 7.73863 33.1458 7.39201C33.1458 6.99396 32.8043 6.66299 32.3471 6.57802C32.2975 6.55565 32.2424 6.54224 32.1818 6.54224C32.1405 6.54224 32.0992 6.54894 32.0634 6.56013C31.5208 6.58249 31.0911 6.94476 31.0911 7.39201C31.0911 7.77665 31.4134 8.1009 31.8513 8.19483V8.66891C31.8513 11.4844 29.031 13.772 25.5661 13.772C22.1151 13.772 19.3057 11.4911 19.3057 8.6868C19.3057 8.43187 19.3278 8.18141 19.3718 7.93766C19.9723 5.46883 22.6577 3.60156 25.8719 3.60156H154.131C157.783 3.60156 160.755 6.01448 160.755 8.98199C160.755 9.12958 160.904 9.25034 161.086 9.25034C165.848 9.25034 169.723 12.3945 169.723 16.2632Z" fill="#785C34"/>
<g filter="url(#filter0_d_672_2179)">
<path d="M48.6 13.376C48.6 13.376 49.4 13.376 51 13.376C51.56 13.376 52.1 13.596 52.62 14.036C53.14 14.456 53.4 14.836 53.4 15.176V19.376C53.4 19.716 53.14 20.106 52.62 20.546C52.1 20.966 51.56 21.176 51 21.176C51.56 21.176 52.1 21.396 52.62 21.836C53.14 22.256 53.4 22.636 53.4 22.976V24.476L53.7 24.776L52.5 25.676L50.7 24.776L51 24.476V22.976C51 22.556 50.88 22.256 50.64 22.076C50.4 21.876 50.12 21.776 49.8 21.776H48.6V24.476L48.9 24.776L47.7 25.676L45.9 24.776L46.2 24.476V14.576L45.9 14.276C46.98 13.676 47.88 13.376 48.6 13.376ZM50.64 14.876C50.4 14.676 50.12 14.576 49.8 14.576C49.48 14.576 49.2 14.676 48.96 14.876C48.72 15.056 48.6 15.356 48.6 15.776V19.376C48.6 19.796 48.72 20.106 48.96 20.306C49.2 20.486 49.48 20.576 49.8 20.576C50.12 20.576 50.4 20.486 50.64 20.306C50.88 20.106 51 19.796 51 19.376V15.776C51 15.356 50.88 15.056 50.64 14.876ZM60.9094 17.936L61.4194 18.206C60.8394 18.946 60.3194 19.436 59.8594 19.676C59.6594 19.676 59.3794 19.606 59.0194 19.466C58.6594 19.326 58.4494 19.256 58.3894 19.256C58.3494 19.256 58.2894 19.296 58.2094 19.376V22.376C58.2094 22.756 58.2394 23.026 58.2994 23.186C58.3794 23.326 58.4994 23.356 58.6594 23.276C60.2394 22.476 61.4894 22.176 62.4094 22.376C62.6894 22.436 63.0894 22.736 63.6094 23.276L62.4094 25.676L61.9594 25.376L62.1994 24.836C61.9794 24.616 61.7994 24.496 61.6594 24.476C61.1994 24.396 60.5394 24.526 59.6794 24.866C58.8194 25.206 58.3294 25.376 58.2094 25.376C57.6494 25.376 57.1094 25.166 56.5894 24.746C56.0694 24.306 55.8094 23.916 55.8094 23.576V16.076L54.9094 15.176C55.0094 15.116 55.1294 15.006 55.2694 14.846C55.4094 14.686 55.4894 14.596 55.5094 14.576C55.5494 14.616 55.6194 14.696 55.7194 14.816C55.8194 14.916 55.9494 14.936 56.1094 14.876C56.2694 14.816 56.9494 14.506 58.1494 13.946C59.3694 13.366 60.0894 13.076 60.3094 13.076C60.7294 13.176 61.1794 13.526 61.6594 14.126C62.1594 14.706 62.4094 15.156 62.4094 15.476C62.4094 15.876 61.9094 16.276 60.9094 16.676L60.4594 16.076L61.0594 15.776C61.0994 15.736 61.0694 15.636 60.9694 15.476C60.8894 15.316 60.7794 15.236 60.6394 15.236C60.4994 15.236 60.1594 15.356 59.6194 15.596C59.0994 15.816 58.7594 16.036 58.5994 16.256C58.4594 16.456 58.3594 16.616 58.2994 16.736C58.2594 16.836 58.2294 16.966 58.2094 17.126C58.1894 17.286 58.1794 17.416 58.1794 17.516C58.1794 17.596 58.1794 17.766 58.1794 18.026C58.1994 18.266 58.2094 18.456 58.2094 18.596C58.6494 18.116 59.0094 17.776 59.2894 17.576C59.4494 17.636 59.6494 17.726 59.8894 17.846C60.1294 17.966 60.2994 18.046 60.3994 18.086C60.4994 18.126 60.5694 18.146 60.6094 18.146C60.6494 18.126 60.7494 18.056 60.9094 17.936ZM69.9035 13.076C70.3235 13.176 70.7735 13.526 71.2535 14.126C71.7535 14.706 72.0035 15.156 72.0035 15.476C72.0035 15.876 71.5035 16.276 70.5035 16.676L70.0535 16.076L70.6535 15.776C70.6935 15.736 70.6635 15.636 70.5635 15.476C70.4835 15.316 70.3735 15.236 70.2335 15.236C70.0935 15.236 69.7435 15.356 69.1835 15.596C68.6235 15.836 68.2035 16.196 67.9235 16.676C67.8835 16.736 67.8535 16.796 67.8335 16.856C67.8335 16.916 67.8235 16.966 67.8035 17.006C67.8035 17.046 67.8035 17.116 67.8035 17.216V18.176L72.0035 19.976V23.576C72.0035 23.916 71.7435 24.306 71.2235 24.746C70.7035 25.166 70.1635 25.376 69.6035 25.376C69.4835 25.376 68.9935 25.206 68.1335 24.866C67.2735 24.526 66.6135 24.396 66.1535 24.476C66.0135 24.496 65.8335 24.616 65.6135 24.836L65.8535 25.376L65.4035 25.676L64.2035 23.276C64.7235 22.736 65.1235 22.436 65.4035 22.376C66.3235 22.176 67.5735 22.476 69.1535 23.276C69.3135 23.356 69.4235 23.326 69.4835 23.186C69.5635 23.026 69.6035 22.756 69.6035 22.376V20.576L65.4035 18.776V16.076L64.5035 15.176C64.6035 15.116 64.7235 15.006 64.8635 14.846C65.0035 14.686 65.0835 14.596 65.1035 14.576C65.1435 14.616 65.2135 14.696 65.3135 14.816C65.4135 14.916 65.5435 14.936 65.7035 14.876C65.8635 14.816 66.5435 14.506 67.7435 13.946C68.9635 13.366 69.6835 13.076 69.9035 13.076ZM79.5129 17.936L80.0229 18.206C79.4429 18.946 78.9229 19.436 78.4629 19.676C78.2629 19.676 77.9829 19.606 77.6229 19.466C77.2629 19.326 77.0529 19.256 76.9929 19.256C76.9529 19.256 76.8929 19.296 76.8129 19.376V22.376C76.8129 22.756 76.8429 23.026 76.9029 23.186C76.9829 23.326 77.1029 23.356 77.2629 23.276C78.8429 22.476 80.0929 22.176 81.0129 22.376C81.2929 22.436 81.6929 22.736 82.2129 23.276L81.0129 25.676L80.5629 25.376L80.8029 24.836C80.5829 24.616 80.4029 24.496 80.2629 24.476C79.8029 24.396 79.1429 24.526 78.2829 24.866C77.4229 25.206 76.9329 25.376 76.8129 25.376C76.2529 25.376 75.7129 25.166 75.1929 24.746C74.6729 24.306 74.4129 23.916 74.4129 23.576V16.076L73.5129 15.176C73.6129 15.116 73.7329 15.006 73.8729 14.846C74.0129 14.686 74.0929 14.596 74.1129 14.576C74.1529 14.616 74.2229 14.696 74.3229 14.816C74.4229 14.916 74.5529 14.936 74.7129 14.876C74.8729 14.816 75.5529 14.506 76.7529 13.946C77.9729 13.366 78.6929 13.076 78.9129 13.076C79.3329 13.176 79.7829 13.526 80.2629 14.126C80.7629 14.706 81.0129 15.156 81.0129 15.476C81.0129 15.876 80.5129 16.276 79.5129 16.676L79.0629 16.076L79.6629 15.776C79.7029 15.736 79.6729 15.636 79.5729 15.476C79.4929 15.316 79.3829 15.236 79.2429 15.236C79.1029 15.236 78.7629 15.356 78.2229 15.596C77.7029 15.816 77.3629 16.036 77.2029 16.256C77.0629 16.456 76.9629 16.616 76.9029 16.736C76.8629 16.836 76.8329 16.966 76.8129 17.126C76.7929 17.286 76.7829 17.416 76.7829 17.516C76.7829 17.596 76.7829 17.766 76.7829 18.026C76.8029 18.266 76.8129 18.456 76.8129 18.596C77.2529 18.116 77.6129 17.776 77.8929 17.576C78.0529 17.636 78.2529 17.726 78.4929 17.846C78.7329 17.966 78.9029 18.046 79.0029 18.086C79.1029 18.126 79.1729 18.146 79.2129 18.146C79.2529 18.126 79.3529 18.056 79.5129 17.936ZM85.207 13.376C85.207 13.376 85.307 13.426 85.507 13.526C86.147 13.826 86.657 13.976 87.037 13.976C87.437 13.976 88.027 13.776 88.807 13.376C89.407 13.376 89.957 13.506 90.457 13.766C90.957 14.006 91.207 14.276 91.207 14.576V16.076L91.507 16.376L90.307 17.276L88.507 16.376L88.807 16.076V14.576L88.207 14.846V24.476L88.507 24.776L87.307 25.676L85.507 24.776L85.807 24.476V14.846C85.587 14.746 85.387 14.656 85.207 14.576V16.076L85.507 16.376L84.307 17.276L82.507 16.376L82.807 16.076V14.576C82.807 14.276 83.057 14.006 83.557 13.766C84.057 13.506 84.607 13.376 85.207 13.376ZM101.392 17.576L101.422 18.776V22.376C101.422 22.756 101.452 23.026 101.512 23.186C101.592 23.326 101.712 23.356 101.872 23.276C103.452 22.476 104.702 22.176 105.622 22.376C105.902 22.436 106.302 22.736 106.822 23.276L105.622 25.676L105.172 25.376L105.412 24.836C105.192 24.616 105.012 24.496 104.872 24.476C104.412 24.396 103.752 24.526 102.892 24.866C102.032 25.206 101.542 25.376 101.422 25.376C100.862 25.376 100.322 25.166 99.8023 24.746C99.2823 24.306 99.0223 23.916 99.0223 23.576V16.076L98.1223 15.176C98.2223 15.116 98.3423 15.006 98.4823 14.846C98.6223 14.686 98.7023 14.596 98.7223 14.576C98.7623 14.616 98.8323 14.696 98.9323 14.816C99.0323 14.916 99.1623 14.936 99.3223 14.876C99.4823 14.816 100.162 14.506 101.362 13.946C102.582 13.366 103.302 13.076 103.522 13.076C103.942 13.176 104.392 13.526 104.872 14.126C105.372 14.706 105.622 15.156 105.622 15.476C105.622 15.876 105.122 16.276 104.122 16.676L103.672 16.076L104.272 15.776C104.312 15.736 104.282 15.636 104.182 15.476C104.102 15.316 103.992 15.236 103.852 15.236C103.712 15.236 103.322 15.376 102.682 15.656C102.042 15.916 101.652 16.276 101.512 16.736C101.432 17.016 101.392 17.296 101.392 17.576ZM110.416 13.376C110.416 13.376 111.216 13.376 112.816 13.376C113.536 13.376 114.436 13.676 115.516 14.276L115.216 14.576V24.176L115.516 24.476C114.436 25.076 113.536 25.376 112.816 25.376H110.416C109.696 25.376 108.796 25.076 107.716 24.476L108.016 24.176V14.576L107.716 14.276C108.796 13.676 109.696 13.376 110.416 13.376ZM112.456 14.876C112.216 14.676 111.936 14.576 111.616 14.576C111.296 14.576 111.016 14.676 110.776 14.876C110.536 15.056 110.416 15.356 110.416 15.776V22.976C110.416 23.396 110.536 23.706 110.776 23.906C111.016 24.086 111.296 24.176 111.616 24.176C111.936 24.176 112.216 24.086 112.456 23.906C112.696 23.706 112.816 23.396 112.816 22.976V15.776C112.816 15.356 112.696 15.056 112.456 14.876ZM120.026 13.376C120.026 13.376 120.626 13.376 121.826 13.376C122.386 13.376 123.026 13.696 123.746 14.336C124.466 14.956 124.826 15.436 124.826 15.776V22.976C124.826 23.316 124.466 23.806 123.746 24.446C123.026 25.066 122.386 25.376 121.826 25.376C121.826 25.376 121.226 25.376 120.026 25.376C119.306 25.376 118.406 25.076 117.326 24.476L117.626 24.176V14.576L117.326 14.276C118.406 13.676 119.306 13.376 120.026 13.376ZM122.066 14.876C121.826 14.676 121.546 14.576 121.226 14.576C120.906 14.576 120.626 14.676 120.386 14.876C120.146 15.056 120.026 15.356 120.026 15.776V22.976C120.026 23.396 120.146 23.706 120.386 23.906C120.626 24.086 120.906 24.176 121.226 24.176C121.546 24.176 121.826 24.086 122.066 23.906C122.306 23.706 122.426 23.396 122.426 22.976V15.776C122.426 15.356 122.306 15.056 122.066 14.876ZM132.335 17.936L132.845 18.206C132.265 18.946 131.745 19.436 131.285 19.676C131.085 19.676 130.805 19.606 130.445 19.466C130.085 19.326 129.875 19.256 129.815 19.256C129.775 19.256 129.715 19.296 129.635 19.376V22.376C129.635 22.756 129.665 23.026 129.725 23.186C129.805 23.326 129.925 23.356 130.085 23.276C131.665 22.476 132.915 22.176 133.835 22.376C134.115 22.436 134.515 22.736 135.035 23.276L133.835 25.676L133.385 25.376L133.625 24.836C133.405 24.616 133.225 24.496 133.085 24.476C132.625 24.396 131.965 24.526 131.105 24.866C130.245 25.206 129.755 25.376 129.635 25.376C129.075 25.376 128.535 25.166 128.015 24.746C127.495 24.306 127.235 23.916 127.235 23.576V16.076L126.335 15.176C126.435 15.116 126.555 15.006 126.695 14.846C126.835 14.686 126.915 14.596 126.935 14.576C126.975 14.616 127.045 14.696 127.145 14.816C127.245 14.916 127.375 14.936 127.535 14.876C127.695 14.816 128.375 14.506 129.575 13.946C130.795 13.366 131.515 13.076 131.735 13.076C132.155 13.176 132.605 13.526 133.085 14.126C133.585 14.706 133.835 15.156 133.835 15.476C133.835 15.876 133.335 16.276 132.335 16.676L131.885 16.076L132.485 15.776C132.525 15.736 132.495 15.636 132.395 15.476C132.315 15.316 132.205 15.236 132.065 15.236C131.925 15.236 131.585 15.356 131.045 15.596C130.525 15.816 130.185 16.036 130.025 16.256C129.885 16.456 129.785 16.616 129.725 16.736C129.685 16.836 129.655 16.966 129.635 17.126C129.615 17.286 129.605 17.416 129.605 17.516C129.605 17.596 129.605 17.766 129.605 18.026C129.625 18.266 129.635 18.456 129.635 18.596C130.075 18.116 130.435 17.776 130.715 17.576C130.875 17.636 131.075 17.726 131.315 17.846C131.555 17.966 131.725 18.046 131.825 18.086C131.925 18.126 131.995 18.146 132.035 18.146C132.075 18.126 132.175 18.056 132.335 17.936Z" fill="#FBE9B8"/>
</g>
<defs>
<filter id="filter0_d_672_2179" x="34.8999" y="2.07617" width="119.135" height="42.5996" filterUnits="userSpaceOnUse" color-interpolation-filters="sRGB">
<feFlood flood-opacity="0" result="BackgroundImageFix"/>
<feColorMatrix in="SourceAlpha" type="matrix" values="0 0 0 0 0 0 0 0 0 0 0 0 0 0 0 0 0 0 127 0" result="hardAlpha"/>
<feOffset dx="4" dy="4"/>
<feGaussianBlur stdDeviation="7.5"/>
<feComposite in2="hardAlpha" operator="out"/>
<feColorMatrix type="matrix" values="0 0 0 0 0.988333 0 0 0 0 0.802247 0 0 0 0 0.295676 0 0 0 1 0"/>
<feBlend mode="normal" in2="BackgroundImageFix" result="effect1_dropShadow_672_2179"/>
<feBlend mode="normal" in="SourceGraphic" in2="effect1_dropShadow_672_2179" result="shape"/>
</filter>
<radialGradient id="paint0_angular_672_2179" cx="0" cy="0" r="1" gradientUnits="userSpaceOnUse" gradientTransform="translate(90.7094 17.2546) scale(84.4619 16.866)">
<stop stop-color="#F2DEA2"/>
<stop offset="0.45" stop-color="#96803F"/>
<stop offset="1" stop-color="#8C805E"/>
</radialGradient>
</defs>
</svg>
