<svg width="170" height="45" viewBox="0 0 170 45" fill="none" xmlns="http://www.w3.org/2000/svg">
<mask id="mask0_672_2211" style="mask-type:luminance" maskUnits="userSpaceOnUse" x="1" y="0" width="169" height="35">
<path d="M1.25 0.375977H170V34.1939H1.25V0.375977Z" fill="white"/>
</mask>
<g mask="url(#mask0_672_2211)">
<path d="M170.171 15.9243V18.5828C170.171 21.009 169.107 23.3792 167.174 25.2548C165.338 27.0357 162.8 28.3025 160.001 28.8424C158.146 32.0579 154.109 34.1206 149.626 34.1206H21.7952C17.3099 34.1206 13.2753 32.0579 11.4209 28.8424C8.61898 28.3025 6.08311 27.0357 4.24772 25.2548C2.31458 23.3792 1.24756 21.009 1.24756 18.5828V15.9243C1.24756 13.4982 2.31458 11.1279 4.24772 9.25237C6.08311 7.47145 8.61898 6.2046 11.4209 5.66688C13.2753 2.45135 17.3099 0.388672 21.7952 0.388672H149.626C154.109 0.388672 158.146 2.45135 160.001 5.66688C162.8 6.2046 165.338 7.47145 167.174 9.25237C169.107 11.1279 170.171 13.4982 170.171 15.9243Z" fill="url(#paint0_angular_672_2211)"/>
</g>
<path d="M159.87 5.78995C158.217 2.60999 154.339 0.375977 149.82 0.375977H20.1831C15.6634 0.375977 11.7854 2.60999 10.1301 5.78995C4.34068 6.80521 0 10.987 0 15.994V18.758C0 23.765 4.34068 27.9467 10.1301 28.962C11.7854 32.1442 15.6634 34.376 20.1831 34.376H149.82C154.339 34.376 158.217 32.1442 159.87 28.962C165.662 27.9467 170 23.765 170 18.758V15.994C170 10.987 165.662 6.80521 159.87 5.78995ZM165.384 18.4896C165.384 22.5663 161.385 25.8961 156.408 26.0347C156.389 26.4015 156.325 26.7593 156.226 27.1082C155.623 29.7111 152.803 31.688 149.426 31.688H20.8716C16.9634 31.688 13.7629 29.1767 13.5949 26.0347C8.61527 25.8961 4.61886 22.5663 4.61886 18.4896V16.2623C4.61886 12.1879 8.61527 8.85585 13.5949 8.7172C13.6115 8.41754 13.6555 8.12459 13.7216 7.83835C14.2284 5.1392 17.1038 3.06619 20.5659 3.06619H149.131C153.039 3.06619 156.237 5.5775 156.408 8.7172C161.385 8.85585 165.384 12.1879 165.384 16.2623V18.4896Z" fill="#785C34"/>
<path d="M164.723 16.2632V18.4905C164.723 22.2966 160.969 25.4028 156.312 25.5012C155.962 22.6656 153.007 20.445 149.426 20.445C145.595 20.445 142.483 22.9765 142.483 26.0849V26.5813C142.061 26.6864 141.755 27.004 141.755 27.3774C141.755 27.8381 142.213 28.2115 142.783 28.2115H142.794C142.799 28.2115 142.805 28.2138 142.81 28.2138C142.827 28.2138 142.843 28.2115 142.857 28.2093C143.389 28.178 143.807 27.818 143.807 27.3774C143.807 27.0218 143.529 26.7177 143.141 26.597V26.0849C143.141 23.2716 145.958 20.9817 149.426 20.9817C152.88 20.9817 155.686 23.2627 155.686 26.067C155.686 26.3823 155.651 26.6909 155.582 26.9905C154.901 29.3721 152.268 31.1522 149.131 31.1522H20.8719C17.2197 31.1522 14.2479 28.7393 14.2452 25.7718C14.2452 25.6264 14.0992 25.5057 13.9174 25.5057C9.15256 25.5057 5.27734 22.3593 5.27734 18.4905V16.2632C5.27734 12.4594 9.02587 9.35544 13.6805 9.25481C14.0303 12.0881 16.9856 14.3065 20.5661 14.3065C24.3973 14.3065 27.5123 11.7795 27.5123 8.66891V8.16128C27.8842 8.03605 28.1458 7.73863 28.1458 7.39201C28.1458 6.99396 27.8043 6.66299 27.3471 6.57802C27.2975 6.55565 27.2424 6.54224 27.1818 6.54224C27.1405 6.54224 27.0992 6.54894 27.0634 6.56013C26.5208 6.58249 26.0911 6.94476 26.0911 7.39201C26.0911 7.77665 26.4134 8.1009 26.8513 8.19483V8.66891C26.8513 11.4844 24.031 13.772 20.5661 13.772C17.1151 13.772 14.3057 11.4911 14.3057 8.6868C14.3057 8.43187 14.3278 8.18141 14.3718 7.93766C14.9723 5.46883 17.6577 3.60156 20.8719 3.60156H149.131C152.783 3.60156 155.755 6.01448 155.755 8.98199C155.755 9.12958 155.904 9.25034 156.086 9.25034C160.848 9.25034 164.723 12.3945 164.723 16.2632Z" fill="#785C34"/>
<g filter="url(#filter0_d_672_2211)">
<path d="M43.6 13.376C43.6 13.376 44.4 13.376 46 13.376C46.56 13.376 47.1 13.596 47.62 14.036C48.14 14.456 48.4 14.836 48.4 15.176V19.376C48.4 19.716 48.14 20.106 47.62 20.546C47.1 20.966 46.56 21.176 46 21.176C46.56 21.176 47.1 21.396 47.62 21.836C48.14 22.256 48.4 22.636 48.4 22.976V24.476L48.7 24.776L47.5 25.676L45.7 24.776L46 24.476V22.976C46 22.556 45.88 22.256 45.64 22.076C45.4 21.876 45.12 21.776 44.8 21.776H43.6V24.476L43.9 24.776L42.7 25.676L40.9 24.776L41.2 24.476V14.576L40.9 14.276C41.98 13.676 42.88 13.376 43.6 13.376ZM45.64 14.876C45.4 14.676 45.12 14.576 44.8 14.576C44.48 14.576 44.2 14.676 43.96 14.876C43.72 15.056 43.6 15.356 43.6 15.776V19.376C43.6 19.796 43.72 20.106 43.96 20.306C44.2 20.486 44.48 20.576 44.8 20.576C45.12 20.576 45.4 20.486 45.64 20.306C45.88 20.106 46 19.796 46 19.376V15.776C46 15.356 45.88 15.056 45.64 14.876ZM55.9094 17.936L56.4194 18.206C55.8394 18.946 55.3194 19.436 54.8594 19.676C54.6594 19.676 54.3794 19.606 54.0194 19.466C53.6594 19.326 53.4494 19.256 53.3894 19.256C53.3494 19.256 53.2894 19.296 53.2094 19.376V22.376C53.2094 22.756 53.2394 23.026 53.2994 23.186C53.3794 23.326 53.4994 23.356 53.6594 23.276C55.2394 22.476 56.4894 22.176 57.4094 22.376C57.6894 22.436 58.0894 22.736 58.6094 23.276L57.4094 25.676L56.9594 25.376L57.1994 24.836C56.9794 24.616 56.7994 24.496 56.6594 24.476C56.1994 24.396 55.5394 24.526 54.6794 24.866C53.8194 25.206 53.3294 25.376 53.2094 25.376C52.6494 25.376 52.1094 25.166 51.5894 24.746C51.0694 24.306 50.8094 23.916 50.8094 23.576V16.076L49.9094 15.176C50.0094 15.116 50.1294 15.006 50.2694 14.846C50.4094 14.686 50.4894 14.596 50.5094 14.576C50.5494 14.616 50.6194 14.696 50.7194 14.816C50.8194 14.916 50.9494 14.936 51.1094 14.876C51.2694 14.816 51.9494 14.506 53.1494 13.946C54.3694 13.366 55.0894 13.076 55.3094 13.076C55.7294 13.176 56.1794 13.526 56.6594 14.126C57.1594 14.706 57.4094 15.156 57.4094 15.476C57.4094 15.876 56.9094 16.276 55.9094 16.676L55.4594 16.076L56.0594 15.776C56.0994 15.736 56.0694 15.636 55.9694 15.476C55.8894 15.316 55.7794 15.236 55.6394 15.236C55.4994 15.236 55.1594 15.356 54.6194 15.596C54.0994 15.816 53.7594 16.036 53.5994 16.256C53.4594 16.456 53.3594 16.616 53.2994 16.736C53.2594 16.836 53.2294 16.966 53.2094 17.126C53.1894 17.286 53.1794 17.416 53.1794 17.516C53.1794 17.596 53.1794 17.766 53.1794 18.026C53.1994 18.266 53.2094 18.456 53.2094 18.596C53.6494 18.116 54.0094 17.776 54.2894 17.576C54.4494 17.636 54.6494 17.726 54.8894 17.846C55.1294 17.966 55.2994 18.046 55.3994 18.086C55.4994 18.126 55.5694 18.146 55.6094 18.146C55.6494 18.126 55.7494 18.056 55.9094 17.936ZM64.9035 13.076C65.3235 13.176 65.7735 13.526 66.2535 14.126C66.7535 14.706 67.0035 15.156 67.0035 15.476C67.0035 15.876 66.5035 16.276 65.5035 16.676L65.0535 16.076L65.6535 15.776C65.6935 15.736 65.6635 15.636 65.5635 15.476C65.4835 15.316 65.3735 15.236 65.2335 15.236C65.0935 15.236 64.7435 15.356 64.1835 15.596C63.6235 15.836 63.2035 16.196 62.9235 16.676C62.8835 16.736 62.8535 16.796 62.8335 16.856C62.8335 16.916 62.8235 16.966 62.8035 17.006C62.8035 17.046 62.8035 17.116 62.8035 17.216V18.176L67.0035 19.976V23.576C67.0035 23.916 66.7435 24.306 66.2235 24.746C65.7035 25.166 65.1635 25.376 64.6035 25.376C64.4835 25.376 63.9935 25.206 63.1335 24.866C62.2735 24.526 61.6135 24.396 61.1535 24.476C61.0135 24.496 60.8335 24.616 60.6135 24.836L60.8535 25.376L60.4035 25.676L59.2035 23.276C59.7235 22.736 60.1235 22.436 60.4035 22.376C61.3235 22.176 62.5735 22.476 64.1535 23.276C64.3135 23.356 64.4235 23.326 64.4835 23.186C64.5635 23.026 64.6035 22.756 64.6035 22.376V20.576L60.4035 18.776V16.076L59.5035 15.176C59.6035 15.116 59.7235 15.006 59.8635 14.846C60.0035 14.686 60.0835 14.596 60.1035 14.576C60.1435 14.616 60.2135 14.696 60.3135 14.816C60.4135 14.916 60.5435 14.936 60.7035 14.876C60.8635 14.816 61.5435 14.506 62.7435 13.946C63.9635 13.366 64.6835 13.076 64.9035 13.076ZM74.5129 17.936L75.0229 18.206C74.4429 18.946 73.9229 19.436 73.4629 19.676C73.2629 19.676 72.9829 19.606 72.6229 19.466C72.2629 19.326 72.0529 19.256 71.9929 19.256C71.9529 19.256 71.8929 19.296 71.8129 19.376V22.376C71.8129 22.756 71.8429 23.026 71.9029 23.186C71.9829 23.326 72.1029 23.356 72.2629 23.276C73.8429 22.476 75.0929 22.176 76.0129 22.376C76.2929 22.436 76.6929 22.736 77.2129 23.276L76.0129 25.676L75.5629 25.376L75.8029 24.836C75.5829 24.616 75.4029 24.496 75.2629 24.476C74.8029 24.396 74.1429 24.526 73.2829 24.866C72.4229 25.206 71.9329 25.376 71.8129 25.376C71.2529 25.376 70.7129 25.166 70.1929 24.746C69.6729 24.306 69.4129 23.916 69.4129 23.576V16.076L68.5129 15.176C68.6129 15.116 68.7329 15.006 68.8729 14.846C69.0129 14.686 69.0929 14.596 69.1129 14.576C69.1529 14.616 69.2229 14.696 69.3229 14.816C69.4229 14.916 69.5529 14.936 69.7129 14.876C69.8729 14.816 70.5529 14.506 71.7529 13.946C72.9729 13.366 73.6929 13.076 73.9129 13.076C74.3329 13.176 74.7829 13.526 75.2629 14.126C75.7629 14.706 76.0129 15.156 76.0129 15.476C76.0129 15.876 75.5129 16.276 74.5129 16.676L74.0629 16.076L74.6629 15.776C74.7029 15.736 74.6729 15.636 74.5729 15.476C74.4929 15.316 74.3829 15.236 74.2429 15.236C74.1029 15.236 73.7629 15.356 73.2229 15.596C72.7029 15.816 72.3629 16.036 72.2029 16.256C72.0629 16.456 71.9629 16.616 71.9029 16.736C71.8629 16.836 71.8329 16.966 71.8129 17.126C71.7929 17.286 71.7829 17.416 71.7829 17.516C71.7829 17.596 71.7829 17.766 71.7829 18.026C71.8029 18.266 71.8129 18.456 71.8129 18.596C72.2529 18.116 72.6129 17.776 72.8929 17.576C73.0529 17.636 73.2529 17.726 73.4929 17.846C73.7329 17.966 73.9029 18.046 74.0029 18.086C74.1029 18.126 74.1729 18.146 74.2129 18.146C74.2529 18.126 74.3529 18.056 74.5129 17.936ZM80.207 13.376C80.207 13.376 80.307 13.426 80.507 13.526C81.147 13.826 81.657 13.976 82.037 13.976C82.437 13.976 83.027 13.776 83.807 13.376C84.407 13.376 84.957 13.506 85.457 13.766C85.957 14.006 86.207 14.276 86.207 14.576V16.076L86.507 16.376L85.307 17.276L83.507 16.376L83.807 16.076V14.576L83.207 14.846V24.476L83.507 24.776L82.307 25.676L80.507 24.776L80.807 24.476V14.846C80.587 14.746 80.387 14.656 80.207 14.576V16.076L80.507 16.376L79.307 17.276L77.507 16.376L77.807 16.076V14.576C77.807 14.276 78.057 14.006 78.557 13.766C79.057 13.506 79.607 13.376 80.207 13.376ZM96.3923 17.576L96.4223 18.776V22.376C96.4223 22.756 96.4523 23.026 96.5123 23.186C96.5923 23.326 96.7123 23.356 96.8723 23.276C98.4523 22.476 99.7023 22.176 100.622 22.376C100.902 22.436 101.302 22.736 101.822 23.276L100.622 25.676L100.172 25.376L100.412 24.836C100.192 24.616 100.012 24.496 99.8723 24.476C99.4123 24.396 98.7523 24.526 97.8923 24.866C97.0323 25.206 96.5423 25.376 96.4223 25.376C95.8623 25.376 95.3223 25.166 94.8023 24.746C94.2823 24.306 94.0223 23.916 94.0223 23.576V16.076L93.1223 15.176C93.2223 15.116 93.3423 15.006 93.4823 14.846C93.6223 14.686 93.7023 14.596 93.7223 14.576C93.7623 14.616 93.8323 14.696 93.9323 14.816C94.0323 14.916 94.1623 14.936 94.3223 14.876C94.4823 14.816 95.1623 14.506 96.3623 13.946C97.5823 13.366 98.3023 13.076 98.5223 13.076C98.9423 13.176 99.3923 13.526 99.8723 14.126C100.372 14.706 100.622 15.156 100.622 15.476C100.622 15.876 100.122 16.276 99.1223 16.676L98.6723 16.076L99.2723 15.776C99.3123 15.736 99.2823 15.636 99.1823 15.476C99.1023 15.316 98.9923 15.236 98.8523 15.236C98.7123 15.236 98.3223 15.376 97.6823 15.656C97.0423 15.916 96.6523 16.276 96.5123 16.736C96.4323 17.016 96.3923 17.296 96.3923 17.576ZM105.416 13.376C105.416 13.376 106.216 13.376 107.816 13.376C108.536 13.376 109.436 13.676 110.516 14.276L110.216 14.576V24.176L110.516 24.476C109.436 25.076 108.536 25.376 107.816 25.376H105.416C104.696 25.376 103.796 25.076 102.716 24.476L103.016 24.176V14.576L102.716 14.276C103.796 13.676 104.696 13.376 105.416 13.376ZM107.456 14.876C107.216 14.676 106.936 14.576 106.616 14.576C106.296 14.576 106.016 14.676 105.776 14.876C105.536 15.056 105.416 15.356 105.416 15.776V22.976C105.416 23.396 105.536 23.706 105.776 23.906C106.016 24.086 106.296 24.176 106.616 24.176C106.936 24.176 107.216 24.086 107.456 23.906C107.696 23.706 107.816 23.396 107.816 22.976V15.776C107.816 15.356 107.696 15.056 107.456 14.876ZM115.026 13.376C115.026 13.376 115.626 13.376 116.826 13.376C117.386 13.376 118.026 13.696 118.746 14.336C119.466 14.956 119.826 15.436 119.826 15.776V22.976C119.826 23.316 119.466 23.806 118.746 24.446C118.026 25.066 117.386 25.376 116.826 25.376C116.826 25.376 116.226 25.376 115.026 25.376C114.306 25.376 113.406 25.076 112.326 24.476L112.626 24.176V14.576L112.326 14.276C113.406 13.676 114.306 13.376 115.026 13.376ZM117.066 14.876C116.826 14.676 116.546 14.576 116.226 14.576C115.906 14.576 115.626 14.676 115.386 14.876C115.146 15.056 115.026 15.356 115.026 15.776V22.976C115.026 23.396 115.146 23.706 115.386 23.906C115.626 24.086 115.906 24.176 116.226 24.176C116.546 24.176 116.826 24.086 117.066 23.906C117.306 23.706 117.426 23.396 117.426 22.976V15.776C117.426 15.356 117.306 15.056 117.066 14.876ZM127.335 17.936L127.845 18.206C127.265 18.946 126.745 19.436 126.285 19.676C126.085 19.676 125.805 19.606 125.445 19.466C125.085 19.326 124.875 19.256 124.815 19.256C124.775 19.256 124.715 19.296 124.635 19.376V22.376C124.635 22.756 124.665 23.026 124.725 23.186C124.805 23.326 124.925 23.356 125.085 23.276C126.665 22.476 127.915 22.176 128.835 22.376C129.115 22.436 129.515 22.736 130.035 23.276L128.835 25.676L128.385 25.376L128.625 24.836C128.405 24.616 128.225 24.496 128.085 24.476C127.625 24.396 126.965 24.526 126.105 24.866C125.245 25.206 124.755 25.376 124.635 25.376C124.075 25.376 123.535 25.166 123.015 24.746C122.495 24.306 122.235 23.916 122.235 23.576V16.076L121.335 15.176C121.435 15.116 121.555 15.006 121.695 14.846C121.835 14.686 121.915 14.596 121.935 14.576C121.975 14.616 122.045 14.696 122.145 14.816C122.245 14.916 122.375 14.936 122.535 14.876C122.695 14.816 123.375 14.506 124.575 13.946C125.795 13.366 126.515 13.076 126.735 13.076C127.155 13.176 127.605 13.526 128.085 14.126C128.585 14.706 128.835 15.156 128.835 15.476C128.835 15.876 128.335 16.276 127.335 16.676L126.885 16.076L127.485 15.776C127.525 15.736 127.495 15.636 127.395 15.476C127.315 15.316 127.205 15.236 127.065 15.236C126.925 15.236 126.585 15.356 126.045 15.596C125.525 15.816 125.185 16.036 125.025 16.256C124.885 16.456 124.785 16.616 124.725 16.736C124.685 16.836 124.655 16.966 124.635 17.126C124.615 17.286 124.605 17.416 124.605 17.516C124.605 17.596 124.605 17.766 124.605 18.026C124.625 18.266 124.635 18.456 124.635 18.596C125.075 18.116 125.435 17.776 125.715 17.576C125.875 17.636 126.075 17.726 126.315 17.846C126.555 17.966 126.725 18.046 126.825 18.086C126.925 18.126 126.995 18.146 127.035 18.146C127.075 18.126 127.175 18.056 127.335 17.936Z" fill="#FBE9B8"/>
</g>
<defs>
<filter id="filter0_d_672_2211" x="29.8999" y="2.07617" width="119.135" height="42.5996" filterUnits="userSpaceOnUse" color-interpolation-filters="sRGB">
<feFlood flood-opacity="0" result="BackgroundImageFix"/>
<feColorMatrix in="SourceAlpha" type="matrix" values="0 0 0 0 0 0 0 0 0 0 0 0 0 0 0 0 0 0 127 0" result="hardAlpha"/>
<feOffset dx="4" dy="4"/>
<feGaussianBlur stdDeviation="7.5"/>
<feComposite in2="hardAlpha" operator="out"/>
<feColorMatrix type="matrix" values="0 0 0 0 0.988333 0 0 0 0 0.802247 0 0 0 0 0.295676 0 0 0 1 0"/>
<feBlend mode="normal" in2="BackgroundImageFix" result="effect1_dropShadow_672_2211"/>
<feBlend mode="normal" in="SourceGraphic" in2="effect1_dropShadow_672_2211" result="shape"/>
</filter>
<radialGradient id="paint0_angular_672_2211" cx="0" cy="0" r="1" gradientUnits="userSpaceOnUse" gradientTransform="translate(85.7094 17.2546) scale(84.4619 16.866)">
<stop stop-color="#F2DEA2"/>
<stop offset="0.45" stop-color="#96803F"/>
<stop offset="1" stop-color="#8C805E"/>
</radialGradient>
</defs>
</svg>
