<svg width="137" height="37" viewBox="0 0 137 37" fill="none" xmlns="http://www.w3.org/2000/svg">
<mask id="mask0_658_20" style="mask-type:luminance" maskUnits="userSpaceOnUse" x="1" y="0" width="136" height="34">
<path d="M1.5 0.46875H136.5V33.7898H1.5V0.46875Z" fill="white"/>
</mask>
<g mask="url(#mask0_658_20)">
<path d="M136.637 15.7888V18.4082C136.637 20.7987 135.785 23.1341 134.239 24.9821C132.771 26.7369 130.74 27.9851 128.5 28.5171C127.017 31.6853 123.787 33.7177 120.201 33.7177H17.9359C14.3477 33.7177 11.12 31.6853 9.63651 28.5171C7.39494 27.9851 5.36624 26.7369 3.89793 24.9821C2.35142 23.1341 1.4978 20.7987 1.4978 18.4082V15.7888C1.4978 13.3983 2.35142 11.0629 3.89793 9.21489C5.36624 7.46015 7.39494 6.21191 9.63651 5.68209C11.12 2.51381 14.3477 0.481445 17.9359 0.481445H120.201C123.787 0.481445 127.017 2.51381 128.5 5.68209C130.74 6.21191 132.771 7.46015 134.239 9.21489C135.785 11.0629 136.637 13.3983 136.637 15.7888Z" fill="url(#paint0_angular_658_20)"/>
</g>
<path d="M128.396 5.80316C127.074 2.66994 123.972 0.46875 120.356 0.46875H16.6465C13.0307 0.46875 9.92832 2.66994 8.60408 5.80316C3.97255 6.8035 0.5 10.9238 0.5 15.8572V18.5806C0.5 23.514 3.97255 27.6344 8.60408 28.6347C9.92832 31.7701 13.0307 33.9691 16.6465 33.9691H120.356C123.972 33.9691 127.074 31.7701 128.396 28.6347C133.03 27.6344 136.5 23.514 136.5 18.5806V15.8572C136.5 10.9238 133.03 6.8035 128.396 5.80316ZM132.807 18.3162C132.807 22.333 129.608 25.6139 125.626 25.7505C125.611 26.1118 125.56 26.4644 125.481 26.8081C124.998 29.3729 122.742 31.3207 120.041 31.3207H17.1973C14.0707 31.3207 11.5104 28.8462 11.3759 25.7505C7.39221 25.6139 4.19509 22.333 4.19509 18.3162V16.1217C4.19509 12.1071 7.39221 8.82402 11.3759 8.68741C11.3892 8.39215 11.4244 8.10351 11.4773 7.82147C11.8827 5.16198 14.1831 3.11943 16.9527 3.11943H119.805C122.932 3.11943 125.49 5.59384 125.626 8.68741C129.608 8.82402 132.807 12.1071 132.807 16.1217V18.3162Z" fill="#785C34"/>
<path d="M132.278 16.1221V18.3167C132.278 22.0668 129.275 25.1274 125.549 25.2243C125.269 22.4304 122.905 20.2424 120.041 20.2424C116.976 20.2424 114.486 22.7367 114.486 25.7994V26.2885C114.149 26.3921 113.904 26.705 113.904 27.073C113.904 27.5269 114.27 27.8948 114.726 27.8948H114.735C114.739 27.8948 114.744 27.897 114.748 27.897C114.761 27.897 114.775 27.8948 114.786 27.8926C115.211 27.8618 115.546 27.507 115.546 27.073C115.546 26.7226 115.323 26.423 115.012 26.304V25.7994C115.012 23.0275 117.267 20.7713 120.041 20.7713C122.804 20.7713 125.049 23.0187 125.049 25.7818C125.049 26.0924 125.02 26.3965 124.965 26.6918C124.421 29.0384 122.315 30.7923 119.805 30.7923H17.1973C14.2756 30.7923 11.8981 28.4148 11.8959 25.4909C11.8959 25.3477 11.7791 25.2287 11.6337 25.2287C7.82185 25.2287 4.72168 22.1285 4.72168 18.3167V16.1221C4.72168 12.3741 7.7205 9.31581 11.4442 9.21666C11.7241 12.0084 14.0883 14.1941 16.9527 14.1941C20.0176 14.1941 22.5097 11.7043 22.5097 8.63937V8.1392C22.8071 8.01581 23.0164 7.72276 23.0164 7.38124C23.0164 6.98903 22.7432 6.66293 22.3775 6.5792C22.3378 6.55717 22.2937 6.54395 22.2453 6.54395C22.2122 6.54395 22.1792 6.55056 22.1505 6.56157C21.7164 6.58361 21.3727 6.94056 21.3727 7.38124C21.3727 7.76022 21.6305 8.07971 21.9809 8.17225V8.63937C21.9809 11.4134 19.7246 13.6675 16.9527 13.6675C14.1919 13.6675 11.9444 11.4201 11.9444 8.657C11.9444 8.40581 11.962 8.15903 11.9973 7.91886C12.4776 5.48632 14.6259 3.64648 17.1973 3.64648H119.805C122.727 3.64648 125.104 6.02395 125.104 8.94785C125.104 9.09327 125.223 9.21225 125.368 9.21225C129.178 9.21225 132.278 12.3102 132.278 16.1221Z" fill="#785C34"/>
<g filter="url(#filter0_d_658_20)">
<path d="M46.22 11.3487C46.668 11.4554 47.148 11.8287 47.66 12.4687C48.1933 13.0874 48.46 13.5674 48.46 13.9087C48.46 14.3354 47.9267 14.7621 46.86 15.1887L46.38 14.5487L47.02 14.2287C47.0627 14.1861 47.0307 14.0794 46.924 13.9087C46.8387 13.7381 46.7213 13.6527 46.572 13.6527C46.4227 13.6527 46.0493 13.7807 45.452 14.0367C44.8547 14.2927 44.4067 14.6767 44.108 15.1887C44.0653 15.2527 44.0333 15.3167 44.012 15.3807C44.012 15.4447 44.0013 15.4981 43.98 15.5407C43.98 15.5834 43.98 15.6581 43.98 15.7647V16.7887L48.46 18.7087V22.5487C48.46 22.9114 48.1827 23.3274 47.628 23.7967C47.0733 24.2447 46.4973 24.4688 45.9 24.4688C45.772 24.4688 45.2493 24.2874 44.332 23.9247C43.4147 23.5621 42.7107 23.4234 42.22 23.5087C42.0707 23.5301 41.8787 23.6581 41.644 23.8927L41.9 24.4688L41.42 24.7888L40.14 22.2287C40.6947 21.6527 41.1213 21.3327 41.42 21.2687C42.4013 21.0554 43.7347 21.3754 45.42 22.2287C45.5907 22.3141 45.708 22.2821 45.772 22.1327C45.8573 21.9621 45.9 21.6741 45.9 21.2687V19.3487L41.42 17.4287V14.5487L40.46 13.5887C40.5667 13.5247 40.6947 13.4074 40.844 13.2367C40.9933 13.0661 41.0787 12.9701 41.1 12.9487C41.1427 12.9914 41.2173 13.0767 41.324 13.2047C41.4307 13.3114 41.5693 13.3327 41.74 13.2687C41.9107 13.2047 42.636 12.8741 43.916 12.2767C45.2173 11.6581 45.9853 11.3487 46.22 11.3487ZM51.99 11.3487L53.91 12.3087L53.59 12.6287V21.9087C53.59 22.3567 53.718 22.6874 53.974 22.9007C54.23 23.0927 54.5287 23.1887 54.87 23.1887C55.2113 23.1887 55.51 23.0927 55.766 22.9007C56.022 22.6874 56.15 22.3567 56.15 21.9087V12.6287L55.83 12.3087L57.11 11.3487L59.03 12.3087L58.71 12.6287V23.1887L59.03 23.5087C57.878 24.1487 56.918 24.4688 56.15 24.4688H53.59C52.822 24.4688 51.862 24.1487 50.71 23.5087L51.03 23.1887V12.6287L50.71 12.3087L51.99 11.3487ZM63.84 11.6687C63.84 11.6687 64.6933 11.6687 66.4 11.6687C66.9973 11.6687 67.5733 11.9034 68.128 12.3727C68.6827 12.8207 68.96 13.2261 68.96 13.5887V16.1487C68.96 16.5114 68.6827 16.9274 68.128 17.3967C67.5733 17.8447 66.9973 18.0687 66.4 18.0687C66.9973 18.0687 67.5733 18.3034 68.128 18.7727C68.6827 19.2207 68.96 19.6261 68.96 19.9887V22.5487C68.96 22.9114 68.6827 23.3274 68.128 23.7967C67.5733 24.2447 66.9973 24.4688 66.4 24.4688H63.84C63.072 24.4688 62.112 24.1487 60.96 23.5087L61.28 23.1887V12.9487L60.96 12.6287C62.112 11.9887 63.072 11.6687 63.84 11.6687ZM66.016 13.2687C65.76 13.0554 65.4613 12.9487 65.12 12.9487C64.7787 12.9487 64.48 13.0554 64.224 13.2687C63.968 13.4607 63.84 13.7807 63.84 14.2287V16.1487C63.84 16.5967 63.968 16.9274 64.224 17.1407C64.48 17.3327 64.7787 17.4287 65.12 17.4287C65.4613 17.4287 65.76 17.3327 66.016 17.1407C66.272 16.9274 66.4 16.5967 66.4 16.1487V14.2287C66.4 13.7807 66.272 13.4607 66.016 13.2687ZM66.016 19.0287C65.76 18.8154 65.4613 18.7087 65.12 18.7087C64.7787 18.7087 64.48 18.8154 64.224 19.0287C63.968 19.2207 63.84 19.5407 63.84 19.9887V21.9087C63.84 22.3567 63.968 22.6874 64.224 22.9007C64.48 23.0927 64.7787 23.1887 65.12 23.1887C65.4613 23.1887 65.76 23.0927 66.016 22.9007C66.272 22.6874 66.4 22.3567 66.4 21.9087V19.9887C66.4 19.5407 66.272 19.2207 66.016 19.0287ZM74.09 11.6687C74.09 11.6687 74.1433 11.9887 74.25 12.6287C74.3567 13.2687 74.57 13.9087 74.89 14.5487C75.21 15.1887 75.5407 15.5087 75.882 15.5087C76.2447 15.5087 76.5327 15.3701 76.746 15.0927C76.9807 14.8154 77.162 14.5061 77.29 14.1647C77.4393 13.8234 77.5673 13.4394 77.674 13.0127C77.7807 12.5647 77.8447 12.2554 77.866 12.0847C77.8873 11.9141 77.9087 11.7754 77.93 11.6687C78.5273 11.6687 79.1033 11.9034 79.658 12.3727C80.2127 12.8207 80.49 13.2261 80.49 13.5887V23.5087L80.81 23.8287L79.53 24.7888L77.61 23.8287L77.93 23.5087V15.5087L77.674 15.9887C77.482 16.3087 77.226 16.6287 76.906 16.9487C76.586 17.2687 76.2873 17.4287 76.01 17.4287C75.4127 17.4287 74.7727 16.7887 74.09 15.5087V23.5087L74.41 23.8287L73.13 24.7888L71.21 23.8287L71.53 23.5087V13.5887C71.53 13.2261 71.8073 12.8207 72.362 12.3727C72.9167 11.9034 73.4927 11.6687 74.09 11.6687ZM84.0213 11.3487L85.9413 12.3087L85.6213 12.6287V23.5087L85.9413 23.8287L84.6613 24.7888L82.7413 23.8287L83.0613 23.5087V12.6287L82.7413 12.3087L84.0213 11.3487ZM90.1063 11.6687C90.1063 11.6687 90.2129 11.7221 90.4263 11.8287C91.1089 12.1487 91.6529 12.3087 92.0583 12.3087C92.4849 12.3087 93.1143 12.0954 93.9463 11.6687C94.5863 11.6687 95.1729 11.8074 95.7063 12.0847C96.2396 12.3407 96.5063 12.6287 96.5063 12.9487V14.5487L96.8263 14.8687L95.5463 15.8287L93.6263 14.8687L93.9463 14.5487V12.9487L93.3063 13.2367V23.5087L93.6263 23.8287L92.3463 24.7888L90.4263 23.8287L90.7463 23.5087V13.2367C90.5116 13.1301 90.2983 13.0341 90.1063 12.9487V14.5487L90.4263 14.8687L89.1463 15.8287L87.2263 14.8687L87.5463 14.5487V12.9487C87.5463 12.6287 87.8129 12.3407 88.3463 12.0847C88.8796 11.8074 89.4663 11.6687 90.1063 11.6687Z" fill="#FBE9B8"/>
</g>
<defs>
<filter id="filter0_d_658_20" x="32.1399" y="3.34863" width="76.6863" height="33.4404" filterUnits="userSpaceOnUse" color-interpolation-filters="sRGB">
<feFlood flood-opacity="0" result="BackgroundImageFix"/>
<feColorMatrix in="SourceAlpha" type="matrix" values="0 0 0 0 0 0 0 0 0 0 0 0 0 0 0 0 0 0 127 0" result="hardAlpha"/>
<feOffset dx="2" dy="2"/>
<feGaussianBlur stdDeviation="5"/>
<feComposite in2="hardAlpha" operator="out"/>
<feColorMatrix type="matrix" values="0 0 0 0 0.984314 0 0 0 0 0.913725 0 0 0 0 0.721569 0 0 0 1 0"/>
<feBlend mode="normal" in2="BackgroundImageFix" result="effect1_dropShadow_658_20"/>
<feBlend mode="normal" in="SourceGraphic" in2="effect1_dropShadow_658_20" result="shape"/>
</filter>
<radialGradient id="paint0_angular_658_20" cx="0" cy="0" r="1" gradientUnits="userSpaceOnUse" gradientTransform="translate(69.0673 17.0996) scale(67.5695 16.6181)">
<stop stop-color="#F2DEA2"/>
<stop offset="0.45" stop-color="#96803F"/>
<stop offset="1" stop-color="#8C805E"/>
</radialGradient>
</defs>
</svg>
