<svg width="102" height="24" viewBox="0 0 102 24" fill="none" xmlns="http://www.w3.org/2000/svg">
<mask id="mask0_482_2240" style="mask-type:luminance" maskUnits="userSpaceOnUse" x="48" y="0" width="54" height="24">
<path d="M48.4977 0H102V23.144H48.4977V0Z" fill="white"/>
</mask>
<g mask="url(#mask0_482_2240)">
<path fill-rule="evenodd" clip-rule="evenodd" d="M30.6403 21.2366C30.6403 21.1389 30.7394 21.0068 30.6586 20.9551C30.6329 20.9378 29.91 20.9292 29.5614 20.9235C29.5834 20.7396 29.6017 20.5959 29.6164 20.5356C29.6751 20.3029 29.6861 20.0645 29.3705 20.1162C29.0586 20.1679 28.42 20.0989 28.2219 20.0989C28.0237 20.0989 27.5943 19.9783 27.6751 20.2426C27.7191 20.3834 27.7154 20.6592 27.7081 20.9148C27.5723 20.9148 27.4769 20.9177 27.4439 20.9177C27.2347 20.9177 27.176 20.8488 27.176 20.5213C27.176 20.1966 27.2237 8.31724 27.209 7.71968C27.198 7.11925 26.9448 7.06754 26.9081 7.70244C26.875 8.33448 26.7576 20.6247 26.6402 20.866C26.5264 21.1044 26.4897 21.3372 26.864 21.3113C26.9741 21.3027 27.2934 21.2826 27.6897 21.2625C27.6861 21.34 27.6861 21.4061 27.6861 21.4434C27.7008 21.7135 27.8732 21.5727 27.8953 21.4406C27.9026 21.4032 27.9136 21.3343 27.9246 21.2481C28.2549 21.2309 28.6182 21.2107 28.9448 21.1964C28.9412 21.3802 28.9338 21.5957 28.9301 21.8054C28.0421 21.7681 26.831 21.7164 26.7576 21.7106C26.6475 21.702 26.4897 21.6905 26.4897 21.8399C26.4897 21.9893 26.4383 22.5093 26.3796 22.7736C26.3209 23.0408 26.3172 23.1471 26.5558 23.1155C26.7943 23.0867 27.6347 23.0436 27.7852 22.9977C27.9393 22.9488 27.8255 22.854 27.8255 22.6098C27.8255 22.3656 27.6641 22.38 27.6751 22.5524C27.6787 22.6098 27.6641 22.6558 27.587 22.6529C27.5136 22.6529 27.1833 22.6414 27.1173 22.6357C27.0549 22.6328 27.0842 22.5035 27.1026 22.3484C27.1173 22.1961 27.1429 22.1818 27.2237 22.1818C27.2714 22.1818 28.1705 22.1732 28.9155 22.1674C28.9045 22.4748 28.8934 22.7161 28.8898 22.7449C28.8714 22.8311 28.754 22.9776 29.0916 22.9431C29.4292 22.9086 33.0954 22.8454 33.4734 22.8627C33.8477 22.8799 34.145 22.6932 33.4587 22.7018C32.7761 22.7104 30.1375 22.6098 29.7779 22.6271C29.4182 22.6443 29.4513 22.6185 29.4513 22.4202C29.4513 22.38 29.4586 22.2881 29.4659 22.1617C29.7045 22.1617 30.3394 22.1588 30.3724 22.1617C30.5118 22.1645 30.6329 22.1617 30.688 22.1042C30.7394 22.0496 30.7027 21.883 30.71 21.6331C30.7137 21.386 30.5082 21.4636 30.5082 21.6216C30.5082 21.7796 30.4495 21.8399 30.321 21.8399C30.2953 21.8399 29.6898 21.8342 29.488 21.8284C29.5026 21.6187 29.521 21.3831 29.5393 21.1705C29.7999 21.159 30.4238 21.1447 30.4495 21.1648C30.4751 21.1849 30.5706 21.3917 30.6403 21.2366ZM100.954 22.5524C100.965 22.38 100.8 22.3656 100.8 22.6098C100.8 22.854 100.69 22.9488 100.844 22.9977C100.994 23.0436 101.835 23.0867 102.073 23.1155C102.312 23.1471 102.305 23.0408 102.25 22.7736C102.191 22.5093 102.136 21.9893 102.136 21.8399C102.136 21.6905 101.982 21.702 101.872 21.7106C101.798 21.7164 100.587 21.7681 99.699 21.8054C99.6916 21.5957 99.688 21.3802 99.6806 21.1964C100.011 21.2107 100.371 21.2309 100.705 21.2481C100.716 21.3343 100.727 21.4032 100.734 21.4406C100.756 21.5727 100.928 21.7135 100.943 21.4434C100.943 21.4061 100.943 21.34 100.939 21.2625C101.336 21.2826 101.523 21.2941 101.765 21.3113C102.007 21.3285 102.103 21.1044 101.985 20.866C101.872 20.6247 101.754 18.424 101.721 17.7891C101.684 17.1542 101.431 17.2059 101.416 17.8064C101.405 18.4068 101.453 20.1966 101.453 20.5213C101.453 20.8488 101.306 20.9177 101.185 20.9177C101.064 20.9177 101.057 20.9148 100.921 20.9148C100.914 20.6592 100.91 20.3834 100.954 20.2426C101.035 19.9783 100.605 20.0989 100.407 20.0989C100.209 20.0989 99.5705 20.1679 99.2586 20.1162C98.943 20.0645 98.954 20.3029 99.0127 20.5356C99.0274 20.5959 99.0458 20.7396 99.0641 20.9235C98.7191 20.9292 98.2531 20.9378 98.2274 20.9551C98.1467 21.0068 98.2457 21.1389 98.2457 21.2366C98.3155 21.3917 98.4109 21.1849 98.4366 21.1648C98.4622 21.1447 98.8292 21.159 99.0898 21.1705C99.1081 21.3831 99.1265 21.6187 99.1412 21.8284C98.9393 21.8342 98.6127 21.8399 98.587 21.8399C98.4586 21.8399 98.3999 21.7796 98.3999 21.6216C98.3999 21.4636 98.1907 21.386 98.198 21.6331C98.2017 21.883 98.1687 22.0496 98.22 22.1042C98.2714 22.1617 98.3925 22.1645 98.532 22.1617C98.5687 22.1588 98.9246 22.1617 99.1632 22.1617C99.1705 22.2881 99.1779 22.38 99.1779 22.4202C99.1779 22.6185 99.2109 22.6443 98.8513 22.6271C98.4916 22.6098 37.8478 22.7104 37.1652 22.7018C36.479 22.6932 36.7726 22.8799 37.1505 22.8627C37.5285 22.8454 99.1999 22.9086 99.5375 22.9431C99.8715 22.9776 99.7577 22.8311 99.7393 22.7449C99.732 22.7161 99.7247 22.4748 99.71 22.1674C100.459 22.1732 101.358 22.1818 101.405 22.1818C101.486 22.1818 101.512 22.1961 101.527 22.3484C101.545 22.5035 101.574 22.6328 101.512 22.6357C101.446 22.6414 101.116 22.6529 101.038 22.6529C100.965 22.6558 100.95 22.6098 100.954 22.5524ZM74.3442 22.3369C74.5203 22.3312 97.6586 22.4116 97.754 22.334C97.8531 22.2565 97.8861 21.2653 97.8127 21.2682C97.7356 21.2711 96.6347 21.2366 96.587 21.2941C96.5393 21.3515 96.6017 21.8457 96.664 21.8485C96.7301 21.8485 96.8255 21.5296 96.8879 21.5181C96.9503 21.5067 97.4347 21.4779 97.4604 21.5153C97.4897 21.5497 97.4053 22.0381 97.3833 22.0726C97.3613 22.1071 74.524 22.1789 74.3662 22.1933C74.2084 22.2076 74.1974 22.3283 74.3442 22.3369ZM31.3376 21.001C31.5137 21.0068 32.3798 20.9263 32.4789 21.0039C32.5743 21.0815 32.6073 22.0726 32.5339 22.0697C32.4568 22.0669 31.3559 22.1013 31.3082 22.0439C31.2605 21.9864 31.3155 21.363 31.3779 21.3601C31.4403 21.3601 31.5431 21.7652 31.6054 21.7738C31.6678 21.7882 32.1559 21.86 32.1816 21.8227C32.211 21.7882 32.1302 21.2998 32.1045 21.2653C32.0825 21.2337 31.5174 21.1619 31.3596 21.1447C31.2054 21.1303 31.1944 21.0096 31.3376 21.001ZM28.9522 20.9177C28.6072 20.9148 28.2512 20.9148 27.9687 20.9148C27.9833 20.7942 27.9907 20.6879 27.9907 20.6362C27.9907 20.4983 28.1008 20.5184 28.1815 20.504C28.2622 20.4925 28.6586 20.5213 28.7907 20.527C28.9228 20.5299 28.9412 20.5442 28.9522 20.6563C28.9558 20.6793 28.9558 20.7741 28.9522 20.9177ZM99.677 20.9177C99.6733 20.7741 99.6733 20.6764 99.677 20.6563C99.688 20.5442 99.7063 20.5299 99.8384 20.527C99.9705 20.5213 100.367 20.4925 100.448 20.504C100.528 20.5184 100.638 20.4983 100.638 20.6362C100.638 20.6879 100.646 20.7942 100.66 20.9148C100.378 20.9148 100.022 20.9148 99.677 20.9177ZM27.6934 15.4449C27.7008 15.5741 27.5907 19.5904 27.6971 19.6623C27.8035 19.7341 29.1467 19.7599 29.143 19.7054C29.1393 19.6479 29.187 18.8349 29.1063 18.8004C29.0292 18.7659 28.3613 18.8119 28.3577 18.8579C28.354 18.9067 28.787 18.9756 28.8054 19.0216C28.8201 19.0676 28.8568 19.4238 28.809 19.4468C28.7577 19.4669 28.0971 19.4066 28.0531 19.3893C28.0054 19.3721 27.9099 15.577 27.8879 15.4621C27.8696 15.3443 27.7044 15.3357 27.6934 15.4449ZM99.5705 19.6479C99.5779 19.5186 99.4678 18.878 99.5742 18.809C99.6806 18.7372 101.02 18.7113 101.016 18.7659C101.013 18.8234 101.06 19.6364 100.983 19.6709C100.906 19.7054 100.062 19.6651 100.059 19.6192C100.055 19.5732 100.602 19.4985 100.62 19.4525C100.635 19.4066 100.734 19.0446 100.686 19.0245C100.635 19.0044 99.9742 19.0647 99.9302 19.0819C99.8825 19.0992 99.7871 19.5157 99.765 19.6307C99.7467 19.7484 99.5816 19.7542 99.5705 19.6479ZM97.9888 1.90784C97.9888 2.00551 97.8898 2.14054 97.9705 2.18938C97.9962 2.20662 98.7191 2.21524 99.0641 2.22098C99.0458 2.40485 99.0274 2.55136 99.0127 2.61169C98.954 2.84152 98.943 3.08285 99.2586 3.03113C99.5705 2.97942 100.209 3.04837 100.407 3.04837C100.605 3.04837 101.035 3.16903 100.954 2.90185C100.91 2.76108 100.914 2.48529 100.921 2.2296C101.057 2.2296 101.152 2.2296 101.185 2.2296C101.394 2.2296 101.453 2.29855 101.453 2.62319C101.453 2.94782 101.405 14.8272 101.416 15.4276C101.431 16.0281 101.684 16.0769 101.721 15.4449C101.754 14.81 101.872 2.51976 101.985 2.28131C102.103 2.03999 102.139 1.81016 101.765 1.83601C101.655 1.84176 101.336 1.86187 100.939 1.88485C100.943 1.80441 100.943 1.74121 100.943 1.70099C100.928 1.43381 100.756 1.57171 100.734 1.70386C100.727 1.74121 100.716 1.81303 100.705 1.89635C100.371 1.91646 100.011 1.93369 99.6806 1.95093C99.688 1.76419 99.6916 1.54873 99.699 1.34188C100.587 1.37635 101.798 1.42807 101.872 1.43381C101.982 1.44243 102.136 1.45679 102.136 1.30453C102.136 1.15514 102.191 0.638022 102.25 0.370844C102.305 0.106539 102.312 0.000242583 102.073 0.0289711C101.835 0.060573 100.994 0.100793 100.844 0.149632C100.69 0.195598 100.8 0.290404 100.8 0.534599C100.8 0.778794 100.965 0.767302 100.954 0.592056C100.95 0.537471 100.965 0.488633 101.038 0.491505C101.116 0.494379 101.446 0.50587 101.512 0.508743C101.574 0.514488 101.545 0.640896 101.527 0.796031C101.512 0.951167 101.486 0.962658 101.405 0.962658C101.358 0.962658 100.459 0.971277 99.71 0.979896C99.7247 0.669624 99.732 0.428302 99.7393 0.399573C99.7577 0.313387 99.8715 0.169742 99.5375 0.204217C99.1999 0.235818 95.5337 0.301895 95.1557 0.284658C94.7814 0.267421 94.4842 0.451285 95.1704 0.442666C95.853 0.434048 98.4916 0.537471 98.8513 0.520234C99.2109 0.502997 99.1779 0.528853 99.1779 0.724209C99.1779 0.764429 99.1705 0.859234 99.1632 0.982769C98.9246 0.985642 98.2898 0.985641 98.2567 0.985641C98.1173 0.979895 97.9962 0.985642 97.9411 1.04023C97.8898 1.09481 97.9265 1.26431 97.9191 1.51138C97.9118 1.76132 98.121 1.68375 98.121 1.52574C98.121 1.36486 98.1797 1.30453 98.3081 1.30453C98.3338 1.30453 98.9393 1.31028 99.1412 1.3189C99.1265 1.52862 99.1081 1.76419 99.0898 1.97679C98.8292 1.9854 98.2054 2.00264 98.1797 1.97966C98.154 1.95955 98.0586 1.7527 97.9888 1.90784ZM100.936 7.70244C100.928 7.57029 101.038 3.554 100.932 3.48218C100.826 3.41323 99.4825 3.3845 99.4861 3.44196C99.4898 3.49654 99.4421 4.31244 99.5228 4.34692C99.5999 4.38139 100.268 4.33542 100.271 4.28659C100.275 4.24062 99.8421 4.1688 99.8238 4.12283C99.8091 4.07686 99.7724 3.72063 99.8201 3.70052C99.8715 3.68041 100.532 3.74074 100.576 3.75797C100.624 3.77521 100.719 7.57029 100.741 7.68521C100.76 7.80012 100.925 7.80874 100.936 7.70244ZM27.6751 0.592056C27.6641 0.767302 27.8255 0.778794 27.8255 0.534599C27.8255 0.290404 27.9393 0.195598 27.7852 0.149632C27.6347 0.100793 26.7943 0.060573 26.5558 0.0289711C26.3172 0.000242583 26.3209 0.106539 26.3796 0.370844C26.4383 0.638022 26.4897 1.15514 26.4897 1.30453C26.4897 1.45679 26.6475 1.44243 26.7576 1.43381C26.831 1.42807 28.0421 1.37635 28.9301 1.34188C28.9338 1.54873 28.9412 1.76419 28.9448 1.95093C28.6182 1.93369 28.2549 1.91646 27.9246 1.89635C27.9136 1.81303 27.9026 1.74121 27.8953 1.70386C27.8732 1.57171 27.7008 1.43381 27.6861 1.70099C27.6861 1.74121 27.6861 1.80441 27.6897 1.88485C27.2934 1.86187 27.1026 1.85325 26.864 1.83601C26.6218 1.81878 26.5264 2.03999 26.6402 2.28131C26.7576 2.51976 26.875 4.72326 26.9081 5.35817C26.9448 5.99021 27.198 5.93849 27.209 5.34093C27.2237 4.7405 27.176 2.94782 27.176 2.62319C27.176 2.29855 27.3228 2.2296 27.4439 2.2296C27.565 2.2296 27.5723 2.2296 27.7081 2.2296C27.7154 2.48529 27.7191 2.76108 27.6751 2.90185C27.5943 3.16903 28.0237 3.04837 28.2219 3.04837C28.42 3.04837 29.0586 2.97942 29.3705 3.03113C29.6861 3.08285 29.6751 2.84152 29.6164 2.61169C29.6017 2.55136 29.5834 2.40485 29.5614 2.22385C29.91 2.21524 30.3761 2.20662 30.4017 2.18938C30.4825 2.14054 30.3834 2.00551 30.3834 1.90784C30.3137 1.7527 30.2183 1.95955 30.1926 1.97966C30.1669 2.00264 29.7999 1.9854 29.5393 1.97679C29.521 1.76419 29.5026 1.52862 29.488 1.3189C29.6898 1.31028 30.0164 1.30453 30.0421 1.30453C30.1705 1.30453 30.2293 1.36486 30.2293 1.52574C30.2293 1.68375 30.4384 1.76132 30.4311 1.51138C30.4274 1.26431 30.4605 1.09481 30.4091 1.04023C30.3577 0.985642 30.2329 0.979895 30.0972 0.985641C30.0605 0.985641 29.7045 0.985642 29.4659 0.982769C29.4586 0.859234 29.4513 0.764429 29.4513 0.724209C29.4513 0.528853 29.4182 0.502997 29.7779 0.520234C30.1375 0.537471 90.7813 0.434048 91.4639 0.442666C92.1502 0.451285 91.8529 0.267421 91.4749 0.284658C91.1006 0.301895 29.4292 0.235818 29.0916 0.204217C28.754 0.169742 28.8714 0.313387 28.8898 0.399573C28.8934 0.428302 28.9045 0.669624 28.9155 0.979896C28.1705 0.971277 27.2714 0.962658 27.2237 0.962658C27.1429 0.962658 27.1173 0.951167 27.1026 0.796031C27.0842 0.640896 27.0549 0.514488 27.1173 0.508743C27.1833 0.50587 27.5136 0.494379 27.587 0.491505C27.6641 0.488633 27.6787 0.537471 27.6751 0.592056ZM99.677 2.2296C100.022 2.2296 100.378 2.2296 100.66 2.2296C100.646 2.35026 100.638 2.45943 100.638 2.51114C100.638 2.64617 100.528 2.62893 100.448 2.64042C100.367 2.65479 99.9705 2.62319 99.8384 2.62031C99.7063 2.61457 99.688 2.60308 99.677 2.49103C99.6733 2.46805 99.6733 2.37037 99.677 2.2296ZM28.9522 2.2296C28.9558 2.37037 28.9558 2.46805 28.9522 2.49103C28.9412 2.60308 28.9228 2.61457 28.7907 2.62031C28.6586 2.62319 28.2622 2.65479 28.1815 2.64042C28.1008 2.62893 27.9907 2.64617 27.9907 2.51114C27.9907 2.45943 27.9833 2.35026 27.9687 2.2296C28.2512 2.2296 28.6072 2.2296 28.9522 2.2296ZM97.2916 2.14629C97.1118 2.13767 96.2494 2.22098 96.1503 2.14054C96.0549 2.06297 96.0182 1.0747 96.0952 1.0747C96.1723 1.07757 97.2732 1.0431 97.3209 1.10056C97.3686 1.15801 97.3136 1.78143 97.2512 1.7843C97.1852 1.78718 97.0861 1.3821 97.0237 1.37061C96.9613 1.35912 96.4732 1.28442 96.4475 1.32177C96.4182 1.35912 96.4989 1.84751 96.5246 1.87911C96.5466 1.91358 97.1118 1.9854 97.2696 1.99977C97.4237 2.01413 97.4347 2.13767 97.2916 2.14629ZM54.2849 0.807523C54.1051 0.813268 30.9706 0.732828 30.8752 0.810396C30.7761 0.887964 30.743 1.87911 30.8164 1.87624C30.8935 1.87336 31.9944 1.91071 32.0422 1.85325C32.0899 1.79292 32.0275 1.30166 31.9651 1.29879C31.899 1.29591 31.8036 1.61768 31.7412 1.62917C31.6788 1.64066 31.1944 1.66651 31.1687 1.63204C31.1394 1.59469 31.2238 1.1063 31.2458 1.07183C31.2678 1.04023 54.1051 0.968404 54.2629 0.95404C54.4171 0.939676 54.4281 0.816141 54.2849 0.807523Z" fill="#DBA45E"/>
</g>
<mask id="mask1_482_2240" style="mask-type:luminance" maskUnits="userSpaceOnUse" x="0" y="0" width="49" height="24">
<path d="M0 0H48.4977V23.1267H0V0Z" fill="white"/>
</mask>
<g mask="url(#mask1_482_2240)">
<path fill-rule="evenodd" clip-rule="evenodd" d="M64.9873 21.2208C64.9873 21.1232 64.8975 20.9911 64.9707 20.9395C64.994 20.9222 65.6493 20.9136 65.962 20.9079C65.9454 20.7242 65.9287 20.5806 65.9154 20.5203C65.8622 20.2878 65.8522 20.0495 66.135 20.1012C66.4211 20.1529 66.9999 20.084 67.1795 20.084C67.3558 20.084 67.7483 19.9634 67.6718 20.2275C67.6352 20.3682 67.6352 20.6438 67.6452 20.8993C67.7683 20.8993 67.8515 20.9021 67.8847 20.9021C68.0743 20.9021 68.1243 20.8332 68.1243 20.506C68.1243 20.1816 68.0843 8.31106 68.0943 7.71395C68.1043 7.11396 68.3372 7.06229 68.3671 7.69672C68.4004 8.32829 68.5035 20.6093 68.6099 20.8505C68.7164 21.0887 68.7463 21.3213 68.4103 21.2954C68.3105 21.2868 68.0178 21.2667 67.6585 21.2466C67.6619 21.3241 67.6652 21.3902 67.6619 21.4275C67.6486 21.6973 67.4955 21.5567 67.4722 21.4246C67.4689 21.3873 67.4589 21.3184 67.4456 21.2323C67.1462 21.2151 66.8169 21.195 66.5209 21.1806C66.5242 21.3643 66.5308 21.5796 66.5375 21.7892C67.3392 21.7519 68.4403 21.7002 68.5035 21.6945C68.6033 21.6859 68.7463 21.6744 68.7463 21.8237C68.7463 21.9729 68.7929 22.4925 68.8461 22.7566C68.8993 23.0236 68.906 23.1298 68.6898 23.0983C68.4735 23.0696 67.7084 23.0265 67.572 22.9806C67.4357 22.9318 67.5355 22.837 67.5355 22.593C67.5355 22.349 67.6818 22.3634 67.6718 22.5356C67.6685 22.593 67.6818 22.6389 67.7517 22.6361C67.8215 22.6361 68.1209 22.6246 68.1775 22.6189C68.2374 22.616 68.2107 22.4868 68.1941 22.3318C68.1775 22.1796 68.1575 22.1653 68.0843 22.1653C68.0411 22.1653 67.2228 22.1567 66.5475 22.1509C66.5574 22.4581 66.5674 22.6992 66.5741 22.7279C66.5874 22.8141 66.6938 22.9605 66.3878 22.926C66.0818 22.8916 62.7619 22.8284 62.4192 22.8456C62.0766 22.8629 61.8105 22.6763 62.4292 22.6849C63.0513 22.6935 65.4397 22.593 65.7657 22.6102C66.0951 22.6275 66.0618 22.6016 66.0618 22.4035C66.0618 22.3634 66.0585 22.2715 66.0518 22.1452C65.8356 22.1452 65.2568 22.1423 65.2268 22.1452C65.1004 22.1481 64.9906 22.1452 64.9441 22.0878C64.8975 22.0332 64.9274 21.8667 64.9241 21.617C64.9175 21.3701 65.1071 21.4476 65.1071 21.6055C65.1071 21.7634 65.1603 21.8237 65.2767 21.8237C65.3 21.8237 65.8456 21.8179 66.0319 21.8122C66.0185 21.6026 66.0019 21.3672 65.982 21.1548C65.7491 21.1433 65.1836 21.1289 65.1603 21.149C65.137 21.1691 65.0505 21.3758 64.9873 21.2208ZM1.25077 22.5356C1.24079 22.3634 1.38716 22.349 1.38716 22.593C1.38716 22.837 1.48695 22.9318 1.35056 22.9806C1.21418 23.0265 0.449071 23.0696 0.232846 23.0983C0.019947 23.1298 0.0232736 23.0236 0.0764982 22.7566C0.129723 22.4925 0.176295 21.9729 0.176295 21.8237C0.176295 21.6744 0.319335 21.6859 0.419132 21.6945C0.482337 21.7002 1.58342 21.7519 2.38512 21.7892C2.39177 21.5796 2.39843 21.3643 2.40175 21.1806C2.10569 21.195 1.77636 21.2151 1.47697 21.2323C1.46367 21.3184 1.45701 21.3873 1.45036 21.4246C1.42707 21.5567 1.27405 21.6973 1.26075 21.4275C1.25742 21.3902 1.26075 21.3241 1.26407 21.2466C0.904807 21.2667 0.731827 21.2782 0.512275 21.2954C0.292723 21.3127 0.206233 21.0887 0.312683 20.8505C0.419132 20.6093 0.522254 18.4103 0.55552 17.7759C0.585459 17.1415 0.818317 17.1931 0.828297 17.7931C0.838276 18.3931 0.798358 20.1816 0.798358 20.506C0.798358 20.8332 0.928093 20.9021 1.03787 20.9021C1.15097 20.9021 1.15762 20.8993 1.27738 20.8993C1.28736 20.6438 1.28736 20.3682 1.25077 20.2275C1.17758 19.9634 1.56679 20.084 1.7431 20.084C1.92273 20.084 2.50155 20.1529 2.78763 20.1012C3.07039 20.0495 3.06041 20.2878 3.00718 20.5203C2.99388 20.5806 2.97724 20.7242 2.96061 20.9079C3.27331 20.9136 3.6991 20.9222 3.72239 20.9395C3.79557 20.9911 3.70576 21.1232 3.70576 21.2208C3.64255 21.3758 3.55606 21.1691 3.53278 21.149C3.50949 21.1289 3.17351 21.1433 2.94065 21.1548C2.92069 21.3672 2.90406 21.6026 2.89075 21.8122C3.07704 21.8179 3.3731 21.8237 3.39639 21.8237C3.51282 21.8237 3.56604 21.7634 3.56604 21.6055C3.56604 21.4476 3.75233 21.3701 3.749 21.617C3.74235 21.8667 3.77561 22.0332 3.72904 22.0878C3.67914 22.1452 3.56937 22.1481 3.44296 22.1452C3.41302 22.1423 3.08702 22.1452 2.87079 22.1452C2.86414 22.2715 2.86081 22.3634 2.86081 22.4035C2.86081 22.6016 2.82755 22.6275 3.15688 22.6102C3.48288 22.593 58.4507 22.6935 59.0727 22.6849C59.6948 22.6763 59.4253 22.8629 59.0827 22.8456C58.7401 22.8284 2.84086 22.8916 2.53481 22.926C2.22877 22.9605 2.33522 22.8141 2.34853 22.7279C2.35518 22.6992 2.36516 22.4581 2.37514 22.1509C1.69985 22.1567 0.884849 22.1653 0.838277 22.1653C0.765093 22.1653 0.745133 22.1796 0.728501 22.3318C0.711868 22.4868 0.685256 22.616 0.745133 22.6189C0.801685 22.6246 1.10107 22.6361 1.17093 22.6361C1.24079 22.6389 1.25409 22.593 1.25077 22.5356ZM25.3682 22.3203C25.2085 22.3146 4.23468 22.3949 4.14819 22.3174C4.0617 22.2399 4.02843 21.2495 4.09829 21.2524C4.16482 21.2552 5.16611 21.2208 5.20935 21.2782C5.24927 21.3356 5.19272 21.8294 5.13617 21.8323C5.07962 21.8323 4.99313 21.5136 4.93658 21.5021C4.88003 21.4907 4.44092 21.4619 4.41431 21.4993C4.39102 21.5337 4.46421 22.0217 4.48417 22.0562C4.50745 22.0906 25.2052 22.1624 25.3482 22.1768C25.4913 22.1911 25.5013 22.3117 25.3682 22.3203ZM64.352 20.9854C64.1923 20.9911 63.4072 20.9108 63.3207 20.9883C63.2342 21.0658 63.201 22.0562 63.2708 22.0533C63.3374 22.0504 64.3386 22.0849 64.3819 22.0275C64.4218 21.9701 64.3752 21.3471 64.3154 21.3442C64.2588 21.3442 64.169 21.749 64.1124 21.7576C64.0559 21.772 63.6135 21.8438 63.5868 21.8064C63.5636 21.772 63.6367 21.284 63.6567 21.2495C63.6767 21.2179 64.1889 21.1462 64.332 21.1289C64.475 21.1146 64.485 20.994 64.352 20.9854ZM66.5175 20.9021C66.8302 20.8993 67.1529 20.8993 67.409 20.8993C67.3957 20.7787 67.3858 20.6725 67.3858 20.6208C67.3858 20.483 67.2893 20.5031 67.2161 20.4888C67.1429 20.4773 66.7837 20.506 66.6606 20.5117C66.5408 20.5146 66.5242 20.529 66.5142 20.6409C66.5142 20.6639 66.5142 20.7586 66.5175 20.9021ZM2.4084 20.9021C2.4084 20.7586 2.4084 20.661 2.4084 20.6409C2.39843 20.529 2.38179 20.5146 2.26204 20.5117C2.13895 20.506 1.77969 20.4773 1.7065 20.4888C1.63332 20.5031 1.53685 20.483 1.53685 20.6208C1.53685 20.6725 1.52687 20.7787 1.51356 20.8993C1.76971 20.8993 2.09238 20.8993 2.4084 20.9021ZM67.6585 15.4334C67.6519 15.5626 67.7483 19.5759 67.6552 19.6476C67.5587 19.7194 66.3412 19.7452 66.3446 19.6907C66.3479 19.6333 66.3046 18.8209 66.3745 18.7864C66.4477 18.752 67.0531 18.7979 67.0564 18.8438C67.0598 18.8926 66.6639 18.9615 66.6506 19.0075C66.6373 19.0534 66.6007 19.4094 66.6473 19.4323C66.6905 19.4524 67.2893 19.3921 67.3325 19.3749C67.3725 19.3577 67.4623 15.5654 67.4789 15.4506C67.4989 15.3329 67.6486 15.3243 67.6585 15.4334ZM2.50487 19.6333C2.49822 19.5041 2.59802 18.8639 2.50155 18.795C2.40508 18.7233 1.18756 18.6974 1.19089 18.752C1.19422 18.8094 1.15097 19.6218 1.22083 19.6562C1.29401 19.6907 2.05912 19.6505 2.06244 19.6046C2.06577 19.5586 1.56679 19.484 1.55348 19.4381C1.54018 19.3921 1.44703 19.0304 1.49361 19.0103C1.53685 18.9902 2.13895 19.0505 2.17887 19.0677C2.21879 19.085 2.30861 19.5012 2.32524 19.6161C2.3452 19.7338 2.49489 19.7395 2.50487 19.6333ZM3.93529 1.90643C3.93529 2.00404 4.0251 2.13896 3.95192 2.18777C3.92863 2.20499 3.27331 2.2136 2.96061 2.21935C2.97724 2.40307 2.99388 2.54948 3.00718 2.60977C3.06041 2.83943 3.07039 3.08057 2.78763 3.02889C2.50155 2.97722 1.92273 3.04612 1.7431 3.04612C1.56679 3.04612 1.17758 3.16669 1.25077 2.89971C1.28736 2.75905 1.28736 2.48345 1.27738 2.22796C1.15762 2.22796 1.07113 2.22796 1.03787 2.22796C0.848256 2.22796 0.798358 2.29686 0.798358 2.62125C0.798358 2.94564 0.838276 14.8162 0.828297 15.4162C0.818317 16.0161 0.585459 16.0649 0.55552 15.4334C0.522254 14.7989 0.419132 2.5179 0.312683 2.27963C0.206233 2.03849 0.176294 1.80883 0.512275 1.83467C0.615398 1.84041 0.904807 1.8605 1.26407 1.88347C1.26075 1.80309 1.25742 1.73993 1.26075 1.69974C1.27405 1.43276 1.42707 1.57056 1.45036 1.70261C1.45701 1.73993 1.46367 1.8117 1.47697 1.89495C1.77636 1.91505 2.10569 1.93227 2.40175 1.9495C2.39843 1.7629 2.39177 1.54759 2.38512 1.3409C1.58342 1.37535 0.482337 1.42702 0.419132 1.43276C0.319335 1.44137 0.176295 1.45573 0.176295 1.30358C0.176295 1.1543 0.129723 0.637565 0.0764982 0.370586C0.0232736 0.106478 0.019947 0.00026059 0.232846 0.0289677C0.449071 0.060546 1.21418 0.100736 1.35056 0.149539C1.48695 0.195471 1.38716 0.290205 1.38716 0.534219C1.38716 0.778232 1.24079 0.766749 1.25077 0.591633C1.25409 0.537089 1.24079 0.488287 1.17093 0.491157C1.10107 0.494029 0.801685 0.505511 0.745133 0.508382C0.685256 0.514123 0.711868 0.640437 0.728501 0.795456C0.745133 0.950476 0.765093 0.961959 0.838277 0.961959C0.884849 0.961959 1.69985 0.970572 2.37514 0.979184C2.36516 0.669144 2.35518 0.428001 2.34853 0.399294C2.33522 0.313172 2.22877 0.169633 2.53481 0.204083C2.84086 0.235661 6.16074 0.301689 6.50338 0.284464C6.84601 0.26724 7.11546 0.450967 6.4934 0.442355C5.87134 0.433743 3.48288 0.537089 3.15688 0.519865C2.82755 0.502641 2.86081 0.528477 2.86081 0.723688C2.86081 0.763878 2.86414 0.858612 2.87079 0.982055C3.08702 0.984926 3.66584 0.984925 3.69578 0.984925C3.82218 0.979184 3.93196 0.984926 3.97853 1.03947C4.0251 1.09401 3.99517 1.26339 4.00182 1.51027C4.00514 1.76003 3.81553 1.68252 3.81553 1.52463C3.81553 1.36386 3.76231 1.30358 3.64588 1.30358C3.62259 1.30358 3.07704 1.30932 2.89075 1.31793C2.90406 1.5275 2.92069 1.7629 2.94065 1.97533C3.17351 1.98394 3.73902 2.00117 3.76231 1.9782C3.78559 1.95811 3.87208 1.75141 3.93529 1.90643ZM1.26407 7.69672C1.27405 7.56467 1.17426 3.55137 1.2674 3.4796C1.36387 3.4107 2.58138 3.382 2.57806 3.43941C2.57473 3.49396 2.61798 4.30925 2.54812 4.3437C2.47826 4.37814 1.8695 4.33221 1.86618 4.28341C1.86618 4.23748 2.25871 4.16571 2.27202 4.11978C2.28532 4.07385 2.32191 3.71787 2.27534 3.69778C2.2321 3.67768 1.63332 3.73797 1.59008 3.75519C1.55016 3.77242 1.46034 7.56467 1.44371 7.6795C1.42375 7.79433 1.27405 7.80294 1.26407 7.69672ZM67.6718 0.591633C67.6818 0.766749 67.5355 0.778232 67.5355 0.534219C67.5355 0.290205 67.4357 0.195471 67.572 0.149539C67.7084 0.100736 68.4735 0.060546 68.6898 0.0289677C68.906 0.00026059 68.8993 0.106478 68.8461 0.370586C68.7929 0.637565 68.7463 1.1543 68.7463 1.30358C68.7463 1.45573 68.6033 1.44137 68.5035 1.43276C68.4403 1.42702 67.3392 1.37535 66.5375 1.3409C66.5308 1.54759 66.5242 1.7629 66.5209 1.9495C66.8169 1.93227 67.1462 1.91505 67.4456 1.89495C67.4589 1.8117 67.4689 1.73993 67.4722 1.70261C67.4955 1.57056 67.6486 1.43276 67.6619 1.69974C67.6652 1.73993 67.6619 1.80309 67.6585 1.88347C68.0178 1.8605 68.1908 1.85189 68.4103 1.83467C68.6299 1.81744 68.7164 2.03849 68.6099 2.27963C68.5035 2.5179 68.4004 4.71976 68.3671 5.3542C68.3372 5.98576 68.1043 5.93409 68.0943 5.33697C68.0843 4.73699 68.1243 2.94564 68.1243 2.62125C68.1243 2.29686 67.9945 2.22796 67.8847 2.22796C67.775 2.22796 67.7683 2.22796 67.6452 2.22796C67.6352 2.48345 67.6352 2.75905 67.6718 2.89971C67.7483 3.16669 67.3558 3.04612 67.1795 3.04612C66.9999 3.04612 66.4211 2.97722 66.135 3.02889C65.8522 3.08057 65.8622 2.83943 65.9154 2.60977C65.9287 2.54948 65.9454 2.40307 65.962 2.22222C65.6493 2.2136 65.2235 2.20499 65.2035 2.18777C65.127 2.13896 65.2169 2.00404 65.2169 1.90643C65.2801 1.75141 65.3699 1.95811 65.3898 1.9782C65.4131 2.00117 65.7491 1.98394 65.982 1.97533C66.0019 1.7629 66.0185 1.5275 66.0319 1.31793C65.8456 1.30932 65.5495 1.30358 65.5262 1.30358C65.4098 1.30358 65.3599 1.36386 65.3599 1.52463C65.3599 1.68252 65.1703 1.76003 65.1736 1.51027C65.1803 1.26339 65.147 1.09401 65.1936 1.03947C65.2435 0.984926 65.3532 0.979184 65.4796 0.984925C65.5096 0.984925 65.8356 0.984926 66.0518 0.982055C66.0585 0.858612 66.0618 0.763878 66.0618 0.723688C66.0618 0.528477 66.0951 0.502641 65.7657 0.519865C65.4397 0.537089 10.4719 0.433743 9.84988 0.442355C9.22782 0.450967 9.49727 0.26724 9.8399 0.284464C10.1825 0.301689 66.0818 0.235661 66.3878 0.204083C66.6938 0.169633 66.5874 0.313172 66.5741 0.399294C66.5674 0.428001 66.5574 0.669144 66.5475 0.979184C67.2228 0.970572 68.0411 0.961959 68.0843 0.961959C68.1575 0.961959 68.1775 0.950476 68.1941 0.795456C68.2107 0.640437 68.2374 0.514123 68.1775 0.508382C68.1209 0.505511 67.8215 0.494029 67.7517 0.491157C67.6818 0.488287 67.6685 0.537089 67.6718 0.591633ZM2.4084 2.22796C2.09238 2.22796 1.76971 2.22796 1.51356 2.22796C1.52687 2.34853 1.53685 2.45762 1.53685 2.50929C1.53685 2.64422 1.63332 2.62699 1.7065 2.63847C1.77969 2.65283 2.13895 2.62125 2.26204 2.61838C2.38179 2.61264 2.39843 2.60115 2.4084 2.4892C2.4084 2.46623 2.4084 2.36862 2.4084 2.22796ZM66.5175 2.22796C66.5142 2.36862 66.5142 2.46623 66.5142 2.4892C66.5242 2.60115 66.5408 2.61264 66.6606 2.61838C66.7837 2.62125 67.1429 2.65283 67.2161 2.63847C67.2893 2.62699 67.3858 2.64422 67.3858 2.50929C67.3858 2.45762 67.3957 2.34853 67.409 2.22796C67.1529 2.22796 66.8302 2.22796 66.5175 2.22796ZM4.57066 2.14471C4.73033 2.13609 5.5154 2.21935 5.60189 2.13896C5.68838 2.06145 5.72164 1.07392 5.65178 1.07392C5.58525 1.07679 4.58396 1.04234 4.54404 1.09976C4.5008 1.15717 4.54737 1.78012 4.60725 1.78299C4.6638 1.78586 4.75362 1.38109 4.81017 1.36961C4.86672 1.35812 5.30915 1.28348 5.33576 1.3208C5.35905 1.35812 5.28586 1.84615 5.2659 1.87773C5.24595 1.91218 4.73366 1.98394 4.59062 1.9983C4.44758 2.01265 4.4376 2.13609 4.57066 2.14471ZM43.5544 0.806939C43.7141 0.81268 64.6879 0.7323 64.7744 0.80981C64.8609 0.88732 64.8942 1.87773 64.8243 1.87486C64.7578 1.87199 63.7565 1.9093 63.7133 1.85189C63.6733 1.7916 63.7299 1.30071 63.7864 1.29784C63.843 1.29497 63.9295 1.61649 63.986 1.62797C64.0426 1.63945 64.4817 1.66529 64.5083 1.63084C64.5316 1.59352 64.4584 1.1055 64.4384 1.07105C64.4152 1.03947 43.7174 0.967701 43.5744 0.953347C43.4313 0.938994 43.4213 0.815552 43.5544 0.806939Z" fill="#DBA45E"/>
</g>
</svg>
