<svg width="367" height="740" viewBox="0 0 367 740" fill="none" xmlns="http://www.w3.org/2000/svg">
<mask id="mask0_672_3274" style="mask-type:luminance" maskUnits="userSpaceOnUse" x="172" y="722" width="21" height="18">
<path d="M172.729 739.812H193V722.504H172.729V739.812Z" fill="white"/>
</mask>
<g mask="url(#mask0_672_3274)">
<mask id="mask1_672_3274" style="mask-type:luminance" maskUnits="userSpaceOnUse" x="173" y="722" width="20" height="18">
<path d="M192.715 739.365H173.011V722.539H192.715V739.365Z" fill="white"/>
</mask>
<g mask="url(#mask1_672_3274)">
<path d="M182.862 723.537C187.66 723.537 191.547 726.857 191.547 730.952C191.547 735.047 187.66 738.366 182.862 738.366C178.068 738.366 174.18 735.047 174.18 730.952C174.18 726.857 178.068 723.537 182.862 723.537ZM182.862 739.365C188.305 739.365 192.715 735.597 192.715 730.952C192.715 726.305 188.305 722.539 182.862 722.539C177.422 722.539 173.011 726.305 173.011 730.952C173.011 735.597 177.422 739.365 182.862 739.365Z" fill="#C99949"/>
</g>
<path d="M182.864 736.895C182.95 733.662 186.025 731.06 189.822 731.021C189.779 734.27 186.68 736.893 182.864 736.895Z" fill="#C99949"/>
<path d="M175.904 731.021C179.701 731.06 182.774 733.662 182.86 736.895C179.046 736.893 175.947 734.27 175.904 731.021Z" fill="#C99949"/>
<path d="M175.904 730.883C175.947 727.634 179.046 725.011 182.86 725.01C182.774 728.242 179.701 730.844 175.904 730.883Z" fill="#C99949"/>
<path d="M182.864 725.01C186.68 725.011 189.779 727.634 189.822 730.883C186.025 730.844 182.95 728.242 182.864 725.01Z" fill="#C99949"/>
<path d="M182.864 736.895C182.95 733.662 186.025 731.06 189.822 731.021C189.779 734.27 186.68 736.893 182.864 736.895Z" fill="#C99949"/>
<path d="M182.864 725.148C186.68 725.15 189.779 727.772 189.822 731.021C186.025 730.985 182.95 728.381 182.864 725.148Z" fill="#C99949"/>
<path d="M175.904 731.021C175.947 727.772 179.046 725.15 182.86 725.148C182.774 728.381 179.701 730.985 175.904 731.021Z" fill="#C99949"/>
<path d="M182.86 736.895C179.046 736.893 175.947 734.27 175.904 731.021C179.701 731.06 182.774 733.662 182.86 736.895Z" fill="#C99949"/>
</g>
<mask id="mask2_672_3274" style="mask-type:luminance" maskUnits="userSpaceOnUse" x="195" y="730" width="134" height="2">
<path d="M328.079 731.274H195.079V730.016H328.079V731.274Z" fill="white"/>
</mask>
<g mask="url(#mask2_672_3274)">
<path d="M328.079 731.238H194.882V730.319H328.079V731.238Z" fill="#C99949"/>
</g>
<mask id="mask3_672_3274" style="mask-type:luminance" maskUnits="userSpaceOnUse" x="38" y="730" width="134" height="2">
<path d="M171.079 731.583H38.0791V730.325H171.079V731.583Z" fill="white"/>
</mask>
<g mask="url(#mask3_672_3274)">
<path d="M171.079 731.547H37.8823V730.628H171.079V731.547Z" fill="#C99949"/>
</g>
<mask id="mask4_672_3274" style="mask-type:luminance" maskUnits="userSpaceOnUse" x="328" y="703" width="39" height="34">
<path d="M366.079 736.396H328V703H366.079V736.396Z" fill="white"/>
</mask>
<g mask="url(#mask4_672_3274)">
<path fill-rule="evenodd" clip-rule="evenodd" d="M351.496 724.305H362.051V733.323H351.496V724.305ZM353.19 725.75V731.878H360.357V725.75H353.19Z" fill="#C99949"/>
<path fill-rule="evenodd" clip-rule="evenodd" d="M346.304 719.868H353.19V725.75H346.304V719.868ZM347.998 721.313V724.305H351.496V721.313H347.998Z" fill="#C99949"/>
<mask id="mask5_672_3274" style="mask-type:luminance" maskUnits="userSpaceOnUse" x="356" y="703" width="1" height="23">
<path d="M356.119 725.318H356.822V703.081H356.119V725.318Z" fill="white"/>
</mask>
<g mask="url(#mask5_672_3274)">
<path fill-rule="evenodd" clip-rule="evenodd" d="M357.319 703.081V725.027H355.625V703.081H357.319Z" fill="#C99949"/>
</g>
<mask id="mask6_672_3274" style="mask-type:luminance" maskUnits="userSpaceOnUse" x="327" y="730" width="27" height="2">
<path d="M327 731.113H353.12V730.212H327V731.113Z" fill="white"/>
</mask>
<g mask="url(#mask6_672_3274)">
<path fill-rule="evenodd" clip-rule="evenodd" d="M327.015 730.01H352.343V731.455H327.015V730.01Z" fill="#C99949"/>
</g>
<mask id="mask7_672_3274" style="mask-type:luminance" maskUnits="userSpaceOnUse" x="355" y="728" width="10" height="8">
<path d="M355.764 735.543H364.65V728.405H355.764V735.543Z" fill="white"/>
</mask>
<g mask="url(#mask7_672_3274)">
<path fill-rule="evenodd" clip-rule="evenodd" d="M355.626 728.092H364.858V735.978H355.626V728.092ZM357.32 729.537V734.533H363.165V729.537H357.32Z" fill="#C99949"/>
</g>
<mask id="mask8_672_3274" style="mask-type:luminance" maskUnits="userSpaceOnUse" x="360" y="722" width="5" height="4">
<path d="M360.826 725.318H364.635V722.087H360.826V725.318Z" fill="white"/>
</mask>
<g mask="url(#mask8_672_3274)">
<path fill-rule="evenodd" clip-rule="evenodd" d="M360.357 721.659H365.146V725.75H360.357V721.659ZM362.051 723.104V724.305H363.452V723.104H362.051Z" fill="#C99949"/>
</g>
<path fill-rule="evenodd" clip-rule="evenodd" d="M348.973 731.878H353.189V735.477H348.973V731.878ZM350.667 733.323V734.032H351.496V733.323H350.667Z" fill="#C99949"/>
</g>
<mask id="mask9_672_3274" style="mask-type:luminance" maskUnits="userSpaceOnUse" x="0" y="703" width="39" height="34">
<path d="M-9.91821e-05 736.396H38.0791V703H-9.91821e-05V736.396Z" fill="white"/>
</mask>
<g mask="url(#mask9_672_3274)">
<path fill-rule="evenodd" clip-rule="evenodd" d="M14.583 724.305H4.02842V733.323H14.583V724.305ZM12.8892 725.75V731.878H5.72222V725.75H12.8892Z" fill="#C99949"/>
<path fill-rule="evenodd" clip-rule="evenodd" d="M19.7749 719.868H12.8894V725.75H19.7749V719.868ZM18.0811 721.313V724.305H14.5832V721.313H18.0811Z" fill="#C99949"/>
<mask id="mask10_672_3274" style="mask-type:luminance" maskUnits="userSpaceOnUse" x="9" y="703" width="1" height="23">
<path d="M9.95996 725.318H9.25755V703.081H9.95996V725.318Z" fill="white"/>
</mask>
<g mask="url(#mask10_672_3274)">
<path fill-rule="evenodd" clip-rule="evenodd" d="M8.75981 703.081V725.027H10.4536V703.081H8.75981Z" fill="#C99949"/>
</g>
<mask id="mask11_672_3274" style="mask-type:luminance" maskUnits="userSpaceOnUse" x="12" y="730" width="28" height="2">
<path d="M39.0791 731.113H12.9596V730.212H39.0791V731.113Z" fill="white"/>
</mask>
<g mask="url(#mask11_672_3274)">
<path fill-rule="evenodd" clip-rule="evenodd" d="M39.0645 730.01H13.7361V731.455H39.0645V730.01Z" fill="#C99949"/>
</g>
<mask id="mask12_672_3274" style="mask-type:luminance" maskUnits="userSpaceOnUse" x="1" y="728" width="10" height="8">
<path d="M10.3149 735.543H1.42938V728.405H10.3149V735.543Z" fill="white"/>
</mask>
<g mask="url(#mask12_672_3274)">
<path fill-rule="evenodd" clip-rule="evenodd" d="M10.4531 728.092H1.22073V735.978H10.4531V728.092ZM8.75932 729.537V734.533H2.91454V729.537H8.75932Z" fill="#C99949"/>
</g>
<mask id="mask13_672_3274" style="mask-type:luminance" maskUnits="userSpaceOnUse" x="1" y="722" width="5" height="4">
<path d="M5.25342 725.318H1.44385V722.087H5.25342V725.318Z" fill="white"/>
</mask>
<g mask="url(#mask13_672_3274)">
<path fill-rule="evenodd" clip-rule="evenodd" d="M5.72217 721.659H0.933595V725.75H5.72217V721.659ZM4.02836 723.104V724.305H2.6274V723.104H4.02836Z" fill="#C99949"/>
</g>
<path fill-rule="evenodd" clip-rule="evenodd" d="M17.106 731.878H12.8896V735.477H17.106V731.878ZM15.4122 733.323V734.032H14.5835V733.323H15.4122Z" fill="#C99949"/>
</g>
<mask id="mask14_672_3274" style="mask-type:luminance" maskUnits="userSpaceOnUse" x="9" y="35" width="1" height="377">
<path d="M10 411.84L10 35.0087H9L9 411.84H10Z" fill="white"/>
</mask>
<g mask="url(#mask14_672_3274)">
<path d="M9.97119 411.84L9.97119 34.451H9.24012L9.24012 411.84H9.97119Z" fill="#C99949"/>
</g>
<mask id="mask15_672_3274" style="mask-type:luminance" maskUnits="userSpaceOnUse" x="356" y="35" width="1" height="368">
<path d="M357 402.456L357 35.0085H356L356 402.456H357Z" fill="white"/>
</mask>
<g mask="url(#mask15_672_3274)">
<path d="M356.971 402.456L356.971 34.4648H356.24L356.24 402.456H356.971Z" fill="#C99949"/>
</g>
<mask id="mask16_672_3274" style="mask-type:luminance" maskUnits="userSpaceOnUse" x="173" y="0" width="21" height="18">
<path d="M193.271 0H173V17.3088H193.271V0Z" fill="white"/>
</mask>
<g mask="url(#mask16_672_3274)">
<mask id="mask17_672_3274" style="mask-type:luminance" maskUnits="userSpaceOnUse" x="173" y="0" width="20" height="18">
<path d="M173.285 0.447266H192.989V17.2737H173.285V0.447266Z" fill="white"/>
</mask>
<g mask="url(#mask17_672_3274)">
<path d="M183.138 16.2759C178.34 16.2759 174.453 12.9556 174.453 8.86048C174.453 4.76534 178.34 1.44684 183.138 1.44684C187.932 1.44684 191.82 4.76534 191.82 8.86048C191.82 12.9556 187.932 16.2759 183.138 16.2759ZM183.138 0.447266C177.695 0.447266 173.285 4.2153 173.285 8.86048C173.285 13.5075 177.695 17.2737 183.138 17.2737C188.578 17.2737 192.989 13.5075 192.989 8.86048C192.989 4.2153 188.578 0.447266 183.138 0.447266Z" fill="#C99949"/>
</g>
<path d="M183.136 2.91846C183.05 6.15107 179.975 8.75325 176.178 8.79162C176.221 5.54256 179.32 2.92028 183.136 2.91846Z" fill="#C99949"/>
<path d="M190.096 8.79162C186.299 8.75325 183.226 6.15107 183.14 2.91846C186.954 2.92028 190.053 5.54256 190.096 8.79162Z" fill="#C99949"/>
<path d="M190.096 8.93018C190.053 12.1792 186.954 14.8015 183.14 14.8033C183.226 11.5707 186.299 8.96855 190.096 8.93018Z" fill="#C99949"/>
<path d="M183.136 14.8033C179.32 14.8015 176.221 12.1792 176.178 8.93018C179.975 8.96855 183.05 11.5707 183.136 14.8033Z" fill="#C99949"/>
<path d="M183.136 2.91846C183.05 6.15107 179.975 8.75325 176.178 8.79162C176.221 5.54256 179.32 2.92028 183.136 2.91846Z" fill="#C99949"/>
<path d="M183.136 14.6647C179.32 14.6628 176.221 12.0406 176.178 8.7915C179.975 8.82805 183.05 11.4321 183.136 14.6647Z" fill="#C99949"/>
<path d="M190.096 8.7915C190.053 12.0406 186.954 14.6628 183.14 14.6647C183.226 11.4321 186.299 8.82805 190.096 8.7915Z" fill="#C99949"/>
<path d="M183.14 2.91846C186.954 2.92028 190.053 5.54256 190.096 8.79162C186.299 8.75325 183.226 6.15107 183.14 2.91846Z" fill="#C99949"/>
</g>
<mask id="mask18_672_3274" style="mask-type:luminance" maskUnits="userSpaceOnUse" x="195" y="8" width="133" height="2">
<path d="M195 8.53857H328V9.79699H195V8.53857Z" fill="white"/>
</mask>
<g mask="url(#mask18_672_3274)">
<path d="M195 8.57471H328.197V9.49385H195V8.57471Z" fill="#C99949"/>
</g>
<mask id="mask19_672_3274" style="mask-type:luminance" maskUnits="userSpaceOnUse" x="38" y="8" width="133" height="2">
<path d="M38 8.53857H171V9.79699H38V8.53857Z" fill="white"/>
</mask>
<g mask="url(#mask19_672_3274)">
<path d="M38 8.57471H171.197V9.49385H38V8.57471Z" fill="#C99949"/>
</g>
<mask id="mask20_672_3274" style="mask-type:luminance" maskUnits="userSpaceOnUse" x="0" y="3" width="39" height="34">
<path d="M-9.91821e-05 3.41504H38.0791V36.8112H-9.91821e-05V3.41504Z" fill="white"/>
</mask>
<g mask="url(#mask20_672_3274)">
<path fill-rule="evenodd" clip-rule="evenodd" d="M14.583 15.5068H4.02842V6.48851H14.583V15.5068ZM12.8892 14.0619V7.93346H5.72222V14.0619H12.8892Z" fill="#C99949"/>
<path fill-rule="evenodd" clip-rule="evenodd" d="M19.7749 19.9438H12.8894V14.0617H19.7749V19.9438ZM18.0811 18.4989V15.5067H14.5832V18.4989H18.0811Z" fill="#C99949"/>
<mask id="mask21_672_3274" style="mask-type:luminance" maskUnits="userSpaceOnUse" x="9" y="14" width="1" height="23">
<path d="M9.95996 14.4937H9.25755V36.7307H9.95996V14.4937Z" fill="white"/>
</mask>
<g mask="url(#mask21_672_3274)">
<path fill-rule="evenodd" clip-rule="evenodd" d="M8.75981 36.731V14.7847H10.4536V36.731H8.75981Z" fill="#C99949"/>
</g>
<mask id="mask22_672_3274" style="mask-type:luminance" maskUnits="userSpaceOnUse" x="12" y="8" width="28" height="2">
<path d="M39.0791 8.69922H12.9596V9.60099H39.0791V8.69922Z" fill="white"/>
</mask>
<g mask="url(#mask22_672_3274)">
<path fill-rule="evenodd" clip-rule="evenodd" d="M39.0645 9.80225H13.7361V8.3573H39.0645V9.80225Z" fill="#C99949"/>
</g>
<mask id="mask23_672_3274" style="mask-type:luminance" maskUnits="userSpaceOnUse" x="1" y="4" width="10" height="8">
<path d="M10.3149 4.26904H1.42938V11.407H10.3149V4.26904Z" fill="white"/>
</mask>
<g mask="url(#mask23_672_3274)">
<path fill-rule="evenodd" clip-rule="evenodd" d="M10.4531 11.7202H1.22073V3.83366H10.4531V11.7202ZM8.75932 10.2753V5.27861H2.91454V10.2753H8.75932Z" fill="#C99949"/>
</g>
<mask id="mask24_672_3274" style="mask-type:luminance" maskUnits="userSpaceOnUse" x="1" y="14" width="5" height="4">
<path d="M5.25342 14.4937H1.44385V17.725H5.25342V14.4937Z" fill="white"/>
</mask>
<g mask="url(#mask24_672_3274)">
<path fill-rule="evenodd" clip-rule="evenodd" d="M5.72217 18.1528H0.933595V14.0618H5.72217V18.1528ZM4.02836 16.7079V15.5067H2.6274V16.7079H4.02836Z" fill="#C99949"/>
</g>
<path fill-rule="evenodd" clip-rule="evenodd" d="M17.106 7.93408H12.8896V4.33488H17.106V7.93408ZM15.4122 6.48913V5.77983H14.5835V6.48913H15.4122Z" fill="#C99949"/>
</g>
<mask id="mask25_672_3274" style="mask-type:luminance" maskUnits="userSpaceOnUse" x="328" y="3" width="39" height="34">
<path d="M366.079 3.41504H328V36.8112H366.079V3.41504Z" fill="white"/>
</mask>
<g mask="url(#mask25_672_3274)">
<path fill-rule="evenodd" clip-rule="evenodd" d="M351.496 15.5068H362.051V6.48851H351.496V15.5068ZM353.19 14.0619V7.93346H360.357V14.0619H353.19Z" fill="#C99949"/>
<path fill-rule="evenodd" clip-rule="evenodd" d="M346.304 19.9438H353.19V14.0617H346.304V19.9438ZM347.998 18.4989V15.5067H351.496V18.4989H347.998Z" fill="#C99949"/>
<mask id="mask26_672_3274" style="mask-type:luminance" maskUnits="userSpaceOnUse" x="356" y="14" width="1" height="23">
<path d="M356.119 14.4937H356.822V36.7307H356.119V14.4937Z" fill="white"/>
</mask>
<g mask="url(#mask26_672_3274)">
<path fill-rule="evenodd" clip-rule="evenodd" d="M357.319 36.731V14.7847H355.625V36.731H357.319Z" fill="#C99949"/>
</g>
<mask id="mask27_672_3274" style="mask-type:luminance" maskUnits="userSpaceOnUse" x="327" y="8" width="27" height="2">
<path d="M327 8.69922H353.12V9.60099H327V8.69922Z" fill="white"/>
</mask>
<g mask="url(#mask27_672_3274)">
<path fill-rule="evenodd" clip-rule="evenodd" d="M327.015 9.80225H352.343V8.3573H327.015V9.80225Z" fill="#C99949"/>
</g>
<mask id="mask28_672_3274" style="mask-type:luminance" maskUnits="userSpaceOnUse" x="355" y="4" width="10" height="8">
<path d="M355.764 4.26904H364.65V11.407H355.764V4.26904Z" fill="white"/>
</mask>
<g mask="url(#mask28_672_3274)">
<path fill-rule="evenodd" clip-rule="evenodd" d="M355.626 11.7202H364.858V3.83366H355.626V11.7202ZM357.32 10.2753V5.27861H363.165V10.2753H357.32Z" fill="#C99949"/>
</g>
<mask id="mask29_672_3274" style="mask-type:luminance" maskUnits="userSpaceOnUse" x="360" y="14" width="5" height="4">
<path d="M360.826 14.4937H364.635V17.725H360.826V14.4937Z" fill="white"/>
</mask>
<g mask="url(#mask29_672_3274)">
<path fill-rule="evenodd" clip-rule="evenodd" d="M360.357 18.1528H365.146V14.0618H360.357V18.1528ZM362.051 16.7079V15.5067H363.452V16.7079H362.051Z" fill="#C99949"/>
</g>
<path fill-rule="evenodd" clip-rule="evenodd" d="M348.973 7.93408H353.189V4.33488H348.973V7.93408ZM350.667 6.48913V5.77983H351.496V6.48913H350.667Z" fill="#C99949"/>
</g>
<mask id="mask30_672_3274" style="mask-type:luminance" maskUnits="userSpaceOnUse" x="9" y="235" width="1" height="477">
<path d="M10 712L10 235.731H9L9 712H10Z" fill="white"/>
</mask>
<g mask="url(#mask30_672_3274)">
<path d="M9.97119 712L9.97119 235.027H9.24012L9.24012 712H9.97119Z" fill="#C99949"/>
</g>
<mask id="mask31_672_3274" style="mask-type:luminance" maskUnits="userSpaceOnUse" x="356" y="235" width="1" height="470">
<path d="M357 705L357 235.729H356L356 705H357Z" fill="white"/>
</mask>
<g mask="url(#mask31_672_3274)">
<path d="M356.971 705L356.971 235.035H356.24L356.24 705H356.971Z" fill="#C99949"/>
</g>
</svg>
