<svg width="367" height="511" viewBox="0 0 367 511" fill="none" xmlns="http://www.w3.org/2000/svg">
<mask id="mask0_482_2387" style="mask-type:luminance" maskUnits="userSpaceOnUse" x="172" y="489" width="21" height="22">
<path d="M172.729 510.151H193V489.862H172.729V510.151Z" fill="white"/>
</mask>
<g mask="url(#mask0_482_2387)">
<mask id="mask1_482_2387" style="mask-type:luminance" maskUnits="userSpaceOnUse" x="173" y="489" width="20" height="21">
<path d="M192.715 509.627H173.011V489.903H192.715V509.627Z" fill="white"/>
</mask>
<g mask="url(#mask1_482_2387)">
<path d="M182.862 491.072C187.66 491.072 191.547 494.964 191.547 499.765C191.547 504.565 187.66 508.455 182.862 508.455C178.068 508.455 174.18 504.565 174.18 499.765C174.18 494.964 178.068 491.072 182.862 491.072ZM182.862 509.627C188.305 509.627 192.715 505.21 192.715 499.765C192.715 494.317 188.305 489.903 182.862 489.903C177.422 489.903 173.011 494.317 173.011 499.765C173.011 505.21 177.422 509.627 182.862 509.627Z" fill="#C99949"/>
</g>
<path d="M182.864 506.73C182.95 502.941 186.025 499.89 189.822 499.845C189.779 503.654 186.68 506.728 182.864 506.73Z" fill="#C99949"/>
<path d="M175.905 499.845C179.701 499.89 182.775 502.941 182.86 506.73C179.046 506.728 175.948 503.654 175.905 499.845Z" fill="#C99949"/>
<path d="M175.905 499.683C175.948 495.874 179.046 492.801 182.86 492.798C182.775 496.588 179.701 499.638 175.905 499.683Z" fill="#C99949"/>
<path d="M182.864 492.798C186.68 492.801 189.779 495.874 189.822 499.683C186.025 499.638 182.95 496.588 182.864 492.798Z" fill="#C99949"/>
<path d="M182.864 506.73C182.95 502.941 186.025 499.89 189.822 499.845C189.779 503.654 186.68 506.728 182.864 506.73Z" fill="#C99949"/>
<path d="M182.864 492.961C186.68 492.963 189.779 496.037 189.822 499.846C186.025 499.803 182.95 496.75 182.864 492.961Z" fill="#C99949"/>
<path d="M175.905 499.846C175.948 496.037 179.046 492.963 182.86 492.961C182.775 496.75 179.701 499.803 175.905 499.846Z" fill="#C99949"/>
<path d="M182.86 506.73C179.046 506.728 175.948 503.654 175.905 499.845C179.701 499.89 182.775 502.941 182.86 506.73Z" fill="#C99949"/>
</g>
<mask id="mask2_482_2387" style="mask-type:luminance" maskUnits="userSpaceOnUse" x="195" y="498" width="134" height="3">
<path d="M328.079 500.143H195.079V498.667H328.079V500.143Z" fill="white"/>
</mask>
<g mask="url(#mask2_482_2387)">
<path d="M328.079 500.1H194.882V499.023H328.079V500.1Z" fill="#C99949"/>
</g>
<mask id="mask3_482_2387" style="mask-type:luminance" maskUnits="userSpaceOnUse" x="38" y="499" width="134" height="2">
<path d="M171.079 500.505H38.0792V499.03H171.079V500.505Z" fill="white"/>
</mask>
<g mask="url(#mask3_482_2387)">
<path d="M171.079 500.462H37.8824V499.385H171.079V500.462Z" fill="#C99949"/>
</g>
<mask id="mask4_482_2387" style="mask-type:luminance" maskUnits="userSpaceOnUse" x="328" y="467" width="39" height="40">
<path d="M366.079 506.147H328V467H366.079V506.147Z" fill="white"/>
</mask>
<g mask="url(#mask4_482_2387)">
<mask id="mask5_482_2387" style="mask-type:luminance" maskUnits="userSpaceOnUse" x="356" y="467" width="1" height="27">
<path d="M356.119 493.161H356.822V467.094H356.119V493.161Z" fill="white"/>
</mask>
<g mask="url(#mask5_482_2387)">
<path fill-rule="evenodd" clip-rule="evenodd" d="M357.32 467.094V492.82H355.626V467.094H357.32Z" fill="#C99949"/>
</g>
<mask id="mask6_482_2387" style="mask-type:luminance" maskUnits="userSpaceOnUse" x="327" y="498" width="27" height="2">
<path d="M327 499.954H353.12V498.897H327V499.954Z" fill="white"/>
</mask>
<g mask="url(#mask6_482_2387)">
<path fill-rule="evenodd" clip-rule="evenodd" d="M327.014 498.661H352.343V500.354H327.014V498.661Z" fill="#C99949"/>
</g>
<mask id="mask7_482_2387" style="mask-type:luminance" maskUnits="userSpaceOnUse" x="355" y="496" width="10" height="10">
<path d="M355.764 505.146H364.649V496.779H355.764V505.146Z" fill="white"/>
</mask>
<g mask="url(#mask7_482_2387)">
<path fill-rule="evenodd" clip-rule="evenodd" d="M355.626 496.412H364.858V505.657H355.626V496.412ZM357.32 498.106V503.963H363.164V498.106H357.32Z" fill="#C99949"/>
</g>
<mask id="mask8_482_2387" style="mask-type:luminance" maskUnits="userSpaceOnUse" x="360" y="489" width="5" height="5">
<path d="M360.825 493.161H364.635V489.373H360.825V493.161Z" fill="white"/>
</mask>
<g mask="url(#mask8_482_2387)">
<path fill-rule="evenodd" clip-rule="evenodd" d="M360.357 488.872H365.145V493.667H360.357V488.872ZM362.05 490.565V491.973H363.451V490.565H362.05Z" fill="#C99949"/>
</g>
<path fill-rule="evenodd" clip-rule="evenodd" d="M351.496 491.973H362.051V502.545H351.496V491.973ZM353.19 493.667V500.851H360.357V493.667H353.19Z" fill="#C99949"/>
<path fill-rule="evenodd" clip-rule="evenodd" d="M346.304 486.772H353.19V493.667H346.304V486.772ZM347.998 488.466V491.973H351.496V488.466H347.998Z" fill="#C99949"/>
<path fill-rule="evenodd" clip-rule="evenodd" d="M348.973 500.851H353.19V505.07H348.973V500.851ZM350.667 502.544V503.376H351.496V502.544H350.667Z" fill="#C99949"/>
</g>
<mask id="mask9_482_2387" style="mask-type:luminance" maskUnits="userSpaceOnUse" x="0" y="467" width="39" height="40">
<path d="M0 506.147H38.0792V467H0V506.147Z" fill="white"/>
</mask>
<g mask="url(#mask9_482_2387)">
<mask id="mask10_482_2387" style="mask-type:luminance" maskUnits="userSpaceOnUse" x="9" y="467" width="1" height="27">
<path d="M9.95994 493.161H9.25752V467.094H9.95994V493.161Z" fill="white"/>
</mask>
<g mask="url(#mask10_482_2387)">
<path fill-rule="evenodd" clip-rule="evenodd" d="M8.7597 467.094V492.82H10.4535V467.094H8.7597Z" fill="#C99949"/>
</g>
<mask id="mask11_482_2387" style="mask-type:luminance" maskUnits="userSpaceOnUse" x="12" y="498" width="28" height="2">
<path d="M39.0792 499.954H12.9597V498.897H39.0792V499.954Z" fill="white"/>
</mask>
<g mask="url(#mask11_482_2387)">
<path fill-rule="evenodd" clip-rule="evenodd" d="M39.0648 498.661H13.7364V500.354H39.0648V498.661Z" fill="#C99949"/>
</g>
<mask id="mask12_482_2387" style="mask-type:luminance" maskUnits="userSpaceOnUse" x="1" y="496" width="10" height="10">
<path d="M10.3153 505.146H1.42972V496.779H10.3153V505.146Z" fill="white"/>
</mask>
<g mask="url(#mask12_482_2387)">
<path fill-rule="evenodd" clip-rule="evenodd" d="M10.4535 496.412H1.22111V505.657H10.4535V496.412ZM8.7597 498.106V503.963H2.91491V498.106H8.7597Z" fill="#C99949"/>
</g>
<mask id="mask13_482_2387" style="mask-type:luminance" maskUnits="userSpaceOnUse" x="1" y="489" width="5" height="5">
<path d="M5.25375 493.161H1.44417V489.373H5.25375V493.161Z" fill="white"/>
</mask>
<g mask="url(#mask13_482_2387)">
<path fill-rule="evenodd" clip-rule="evenodd" d="M5.7225 488.872H0.93393V493.667H5.7225V488.872ZM4.0287 490.565V491.973H2.62773V490.565H4.0287Z" fill="#C99949"/>
</g>
<path fill-rule="evenodd" clip-rule="evenodd" d="M14.5833 491.973H4.02871V502.545H14.5833V491.973ZM12.8895 493.667V500.851H5.72251V493.667H12.8895Z" fill="#C99949"/>
<path fill-rule="evenodd" clip-rule="evenodd" d="M19.775 486.772H12.8895V493.667H19.775V486.772ZM18.0812 488.466V491.973H14.5833V488.466H18.0812Z" fill="#C99949"/>
<path fill-rule="evenodd" clip-rule="evenodd" d="M17.1058 500.851H12.8895V505.07H17.1058V500.851ZM15.412 502.544V503.376H14.5833V502.544H15.412Z" fill="#C99949"/>
</g>
<mask id="mask14_482_2387" style="mask-type:luminance" maskUnits="userSpaceOnUse" x="9" y="41" width="1" height="442">
<path d="M10 483L10 41.2701H9L9 483H10Z" fill="white"/>
</mask>
<g mask="url(#mask14_482_2387)">
<path d="M9.97133 483L9.97133 40.6164H9.24026L9.24026 483H9.97133Z" fill="#C99949"/>
</g>
<mask id="mask15_482_2387" style="mask-type:luminance" maskUnits="userSpaceOnUse" x="356" y="41" width="1" height="431">
<path d="M357 472L357 41.2699H356L356 472H357Z" fill="white"/>
</mask>
<g mask="url(#mask15_482_2387)">
<path d="M356.971 472L356.971 40.6325H356.24L356.24 472H356.971Z" fill="#C99949"/>
</g>
<mask id="mask16_482_2387" style="mask-type:luminance" maskUnits="userSpaceOnUse" x="173" y="0" width="21" height="21">
<path d="M193.271 0.232422H173V20.5222H193.271V0.232422Z" fill="white"/>
</mask>
<g mask="url(#mask16_482_2387)">
<mask id="mask17_482_2387" style="mask-type:luminance" maskUnits="userSpaceOnUse" x="173" y="0" width="20" height="21">
<path d="M173.285 0.756836H192.989V20.4811H173.285V0.756836Z" fill="white"/>
</mask>
<g mask="url(#mask17_482_2387)">
<path d="M183.138 19.3116C178.34 19.3116 174.453 15.4194 174.453 10.619C174.453 5.81858 178.34 1.92856 183.138 1.92856C187.932 1.92856 191.82 5.81858 191.82 10.619C191.82 15.4194 187.932 19.3116 183.138 19.3116ZM183.138 0.756836C177.695 0.756836 173.285 5.17381 173.285 10.619C173.285 16.0663 177.695 20.4811 183.138 20.4811C188.578 20.4811 192.989 16.0663 192.989 10.619C192.989 5.17381 188.578 0.756836 183.138 0.756836Z" fill="#C99949"/>
</g>
<path d="M183.136 3.65381C183.05 7.44315 179.975 10.4935 176.178 10.5385C176.221 6.72984 179.32 3.65595 183.136 3.65381Z" fill="#C99949"/>
<path d="M190.095 10.5385C186.299 10.4935 183.225 7.44315 183.14 3.65381C186.954 3.65595 190.052 6.72984 190.095 10.5385Z" fill="#C99949"/>
<path d="M190.095 10.7007C190.052 14.5093 186.954 17.5832 183.14 17.5853C183.225 13.796 186.299 10.7457 190.095 10.7007Z" fill="#C99949"/>
<path d="M183.136 17.5853C179.32 17.5832 176.221 14.5093 176.178 10.7007C179.975 10.7457 183.05 13.796 183.136 17.5853Z" fill="#C99949"/>
<path d="M183.136 3.65381C183.05 7.44315 179.975 10.4935 176.178 10.5385C176.221 6.72984 179.32 3.65595 183.136 3.65381Z" fill="#C99949"/>
<path d="M183.136 17.4227C179.32 17.4206 176.221 14.3467 176.178 10.5381C179.975 10.5809 183.05 13.6334 183.136 17.4227Z" fill="#C99949"/>
<path d="M190.095 10.5381C190.052 14.3467 186.954 17.4206 183.14 17.4227C183.225 13.6334 186.299 10.5809 190.095 10.5381Z" fill="#C99949"/>
<path d="M183.14 3.65381C186.954 3.65595 190.052 6.72984 190.095 10.5385C186.299 10.4935 183.225 7.44315 183.14 3.65381Z" fill="#C99949"/>
</g>
<mask id="mask18_482_2387" style="mask-type:luminance" maskUnits="userSpaceOnUse" x="195" y="10" width="133" height="2">
<path d="M195 10.2417H328V11.7168H195V10.2417Z" fill="white"/>
</mask>
<g mask="url(#mask18_482_2387)">
<path d="M195 10.2842H328.197V11.3616H195V10.2842Z" fill="#C99949"/>
</g>
<mask id="mask19_482_2387" style="mask-type:luminance" maskUnits="userSpaceOnUse" x="38" y="10" width="133" height="2">
<path d="M38 10.2417H171V11.7168H38V10.2417Z" fill="white"/>
</mask>
<g mask="url(#mask19_482_2387)">
<path d="M38 10.2842H171.197V11.3616H38V10.2842Z" fill="#C99949"/>
</g>
<mask id="mask20_482_2387" style="mask-type:luminance" maskUnits="userSpaceOnUse" x="0" y="4" width="39" height="40">
<path d="M0 4.23584H38.0792V43.3835H0V4.23584Z" fill="white"/>
</mask>
<g mask="url(#mask20_482_2387)">
<mask id="mask21_482_2387" style="mask-type:luminance" maskUnits="userSpaceOnUse" x="9" y="17" width="1" height="27">
<path d="M9.95994 17.2222H9.25752V43.2889H9.95994V17.2222Z" fill="white"/>
</mask>
<g mask="url(#mask21_482_2387)">
<path fill-rule="evenodd" clip-rule="evenodd" d="M8.7597 43.2891V17.5632H10.4535V43.2891H8.7597Z" fill="#C99949"/>
</g>
<mask id="mask22_482_2387" style="mask-type:luminance" maskUnits="userSpaceOnUse" x="12" y="10" width="28" height="2">
<path d="M39.0792 10.4297H12.9597V11.4868H39.0792V10.4297Z" fill="white"/>
</mask>
<g mask="url(#mask22_482_2387)">
<path fill-rule="evenodd" clip-rule="evenodd" d="M39.0648 11.7227H13.7364V10.0289H39.0648V11.7227Z" fill="#C99949"/>
</g>
<mask id="mask23_482_2387" style="mask-type:luminance" maskUnits="userSpaceOnUse" x="1" y="5" width="10" height="9">
<path d="M10.3153 5.23682H1.42972V13.6041H10.3153V5.23682Z" fill="white"/>
</mask>
<g mask="url(#mask23_482_2387)">
<path fill-rule="evenodd" clip-rule="evenodd" d="M10.4535 13.9712H1.22111V4.7264H10.4535V13.9712ZM8.7597 12.2774V6.4202H2.91491V12.2774H8.7597Z" fill="#C99949"/>
</g>
<mask id="mask24_482_2387" style="mask-type:luminance" maskUnits="userSpaceOnUse" x="1" y="17" width="5" height="5">
<path d="M5.25375 17.2222H1.44417V21.0101H5.25375V17.2222Z" fill="white"/>
</mask>
<g mask="url(#mask24_482_2387)">
<path fill-rule="evenodd" clip-rule="evenodd" d="M5.7225 21.5117H0.93393V16.7161H5.7225V21.5117ZM4.0287 19.8179V18.4099H2.62773V19.8179H4.0287Z" fill="#C99949"/>
</g>
<path fill-rule="evenodd" clip-rule="evenodd" d="M14.5833 18.4102H4.02871V7.83867H14.5833V18.4102ZM12.8895 16.7164V9.53248H5.72251V16.7164H12.8895Z" fill="#C99949"/>
<path fill-rule="evenodd" clip-rule="evenodd" d="M19.775 23.6113H12.8895V16.7161H19.775V23.6113ZM18.0812 21.9175V18.4099H14.5833V21.9175H18.0812Z" fill="#C99949"/>
<path fill-rule="evenodd" clip-rule="evenodd" d="M17.1058 9.53271H12.8895V5.31365H17.1058V9.53271ZM15.412 7.83891V7.00745H14.5833V7.83891H15.412Z" fill="#C99949"/>
</g>
<mask id="mask25_482_2387" style="mask-type:luminance" maskUnits="userSpaceOnUse" x="328" y="4" width="39" height="40">
<path d="M366.079 4.23584H328V43.3835H366.079V4.23584Z" fill="white"/>
</mask>
<g mask="url(#mask25_482_2387)">
<mask id="mask26_482_2387" style="mask-type:luminance" maskUnits="userSpaceOnUse" x="356" y="17" width="1" height="27">
<path d="M356.119 17.2222H356.822V43.2889H356.119V17.2222Z" fill="white"/>
</mask>
<g mask="url(#mask26_482_2387)">
<path fill-rule="evenodd" clip-rule="evenodd" d="M357.32 43.2891V17.5632H355.626V43.2891H357.32Z" fill="#C99949"/>
</g>
<mask id="mask27_482_2387" style="mask-type:luminance" maskUnits="userSpaceOnUse" x="327" y="10" width="27" height="2">
<path d="M327 10.4297H353.12V11.4868H327V10.4297Z" fill="white"/>
</mask>
<g mask="url(#mask27_482_2387)">
<path fill-rule="evenodd" clip-rule="evenodd" d="M327.014 11.7227H352.343V10.0289H327.014V11.7227Z" fill="#C99949"/>
</g>
<mask id="mask28_482_2387" style="mask-type:luminance" maskUnits="userSpaceOnUse" x="355" y="5" width="10" height="9">
<path d="M355.764 5.23682H364.649V13.6041H355.764V5.23682Z" fill="white"/>
</mask>
<g mask="url(#mask28_482_2387)">
<path fill-rule="evenodd" clip-rule="evenodd" d="M355.626 13.9712H364.858V4.7264H355.626V13.9712ZM357.32 12.2774V6.4202H363.164V12.2774H357.32Z" fill="#C99949"/>
</g>
<mask id="mask29_482_2387" style="mask-type:luminance" maskUnits="userSpaceOnUse" x="360" y="17" width="5" height="5">
<path d="M360.825 17.2222H364.635V21.0101H360.825V17.2222Z" fill="white"/>
</mask>
<g mask="url(#mask29_482_2387)">
<path fill-rule="evenodd" clip-rule="evenodd" d="M360.357 21.5117H365.145V16.7161H360.357V21.5117ZM362.05 19.8179V18.4099H363.451V19.8179H362.05Z" fill="#C99949"/>
</g>
<path fill-rule="evenodd" clip-rule="evenodd" d="M351.496 18.4102H362.051V7.83867H351.496V18.4102ZM353.19 16.7164V9.53248H360.357V16.7164H353.19Z" fill="#C99949"/>
<path fill-rule="evenodd" clip-rule="evenodd" d="M346.304 23.6113H353.19V16.7161H346.304V23.6113ZM347.998 21.9175V18.4099H351.496V21.9175H347.998Z" fill="#C99949"/>
<path fill-rule="evenodd" clip-rule="evenodd" d="M348.973 9.53271H353.19V5.31365H348.973V9.53271ZM350.667 7.83891V7.00745H351.496V7.83891H350.667Z" fill="#C99949"/>
</g>
<mask id="mask30_482_2387" style="mask-type:luminance" maskUnits="userSpaceOnUse" x="229" y="432" width="17" height="26">
<path d="M246 432H229.817V457.553H246V432Z" fill="white"/>
</mask>
<g mask="url(#mask30_482_2387)">
<path d="M230.925 457.687C239.111 457.687 245.773 451.922 245.773 444.838C245.773 437.755 239.111 431.99 230.925 431.99C230.759 431.99 230.632 432.103 230.632 432.243C230.632 432.383 230.763 432.496 230.925 432.496C238.788 432.496 245.184 438.031 245.184 444.835C245.184 451.642 238.788 457.177 230.925 457.177C230.759 457.177 230.632 457.29 230.632 457.43C230.632 457.57 230.763 457.683 230.925 457.683V457.687Z" fill="#A37745"/>
</g>
</svg>
