<svg width="136" height="53" viewBox="0 0 136 53" fill="none" xmlns="http://www.w3.org/2000/svg">
<mask id="mask0_211_2867" style="mask-type:luminance" maskUnits="userSpaceOnUse" x="1" y="7" width="135" height="34">
<path d="M1 7H136V40.321H1V7Z" fill="white"/>
</mask>
<g mask="url(#mask0_211_2867)">
<path d="M136.137 22.3197V24.9391C136.137 27.3296 135.285 29.665 133.739 31.513C132.271 33.2678 130.24 34.516 128 35.0479C126.517 38.2162 123.287 40.2486 119.701 40.2486H17.436C13.8478 40.2486 10.6201 38.2162 9.13657 35.0479C6.895 34.516 4.8663 33.2678 3.39799 31.513C1.85148 29.665 0.997864 27.3296 0.997864 24.9391V22.3197C0.997864 19.9292 1.85148 17.5938 3.39799 15.7458C4.8663 13.991 6.895 12.7428 9.13657 12.213C10.6201 9.04469 13.8478 7.01233 17.436 7.01233H119.701C123.287 7.01233 126.517 9.04469 128 12.213C130.24 12.7428 132.271 13.991 133.739 15.7458C135.285 17.5938 136.137 19.9292 136.137 22.3197Z" fill="url(#paint0_angular_211_2867)"/>
</g>
<path d="M127.896 12.3344C126.574 9.20119 123.472 7 119.856 7H16.1465C12.5307 7 9.42832 9.20119 8.10408 12.3344C3.47255 13.3348 0 17.4551 0 22.3885V25.1119C0 30.0453 3.47255 34.1656 8.10408 35.166C9.42832 38.3014 12.5307 40.5004 16.1465 40.5004H119.856C123.472 40.5004 126.574 38.3014 127.896 35.166C132.53 34.1656 136 30.0453 136 25.1119V22.3885C136 17.4551 132.53 13.3348 127.896 12.3344ZM132.307 24.8475C132.307 28.8643 129.108 32.1451 125.126 32.2817C125.111 32.6431 125.06 32.9956 124.981 33.3394C124.498 35.9041 122.242 37.8519 119.541 37.8519H16.6973C13.5707 37.8519 11.0104 35.3775 10.8759 32.2817C6.89221 32.1451 3.69509 28.8643 3.69509 24.8475V22.6529C3.69509 18.6383 6.89221 15.3553 10.8759 15.2187C10.8892 14.9234 10.9244 14.6348 10.9773 14.3527C11.3827 11.6932 13.6831 9.65068 16.4527 9.65068H119.305C122.432 9.65068 124.99 12.1251 125.126 15.2187C129.108 15.3553 132.307 18.6383 132.307 22.6529V24.8475Z" fill="#785C34"/>
<path d="M131.778 22.6529V24.8474C131.778 28.5976 128.775 31.6581 125.049 31.7551C124.769 28.9612 122.405 26.7732 119.541 26.7732C116.476 26.7732 113.986 29.2674 113.986 32.3302V32.8193C113.649 32.9229 113.404 33.2357 113.404 33.6037C113.404 34.0576 113.77 34.4256 114.226 34.4256H114.235C114.239 34.4256 114.244 34.4278 114.248 34.4278C114.261 34.4278 114.275 34.4256 114.286 34.4234C114.711 34.3925 115.046 34.0378 115.046 33.6037C115.046 33.2534 114.823 32.9537 114.513 32.8347V32.3302C114.513 29.5583 116.767 27.302 119.541 27.302C122.304 27.302 124.549 29.5495 124.549 32.3125C124.549 32.6232 124.52 32.9273 124.465 33.2225C123.921 35.5691 121.815 37.323 119.305 37.323H16.6973C13.7756 37.323 11.3982 34.9456 11.396 32.0217C11.396 31.8785 11.2792 31.7595 11.1338 31.7595C7.32189 31.7595 4.22171 28.6593 4.22171 24.8474V22.6529C4.22171 18.9049 7.22053 15.8466 10.9443 15.7474C11.2241 18.5391 13.5883 20.7249 16.4527 20.7249C19.5177 20.7249 22.0097 18.2351 22.0097 15.1701V14.67C22.3072 14.5466 22.5165 14.2535 22.5165 13.912C22.5165 13.5198 22.2433 13.1937 21.8775 13.11C21.8378 13.0879 21.7938 13.0747 21.7453 13.0747C21.7122 13.0747 21.6792 13.0813 21.6505 13.0923C21.2165 13.1144 20.8728 13.4713 20.8728 13.912C20.8728 14.291 21.1305 14.6105 21.4809 14.703V15.1701C21.4809 17.9442 19.2246 20.1983 16.4527 20.1983C13.6919 20.1983 11.4444 17.9508 11.4444 15.1878C11.4444 14.9366 11.4621 14.6898 11.4973 14.4496C11.9777 12.0171 14.126 10.1772 16.6973 10.1772H119.305C122.227 10.1772 124.604 12.5547 124.604 15.4786C124.604 15.624 124.723 15.743 124.868 15.743C128.678 15.743 131.778 18.841 131.778 22.6529Z" fill="#785C34"/>
<g filter="url(#filter0_d_211_2867)">
<path d="M49.88 17.52C50.272 17.6133 50.692 17.94 51.14 18.5C51.6067 19.0413 51.84 19.4613 51.84 19.76C51.84 20.1333 51.3733 20.5067 50.44 20.88L50.02 20.32L50.58 20.04C50.6173 20.0027 50.5893 19.9093 50.496 19.76C50.4213 19.6107 50.3187 19.536 50.188 19.536C50.0573 19.536 49.7307 19.648 49.208 19.872C48.6853 20.096 48.2933 20.432 48.032 20.88C47.9947 20.936 47.9667 20.992 47.948 21.048C47.948 21.104 47.9387 21.1507 47.92 21.188C47.92 21.2253 47.92 21.2907 47.92 21.384V22.28L51.84 23.96V27.32C51.84 27.6373 51.5973 28.0013 51.112 28.412C50.6267 28.804 50.1227 29 49.6 29C49.488 29 49.0307 28.8413 48.228 28.524C47.4253 28.2067 46.8093 28.0853 46.38 28.16C46.2493 28.1787 46.0813 28.2907 45.876 28.496L46.1 29L45.68 29.28L44.56 27.04C45.0453 26.536 45.4187 26.256 45.68 26.2C46.5387 26.0133 47.7053 26.2933 49.18 27.04C49.3293 27.1147 49.432 27.0867 49.488 26.956C49.5627 26.8067 49.6 26.5547 49.6 26.2V24.52L45.68 22.84V20.32L44.84 19.48C44.9333 19.424 45.0453 19.3213 45.176 19.172C45.3067 19.0227 45.3813 18.9387 45.4 18.92C45.4373 18.9573 45.5027 19.032 45.596 19.144C45.6893 19.2373 45.8107 19.256 45.96 19.2C46.1093 19.144 46.744 18.8547 47.864 18.332C49.0027 17.7907 49.6747 17.52 49.88 17.52ZM55.2087 17.52L56.8888 18.36L56.6087 18.64V26.76C56.6087 27.152 56.7207 27.4413 56.9447 27.628C57.1687 27.796 57.4301 27.88 57.7288 27.88C58.0274 27.88 58.2888 27.796 58.5127 27.628C58.7367 27.4413 58.8487 27.152 58.8487 26.76V18.64L58.5688 18.36L59.6887 17.52L61.3688 18.36L61.0887 18.64V27.88L61.3688 28.16C60.3608 28.72 59.5208 29 58.8487 29H56.6087C55.9367 29 55.0967 28.72 54.0887 28.16L54.3687 27.88V18.64L54.0887 18.36L55.2087 17.52ZM65.8575 17.8C65.8575 17.8 66.6042 17.8 68.0975 17.8C68.6202 17.8 69.1242 18.0053 69.6095 18.416C70.0948 18.808 70.3375 19.1627 70.3375 19.48V21.72C70.3375 22.0373 70.0948 22.4013 69.6095 22.812C69.1242 23.204 68.6202 23.4 68.0975 23.4C68.6202 23.4 69.1242 23.6053 69.6095 24.016C70.0948 24.408 70.3375 24.7627 70.3375 25.08V27.32C70.3375 27.6373 70.0948 28.0013 69.6095 28.412C69.1242 28.804 68.6202 29 68.0975 29H65.8575C65.1855 29 64.3455 28.72 63.3375 28.16L63.6175 27.88V18.92L63.3375 18.64C64.3455 18.08 65.1855 17.8 65.8575 17.8ZM67.7615 19.2C67.5375 19.0133 67.2762 18.92 66.9775 18.92C66.6788 18.92 66.4175 19.0133 66.1935 19.2C65.9695 19.368 65.8575 19.648 65.8575 20.04V21.72C65.8575 22.112 65.9695 22.4013 66.1935 22.588C66.4175 22.756 66.6788 22.84 66.9775 22.84C67.2762 22.84 67.5375 22.756 67.7615 22.588C67.9855 22.4013 68.0975 22.112 68.0975 21.72V20.04C68.0975 19.648 67.9855 19.368 67.7615 19.2ZM67.7615 24.24C67.5375 24.0533 67.2762 23.96 66.9775 23.96C66.6788 23.96 66.4175 24.0533 66.1935 24.24C65.9695 24.408 65.8575 24.688 65.8575 25.08V26.76C65.8575 27.152 65.9695 27.4413 66.1935 27.628C66.4175 27.796 66.6788 27.88 66.9775 27.88C67.2762 27.88 67.5375 27.796 67.7615 27.628C67.9855 27.4413 68.0975 27.152 68.0975 26.76V25.08C68.0975 24.688 67.9855 24.408 67.7615 24.24ZM75.1063 17.8C75.1063 17.8 75.1529 18.08 75.2463 18.64C75.3396 19.2 75.5263 19.76 75.8063 20.32C76.0863 20.88 76.3756 21.16 76.6743 21.16C76.9916 21.16 77.2436 21.0387 77.4303 20.796C77.6356 20.5533 77.7943 20.2827 77.9063 19.984C78.0369 19.6853 78.1489 19.3493 78.2423 18.976C78.3356 18.584 78.3916 18.3133 78.4103 18.164C78.4289 18.0147 78.4476 17.8933 78.4663 17.8C78.9889 17.8 79.4929 18.0053 79.9783 18.416C80.4636 18.808 80.7063 19.1627 80.7063 19.48V28.16L80.9863 28.44L79.8663 29.28L78.1863 28.44L78.4663 28.16V21.16L78.2423 21.58C78.0743 21.86 77.8503 22.14 77.5703 22.42C77.2903 22.7 77.0289 22.84 76.7863 22.84C76.2636 22.84 75.7036 22.28 75.1063 21.16V28.16L75.3863 28.44L74.2663 29.28L72.5863 28.44L72.8663 28.16V19.48C72.8663 19.1627 73.1089 18.808 73.5943 18.416C74.0796 18.0053 74.5836 17.8 75.1063 17.8ZM84.0761 17.52L85.7561 18.36L85.4761 18.64V28.16L85.7561 28.44L84.6361 29.28L82.9561 28.44L83.2361 28.16V18.64L82.9561 18.36L84.0761 17.52ZM89.6805 17.8C89.6805 17.8 89.7738 17.8467 89.9605 17.94C90.5578 18.22 91.0338 18.36 91.3885 18.36C91.7618 18.36 92.3125 18.1733 93.0405 17.8C93.6005 17.8 94.1138 17.9213 94.5805 18.164C95.0471 18.388 95.2805 18.64 95.2805 18.92V20.32L95.5605 20.6L94.4405 21.44L92.7605 20.6L93.0405 20.32V18.92L92.4805 19.172V28.16L92.7605 28.44L91.6405 29.28L89.9605 28.44L90.2405 28.16V19.172C90.0351 19.0787 89.8485 18.9947 89.6805 18.92V20.32L89.9605 20.6L88.8405 21.44L87.1605 20.6L87.4405 20.32V18.92C87.4405 18.64 87.6738 18.388 88.1405 18.164C88.6071 17.9213 89.1205 17.8 89.6805 17.8Z" fill="#FBE9B8"/>
</g>
<defs>
<filter id="filter0_d_211_2867" x="27.56" y="0.52002" width="91.0005" height="51.76" filterUnits="userSpaceOnUse" color-interpolation-filters="sRGB">
<feFlood flood-opacity="0" result="BackgroundImageFix"/>
<feColorMatrix in="SourceAlpha" type="matrix" values="0 0 0 0 0 0 0 0 0 0 0 0 0 0 0 0 0 0 127 0" result="hardAlpha"/>
<feOffset dx="3" dy="3"/>
<feGaussianBlur stdDeviation="10"/>
<feComposite in2="hardAlpha" operator="out"/>
<feColorMatrix type="matrix" values="0 0 0 0 0.976471 0 0 0 0 0.807843 0 0 0 0 0.27451 0 0 0 1 0"/>
<feBlend mode="normal" in2="BackgroundImageFix" result="effect1_dropShadow_211_2867"/>
<feBlend mode="normal" in="SourceGraphic" in2="effect1_dropShadow_211_2867" result="shape"/>
</filter>
<radialGradient id="paint0_angular_211_2867" cx="0" cy="0" r="1" gradientUnits="userSpaceOnUse" gradientTransform="translate(68.5674 23.6305) scale(67.5695 16.6181)">
<stop stop-color="#F2DEA2"/>
<stop offset="0.45" stop-color="#96803F"/>
<stop offset="1" stop-color="#8C805E"/>
</radialGradient>
</defs>
</svg>
