<svg width="126" height="26" viewBox="0 0 126 26" fill="none" xmlns="http://www.w3.org/2000/svg">
<mask id="mask0_482_2129" style="mask-type:luminance" maskUnits="userSpaceOnUse" x="0" y="0" width="126" height="26">
<path d="M0 0H126V25.7395H0V0Z" fill="white"/>
</mask>
<g mask="url(#mask0_482_2129)">
<path d="M14.7663 0.244629H110.943C111.904 0.244629 112.858 0.325139 113.804 0.489512C114.746 0.65053 115.665 0.892058 116.552 1.21074C117.444 1.52942 118.289 1.91855 119.088 2.38148C119.89 2.84441 120.631 3.37108 121.309 3.96148C121.991 4.54853 122.6 5.18925 123.135 5.88364C123.666 6.57468 124.12 7.30597 124.488 8.07417C124.856 8.84572 125.135 9.63739 125.322 10.4559C125.512 11.2711 125.605 12.0963 125.605 12.9316C125.605 13.7635 125.512 14.5887 125.322 15.4039C125.135 16.2224 124.856 17.0141 124.488 17.7856C124.12 18.5538 123.666 19.2851 123.135 19.9795C122.6 20.6705 121.991 21.3113 121.309 21.9017C120.631 22.4887 119.89 23.0154 119.088 23.4783C118.289 23.9412 117.444 24.3337 116.552 24.6524C115.665 24.9711 114.746 25.2093 113.804 25.3736C112.858 25.5346 111.904 25.6152 110.943 25.6152H14.7663C13.8049 25.6152 12.8512 25.5346 11.9053 25.3736C10.9633 25.2093 10.0445 24.9711 9.15672 24.6524C8.26508 24.3337 7.41996 23.9412 6.62137 23.4783C5.81889 23.0154 5.07845 22.4887 4.40003 21.9017C3.71773 21.3113 3.10909 20.6705 2.57411 19.9795C2.03913 19.2851 1.58943 18.5538 1.22115 17.7856C0.85286 17.0141 0.573739 16.2224 0.387658 15.4039C0.197701 14.5887 0.10466 13.7635 0.10466 12.9316C0.10466 12.0963 0.197701 11.2711 0.387658 10.4559C0.573739 9.63739 0.85286 8.84572 1.22115 8.07417C1.58943 7.30597 2.03913 6.57468 2.57411 5.88364C3.10909 5.18925 3.71773 4.54853 4.40003 3.96148C5.07845 3.37108 5.81889 2.84441 6.62137 2.38148C7.41996 1.91855 8.26508 1.52942 9.15672 1.21074C10.0445 0.892058 10.9633 0.65053 11.9053 0.489512C12.8512 0.325139 13.8049 0.244629 14.7663 0.244629Z" fill="#383527"/>
</g>
</svg>
