<svg width="126" height="50" viewBox="0 0 126 50" fill="none" xmlns="http://www.w3.org/2000/svg">
<mask id="mask0_635_2241" style="mask-type:luminance" maskUnits="userSpaceOnUse" x="0" y="12" width="126" height="22">
<path d="M0 12H126V33.9579H0V12Z" fill="white"/>
</mask>
<g mask="url(#mask0_635_2241)">
<path d="M14.7664 12.2085H110.943C111.904 12.2085 112.858 12.2772 113.804 12.4174C114.746 12.5548 115.665 12.7608 116.553 13.0327C117.444 13.3045 118.289 13.6365 119.088 14.0314C119.89 14.4263 120.631 14.8756 121.309 15.3793C121.992 15.8801 122.6 16.4267 123.135 17.019C123.666 17.6085 124.12 18.2324 124.488 18.8877C124.856 19.5459 125.136 20.2213 125.322 20.9195C125.512 21.6149 125.605 22.3189 125.605 23.0315C125.605 23.7412 125.512 24.4452 125.322 25.1406C125.136 25.8388 124.856 26.5142 124.488 27.1724C124.12 27.8277 123.666 28.4516 123.135 29.0439C122.6 29.6334 121.992 30.18 121.309 30.6837C120.631 31.1845 119.89 31.6338 119.088 32.0287C118.289 32.4236 117.444 32.7584 116.553 33.0303C115.665 33.3021 114.746 33.5053 113.804 33.6456C112.858 33.7829 111.904 33.8516 110.943 33.8516H14.7664C13.8049 33.8516 12.8513 33.7829 11.9054 33.6456C10.9633 33.5053 10.0446 33.3021 9.15679 33.0303C8.26516 32.7584 7.42004 32.4236 6.62144 32.0287C5.81897 31.6338 5.07852 31.1845 4.4001 30.6837C3.71781 30.18 3.10917 29.6334 2.57418 29.0439C2.0392 28.4516 1.58951 27.8277 1.22122 27.1724C0.852936 26.5142 0.573815 25.8388 0.387734 25.1406C0.197777 24.4452 0.104736 23.7412 0.104736 23.0315C0.104736 22.3189 0.197777 21.6149 0.387734 20.9195C0.573815 20.2213 0.852936 19.5459 1.22122 18.8877C1.58951 18.2324 2.0392 17.6085 2.57418 17.019C3.10917 16.4267 3.71781 15.8801 4.4001 15.3793C5.07852 14.8756 5.81897 14.4263 6.62144 14.0314C7.42004 13.6365 8.26516 13.3045 9.15679 13.0327C10.0446 12.7608 10.9633 12.5548 11.9054 12.4174C12.8513 12.2772 13.8049 12.2085 14.7664 12.2085Z" fill="#383527"/>
</g>
<mask id="mask1_635_2241" style="mask-type:luminance" maskUnits="userSpaceOnUse" x="109" y="12" width="17" height="22">
<path d="M126 12H109.817V33.799H126V12Z" fill="white"/>
</mask>
<g mask="url(#mask1_635_2241)">
<path d="M110.925 33.9128C119.111 33.9128 125.773 28.9951 125.773 22.9523C125.773 16.9095 119.111 11.9917 110.925 11.9917C110.759 11.9917 110.632 12.0883 110.632 12.2076C110.632 12.3269 110.763 12.4235 110.925 12.4235C118.788 12.4235 125.184 17.1453 125.184 22.9494C125.184 28.7564 118.788 33.4782 110.925 33.4782C110.759 33.4782 110.632 33.5748 110.632 33.6941C110.632 33.8134 110.763 33.91 110.925 33.91V33.9128Z" fill="#A37745"/>
</g>
<mask id="mask2_635_2241" style="mask-type:luminance" maskUnits="userSpaceOnUse" x="0" y="12" width="17" height="22">
<path d="M0 12H16.1835V33.799H0V12Z" fill="white"/>
</mask>
<g mask="url(#mask2_635_2241)">
<path d="M15.0751 33.9128C6.88903 33.9128 0.227051 28.9951 0.227051 22.9523C0.227051 16.9095 6.88903 11.9917 15.0751 11.9917C15.2406 11.9917 15.3676 12.0883 15.3676 12.2076C15.3676 12.3269 15.2367 12.4235 15.0751 12.4235C7.21231 12.4235 0.815891 17.1453 0.815891 22.9494C0.815891 28.7564 7.21231 33.4782 15.0751 33.4782C15.2406 33.4782 15.3676 33.5748 15.3676 33.6941C15.3676 33.8134 15.2367 33.91 15.0751 33.91V33.9128Z" fill="#A37745"/>
</g>
<g filter="url(#filter0_d_635_2241)">
<path d="M51.0322 20.3242C51.0518 20.4316 51.0273 20.5244 50.959 20.6025C50.9004 20.6709 50.8223 20.7148 50.7246 20.7344C50.7441 20.8027 50.7783 20.8467 50.8271 20.8662C50.876 20.876 50.9102 20.9053 50.9297 20.9541C50.8516 21.1104 50.7197 21.2275 50.5342 21.3057C50.3584 21.374 50.1729 21.4326 49.9775 21.4814C49.8604 21.501 49.7334 21.5107 49.5967 21.5107C49.4697 21.5107 49.3477 21.501 49.2305 21.4814C49.0645 21.4521 48.9082 21.3984 48.7617 21.3203C48.6152 21.2324 48.4736 21.1982 48.3369 21.2178C48.2979 21.2275 48.2539 21.252 48.2051 21.291C48.166 21.3301 48.1221 21.3594 48.0732 21.3789C47.9756 21.4473 47.8535 21.5059 47.707 21.5547C47.5703 21.5938 47.4629 21.6377 47.3848 21.6865C47.1602 21.8135 46.9502 21.9697 46.7549 22.1553C46.5596 22.3408 46.3545 22.502 46.1396 22.6387C46.0615 22.7949 45.9834 22.9512 45.9053 23.1074C45.8369 23.2539 45.7637 23.4248 45.6855 23.6201C45.6465 23.708 45.6025 23.8008 45.5537 23.8984C45.5146 23.9863 45.4854 24.0742 45.4658 24.1621C45.4463 24.25 45.4268 24.3574 45.4072 24.4844C45.3975 24.6113 45.3779 24.7285 45.3486 24.8359C45.3291 24.9141 45.2949 24.9824 45.2461 25.041C45.207 25.0996 45.1924 25.1729 45.2021 25.2607C45.2217 25.3389 45.2607 25.4023 45.3193 25.4512C45.3877 25.5 45.4316 25.5586 45.4512 25.627C45.4707 25.666 45.4707 25.71 45.4512 25.7588C45.4414 25.7979 45.4414 25.8418 45.4512 25.8906C45.4902 26.0566 45.5732 26.208 45.7002 26.3447C45.8369 26.4814 45.9492 26.6133 46.0371 26.7402C46.2422 26.7598 46.4229 26.7939 46.5791 26.8428C46.7451 26.8818 46.916 26.916 47.0918 26.9453C47.2578 26.8672 47.4238 26.8037 47.5898 26.7549C47.7656 26.7061 47.9512 26.6475 48.1465 26.5791C48.293 26.5303 48.4346 26.457 48.5713 26.3594C48.7178 26.252 48.8691 26.1885 49.0254 26.1689C49.0547 26.1689 49.0889 26.1787 49.1279 26.1982C49.167 26.208 49.2012 26.208 49.2305 26.1982C49.3086 26.1885 49.377 26.1592 49.4355 26.1104C49.4941 26.0615 49.5527 26.0176 49.6113 25.9785C49.6797 25.9297 49.748 25.8906 49.8164 25.8613C49.8945 25.832 49.9824 25.8271 50.0801 25.8467C50.1777 26.0127 50.1924 26.1445 50.124 26.2422C50.0654 26.3398 49.9775 26.4326 49.8604 26.5205C49.7432 26.5986 49.626 26.6865 49.5088 26.7842C49.4014 26.8818 49.3477 27.0088 49.3477 27.165C49.2598 27.2627 49.1523 27.3652 49.0254 27.4727C48.8984 27.5801 48.752 27.668 48.5859 27.7363C48.5176 27.7559 48.4443 27.7754 48.3662 27.7949C48.2979 27.8047 48.2344 27.8193 48.1758 27.8389C47.9707 27.917 47.7803 28 47.6045 28.0879C47.4287 28.1758 47.209 28.2148 46.9453 28.2051C46.7891 28.2051 46.6475 28.1904 46.5205 28.1611C46.4131 28.1416 46.3105 28.1074 46.2129 28.0586C46.125 28.0098 46.0273 27.9756 45.9199 27.9561C45.7832 27.9365 45.6465 27.9365 45.5098 27.9561C45.373 27.9756 45.2461 27.9756 45.1289 27.9561C45.0117 27.9365 44.8896 27.8926 44.7627 27.8242C44.6357 27.7461 44.5137 27.668 44.3965 27.5898C44.2695 27.5215 44.1475 27.458 44.0303 27.3994C43.9229 27.3311 43.8154 27.2676 43.708 27.209C43.5811 27.1211 43.4736 27.0137 43.3857 26.8867C43.3076 26.75 43.21 26.6279 43.0928 26.5205C43.0439 26.3252 43.0244 26.1348 43.0342 25.9492C43.0439 25.7539 43.0439 25.5586 43.0342 25.3633C43.0244 25.1875 42.9902 25.0068 42.9316 24.8213C42.8828 24.6357 42.8682 24.4697 42.8877 24.3232C42.9072 24.2549 42.9316 24.1816 42.9609 24.1035C42.9902 24.0254 43.0098 23.9424 43.0195 23.8545C43.0391 23.7178 43.0586 23.5957 43.0781 23.4883C43.1074 23.3711 43.1514 23.2588 43.21 23.1514C43.249 23.083 43.293 23.0195 43.3418 22.9609C43.4004 22.9023 43.4541 22.8438 43.5029 22.7852C43.5615 22.7266 43.6104 22.6631 43.6494 22.5947C43.6885 22.5264 43.7129 22.4385 43.7227 22.3311C43.7812 22.2529 43.8496 22.1943 43.9277 22.1553C44.0156 22.1162 44.084 22.0576 44.1328 21.9795C44.1621 21.9307 44.1768 21.8818 44.1768 21.833C44.1768 21.7842 44.1963 21.7354 44.2354 21.6865C44.2842 21.6279 44.3574 21.5645 44.4551 21.4961C44.5527 21.4277 44.6357 21.3691 44.7041 21.3203C44.8994 21.2129 45.1045 21.1152 45.3193 21.0273C45.5342 20.9297 45.7344 20.8125 45.9199 20.6758C46.0371 20.6758 46.1494 20.6611 46.2568 20.6318C46.374 20.5928 46.4814 20.5537 46.5791 20.5146C46.6865 20.4658 46.7939 20.4219 46.9014 20.3828C47.0088 20.334 47.1211 20.2998 47.2383 20.2803C47.3457 20.2705 47.4629 20.2705 47.5898 20.2803C47.7168 20.2803 47.8389 20.2754 47.9561 20.2656C48.1318 20.2559 48.3076 20.251 48.4834 20.251C48.6689 20.2412 48.835 20.2461 48.9814 20.2656C49.0498 20.2754 49.1182 20.2998 49.1865 20.3389C49.2549 20.3682 49.3281 20.3828 49.4062 20.3828C49.4746 20.3828 49.543 20.3682 49.6113 20.3389C49.6895 20.3096 49.7627 20.29 49.8311 20.2803C50.0264 20.2607 50.2266 20.2607 50.4316 20.2803C50.6367 20.29 50.8369 20.3047 51.0322 20.3242ZM53.9766 27.8682C53.9082 27.8584 53.8057 27.8828 53.6689 27.9414C53.542 28 53.4248 28.0488 53.3174 28.0879C53.21 28.1172 53.0928 28.1514 52.9658 28.1904C52.8389 28.2295 52.7168 28.2441 52.5996 28.2344C52.5215 28.2246 52.4482 28.2002 52.3799 28.1611C52.3115 28.1318 52.248 28.1221 52.1895 28.1318C52.1406 28.1318 52.0967 28.1514 52.0576 28.1904C52.0186 28.2295 51.9697 28.2588 51.9111 28.2783C51.8037 28.3174 51.6768 28.3467 51.5303 28.3662C51.3838 28.3955 51.2422 28.4053 51.1055 28.3955C50.9688 28.3857 50.8564 28.3467 50.7686 28.2783C50.6904 28.2197 50.666 28.1221 50.6953 27.9854C50.7148 27.8975 50.749 27.8096 50.7979 27.7217C50.8564 27.624 50.9102 27.5166 50.959 27.3994C51.0371 27.1943 51.0957 26.9795 51.1348 26.7549C51.1738 26.5205 51.2275 26.335 51.2959 26.1982C51.335 26.1201 51.3936 26.0469 51.4717 25.9785C51.5498 25.9102 51.5938 25.8369 51.6035 25.7588C51.6133 25.7002 51.6035 25.6514 51.5742 25.6123C51.5449 25.5732 51.5303 25.5195 51.5303 25.4512C51.5303 25.4023 51.54 25.3535 51.5596 25.3047C51.5889 25.2461 51.6084 25.1777 51.6182 25.0996C51.6279 25.0215 51.6279 24.9531 51.6182 24.8945C51.6084 24.8262 51.6133 24.7676 51.6328 24.7188C51.6523 24.6602 51.6816 24.6064 51.7207 24.5576C51.7598 24.499 51.7988 24.4453 51.8379 24.3965C51.8867 24.3379 51.9258 24.2744 51.9551 24.2061C51.9844 24.1377 51.999 24.0596 51.999 23.9717C51.999 23.9229 52.0137 23.8447 52.043 23.7373C52.0723 23.6201 52.082 23.5322 52.0723 23.4736C52.043 23.2686 52.043 23.0977 52.0723 22.9609C52.1113 22.8242 52.1553 22.7021 52.2041 22.5947C52.2627 22.4775 52.3213 22.3604 52.3799 22.2432C52.4482 22.126 52.4971 21.9844 52.5264 21.8184C52.5654 21.6133 52.5947 21.3984 52.6143 21.1738C52.6338 20.9492 52.668 20.749 52.7168 20.5732C52.7754 20.3877 52.8584 20.2412 52.9658 20.1338C53.083 20.0264 53.2588 19.9873 53.4932 20.0166C53.5908 20.1338 53.6543 20.2461 53.6836 20.3535C53.7227 20.4609 53.7764 20.583 53.8447 20.7197C53.874 20.7979 53.9521 20.8662 54.0791 20.9248C54.2061 20.9834 54.2939 21.0469 54.3428 21.1152C54.3916 21.1738 54.4453 21.2373 54.5039 21.3057C54.5723 21.3643 54.6162 21.4277 54.6357 21.4961C54.665 21.623 54.6699 21.7695 54.6504 21.9355C54.6406 22.1016 54.6309 22.2529 54.6211 22.3896C54.6113 22.4678 54.6016 22.5508 54.5918 22.6387C54.582 22.7168 54.5674 22.7852 54.5479 22.8438C54.5283 22.9121 54.5039 22.9707 54.4746 23.0195C54.4551 23.0684 54.4404 23.1172 54.4307 23.166C54.4111 23.2637 54.3965 23.3516 54.3867 23.4297C54.3867 23.498 54.377 23.5664 54.3574 23.6348C54.3086 23.7812 54.2354 23.9082 54.1377 24.0156C54.0498 24.123 53.9814 24.25 53.9326 24.3965C53.9033 24.4648 53.8789 24.543 53.8594 24.6309C53.8496 24.7188 53.835 24.8018 53.8154 24.8799C53.7568 25.0947 53.6934 25.3389 53.625 25.6123C53.5566 25.8857 53.5322 26.1494 53.5518 26.4033C53.6299 26.3838 53.6982 26.3691 53.7568 26.3594C53.8154 26.3496 53.8691 26.3447 53.918 26.3447C53.9668 26.335 54.0205 26.335 54.0791 26.3447C54.1475 26.3545 54.2305 26.3691 54.3281 26.3887C54.4746 26.4277 54.6357 26.4766 54.8115 26.5352C54.9873 26.5938 55.168 26.6328 55.3535 26.6523C55.4902 26.6621 55.627 26.6621 55.7637 26.6523C55.9102 26.6426 56.0518 26.6475 56.1885 26.667C56.3252 26.6865 56.4521 26.7109 56.5693 26.7402C56.6963 26.7598 56.8135 26.7598 56.9209 26.7402C56.9697 26.7207 57.0039 26.7061 57.0234 26.6963C57.0527 26.6768 57.0869 26.6621 57.126 26.6523C57.2822 26.623 57.4629 26.6279 57.668 26.667C57.873 26.6963 58.0635 26.7207 58.2393 26.7402C58.2686 26.7402 58.3125 26.7402 58.3711 26.7402C58.4297 26.7305 58.4883 26.7305 58.5469 26.7402C58.6055 26.7402 58.6543 26.7549 58.6934 26.7842C58.7324 26.8135 58.752 26.8574 58.752 26.916C58.7422 27.0039 58.6738 27.0723 58.5469 27.1211C58.4297 27.1699 58.332 27.2041 58.2539 27.2236C58.1367 27.2529 58.0244 27.2676 57.917 27.2676C57.8193 27.2676 57.7119 27.2822 57.5947 27.3115C57.4873 27.3408 57.3896 27.3799 57.3018 27.4287C57.2236 27.4678 57.1406 27.4971 57.0527 27.5166C57.0234 27.5361 56.9941 27.5459 56.9648 27.5459C56.9355 27.5361 56.9014 27.5361 56.8623 27.5459C56.8037 27.5654 56.7354 27.5996 56.6572 27.6484C56.5791 27.6875 56.5156 27.7119 56.4668 27.7217C56.291 27.7607 56.1006 27.751 55.8955 27.6924C55.7002 27.6338 55.5 27.6143 55.2949 27.6338C55.2168 27.6436 55.1387 27.6631 55.0605 27.6924C54.9824 27.7119 54.9043 27.7314 54.8262 27.751C54.748 27.7705 54.6699 27.7852 54.5918 27.7949C54.5137 27.8047 54.4453 27.8193 54.3867 27.8389L53.9766 27.8682ZM66.0908 21.6133C66.1885 21.8086 66.2617 21.9893 66.3105 22.1553C66.3594 22.3213 66.3984 22.5459 66.4277 22.8291C66.4473 23.0244 66.4668 23.2002 66.4863 23.3564C66.5156 23.5029 66.5205 23.6885 66.501 23.9131C66.4912 24.0693 66.4668 24.2354 66.4277 24.4111C66.3887 24.5771 66.3398 24.7334 66.2812 24.8799C66.1934 25.1436 66.1104 25.373 66.0322 25.5684C65.9541 25.7637 65.8613 25.9736 65.7539 26.1982C65.6855 26.3252 65.6172 26.4277 65.5488 26.5059C65.4805 26.584 65.4072 26.667 65.3291 26.7549C65.3096 26.7842 65.29 26.8184 65.2705 26.8574C65.2607 26.8965 65.2412 26.9307 65.2119 26.96C65.085 27.1064 64.9092 27.2578 64.6846 27.4141C64.4697 27.5703 64.2695 27.6826 64.084 27.751C64.0156 27.7705 63.9424 27.7852 63.8643 27.7949C63.7959 27.7949 63.7227 27.8047 63.6445 27.8242C63.5469 27.8633 63.4639 27.9219 63.3955 28C63.3271 28.0684 63.2393 28.1172 63.1318 28.1465C63.0732 28.166 63 28.1807 62.9121 28.1904C62.834 28.21 62.7559 28.2295 62.6777 28.249C62.4824 28.2979 62.2383 28.3467 61.9453 28.3955C61.6621 28.4443 61.3984 28.4395 61.1543 28.3809C61.1152 28.3711 61.0762 28.3516 61.0371 28.3223C60.998 28.293 60.9541 28.2686 60.9053 28.249C60.8564 28.2295 60.8076 28.2148 60.7588 28.2051C60.71 28.1953 60.666 28.1807 60.627 28.1611C60.5 28.1123 60.3779 28.0439 60.2607 27.9561C60.1436 27.8682 60.0215 27.7998 59.8945 27.751C59.7578 27.6729 59.6211 27.6045 59.4844 27.5459C59.3477 27.4775 59.2549 27.3604 59.2061 27.1943C59.04 27.1455 58.9229 27.0332 58.8545 26.8574C58.7861 26.6816 58.7031 26.5254 58.6055 26.3887C58.5762 26.3398 58.5322 26.3008 58.4736 26.2715C58.4248 26.2324 58.3906 26.1885 58.3711 26.1396C58.3027 26.0322 58.249 25.8613 58.21 25.627C58.1709 25.3828 58.1465 25.1777 58.1367 25.0117C58.127 24.8359 58.1367 24.6699 58.166 24.5137C58.2051 24.3477 58.2441 24.1865 58.2832 24.0303C58.332 23.874 58.3809 23.7227 58.4297 23.5762C58.4883 23.4297 58.5371 23.2881 58.5762 23.1514C58.6152 22.9854 58.6885 22.8535 58.7959 22.7559C58.9033 22.6582 59.0059 22.5508 59.1035 22.4336C59.1426 22.3945 59.1719 22.3506 59.1914 22.3018C59.2109 22.2529 59.2402 22.2041 59.2793 22.1553C59.3574 22.0576 59.4453 21.9746 59.543 21.9062C59.6406 21.8281 59.7334 21.75 59.8213 21.6719C59.9189 21.5938 60.0215 21.5205 60.1289 21.4521C60.2363 21.374 60.3242 21.2959 60.3926 21.2178C60.4707 21.1104 60.5293 21.0029 60.5684 20.8955C60.6172 20.7881 60.6904 20.6953 60.7881 20.6172C60.8955 20.5293 61.0127 20.4658 61.1396 20.4268C61.2764 20.3877 61.4326 20.3438 61.6084 20.2949C61.7744 20.2559 61.9355 20.2021 62.0918 20.1338C62.2578 20.0557 62.4336 20.0068 62.6191 19.9873C62.7949 19.9678 62.9854 19.958 63.1904 19.958C63.3955 19.9482 63.5957 19.9531 63.791 19.9727C63.9961 19.9922 64.1865 20.0264 64.3623 20.0752C64.5479 20.124 64.709 20.1924 64.8457 20.2803C64.9141 20.3193 64.9824 20.3779 65.0508 20.4561C65.1289 20.5342 65.2021 20.6074 65.2705 20.6758C65.4268 20.832 65.5586 20.9932 65.666 21.1592C65.7832 21.3154 65.9248 21.4668 66.0908 21.6133ZM62.8975 20.9541C62.8584 20.9541 62.7998 20.9688 62.7217 20.998C62.6533 21.0273 62.5801 21.0615 62.502 21.1006C62.4336 21.1299 62.3701 21.1641 62.3115 21.2031C62.2529 21.2422 62.209 21.2715 62.1797 21.291C62.0625 21.3984 61.9551 21.5352 61.8574 21.7012C61.7695 21.8574 61.667 21.999 61.5498 22.126C61.501 22.1748 61.4473 22.2139 61.3887 22.2432C61.3398 22.2627 61.3008 22.292 61.2715 22.3311C61.1055 22.5166 60.9834 22.7314 60.9053 22.9756C60.8369 23.2197 60.7637 23.4541 60.6855 23.6787C60.5977 23.9131 60.5146 24.1768 60.4365 24.4697C60.3584 24.7627 60.334 25.041 60.3633 25.3047C60.373 25.3633 60.3926 25.4414 60.4219 25.5391C60.4609 25.627 60.4951 25.71 60.5244 25.7881C60.5635 25.876 60.5977 25.9639 60.627 26.0518C60.666 26.1299 60.7051 26.2031 60.7441 26.2715C60.8027 26.3887 60.876 26.5156 60.9639 26.6523C61.0615 26.7793 61.1689 26.8916 61.2861 26.9893C61.4131 27.0771 61.5498 27.1455 61.6963 27.1943C61.8525 27.2334 62.0186 27.2285 62.1943 27.1797C62.3018 27.1406 62.4336 27.082 62.5898 27.0039C62.7461 26.916 62.8877 26.833 63.0146 26.7549C63.2002 26.6377 63.332 26.5205 63.4102 26.4033C63.4883 26.2764 63.5664 26.1152 63.6445 25.9199C63.6641 25.8711 63.6885 25.8271 63.7178 25.7881C63.7568 25.7393 63.791 25.6904 63.8203 25.6416C63.8789 25.5342 63.9277 25.417 63.9668 25.29C64.0059 25.1631 64.0547 25.041 64.1133 24.9238C64.2305 24.6602 64.3037 24.4062 64.333 24.1621C64.3623 23.918 64.3867 23.625 64.4062 23.2832C64.416 23.0977 64.4014 22.9609 64.3623 22.873C64.333 22.7852 64.3086 22.6631 64.2891 22.5068C64.2793 22.3994 64.2744 22.3018 64.2744 22.2139C64.2744 22.1162 64.2549 22.0332 64.2158 21.9648C64.167 21.877 64.0742 21.8184 63.9375 21.7891C63.8105 21.7598 63.708 21.7061 63.6299 21.6279C63.5518 21.501 63.4688 21.3789 63.3809 21.2617C63.293 21.1445 63.1855 21.0469 63.0586 20.9688C63.0098 20.9785 62.9756 20.9785 62.9561 20.9688C62.9365 20.959 62.917 20.9541 62.8975 20.9541ZM72.0527 21.877C72.1406 21.916 72.1992 21.9697 72.2285 22.0381C72.2578 22.0967 72.2773 22.1602 72.2871 22.2285C72.3066 22.2969 72.3262 22.3652 72.3457 22.4336C72.3652 22.502 72.4141 22.5557 72.4922 22.5947C72.5117 22.6143 72.5459 22.6387 72.5947 22.668C72.6436 22.6973 72.6973 22.7314 72.7559 22.7705C72.8145 22.7998 72.8682 22.8291 72.917 22.8584C72.9756 22.8779 73.0195 22.8828 73.0488 22.873C73.1074 22.8633 73.1611 22.8193 73.21 22.7412C73.2588 22.6631 73.2979 22.5752 73.3271 22.4775C73.3662 22.3701 73.3906 22.2627 73.4004 22.1553C73.4102 22.0479 73.4053 21.96 73.3857 21.8916C73.3662 21.8623 73.3125 21.8232 73.2246 21.7744C73.1367 21.7158 73.0684 21.6768 73.0195 21.6572C72.8828 21.6084 72.7559 21.5498 72.6387 21.4814C72.5215 21.4131 72.3945 21.3545 72.2578 21.3057C72.1992 21.2861 72.1357 21.2568 72.0674 21.2178C72.0088 21.1689 71.9502 21.1445 71.8916 21.1445C71.8525 21.1348 71.8086 21.1445 71.7598 21.1738C71.7109 21.1934 71.6621 21.2031 71.6133 21.2031C71.5547 21.2129 71.4814 21.2178 71.3936 21.2178C71.3154 21.208 71.2324 21.208 71.1445 21.2178C71.0566 21.2275 70.9639 21.2422 70.8662 21.2617C70.7783 21.2812 70.7002 21.3154 70.6318 21.3643C70.5049 21.4717 70.4121 21.5938 70.3535 21.7305C70.3047 21.8574 70.2363 22.0039 70.1484 22.1699C70.1289 22.209 70.0947 22.2529 70.0459 22.3018C69.9971 22.3506 69.9727 22.4092 69.9727 22.4775C69.9727 22.5166 69.9873 22.5508 70.0166 22.5801C70.0557 22.6094 70.085 22.6533 70.1045 22.7119C70.1338 22.7705 70.1533 22.834 70.1631 22.9023C70.1729 22.9609 70.1875 23.0146 70.207 23.0635C70.2363 23.0928 70.2656 23.1221 70.2949 23.1514C70.3242 23.1709 70.3486 23.1904 70.3682 23.21C70.3975 23.2393 70.417 23.2734 70.4268 23.3125C70.4463 23.3516 70.4707 23.3809 70.5 23.4004C70.5488 23.4297 70.6318 23.4834 70.749 23.5615C70.876 23.6299 70.9932 23.6738 71.1006 23.6934C71.2861 23.7324 71.4521 23.7959 71.5986 23.8838C71.7549 23.9619 71.9062 24.0303 72.0527 24.0889C72.1602 24.1377 72.2432 24.1963 72.3018 24.2646C72.3701 24.3232 72.4287 24.3867 72.4775 24.4551C72.5264 24.5137 72.5752 24.5723 72.624 24.6309C72.6826 24.6895 72.7607 24.7334 72.8584 24.7627C72.9072 24.7822 72.9512 24.792 72.9902 24.792C73.0293 24.792 73.0732 24.8018 73.1221 24.8213C73.1709 24.8408 73.2197 24.875 73.2686 24.9238C73.3174 24.9629 73.3711 25.0068 73.4297 25.0557C73.4688 25.0947 73.5029 25.1387 73.5322 25.1875C73.5713 25.2266 73.6006 25.2656 73.6201 25.3047C73.6494 25.3633 73.6689 25.4414 73.6787 25.5391C73.6885 25.627 73.6934 25.7002 73.6934 25.7588C73.7031 25.9932 73.6982 26.1787 73.6787 26.3154C73.6592 26.4521 73.625 26.5791 73.5762 26.6963C73.5273 26.8135 73.4639 26.9307 73.3857 27.0479C73.3174 27.165 73.2393 27.3164 73.1514 27.502C73.0244 27.5605 72.8926 27.6289 72.7559 27.707C72.6191 27.7754 72.502 27.8486 72.4043 27.9268C72.3555 27.9658 72.2871 28.0146 72.1992 28.0732C72.1113 28.1318 72.0332 28.1709 71.9648 28.1904C71.8281 28.2393 71.6621 28.2686 71.4668 28.2783C71.2715 28.2881 71.0908 28.3223 70.9248 28.3809C70.8271 28.4102 70.71 28.415 70.5732 28.3955C70.4463 28.376 70.3291 28.3711 70.2217 28.3809C70.0947 28.4004 69.9873 28.4199 69.8994 28.4395C69.8115 28.4688 69.709 28.4736 69.5918 28.4541C69.4551 28.4346 69.3037 28.3809 69.1377 28.293C68.9717 28.2148 68.8252 28.1367 68.6982 28.0586C68.6494 28.0391 68.6104 28.0146 68.5811 27.9854C68.5518 27.9463 68.5127 27.9121 68.4639 27.8828C68.3955 27.8438 68.3271 27.8193 68.2588 27.8096C68.1904 27.79 68.127 27.7559 68.0684 27.707C68.0098 27.6582 67.9561 27.6143 67.9072 27.5752C67.8584 27.5264 67.8096 27.4775 67.7607 27.4287C67.6436 27.3506 67.5117 27.2725 67.3652 27.1943C67.2285 27.1064 67.1309 27.0186 67.0723 26.9307C67.0332 26.8818 67.0088 26.8184 66.999 26.7402C66.999 26.6523 66.9795 26.5693 66.9404 26.4912C66.9209 26.4229 66.8867 26.3643 66.8379 26.3154C66.7891 26.2666 66.7598 26.2178 66.75 26.1689C66.7207 26.0322 66.7354 25.8809 66.7939 25.7148C66.8525 25.5488 66.9062 25.4072 66.9551 25.29C67.1406 25.2607 67.292 25.2803 67.4092 25.3486C67.5361 25.4072 67.6436 25.4902 67.7314 25.5977C67.8193 25.7051 67.8975 25.8271 67.9658 25.9639C68.0342 26.0908 68.1025 26.2031 68.1709 26.3008C68.249 26.4277 68.3711 26.5254 68.5371 26.5938C68.7031 26.6621 68.8643 26.7305 69.0205 26.7988C69.0791 26.8281 69.1328 26.8574 69.1816 26.8867C69.2402 26.9062 69.2939 26.9258 69.3428 26.9453C69.4697 26.9941 69.5771 27.0479 69.665 27.1064C69.7627 27.1553 69.8652 27.1846 69.9727 27.1943C70.0703 27.1943 70.1631 27.1895 70.251 27.1797C70.3486 27.1602 70.4561 27.1406 70.5732 27.1211C70.6904 27.082 70.8076 27.0674 70.9248 27.0771C71.042 27.0771 71.1543 27.0527 71.2617 27.0039C71.3887 26.9551 71.4619 26.8965 71.4814 26.8281C71.501 26.7598 71.5449 26.667 71.6133 26.5498C71.5742 26.3643 71.5303 26.2324 71.4814 26.1543C71.4326 26.0762 71.3447 25.9834 71.2178 25.876C71.1689 25.8369 71.1104 25.8076 71.042 25.7881C70.9834 25.7588 70.9297 25.7295 70.8809 25.7002C70.6758 25.5732 70.4512 25.4463 70.207 25.3193C69.9629 25.1924 69.6943 25.1045 69.4014 25.0557C69.2158 24.9971 69.0205 24.9189 68.8154 24.8213C68.6201 24.7139 68.4785 24.5723 68.3906 24.3965C68.3613 24.3574 68.3418 24.3184 68.332 24.2793C68.332 24.2402 68.3223 24.1963 68.3027 24.1475C68.2246 23.9521 68.1123 23.7666 67.9658 23.5908C67.8291 23.415 67.7363 23.2148 67.6875 22.9902C67.668 22.9219 67.6631 22.8535 67.6729 22.7852C67.6826 22.707 67.6924 22.6338 67.7021 22.5654C67.7217 22.4971 67.7363 22.4238 67.7461 22.3457C67.7559 22.2676 67.751 22.1846 67.7314 22.0967C67.7705 22.0576 67.7949 22.0186 67.8047 21.9795C67.8145 21.9404 67.8291 21.9014 67.8486 21.8623C67.8877 21.8037 67.9121 21.7451 67.9219 21.6865C67.9414 21.6182 67.9854 21.5547 68.0537 21.4961C68.1221 21.4375 68.1758 21.3789 68.2148 21.3203C68.2637 21.252 68.3125 21.1982 68.3613 21.1592C68.3906 21.1396 68.4248 21.1299 68.4639 21.1299C68.5029 21.1201 68.5371 21.1055 68.5664 21.0859C68.6152 21.0566 68.6592 21.0225 68.6982 20.9834C68.7373 20.9346 68.7812 20.8906 68.8301 20.8516C69.0254 20.7051 69.2451 20.583 69.4893 20.4854C69.7334 20.3779 69.9824 20.2949 70.2363 20.2363C70.2754 20.1875 70.3389 20.1484 70.4268 20.1191C70.5146 20.0801 70.6074 20.0557 70.7051 20.0459C70.8125 20.0264 70.915 20.0117 71.0127 20.002C71.1104 19.9922 71.1934 19.9824 71.2617 19.9727C71.5645 20.0117 71.8037 20.0605 71.9795 20.1191C72.165 20.1777 72.3359 20.2412 72.4922 20.3096C72.6582 20.3682 72.834 20.4268 73.0195 20.4854C73.2051 20.5439 73.4443 20.5928 73.7373 20.6318C73.8545 20.7197 73.9766 20.8271 74.1035 20.9541C74.2402 21.0713 74.3574 21.2031 74.4551 21.3496C74.5527 21.4961 74.6211 21.6523 74.6602 21.8184C74.709 21.9746 74.6992 22.1357 74.6309 22.3018C74.582 22.3994 74.543 22.5117 74.5137 22.6387C74.4844 22.7559 74.4404 22.8633 74.3818 22.9609C74.333 23.0391 74.2793 23.1318 74.2207 23.2393C74.1719 23.3467 74.1133 23.4346 74.0449 23.5029C73.9082 23.6396 73.7324 23.7373 73.5176 23.7959C73.3027 23.8545 73.0928 23.874 72.8877 23.8545C72.8291 23.7568 72.7363 23.6738 72.6094 23.6055C72.4922 23.5371 72.3701 23.4688 72.2432 23.4004C72.126 23.3223 72.0137 23.2393 71.9062 23.1514C71.8086 23.0537 71.7451 22.9365 71.7158 22.7998C71.6865 22.6338 71.6914 22.458 71.7305 22.2725C71.7793 22.0869 71.8867 21.9551 72.0527 21.877ZM82.4092 21.1592C82.1455 21.2861 81.8818 21.3496 81.6182 21.3496C81.3545 21.3496 81.0615 21.3398 80.7393 21.3203C80.6514 21.3203 80.5537 21.3252 80.4463 21.335C80.3486 21.3447 80.2559 21.3545 80.168 21.3643C79.709 21.4131 79.3232 21.5889 79.0107 21.8916C78.6982 22.1846 78.4688 22.5557 78.3223 23.0049C78.2734 23.1709 78.2344 23.3223 78.2051 23.459C78.1758 23.5957 78.2393 23.6738 78.3955 23.6934C78.4932 23.7129 78.5908 23.7129 78.6885 23.6934C78.7861 23.6738 78.8838 23.6494 78.9814 23.6201C79.0889 23.5811 79.1914 23.5469 79.2891 23.5176C79.3867 23.4883 79.4844 23.4736 79.582 23.4736C79.6211 23.4736 79.6553 23.4834 79.6846 23.5029C79.7236 23.5225 79.7627 23.5322 79.8018 23.5322C79.9678 23.5518 80.1436 23.542 80.3291 23.5029C80.5146 23.4541 80.6855 23.4492 80.8418 23.4883C80.8711 23.498 80.8955 23.5176 80.915 23.5469C80.9443 23.5664 80.9834 23.5859 81.0322 23.6055C81.1592 23.6543 81.3105 23.6885 81.4863 23.708C81.6621 23.7178 81.8037 23.7471 81.9111 23.7959C81.96 23.8154 82.0088 23.8545 82.0576 23.9131C82.1064 23.9619 82.1309 23.9961 82.1309 24.0156C82.1309 24.123 82.0674 24.1914 81.9404 24.2207C81.8135 24.25 81.7061 24.2695 81.6182 24.2793C81.54 24.2891 81.4619 24.2891 81.3838 24.2793C81.3057 24.2695 81.2275 24.2744 81.1494 24.2939C81.0127 24.3135 80.8809 24.3428 80.7539 24.3818C80.627 24.4111 80.4902 24.4502 80.3438 24.499C80.1777 24.5576 80.0215 24.6309 79.875 24.7188C79.7285 24.7969 79.5674 24.8457 79.3916 24.8652C79.2646 24.8848 79.1426 24.8848 79.0254 24.8652C78.9082 24.8457 78.7812 24.8457 78.6445 24.8652C78.5957 24.875 78.5469 24.8896 78.498 24.9092C78.459 24.9287 78.415 24.9434 78.3662 24.9531C78.2783 24.9727 78.21 24.9873 78.1611 24.9971C78.1221 24.9971 78.0879 25.0068 78.0586 25.0264C78.0391 25.0459 78.0146 25.0752 77.9854 25.1143C77.9658 25.1533 77.9316 25.2119 77.8828 25.29C77.8047 25.4658 77.7559 25.6562 77.7363 25.8613C77.7168 26.0566 77.6973 26.2666 77.6777 26.4912C77.7852 26.5986 77.8877 26.6865 77.9854 26.7549C78.083 26.8135 78.2344 26.8428 78.4395 26.8428C78.5469 26.8428 78.6299 26.833 78.6885 26.8135C78.7568 26.7842 78.8447 26.7646 78.9521 26.7549C79.0596 26.7549 79.167 26.7646 79.2744 26.7842C79.3818 26.7939 79.5039 26.7939 79.6406 26.7842C79.9238 26.7646 80.1631 26.7305 80.3584 26.6816C80.5537 26.623 80.793 26.6035 81.0762 26.623C81.1348 26.623 81.2373 26.6279 81.3838 26.6377C81.54 26.6475 81.6963 26.6621 81.8525 26.6816C82.0088 26.6914 82.1455 26.7109 82.2627 26.7402C82.3896 26.7695 82.4531 26.8086 82.4531 26.8574C82.4531 26.916 82.4141 26.9795 82.3359 27.0479C82.2676 27.1064 82.1846 27.165 82.0869 27.2236C81.999 27.2725 81.9062 27.3164 81.8086 27.3555C81.7207 27.3848 81.6621 27.4043 81.6328 27.4141C81.4668 27.4629 81.3057 27.4775 81.1494 27.458C80.9932 27.4287 80.8223 27.4238 80.6367 27.4434C80.5 27.4629 80.3779 27.4922 80.2705 27.5312C80.1631 27.5703 80.0557 27.6143 79.9482 27.6631C79.8408 27.7021 79.7285 27.7461 79.6113 27.7949C79.5039 27.834 79.377 27.8584 79.2305 27.8682C79.0352 27.8877 78.8691 27.9121 78.7324 27.9414C78.5957 27.9609 78.4346 27.9902 78.249 28.0293C78.1709 28.0488 78.0977 28.0684 78.0293 28.0879C77.9609 28.1172 77.8877 28.1416 77.8096 28.1611C77.5264 28.2197 77.2188 28.2295 76.8867 28.1904C76.5645 28.1611 76.2129 28.166 75.832 28.2051C75.5879 28.2344 75.3682 28.2686 75.1729 28.3076C74.9873 28.3564 74.7969 28.3711 74.6016 28.3516C74.5332 28.3418 74.4697 28.332 74.4111 28.3223C74.3428 28.3223 74.2842 28.2979 74.2354 28.249C74.2549 28.1709 74.2988 28.1025 74.3672 28.0439C74.4355 27.9854 74.5039 27.9316 74.5723 27.8828C74.6406 27.8242 74.7041 27.7656 74.7627 27.707C74.8311 27.6387 74.8945 27.5752 74.9531 27.5166C75.0117 27.4385 75.0605 27.3457 75.0996 27.2383C75.1387 27.1211 75.1729 27.0039 75.2021 26.8867C75.2412 26.7695 75.2803 26.6621 75.3193 26.5645C75.3682 26.457 75.4268 26.3643 75.4951 26.2861C75.417 26.1104 75.417 25.9102 75.4951 25.6855C75.583 25.4609 75.6611 25.2266 75.7295 24.9824C75.749 24.9238 75.7588 24.8652 75.7588 24.8066C75.7588 24.748 75.7686 24.6943 75.7881 24.6455C75.8076 24.5479 75.8516 24.4648 75.9199 24.3965C75.9883 24.3184 76.0322 24.2402 76.0518 24.1621C76.0615 24.1133 76.0615 24.0645 76.0518 24.0156C76.0518 23.9668 76.0566 23.918 76.0664 23.8691C76.0859 23.7227 76.1201 23.5859 76.1689 23.459C76.2275 23.3223 76.2666 23.2002 76.2861 23.0928C76.3057 23.0146 76.3057 22.9365 76.2861 22.8584C76.2764 22.7705 76.2764 22.6875 76.2861 22.6094C76.3057 22.4141 76.3447 22.2285 76.4033 22.0527C76.4717 21.877 76.5107 21.7207 76.5205 21.584C76.5303 21.4766 76.5156 21.3594 76.4766 21.2324C76.4375 21.1055 76.3984 21.0078 76.3594 20.9395C76.3301 20.8906 76.2861 20.8418 76.2275 20.793C76.1689 20.7344 76.1104 20.6807 76.0518 20.6318C75.9932 20.583 75.9395 20.5391 75.8906 20.5C75.8516 20.4512 75.832 20.4072 75.832 20.3682C75.8418 20.2607 75.8857 20.207 75.9639 20.207C76.042 20.1973 76.1152 20.1631 76.1836 20.1045C76.5352 20.1143 76.8672 20.1533 77.1797 20.2217C77.502 20.29 77.834 20.334 78.1758 20.3535C78.3027 20.373 78.4346 20.373 78.5713 20.3535C78.708 20.3242 78.8398 20.3047 78.9668 20.2949C79.1719 20.2852 79.4014 20.3145 79.6553 20.3828C79.9189 20.4512 80.1777 20.4756 80.4316 20.4561C80.7734 20.4365 81.0957 20.4268 81.3984 20.4268C81.7012 20.4268 82.0186 20.417 82.3506 20.3975C82.4092 20.4463 82.4971 20.4707 82.6143 20.4707C82.7314 20.4609 82.8486 20.4512 82.9658 20.4414C83.0928 20.4219 83.2051 20.417 83.3027 20.4268C83.4102 20.4365 83.4834 20.4805 83.5225 20.5586C83.5811 20.6953 83.5713 20.8125 83.4932 20.9102C83.415 21.0078 83.3076 21.0713 83.1709 21.1006C83.1318 21.1006 83.0781 21.1055 83.0098 21.1152C82.9414 21.125 82.8682 21.1348 82.79 21.1445C82.7119 21.1543 82.6338 21.1592 82.5557 21.1592C82.4873 21.1592 82.4385 21.1592 82.4092 21.1592Z" fill="white"/>
</g>
<defs>
<filter id="filter0_d_635_2241" x="23.8584" y="0.943359" width="80.752" height="48.54" filterUnits="userSpaceOnUse" color-interpolation-filters="sRGB">
<feFlood flood-opacity="0" result="BackgroundImageFix"/>
<feColorMatrix in="SourceAlpha" type="matrix" values="0 0 0 0 0 0 0 0 0 0 0 0 0 0 0 0 0 0 127 0" result="hardAlpha"/>
<feOffset dx="1" dy="1"/>
<feGaussianBlur stdDeviation="10"/>
<feComposite in2="hardAlpha" operator="out"/>
<feColorMatrix type="matrix" values="0 0 0 0 1 0 0 0 0 1 0 0 0 0 1 0 0 0 1 0"/>
<feBlend mode="normal" in2="BackgroundImageFix" result="effect1_dropShadow_635_2241"/>
<feBlend mode="normal" in="SourceGraphic" in2="effect1_dropShadow_635_2241" result="shape"/>
</filter>
</defs>
</svg>
