<svg width="387" height="38" viewBox="0 0 387 38" fill="none" xmlns="http://www.w3.org/2000/svg">
<mask id="mask0_138_1669" style="mask-type:luminance" maskUnits="userSpaceOnUse" x="0" y="0" width="178" height="35">
<path d="M0 0.193848H177.627V34.6589H0V0.193848Z" fill="white"/>
</mask>
<g mask="url(#mask0_138_1669)">
<path d="M83.967 9.34396C83.6164 9.12779 83.2581 8.89891 82.8999 8.64968L83.967 9.34396ZM83.967 9.34396C87.1177 11.2895 90.1082 12.1542 95.5329 13.708C102.624 15.74 108.395 16.1317 110.689 16.2334C123.853 16.8285 124.501 12.5255 133.43 13.708C141.621 14.7889 139.881 18.2527 154.902 23.1915C159.707 24.7708 163.77 25.6889 169.431 28.8781C173.107 30.9507 175.874 33.0845 177.643 34.5646C108.59 34.5646 39.5303 34.5646 -29.522 34.5646C-25.7209 33.1048 -19.9735 30.7905 -13.0955 27.609C0.198196 21.4545 1.60836 19.4963 10.2726 16.2283C23.302 11.3175 23.1953 14.5854 33.6407 9.91109C44.922 4.86035 48.4055 -0.462502 55.1133 1.0634C59.0872 1.96877 61.2393 4.59586 66.4835 4.22456C70.1525 3.96261 71.024 2.5359 74.0603 2.96315C77.6836 3.46924 78.7837 5.81913 82.8999 8.64968" fill="#1C1916"/>
</g>
<mask id="mask1_138_1669" style="mask-type:luminance" maskUnits="userSpaceOnUse" x="50" y="3" width="208" height="35">
<path d="M50.4484 3.67038H257.595V37.7565H50.4484V3.67038Z" fill="white"/>
</mask>
<g mask="url(#mask1_138_1669)">
<path d="M163.935 12.4416C163.584 12.2254 163.226 11.9966 162.87 11.7473L163.935 12.4416ZM163.935 12.4416C167.085 14.3871 170.076 15.2518 175.501 16.8057C182.595 18.8377 188.362 19.2293 190.657 19.3311C203.821 19.9262 204.471 15.6231 213.4 16.8057C221.589 17.8865 219.848 21.3503 234.87 26.2892C239.675 27.8685 243.737 28.7866 249.398 31.9757C253.075 34.0484 255.842 36.1821 257.61 37.6622C188.558 37.6622 119.501 37.6622 50.4484 37.6622C54.2469 36.2025 59.9968 33.8882 66.8723 30.7067C80.166 24.5522 81.5762 22.594 90.2404 19.326C103.27 14.4151 103.163 17.6831 113.608 13.0087C124.892 7.95801 128.373 2.63515 135.081 4.16106C139.055 5.06642 141.207 7.69352 146.451 7.32222C150.123 7.06027 150.992 5.63355 154.028 6.0608C157.654 6.5669 158.752 8.91678 162.87 11.7473" fill="#1C1916"/>
</g>
<mask id="mask2_138_1669" style="mask-type:luminance" maskUnits="userSpaceOnUse" x="162" y="3" width="208" height="35">
<path d="M162.53 3.67038H369.679V37.7565H162.53V3.67038Z" fill="white"/>
</mask>
<g mask="url(#mask2_138_1669)">
<path d="M276.019 12.4416C275.668 12.2254 275.31 11.9966 274.952 11.7473L276.019 12.4416ZM276.019 12.4416C279.169 14.3871 282.16 15.2518 287.585 16.8057C294.676 18.8377 300.446 19.2293 302.741 19.3311C315.905 19.9262 316.553 15.6231 325.481 16.8057C333.673 17.8865 331.932 21.3503 346.954 26.2892C351.756 27.8685 355.821 28.7866 361.482 31.9757C365.159 34.0484 367.926 36.1821 369.694 37.6622C300.642 37.6622 231.582 37.6622 162.53 37.6622C166.331 36.2025 172.078 33.8882 178.956 30.7067C192.25 24.5522 193.66 22.594 202.324 19.326C215.354 14.4151 215.247 17.6831 225.692 13.0087C236.974 7.95801 240.457 2.63515 247.165 4.16106C251.139 5.06642 253.291 7.69352 258.535 7.32222C262.204 7.06027 263.076 5.63355 266.112 6.0608C269.735 6.5669 270.835 8.91678 274.952 11.7473" fill="#1C1916"/>
</g>
<mask id="mask3_138_1669" style="mask-type:luminance" maskUnits="userSpaceOnUse" x="309" y="3" width="78" height="35">
<path d="M309.629 3.67038H387V37.7565H309.629V3.67038Z" fill="white"/>
</mask>
<g mask="url(#mask3_138_1669)">
<path d="M423.118 12.4416C422.767 12.2254 422.409 11.9966 422.051 11.7473L423.118 12.4416ZM423.118 12.4416C426.269 14.3871 429.259 15.2518 434.684 16.8057C441.775 18.8377 447.546 19.2293 449.84 19.3311C463.004 19.9262 463.652 15.6231 472.58 16.8057C480.772 17.8865 479.032 21.3503 494.053 26.2892C498.858 27.8685 502.921 28.7866 508.582 31.9757C512.258 34.0484 515.025 36.1821 516.794 37.6622C447.741 37.6622 378.684 37.6622 309.629 37.6622C313.43 36.2025 319.177 33.8882 326.055 30.7067C339.349 24.5522 340.759 22.594 349.424 19.326C362.453 14.4151 362.346 17.6831 372.792 13.0087C384.073 7.95801 387.556 2.63515 394.264 4.16106C398.238 5.06642 400.39 7.69352 405.634 7.32222C409.306 7.06027 410.175 5.63355 413.211 6.0608C416.834 6.5669 417.935 8.91678 422.051 11.7473" fill="#1C1916"/>
</g>
</svg>
